<svg width="87" height="50" viewBox="0 0 87 50" fill="none" xmlns="http://www.w3.org/2000/svg">
<path d="M11.2874 44.4245C11.6102 44.4245 11.8848 44.3134 12.1112 44.0892C12.3376 43.8649 12.4508 43.5924 12.4508 43.2696V41.8401C12.4508 41.5173 12.3376 41.2427 12.1112 41.0163C11.8848 40.7899 11.6102 40.6767 11.2874 40.6767H1.94308V44.4245H11.2874ZM14.5678 49.9289H12.4675L10.579 46.3697H1.94308V49.9289H0V38.7337H11.2874C11.8597 38.7337 12.3795 38.8741 12.849 39.155C13.3165 39.4358 13.6917 39.811 13.9683 40.2785C14.2471 40.7459 14.3855 41.2678 14.3855 41.8401V43.2696C14.3855 43.8837 14.2178 44.4455 13.8845 44.9549C13.5512 45.4663 13.1006 45.8478 12.5346 46.1035L14.5678 49.9289Z" fill="#1C5FAB"/>
<path d="M24.1931 40.7019L27.6286 45.8541H20.7576L24.1931 40.7019ZM23.1618 38.7337L15.6997 49.9289H18.041L19.4622 47.925H28.9156L30.343 49.9289H32.678L25.2139 38.7337H23.1618Z" fill="#1C5FAB"/>
<path d="M45.3971 49.9289H36.8639C36.2917 49.9289 35.7698 49.7905 35.2982 49.5118C34.8265 49.233 34.4513 48.8599 34.1747 48.3882C33.8959 47.9166 33.7575 47.3947 33.7575 46.8225V41.8422C33.7575 41.2699 33.8959 40.7501 34.1747 40.2806C34.4534 39.811 34.8286 39.4379 35.2982 39.1571C35.7677 38.8762 36.2917 38.7358 36.8639 38.7358H45.3971C45.9694 38.7358 46.4913 38.8762 46.9629 39.1571C47.4324 39.4379 47.8076 39.8131 48.0864 40.2806C48.3652 40.748 48.5035 41.2699 48.5035 41.8422V42.1084H46.5605V41.8422C46.5605 41.5194 46.4494 41.2448 46.2251 41.0184C46.0008 40.792 45.7262 40.6788 45.3971 40.6788H36.8639C36.537 40.6788 36.2603 40.792 36.036 41.0184C35.8117 41.2448 35.7006 41.5194 35.7006 41.8422V46.8225C35.7006 47.1495 35.8117 47.4261 36.036 47.6504C36.2603 47.8747 36.5349 47.9858 36.8639 47.9858H45.3971C45.7241 47.9858 46.0008 47.8747 46.2251 47.6504C46.4494 47.4261 46.5605 47.1516 46.5605 46.8225V46.3697H48.5035V46.8225C48.5035 47.3947 48.3652 47.9166 48.0864 48.3882C47.8076 48.8599 47.4324 49.2351 46.9629 49.5118C46.4913 49.7905 45.9694 49.9289 45.3971 49.9289Z" fill="#1C5FAB"/>
<path d="M52.4295 38.7337H50.4864V49.9289H52.4295V38.7337Z" fill="#1C5FAB"/>
<path d="M67.6387 38.7337V47.3213L56.607 38.7337H54.8358V49.9289H56.7789V41.3412L67.8085 49.9289H69.5818V38.7337H67.6387Z" fill="#1C5FAB"/>
<path d="M83.5397 49.9289H75.0065C74.4343 49.9289 73.9123 49.7905 73.4407 49.5118C72.9712 49.233 72.596 48.8599 72.3172 48.3882C72.0384 47.9166 71.9001 47.3947 71.9001 46.8225V41.8422C71.9001 41.2699 72.0384 40.7501 72.3172 40.2806C72.596 39.811 72.9712 39.4379 73.4407 39.1571C73.9123 38.8762 74.4343 38.7358 75.0065 38.7358H83.5397C84.1119 38.7358 84.6338 38.8762 85.1034 39.1571C85.575 39.4379 85.9502 39.8131 86.2269 40.2806C86.5056 40.748 86.644 41.2699 86.644 41.8422V42.1084H84.7009V41.8422C84.7009 41.5194 84.5898 41.2448 84.3655 41.0184C84.1413 40.792 83.8667 40.6788 83.5376 40.6788H75.0044C74.6774 40.6788 74.4007 40.792 74.1764 41.0184C73.9522 41.2448 73.8411 41.5194 73.8411 41.8422V46.8225C73.8411 47.1495 73.9522 47.4261 74.1764 47.6504C74.4007 47.8747 74.6753 47.9858 75.0044 47.9858H83.5376C83.8646 47.9858 84.1413 47.8747 84.3655 47.6504C84.5898 47.4261 84.7009 47.1516 84.7009 46.8225V45.307H79.01V43.3639H86.644V46.8225C86.644 47.3947 86.5056 47.9166 86.2269 48.3882C85.9481 48.8599 85.5729 49.2351 85.1034 49.5118C84.6338 49.7905 84.1119 49.9289 83.5397 49.9289Z" fill="#1C5FAB"/>
<path d="M16.2049 5.77473C16.4208 5.02643 16.1189 4.65123 15.2994 4.65123H5.7894L8.76585 0H19.3427C20.571 0 21.4388 0.36472 21.9461 1.08997C22.4533 1.81731 22.5435 2.72492 22.2207 3.81698L14.5867 29.513C14.3918 30.1984 14.1067 30.7643 13.7294 31.2129C13.3521 31.6615 12.9266 32.0199 12.4508 32.2882C11.9771 32.5565 11.4656 32.743 10.9143 32.8499C10.3652 32.9568 9.8097 33.0113 9.24795 33.0113H0L8.1517 5.42049H13.5848L6.75989 28.358H8.70087C9.23957 28.358 9.5959 28.0792 9.76778 27.5238L16.2049 5.77473Z" fill="#E94E1B"/>
<path d="M31.7599 -9.53674e-07L23.7382 27.0102C23.5873 27.5028 23.5936 27.8508 23.755 28.052C23.9164 28.2553 24.2455 28.3559 24.7422 28.3559H25.9391L34.3801 -9.53674e-07H39.8152L30.1753 32.4328L23.7801 35.9018L24.6437 33.0092H22.185C21.3445 33.0092 20.6045 32.9128 19.9694 32.72C19.3322 32.5271 18.8313 32.2127 18.4665 31.7746C18.0997 31.3366 17.8838 30.7643 17.8188 30.0579C17.7539 29.3516 17.8733 28.4859 18.1752 27.4588L26.3269 -9.53674e-07H31.7599Z" fill="#E94E1B"/>
<path d="M42.7896 -9.53674e-07H48.2688L43.5337 15.5257H43.8251L50.9623 -9.53674e-07H57.02L48.9018 15.88C49.3755 15.924 49.7591 16.0519 50.0505 16.2657C50.3397 16.4795 50.5514 16.7478 50.6814 17.0685C50.8113 17.3892 50.8637 17.7581 50.8428 18.1752C50.8218 18.5923 50.7464 19.0262 50.6164 19.4748L46.573 33.0134H41.1064L45.0198 19.9254C45.1498 19.4978 45.1603 19.1708 45.0513 18.9466C44.9423 18.7223 44.653 18.6091 44.1793 18.6091H37.258L42.7896 -9.53674e-07ZM38.4234 33.0092H32.9904L37.0337 19.3763H42.5003L38.4234 33.0092Z" fill="#E94E1B"/>
<path d="M69.2779 13.8258L72.5771 2.75845C72.749 2.17993 72.9754 1.71041 73.2563 1.34779C73.5371 0.985162 73.8537 0.700093 74.21 0.496773C74.5663 0.293452 74.9478 0.159302 75.3586 0.0964192C75.7674 0.0314404 76.1782 -9.53674e-07 76.587 -9.53674e-07H86.6461L83.961 9.11171L78.4944 10.3295L80.3054 4.26764H78.268C77.9662 4.26764 77.744 4.31585 77.6056 4.41227C77.4652 4.50869 77.352 4.70572 77.2661 5.00546L74.6795 13.8279H69.2779V13.8258ZM77.8823 14.5972C78.507 14.5972 79.0624 14.6831 79.5487 14.8529C80.0329 15.0248 80.4207 15.2973 80.7121 15.6704C81.0034 16.0456 81.1753 16.5214 81.2298 17.0978C81.2822 17.6742 81.1921 18.3701 80.9552 19.1834L77.656 30.3158C77.482 30.8943 77.2409 31.3575 76.9286 31.7118C76.6142 32.0639 76.2704 32.3364 75.8931 32.5292C75.5159 32.7221 75.1176 32.8499 74.6963 32.9149C74.275 32.9799 73.8599 33.0113 73.4512 33.0113H67.0791C66.1526 33.0113 65.4337 32.6802 64.9285 32.0178C64.4212 31.3554 64.3311 30.4876 64.6539 29.4186L66.2721 23.8996H71.527L70.2169 27.7166C70.131 27.9954 70.1519 28.1715 70.2819 28.2448C70.4119 28.3203 70.5733 28.358 70.7661 28.358H71.9944C72.2963 28.358 72.5226 28.3098 72.6735 28.2134C72.8245 28.117 72.9439 27.9199 73.0299 27.6202L75.6165 19.0556C75.6584 18.9277 75.6647 18.8208 75.6332 18.7349C75.6018 18.6489 75.476 18.607 75.2622 18.607H67.8546L69.0515 14.5972H77.8823Z" fill="#E94E1B"/>
<path d="M58.4746 5.42259L50.2915 33.0113H60.2542L62.8261 28.3601H57.1184L59.9943 18.6091H65.2345L66.6263 13.8614H61.4196L63.9098 5.42468H58.4746V5.42259ZM59.0909 -9.53674e-07L56.1165 4.65122H69.3135L70.6697 -9.53674e-07H59.0909Z" fill="#E94E1B"/>
</svg>
