<svg width="40" height="40" viewBox="0 0 40 40" fill="none" xmlns="http://www.w3.org/2000/svg">
<path d="M0 40C0.318534 38.839 0.618182 37.7475 0.917201 36.6567C1.52091 34.4549 2.1309 32.2551 2.7195 30.0495C2.76923 29.8628 2.73838 29.6066 2.64522 29.4368C0.732754 25.9606 -0.127791 22.2338 0.234809 18.3021C0.859916 11.5264 4.14157 6.32158 9.97968 2.77335C13.5062 0.629881 17.3891 -0.261719 21.4973 0.0659733C28.0052 0.584768 33.1074 3.60606 36.7435 8.98824C39.2798 12.7426 40.2706 16.9431 39.9376 21.4406C39.3043 29.9819 32.8782 37.3321 24.4516 39.1786C19.6994 40.2199 15.1593 39.6028 10.8289 37.4016C10.6759 37.3239 10.4531 37.2995 10.2869 37.3421C7.01782 38.183 3.7519 39.037 0.485355 39.8878C0.351898 39.9229 0.216553 39.9499 0 40ZM4.80886 35.2619C4.90769 35.2406 4.95805 35.2319 5.00715 35.2187C6.86296 34.7375 8.72191 34.2657 10.5727 33.7657C10.929 33.6692 11.199 33.7243 11.5069 33.9086C14.7709 35.8628 18.3094 36.6209 22.084 36.1742C25.4374 35.7776 28.3854 34.4311 30.9469 32.235C36.0831 27.8309 37.993 20.4205 35.6009 14.133C32.6346 6.33537 24.6669 2.00957 16.4813 3.78024C9.466 5.29778 3.90991 11.4174 3.5599 19.1311C3.41889 22.247 4.13716 25.1793 5.66877 27.908C5.93065 28.3747 6.34739 28.8259 6.40341 29.3171C6.4607 29.814 6.1579 30.3516 6.015 30.8716C5.61652 32.3208 5.21867 33.7707 4.80886 35.2619Z" fill="#E94E1B"/>
<path d="M10 15.7674C10.0311 14.1016 10.6643 12.7269 11.8087 11.5764C12.1924 11.1904 12.6421 10.9884 13.1807 11.0005C13.4699 11.0069 13.761 11.0426 14.0477 11.0184C14.5397 10.9769 14.8414 11.2318 15.0167 11.6509C15.5952 13.0352 16.1736 14.4201 16.7047 15.8241C16.7918 16.0541 16.7178 16.4293 16.5828 16.651C16.2339 17.2231 15.829 17.7626 15.4092 18.2837C15.1138 18.65 15.0696 18.9647 15.3165 19.3852C16.9175 22.1117 19.126 24.1024 22.025 25.2739C22.4878 25.4612 22.7347 25.4128 23.045 25.0268C23.5438 24.4063 24.0439 23.7858 24.5185 23.1462C24.7797 22.7939 25.0894 22.6385 25.4813 22.8264C26.9 23.5068 28.3137 24.1973 29.7156 24.9121C29.8592 24.9853 29.9892 25.2421 29.9955 25.4185C30.0502 26.9181 29.6179 28.1692 28.3143 29.0394C26.691 30.123 24.9874 30.2129 23.1763 29.6911C18.5308 28.3533 15.0845 25.3752 12.3149 21.4479C11.3994 20.149 10.566 18.8112 10.2115 17.2256C10.1045 16.7485 10.0684 16.2541 10 15.7674Z" fill="#E94E1B"/>
</svg>
