<svg width="67" height="67" viewBox="0 0 67 67" fill="none" xmlns="http://www.w3.org/2000/svg">
<path d="M16.5534 0C27.5857 0 38.6131 0 49.6454 0C49.8317 0.0441292 50.0131 0.107873 50.1994 0.13239C51.9548 0.362842 53.6562 0.799228 55.2596 1.53962C60.7218 4.06969 64.2325 8.23745 65.6937 14.0919C65.8947 14.901 66.0271 15.7247 66.1889 16.5435C66.1889 27.5758 66.1889 38.6032 66.1889 49.6355C66.081 50.2239 65.983 50.8172 65.8653 51.4007C64.1197 60.0647 56.6815 66.1693 47.8312 66.1742C38.01 66.184 28.1888 66.1889 18.3676 66.1644C17.1908 66.1595 15.9944 66.0712 14.8372 65.8555C7.63927 64.512 1.89266 58.8634 0.402077 51.6557C0.137302 50.3808 0.0196397 49.052 0.0196397 47.7478C-0.00977976 37.9707 0.00984399 28.1887 3.75037e-05 18.4117C-0.00486574 15.7688 0.470744 13.224 1.58868 10.8362C4.11876 5.41809 8.28159 1.93678 14.1017 0.490324C14.9108 0.299098 15.7345 0.16671 16.5534 0ZM5.93786 33.0969C5.92805 33.0969 5.91825 33.0969 5.90844 33.0969C5.90844 37.9021 5.91334 42.7072 5.90353 47.5075C5.90353 48.9785 6.06535 50.42 6.52625 51.8273C8.10019 56.6128 12.7484 60.3344 18.549 60.3001C28.2427 60.2412 37.9364 60.3099 47.6301 60.256C49.0275 60.2461 50.4789 60.0402 51.8077 59.6283C56.6325 58.1279 60.3246 53.4454 60.2903 47.6399C60.2315 37.9462 60.3001 28.2525 60.2462 18.5588C60.2364 17.1613 60.0304 15.71 59.6186 14.3812C58.1133 9.54171 53.4159 5.86428 47.6301 5.8986C37.9364 5.95744 28.2427 5.92312 18.549 5.90841C16.47 5.90351 14.4695 6.27125 12.6406 7.26661C8.53166 9.50739 6.11437 12.9495 5.96728 17.6566C5.81528 22.7952 5.93786 27.9485 5.93786 33.0969Z" fill="white"/>
<path d="M33.1116 50.1549C23.7022 50.1598 16.0287 42.4862 16.0385 33.0769C16.0483 23.6921 23.7022 16.043 33.087 16.0332C42.4964 16.0283 50.1699 23.7019 50.1601 33.1112C50.1503 42.496 42.4964 50.15 33.1116 50.1549ZM44.2419 33.0818C44.2321 26.8939 39.2455 21.9318 33.0674 21.9514C26.8991 21.9759 21.9665 26.9086 21.9518 33.0769C21.9371 39.2599 26.9041 44.2367 33.092 44.2416C39.2798 44.2416 44.2517 39.2648 44.2419 33.0818Z" fill="white"/>
<path d="M50.881 19.6669C48.5029 19.6718 46.5563 17.7399 46.5514 15.3765C46.5465 13.0279 48.5078 11.0568 50.8614 11.047C53.1953 11.0322 55.186 13.0083 55.1958 15.3569C55.2056 17.7154 53.2541 19.662 50.881 19.6669Z" fill="white"/>
</svg>
