<svg width="57" height="66" viewBox="0 0 57 66" fill="none" xmlns="http://www.w3.org/2000/svg">
<path d="M19.2502 65.1999C17.9633 64.9878 16.6593 64.8469 15.3927 64.5515C7.6132 62.737 1.42249 56.0338 0.232164 48.1882C-1.32272 37.9459 5.0562 28.2179 15.0587 25.6055C17.6174 24.9367 20.2201 24.7568 22.8517 25.0759C23.1383 25.1098 23.4283 25.1115 23.4266 25.5648C23.4096 28.9528 23.413 32.3392 23.4096 35.7273C23.4096 35.7664 23.3842 35.8054 23.357 35.8835C22.75 35.7765 22.1413 35.6526 21.5258 35.5644C16.7289 34.8769 11.9709 38.2259 10.9977 42.9652C9.88025 48.4072 13.28 53.4673 18.745 54.4976C24.3235 55.55 29.8597 51.1197 29.914 45.4384C29.9869 37.6896 29.9513 29.9408 29.9564 22.1903C29.9615 15.1391 29.9581 8.08963 29.9581 1.03847C29.9581 0.770279 29.9581 0.502084 29.9581 0.198242C33.5257 0.198242 37.0051 0.198242 40.4421 0.198242C41.5697 10.0977 47.0313 15.5465 57.0033 16.5836C57.0033 19.9564 57.0033 23.4379 57.0033 27.0059C54.063 27.0364 51.2008 26.5493 48.4065 25.6123C45.6222 24.6787 43.0686 23.3055 40.5981 21.4519C40.5981 21.81 40.5981 22.0477 40.5981 22.2853C40.6252 29.7388 40.6626 37.1905 40.6795 44.644C40.7015 54.3329 34.443 62.3262 25.0255 64.6126C23.8437 64.8995 22.6178 65.0081 21.4122 65.1982C20.6898 65.1999 19.9709 65.1999 19.2502 65.1999Z" fill="white"/>
</svg>
