<svg width="65" height="65" viewBox="0 0 65 65" fill="none" xmlns="http://www.w3.org/2000/svg">
<path d="M0 64.7262C0.513022 62.8475 0.995627 61.0813 1.47722 59.3161C2.44953 55.7534 3.43197 52.1937 4.37995 48.6248C4.46004 48.3227 4.41036 47.908 4.26031 47.6332C1.18015 42.0082 -0.205817 35.9777 0.378176 29.6156C1.38496 18.6516 6.67029 10.2293 16.073 4.48772C21.7527 1.01924 28.0063 -0.423502 34.6229 0.106755C45.1043 0.946245 53.3218 5.83516 59.1779 14.5444C63.2629 20.6195 64.8587 27.4165 64.3223 34.6941C63.3024 48.5153 52.9527 60.4091 39.381 63.397C31.7272 65.082 24.4152 64.0834 17.4407 60.5216C17.1943 60.3959 16.8354 60.3564 16.5678 60.4253C11.3027 61.7859 6.0427 63.1678 0.781699 64.5447C0.566757 64.6015 0.348774 64.6451 0 64.7262ZM7.745 57.0592C7.90418 57.0248 7.98529 57.0106 8.06437 56.9893C11.0533 56.2106 14.0473 55.4472 17.0281 54.6381C17.6019 54.482 18.0369 54.5712 18.5326 54.8693C23.7896 58.0316 29.4886 59.2583 35.5678 58.5354C40.9687 57.8937 45.7167 55.7148 49.8422 52.1612C58.1144 45.0347 61.1905 33.0435 57.3378 22.8693C52.5604 10.2516 39.7277 3.2518 26.5443 6.11702C15.2457 8.57262 6.29719 18.4752 5.73347 30.957C5.50636 35.999 6.6632 40.7439 9.12996 45.1594C9.55173 45.9147 10.2229 46.6447 10.3132 47.4396C10.4054 48.2436 9.91774 49.1135 9.68759 49.955C9.04581 52.3001 8.40504 54.6462 7.745 57.0592Z" fill="white"/>
<path d="M15.9817 24.8552C16.0324 22.2039 17.0645 20.016 18.93 18.1849C19.5556 17.5705 20.2886 17.2491 21.1667 17.2684C21.6381 17.2785 22.1126 17.3353 22.58 17.2968C23.382 17.2309 23.8737 17.6364 24.1596 18.3036C25.1025 20.5067 26.0454 22.7109 26.9113 24.9455C27.0532 25.3115 26.9326 25.9087 26.7126 26.2615C26.1438 27.1719 25.4837 28.0307 24.7994 28.86C24.3178 29.443 24.2458 29.9439 24.6483 30.613C27.258 34.9524 30.8583 38.1208 35.584 39.9853C36.3383 40.2834 36.7408 40.2063 37.2467 39.5919C38.0599 38.6044 38.875 37.6169 39.6486 36.599C40.0744 36.0383 40.5793 35.7909 41.2181 36.09C43.5307 37.1728 45.8353 38.2719 48.1206 39.4094C48.3548 39.526 48.5667 39.9346 48.5768 40.2155C48.666 42.6021 47.9614 44.5934 45.8363 45.9783C43.1901 47.7029 40.4131 47.8459 37.4607 47.0155C29.888 44.8864 24.2701 40.1465 19.7553 33.896C18.2629 31.8287 16.9043 29.6995 16.3264 27.176C16.152 26.4166 16.0932 25.6298 15.9817 24.8552Z" fill="white"/>
</svg>
