<svg width="13" height="20" viewBox="0 0 13 20" fill="none" xmlns="http://www.w3.org/2000/svg">
<path d="M6.6733 10.015C5.5845 11.0743 4.50384 12.1304 3.4183 13.1803C2.55898 14.0111 1.68664 14.8294 0.833834 15.6649C-0.254961 16.7335 -0.277747 18.2856 0.767106 19.2823C1.78917 20.2571 3.39877 20.243 4.47455 19.215C7.03785 16.7633 9.5914 14.3037 12.1368 11.8362C13.2923 10.716 13.2874 9.27182 12.1238 8.14372C9.59302 5.68882 7.0525 3.24331 4.50547 0.805614C3.40528 -0.245815 1.77453 -0.264593 0.749204 0.728947C-0.27612 1.72248 -0.233804 3.28242 0.858247 4.3495C2.77707 6.22705 4.70565 8.09991 6.6733 10.015Z" fill="#1C5FAB"/>
</svg>
