<svg width="27" height="26" viewBox="0 0 27 26" fill="none" xmlns="http://www.w3.org/2000/svg">
<path d="M0.499637 12.9949C0.504762 5.84512 6.3469 0.00342725 13.4962 3.2466e-06C20.6532 -0.00342076 26.5184 5.86994 26.5005 13.0205C26.4825 20.1728 20.6302 26.0094 13.4868 26C6.3375 25.9906 0.494511 20.1395 0.499637 12.9949ZM13.4894 12.2184C14.5351 13.2534 15.5578 14.2678 16.5839 15.2788C17.1666 15.8532 18.0184 15.8755 18.5609 15.3362C19.1043 14.7968 19.094 13.9382 18.519 13.3604C17.1879 12.0198 15.8525 10.6835 14.5121 9.35322C13.8961 8.74114 13.1075 8.73857 12.4958 9.34637C11.1476 10.6844 9.80451 12.0284 8.46658 13.3767C7.90526 13.9417 7.89757 14.7891 8.42984 15.3267C8.97407 15.8755 9.8216 15.8643 10.4051 15.2916C10.8622 14.8431 11.3082 14.3834 11.7619 13.9322C12.3343 13.3595 12.9101 12.792 13.4894 12.2184Z" fill="#E94E1A"/>
<path d="M13.4893 12.2184C12.9109 12.7911 12.3342 13.3595 11.7609 13.9305C11.3072 14.3825 10.8604 14.8414 10.4042 15.2899C9.82064 15.8626 8.97311 15.8746 8.42888 15.325C7.89661 14.7874 7.9043 13.9408 8.46562 13.3749C9.80441 12.0267 11.1475 10.6835 12.4948 9.34465C13.1065 8.73685 13.8951 8.73942 14.5111 9.3515C15.8516 10.6827 17.187 12.019 18.5181 13.3587C19.0922 13.9374 19.1024 14.7951 18.5599 15.3344C18.0174 15.8738 17.1656 15.8515 16.5829 15.2771C15.5577 14.2678 14.535 13.2534 13.4893 12.2184Z" fill="black"/>
</svg>
