<svg width="45" height="45" viewBox="0 0 45 45" fill="none" xmlns="http://www.w3.org/2000/svg">
<path d="M4.84934e-06 22.4918C0.00887626 10.1177 10.1199 0.00739626 22.4934 0.00146768C34.8801 -0.00445709 45.0311 10.1607 45 22.5363C44.969 34.9149 34.8401 45.0163 22.4771 45C10.1037 44.9837 -0.00886656 34.8571 4.84934e-06 22.4918ZM22.4815 21.148C24.2914 22.9393 26.0614 24.6949 27.8372 26.4447C28.8457 27.4388 30.3199 27.4773 31.2588 26.544C32.1993 25.6106 32.1815 24.1245 31.1864 23.1245C28.8826 20.8043 26.5715 18.4916 24.2515 16.1892C23.1854 15.1299 21.8206 15.1254 20.7618 16.1773C18.4285 18.4931 16.1041 20.8191 13.7885 23.1526C12.817 24.1305 12.8037 25.5972 13.7249 26.5277C14.6668 27.4773 16.1336 27.4581 17.1436 26.4669C17.9346 25.6906 18.7065 24.895 19.4917 24.1142C20.4824 23.123 21.479 22.1407 22.4815 21.148Z" fill="#E94E1A"/>
<path d="M22.4815 21.1482C21.4805 22.1393 20.4824 23.1231 19.4902 24.1113C18.705 24.8936 17.9317 25.6877 17.1421 26.4641C16.1322 27.4552 14.6653 27.476 13.7234 26.5248C12.8022 25.5944 12.8155 24.1291 13.787 23.1498C16.1041 20.8163 18.4285 18.4917 20.7604 16.1745C21.8191 15.1226 23.1839 15.127 24.25 16.1864C26.57 18.4902 28.8811 20.803 31.1849 23.1216C32.1786 24.1232 32.1963 25.6077 31.2574 26.5411C30.3184 27.4745 28.8442 27.436 27.8357 26.4418C26.0613 24.6951 24.2914 22.9394 22.4815 21.1482Z" fill="black"/>
</svg>
