<svg width="25" height="25" viewBox="0 0 25 25" fill="none" xmlns="http://www.w3.org/2000/svg">
<path d="M0 25C0.199084 24.2744 0.386364 23.5922 0.573251 22.9104C0.950566 21.5343 1.33182 20.1594 1.69969 18.781C1.73077 18.6643 1.71149 18.5041 1.65326 18.398C0.457971 16.2254 -0.0798696 13.8961 0.146755 11.4388C0.537447 7.20403 2.58848 3.95099 6.2373 1.73335C8.44139 0.393675 10.8682 -0.163575 13.4358 0.0412333C17.5032 0.36548 20.6921 2.25379 22.9647 5.61765C24.5499 7.96413 25.1691 10.5894 24.961 13.4004C24.5652 18.7387 20.5489 23.3326 15.2822 24.4866C12.3121 25.1375 9.47458 24.7517 6.76806 23.376C6.67245 23.3275 6.53317 23.3122 6.4293 23.3388C4.38614 23.8644 2.34494 24.3981 0.303347 24.9299C0.219936 24.9518 0.135345 24.9687 0 25ZM3.00553 22.0387C3.06731 22.0254 3.09878 22.0199 3.12947 22.0117C4.28935 21.7109 5.4512 21.4161 6.60793 21.1036C6.83062 21.0433 6.99941 21.0777 7.1918 21.1928C9.23182 22.4143 11.4434 22.8881 13.8025 22.6089C15.8984 22.361 17.7409 21.5194 19.3418 20.1469C22.5519 17.3943 23.7457 12.7628 22.2506 8.8331C20.3966 3.95961 15.4168 1.25598 10.3008 2.36265C5.91625 3.31111 2.44369 7.13589 2.22494 11.9569C2.13681 13.9043 2.58573 15.737 3.54298 17.4425C3.70666 17.7342 3.96712 18.0162 4.00213 18.3232C4.03794 18.6337 3.84869 18.9697 3.75938 19.2948C3.51033 20.2005 3.26167 21.1067 3.00553 22.0387Z" fill="#E94E1B"/>
<path d="M6 10.011C6.02021 8.95891 6.43177 8.09066 7.17563 7.36404C7.42507 7.12022 7.71736 6.99268 8.06746 7.00032C8.25545 7.00435 8.44465 7.02688 8.63102 7.01159C8.9508 6.98544 9.14688 7.14637 9.26088 7.41111C9.63686 8.28539 10.0128 9.16007 10.3581 10.0468C10.4147 10.1921 10.3666 10.429 10.2788 10.5691C10.0521 10.9304 9.78887 11.2711 9.51598 11.6003C9.32395 11.8316 9.29525 12.0304 9.45574 12.2959C10.4963 14.0179 11.9319 15.2752 13.8163 16.0151C14.117 16.1334 14.2775 16.1028 14.4793 15.859C14.8035 15.4671 15.1285 15.0752 15.437 14.6713C15.6068 14.4488 15.8081 14.3506 16.0628 14.4693C16.985 14.899 17.9039 15.3352 18.8151 15.7866C18.9085 15.8328 18.993 15.995 18.997 16.1064C19.0326 17.0535 18.7516 17.8437 17.9043 18.3933C16.8491 19.0777 15.7418 19.1344 14.5646 18.8049C11.545 17.96 9.30495 16.0791 7.50471 13.5987C6.90962 12.7783 6.36789 11.9334 6.13745 10.932C6.06792 10.6306 6.04447 10.3184 6 10.011Z" fill="#E94E1B"/>
</svg>
