<svg width="76" height="67" viewBox="0 0 76 67" fill="none" xmlns="http://www.w3.org/2000/svg">
<g clip-path="url(#clip0_1_96)">
<path d="M76.0046 11.7629C75.3621 13.9395 74.7017 16.1101 74.0785 18.2927C71.7806 26.3501 69.4961 34.4105 67.2027 42.4695C66.7119 44.194 66.0738 44.6684 64.2786 44.6684C51.2186 44.6684 38.157 44.6669 25.097 44.6744C24.6567 44.6744 24.2001 44.7087 23.7822 44.8295C22.9032 45.0832 22.2711 46.0096 22.2785 46.9181C22.286 47.8341 22.9225 48.7352 23.8119 48.9813C24.2328 49.0977 24.688 49.1305 25.1282 49.1305C38.3132 49.138 51.4967 49.135 64.6817 49.138C66.4665 49.138 67.5998 50.6969 66.9261 52.238C66.5453 53.1093 65.8596 53.5866 64.8959 53.5971C63.8369 53.609 62.7765 53.6001 61.6059 53.6001C65.9132 55.3619 67.7099 58.1338 66.9498 61.7216C66.2776 64.8978 63.355 67.14 60.077 66.9923C56.8748 66.8491 54.2081 64.3697 53.7901 61.1189C53.4138 58.1964 55.0618 54.7055 59.3095 53.6523C49.4874 53.6523 39.8719 53.6523 30.2564 53.6523C32.0472 54.1252 33.533 55.077 34.5488 56.6509C35.5602 58.2173 35.874 59.9493 35.468 61.7783C34.7779 64.8858 31.9594 67.0699 28.7721 66.9968C25.6696 66.9252 22.9523 64.6143 22.396 61.5739C21.7401 57.9935 23.5055 55.3291 27.7652 53.6001C26.6423 53.6001 25.6324 53.606 24.6225 53.5986C21.3951 53.5777 18.7908 51.5622 17.9951 48.4726C17.2336 45.5158 18.6539 42.453 21.4977 40.9165C21.5839 40.8702 21.6657 40.815 21.8175 40.7225C19.1462 28.6655 16.4706 16.5845 13.7845 4.46335C11.8436 4.46335 9.94278 4.46335 8.04051 4.46335C6.13527 4.46335 4.23151 4.46932 2.32627 4.46037C0.956456 4.45888 -0.00434561 3.51454 0.00457825 2.21068C0.0135021 0.942612 0.971329 0.00722855 2.2995 0.00424488C6.65285 -0.00321432 11.0062 -0.00172248 15.3596 0.00275304C16.7026 0.00424488 17.5028 0.609932 17.8077 1.91827C18.3461 4.22615 18.8458 6.54298 19.3798 8.9344C19.7084 8.9344 20.0238 8.9344 20.3376 8.9344C37.9503 8.9344 55.5615 8.94484 73.1742 8.915C74.5173 8.91351 75.4617 9.32973 76.0046 10.5709C76.0046 10.9693 76.0046 11.3661 76.0046 11.7629ZM70.8005 13.4293C53.9582 13.4293 37.1933 13.4293 20.3703 13.4293C22.3514 22.3684 24.3221 31.2672 26.2913 40.1511C38.63 40.1511 50.9107 40.1511 63.1884 40.1511C65.7258 31.2404 68.2512 22.3759 70.8005 13.4293ZM29.0086 58.0786C27.8411 58.0338 26.7628 59.0677 26.7315 60.2611C26.7018 61.4069 27.6789 62.4512 28.8524 62.5228C30.0125 62.5944 31.1042 61.5829 31.1652 60.3805C31.2232 59.2139 30.2029 58.1248 29.0086 58.0786ZM62.6352 60.2716C62.6114 59.0811 61.539 58.0413 60.3685 58.0786C59.2054 58.1144 58.2045 59.1378 58.2 60.2954C58.1955 61.4785 59.2515 62.5347 60.4295 62.5257C61.6149 62.5183 62.659 61.4501 62.6352 60.2716Z" fill="#E94E1A"/>
</g>
<defs>
<clipPath id="clip0_1_96">
<rect width="76" height="67" fill="white" transform="translate(0.00463867)"/>
</clipPath>
</defs>
</svg>
