<svg width="15" height="27" viewBox="0 0 15 27" fill="none" xmlns="http://www.w3.org/2000/svg">
<path d="M7.69996 13.0803C6.44365 11.6927 5.19674 10.3092 3.94419 8.93385C2.95267 7.84548 1.94613 6.77351 0.962117 5.67899C-0.294186 4.27907 -0.320477 2.24581 0.885123 0.940175C2.06443 -0.336763 3.92166 -0.318316 5.16294 1.02831C8.1206 4.24013 11.067 7.46219 14.004 10.6945C15.3373 12.1621 15.3317 14.0539 13.989 15.5317C11.0689 18.7476 8.1375 21.9512 5.19862 25.1446C3.92917 26.522 2.04753 26.5466 0.864466 25.245C-0.318599 23.9435 -0.269773 21.9 0.990285 20.5021C3.20431 18.0425 5.4296 15.5891 7.69996 13.0803Z" fill="#E94E1B"/>
</svg>
