<svg width="80" height="65" viewBox="0 0 80 65" fill="none" xmlns="http://www.w3.org/2000/svg">
<path d="M40.0151 65C34.834 64.9304 29.6623 64.6984 24.6882 63.0927C23.0534 62.5637 21.5 61.7261 19.9932 60.8815C18.8537 60.2435 18.4863 59.1413 18.6886 57.8165C19.4188 53.0344 19.9094 48.2083 20.8582 43.4726C22.4372 35.6023 29.6972 29.8155 37.7524 29.732C40.6499 29.7018 43.5614 29.5325 46.4216 30.2865C53.356 32.1126 58.5278 37.9388 59.53 45.0945C60.1207 49.3104 60.6974 53.5309 61.3416 57.7399C61.5694 59.2272 61.0299 60.2667 59.844 61.0741C57.8906 62.4036 55.6884 63.1113 53.4235 63.6589C49.0145 64.7216 44.5218 64.935 40.0151 65Z" fill="#E94E1B"/>
<path d="M40.0058 27.8433C32.2807 27.8433 26.0462 21.618 26.0532 13.9125C26.0602 6.23703 32.3737 -0.0369603 40.0546 0.000163908C47.7285 0.0372881 53.9583 6.26951 53.9653 13.9148C53.97 21.6227 47.7355 27.8433 40.0058 27.8433Z" fill="#E94E1B"/>
<path d="M56.6465 31.7506C61.8973 28.377 69.6759 29.2703 74.5128 33.7623C77.4102 36.4561 78.8869 39.8321 79.4264 43.6838C79.552 44.5724 79.7031 45.4587 79.8984 46.3358C80.1984 47.6816 79.831 48.7837 78.8334 49.7188C76.9266 51.503 74.6035 52.5007 72.1036 52.981C69.8317 53.4172 67.5016 53.5495 65.1994 53.8395C64.5878 53.9161 64.4902 53.6098 64.4181 53.104C63.9832 50.0065 63.5507 46.9066 63.0531 43.8183C62.3508 39.4539 60.3905 35.7044 57.3209 32.5256C57.1186 32.3168 56.9186 32.1103 56.7186 31.8991C56.7 31.8806 56.693 31.8481 56.6465 31.7506Z" fill="#E94E1B"/>
<path d="M23.3441 31.7135C22.3418 32.9386 21.3047 34.0755 20.4141 35.3169C18.1817 38.4307 17.105 41.976 16.6399 45.7465C16.3329 48.2477 15.9492 50.7397 15.5563 53.2293C15.519 53.459 15.1586 53.821 14.954 53.8163C11.3333 53.7398 7.7405 53.3848 4.42909 51.7977C3.19429 51.206 2.07343 50.3359 0.992111 49.4774C0.236348 48.8788 -0.140371 47.9785 0.0479887 46.9855C0.489819 44.6536 0.754918 42.2591 1.48743 40.0201C4.43607 30.9989 15.3121 26.9152 23.3441 31.7135Z" fill="#E94E1B"/>
<path d="M15.8423 27.841C11.4682 27.8456 7.60562 25.1286 6.16618 21.0357C4.72209 16.9288 6.01736 12.4228 9.43108 9.67334C12.7681 6.98415 17.491 6.71036 21.1861 8.9471C21.7768 9.30442 21.9233 9.64782 21.7837 10.3393C20.8978 14.7408 21.5628 18.9289 23.7278 22.8617C24.0441 23.4371 24.0208 23.7921 23.5859 24.2887C21.6047 26.5602 18.877 27.8387 15.8423 27.841Z" fill="#E94E1B"/>
<path d="M63.4856 27.841C61.0044 27.7899 58.4464 26.5741 56.393 24.2446C55.9791 23.7759 55.9791 23.4255 56.2744 22.8872C58.4627 18.8987 59.144 14.6619 58.1929 10.2024C58.0511 9.53876 58.3162 9.26961 58.8068 8.96798C62.5136 6.6918 67.2551 6.98183 70.6293 9.71046C74.0058 12.4414 75.2871 16.9984 73.8291 21.0914C72.3734 25.175 68.5364 27.841 63.4856 27.841Z" fill="#E94E1B"/>
</svg>
