<svg width="982" height="917" viewBox="0 0 982 917" fill="none" xmlns="http://www.w3.org/2000/svg">
<g clip-path="url(#clip0_0_1)">
<path d="M738 660.116L577.683 915H-1V0H421.698L738 660.116Z" fill="url(#paint0_linear_0_1)"/>
<path d="M111.383 654.651C113.109 654.651 114.578 654.057 115.789 652.857C117 651.657 117.606 650.199 117.606 648.472V640.825C117.606 639.098 117 637.629 115.789 636.418C114.578 635.207 113.109 634.602 111.383 634.602H61.3946V654.651H111.383ZM128.931 684.097H117.696L107.593 665.057H61.3946V684.097H51V624.207H111.383C114.444 624.207 117.225 624.959 119.736 626.461C122.237 627.964 124.244 629.971 125.724 632.471C127.216 634.972 127.956 637.764 127.956 640.825V648.472C127.956 651.758 127.059 654.763 125.276 657.488C123.493 660.224 121.082 662.265 118.054 663.633L128.931 684.097Z" fill="#1C5FAB"/>
<path d="M180.422 634.736L198.8 662.298H162.044L180.422 634.736ZM174.905 624.207L134.986 684.097H147.511L155.114 673.377H205.685L213.321 684.097H225.813L185.883 624.207H174.905Z" fill="#1C5FAB"/>
<path d="M293.854 684.097H248.205C245.144 684.097 242.352 683.356 239.829 681.865C237.306 680.374 235.299 678.378 233.819 675.855C232.327 673.332 231.587 670.54 231.587 667.479V640.836C231.587 637.775 232.327 634.994 233.819 632.483C235.31 629.971 237.317 627.975 239.829 626.472C242.341 624.97 245.144 624.218 248.205 624.218H293.854C296.915 624.218 299.707 624.97 302.23 626.472C304.742 627.975 306.749 629.982 308.24 632.483C309.732 634.983 310.472 637.775 310.472 640.836V642.26H300.077V640.836C300.077 639.109 299.483 637.641 298.283 636.43C297.083 635.219 295.614 634.613 293.854 634.613H248.205C246.456 634.613 244.976 635.219 243.776 636.43C242.576 637.641 241.982 639.109 241.982 640.836V667.479C241.982 669.228 242.576 670.708 243.776 671.908C244.976 673.108 246.445 673.702 248.205 673.702H293.854C295.603 673.702 297.083 673.108 298.283 671.908C299.483 670.708 300.077 669.239 300.077 667.479V665.057H310.472V667.479C310.472 670.54 309.732 673.332 308.24 675.855C306.749 678.378 304.742 680.385 302.23 681.865C299.707 683.356 296.915 684.097 293.854 684.097Z" fill="#1C5FAB"/>
<path d="M331.474 624.207H321.079V684.097H331.474V624.207Z" fill="#1C5FAB"/>
<path d="M412.836 624.207V670.147L353.822 624.207H344.347V684.097H354.741V638.156L413.745 684.097H423.231V624.207H412.836Z" fill="#1C5FAB"/>
<path d="M497.899 684.097H452.25C449.189 684.097 446.397 683.356 443.874 681.865C441.362 680.374 439.355 678.378 437.864 675.855C436.373 673.332 435.633 670.54 435.633 667.479V640.836C435.633 637.775 436.373 634.994 437.864 632.483C439.355 629.971 441.362 627.975 443.874 626.472C446.397 624.97 449.189 624.218 452.25 624.218H497.899C500.96 624.218 503.752 624.97 506.264 626.472C508.787 627.975 510.794 629.982 512.274 632.483C513.766 634.983 514.506 637.775 514.506 640.836V642.26H504.111V640.836C504.111 639.109 503.517 637.641 502.317 636.43C501.117 635.219 499.648 634.613 497.888 634.613H452.239C450.49 634.613 449.01 635.219 447.81 636.43C446.61 637.641 446.016 639.109 446.016 640.836V667.479C446.016 669.228 446.61 670.708 447.81 671.908C449.01 673.108 450.479 673.702 452.239 673.702H497.888C499.637 673.702 501.117 673.108 502.317 671.908C503.517 670.708 504.111 669.239 504.111 667.479V659.372H473.668V648.977H514.506V667.479C514.506 670.54 513.766 673.332 512.274 675.855C510.783 678.378 508.776 680.385 506.264 681.865C503.752 683.356 500.96 684.097 497.899 684.097Z" fill="#1C5FAB"/>
<path d="M137.689 447.892C138.844 443.889 137.229 441.882 132.845 441.882H81.9706L97.8933 417H154.475C161.046 417 165.688 418.951 168.401 422.831C171.115 426.722 171.597 431.577 169.87 437.419L129.032 574.881C127.989 578.548 126.464 581.575 124.446 583.975C122.428 586.374 120.151 588.292 117.606 589.727C115.072 591.162 112.336 592.16 109.387 592.732C106.449 593.304 103.477 593.596 100.472 593.596H51L94.6078 445.997H123.672L87.1623 568.702H97.5457C100.427 568.702 102.334 567.211 103.253 564.24L137.689 447.892Z" fill="#E94E1B"/>
<path d="M220.901 417L177.989 561.492C177.181 564.127 177.215 565.989 178.078 567.065C178.942 568.153 180.702 568.691 183.36 568.691H189.762L234.918 417H263.993L212.424 590.501L178.213 609.058L182.833 593.584H169.68C165.183 593.584 161.225 593.068 157.827 592.037C154.419 591.005 151.739 589.323 149.788 586.98C147.825 584.636 146.67 581.575 146.323 577.796C145.975 574.017 146.614 569.386 148.229 563.892L191.837 417H220.901Z" fill="#E94E1B"/>
<path d="M279.905 417H309.216L283.885 500.056H285.444L323.625 417H356.031L312.602 501.951C315.136 502.186 317.188 502.87 318.747 504.014C320.294 505.158 321.427 506.593 322.122 508.308C322.817 510.024 323.098 511.998 322.986 514.229C322.874 516.46 322.47 518.782 321.775 521.181L300.145 593.607H270.901L291.836 523.592C292.531 521.304 292.587 519.555 292.004 518.355C291.421 517.156 289.873 516.55 287.339 516.55H250.313L279.905 417ZM256.548 593.584H227.483L249.114 520.654H278.357L256.548 593.584Z" fill="#E94E1B"/>
<path d="M421.605 490.962L439.254 431.756C440.174 428.662 441.385 426.15 442.887 424.21C444.39 422.27 446.083 420.745 447.989 419.658C449.896 418.57 451.936 417.852 454.134 417.516C456.321 417.168 458.519 417 460.705 417H514.517L500.153 465.743L470.909 472.258L480.597 439.83H469.698C468.083 439.83 466.895 440.088 466.155 440.604C465.403 441.119 464.798 442.173 464.338 443.777L450.501 490.973H421.605V490.962ZM467.635 495.088C470.976 495.088 473.948 495.548 476.549 496.456C479.14 497.376 481.214 498.833 482.773 500.829C484.331 502.836 485.251 505.382 485.542 508.465C485.823 511.549 485.34 515.272 484.073 519.623L466.424 579.175C465.493 582.27 464.204 584.748 462.533 586.643C460.851 588.527 459.012 589.985 456.994 591.016C454.975 592.048 452.845 592.732 450.591 593.08C448.337 593.427 446.117 593.596 443.93 593.596H409.842C404.886 593.596 401.04 591.824 398.338 588.28C395.624 584.737 395.142 580.095 396.869 574.376L405.525 544.852H433.637L426.628 565.271C426.169 566.762 426.281 567.704 426.976 568.097C427.671 568.501 428.535 568.702 429.566 568.702H436.137C437.752 568.702 438.963 568.444 439.77 567.929C440.578 567.413 441.217 566.359 441.676 564.755L455.513 518.939C455.738 518.255 455.771 517.683 455.603 517.223C455.435 516.763 454.762 516.539 453.618 516.539H413.991L420.394 495.088H467.635Z" fill="#E94E1B"/>
<path d="M363.812 446.008L320.036 593.596H373.332L387.091 568.714H356.558L371.942 516.55H399.975L407.42 491.152H379.567L392.888 446.02H363.812V446.008ZM367.109 417L351.198 441.882H421.795L429.05 417H367.109Z" fill="#E94E1B"/>
</g>
<g clip-path="url(#clip1_0_1)">
<path d="M849.177 660.116L690.645 915H574.247L732.778 660.116L420 0H536.399L849.177 660.116Z" fill="#1C5FAB"/>
<path d="M982 660.116L823.469 915H707.07L865.601 660.116L709.108 329.849H825.507L982 660.116Z" fill="#E94E1B"/>
</g>
<path d="M537.5 913.5L698 657L458 160" stroke="white" stroke-width="10"/>
<defs>
<linearGradient id="paint0_linear_0_1" x1="368.5" y1="0" x2="368.5" y2="915" gradientUnits="userSpaceOnUse">
<stop stop-color="#343434"/>
<stop offset="1"/>
</linearGradient>
<clipPath id="clip0_0_1">
<rect width="739" height="915" fill="white" transform="translate(-1)"/>
</clipPath>
<clipPath id="clip1_0_1">
<rect width="562" height="915" fill="white" transform="translate(420)"/>
</clipPath>
</defs>
</svg>
