<svg width="982" height="917" viewBox="0 0 982 917" fill="none" xmlns="http://www.w3.org/2000/svg">
<g clip-path="url(#clip0_0_1)">
<path d="M738 660.116L577.683 915H-1V0H421.698L738 660.116Z" fill="url(#paint0_linear_0_1)"/>
<path d="M110.298 397.83C122.178 397.83 130.098 407.55 128.058 419.43L121.338 457.23C119.298 469.11 107.898 478.83 96.0184 478.83H55.4584L69.7384 397.83H110.298ZM105.498 456.99L111.978 419.79C112.578 416.43 110.418 413.79 107.058 413.79H82.6984L75.3784 455.07L66.2584 462.99H98.4184C101.778 462.99 104.898 460.23 105.498 456.99ZM203.332 397.83L192.772 457.23C190.732 469.11 179.332 478.83 167.452 478.83H150.652C138.772 478.83 130.732 469.11 132.772 457.23L143.332 397.83H159.172L148.732 456.99C148.132 460.23 150.412 462.99 153.652 462.99H169.852C173.212 462.99 176.332 460.23 176.932 456.99L187.372 397.83H203.332ZM214.699 397.83H230.539L216.259 478.83H200.419L214.699 397.83ZM281.059 397.83L243.259 438.39L266.779 478.83H246.859L223.339 438.39L261.139 397.83H281.059ZM303.952 430.35H336.472L333.592 446.31H293.032L291.232 456.99C290.632 460.23 292.912 462.99 296.152 462.99H330.712L327.952 478.83H293.152C281.272 478.83 273.232 469.11 275.272 457.23L281.992 419.43C284.032 407.55 295.552 397.83 307.432 397.83H342.232L334.552 413.79H304.792C301.552 413.79 298.312 416.43 297.712 419.79L294.472 438.39L303.952 430.35ZM410.084 451.95L409.124 457.23C407.084 469.11 395.684 478.83 383.804 478.83H339.404L346.964 462.99H386.204C389.564 462.99 392.684 460.23 393.284 456.99L394.004 452.31C394.604 448.95 392.444 446.31 389.084 446.31H366.644C354.764 446.31 346.844 436.59 348.884 424.71L349.844 419.43C351.884 407.55 363.404 397.83 375.284 397.83H413.684L406.004 413.79H372.644C369.404 413.79 366.164 416.43 365.564 419.79L364.844 424.35C364.244 427.71 366.524 430.35 369.764 430.35H392.324C404.204 430.35 412.124 440.07 410.084 451.95Z" fill="white"/>
<path d="M141.838 553.469C141.838 553.609 141.838 553.749 141.838 553.889V553.469ZM144.638 537.369C144.638 537.509 144.638 537.649 144.638 537.789V537.369ZM135.398 607.089H113.978L102.498 578.669H86.1184L95.0784 560.049H115.098C119.018 560.049 122.658 556.969 123.358 553.049L125.878 538.209C126.578 534.289 124.058 531.209 120.138 531.209H87.2384L73.9384 607.089H55.4584L72.1184 512.589H123.918C137.638 512.589 146.878 523.649 144.638 537.369C144.638 537.509 144.638 537.649 144.638 537.789L141.838 553.469C141.838 553.609 141.838 553.749 141.838 553.889C139.878 563.829 132.318 572.509 122.938 576.429L135.398 607.089ZM235.83 537.789L223.65 607.089H205.03L209.93 578.669H177.03L185.99 560.049H213.29L217.07 538.209C217.77 534.289 215.25 531.209 211.33 531.209H185.43C181.65 531.209 177.87 534.289 177.17 538.209L165.13 607.089H146.65L158.83 537.789C161.21 523.929 174.65 512.589 188.51 512.589H215.11C228.97 512.589 238.21 523.929 235.83 537.789ZM265.584 588.609H304.644L301.424 607.089H262.084C248.224 607.089 238.844 595.749 241.224 581.889L249.064 537.789C251.444 523.929 264.884 512.589 278.744 512.589H318.084L309.124 531.209H275.664C271.884 531.209 268.104 534.289 267.404 538.209L259.844 581.609C259.144 585.389 261.804 588.609 265.584 588.609ZM331.106 607.089H312.626L329.286 512.589H347.766L331.106 607.089ZM417.985 601.909L417.145 607.089H398.525L373.185 548.289L362.825 607.089H344.345L361.005 512.589H379.485L404.685 571.389L415.185 512.589H433.805L417.985 601.909ZM517.418 550.529L511.818 581.889C509.438 595.749 496.138 607.089 482.278 607.089H455.678C441.818 607.089 432.438 595.749 434.818 581.889L442.658 537.789C445.038 523.929 458.478 512.589 472.338 512.589H512.938L503.978 531.209H469.258C465.478 531.209 461.698 534.289 460.998 538.209L453.438 581.609C452.738 585.389 455.398 588.609 459.178 588.609H485.078C488.998 588.609 492.638 585.389 493.338 581.609L495.438 569.149H476.958L474.718 550.529H517.418Z" fill="white"/>
</g>
<g clip-path="url(#clip1_0_1)">
<path d="M849.177 660.116L690.645 915H574.247L732.778 660.116L420 0H536.399L849.177 660.116Z" fill="#1C5FAB"/>
<path d="M982 660.116L823.469 915H707.07L865.601 660.116L709.108 329.849H825.507L982 660.116Z" fill="#E94E1B"/>
</g>
<path d="M537.5 913.5L698 657L458 160" stroke="white" stroke-width="10"/>
<defs>
<linearGradient id="paint0_linear_0_1" x1="368.5" y1="0" x2="368.5" y2="915" gradientUnits="userSpaceOnUse">
<stop stop-color="#343434"/>
<stop offset="1"/>
</linearGradient>
<clipPath id="clip0_0_1">
<rect width="739" height="915" fill="white" transform="translate(-1)"/>
</clipPath>
<clipPath id="clip1_0_1">
<rect width="562" height="915" fill="white" transform="translate(420)"/>
</clipPath>
</defs>
</svg>
