<svg width="66" height="67" viewBox="0 0 66 67" fill="none" xmlns="http://www.w3.org/2000/svg">
<g clip-path="url(#clip0_1_82)">
<path d="M55.1763 0C55.1763 1.71917 55.1763 3.43669 55.1763 5.23438C56.1595 5.23438 57.0975 5.26709 58.0339 5.22947C61.7618 5.07898 65.3847 7.83357 65.9643 12.1225C66.0014 12.4022 66.0014 12.6885 66.0014 12.9714C66.003 20.0149 66.003 27.0601 66.003 34.1036C66.003 34.2688 66.003 34.434 66.003 34.4945C65.4412 33.9825 64.8713 33.4362 64.2707 32.9259C63.2842 32.0867 62.2913 31.2574 61.2774 30.4542C60.982 30.2203 60.8318 30.0011 60.8383 29.602C60.8625 27.9679 60.848 26.3338 60.848 24.6506C42.2944 24.6506 23.7698 24.6506 5.15806 24.6506C5.15806 24.8731 5.15806 25.1037 5.15806 25.3344C5.15806 36.4345 5.15806 47.5347 5.15806 58.6348C5.15806 60.7482 6.15904 61.7656 8.23688 61.7673C15.1759 61.7689 22.115 61.7722 29.054 61.7558C29.5125 61.7542 29.7644 61.9177 30.055 62.2694C31.2271 63.6827 32.4525 65.0502 33.6585 66.434C33.8248 66.6254 33.9943 66.8119 34.1638 67C25.0113 67 15.8588 67 6.70635 67C6.60787 66.9591 6.51423 66.9002 6.41252 66.8822C4.03277 66.4504 2.21163 65.1663 1.04436 63.0399C0.566478 62.1664 0.34368 61.1473 0.00463867 60.1953C0.00463867 44.1438 0.00463867 28.0906 0.00463867 12.0391C0.0401573 11.9605 0.0966641 11.8837 0.107965 11.8019C0.534189 8.46333 3.6905 5.04626 8.10449 5.22947C8.9973 5.26709 9.89334 5.23438 10.833 5.23438C10.833 3.43669 10.833 1.71753 10.833 0C12.5524 0 14.2702 0 15.9896 0C15.9896 1.73389 15.9896 3.46614 15.9896 5.19348C27.3782 5.19348 38.6779 5.19348 50.0213 5.19348C50.0213 3.43506 50.0213 1.71753 50.0213 0C51.7391 0 53.4585 0 55.1763 0ZM50.0358 10.5113C38.6376 10.5113 27.333 10.5113 15.9589 10.5113C15.9589 12.2632 15.9589 13.9709 15.9589 15.6655C14.2218 15.6655 12.554 15.6655 10.8184 15.6655C10.8184 13.9218 10.8184 12.2141 10.8184 10.4671C9.82714 10.4671 8.90689 10.4589 7.98664 10.4688C6.24622 10.4884 5.17905 11.5663 5.16452 13.3329C5.15161 15.0112 5.16129 16.6911 5.16129 18.3694C5.16129 18.6884 5.16129 19.0057 5.16129 19.3263C23.765 19.3263 42.2863 19.3263 60.8367 19.3263C60.8367 17.1737 60.8867 15.0603 60.8189 12.9518C60.777 11.6514 59.9213 10.6879 58.6733 10.5554C57.5367 10.4344 56.3759 10.5293 55.1553 10.5293C55.1553 12.255 55.1553 13.9627 55.1553 15.6704C53.4181 15.6704 51.752 15.6704 50.0374 15.6704C50.0358 13.9463 50.0358 12.2533 50.0358 10.5113Z" fill="#E94E1A"/>
<path d="M46.9263 66.9998C46.1336 66.8346 45.3296 66.7037 44.5466 66.496C38.4002 64.8651 34.1412 61.026 32.1361 54.9247C30.0421 48.5584 31.3014 42.7139 35.612 37.6186C38.108 34.6677 41.2982 32.7833 45.06 32.0505C51.3209 30.8302 56.7311 32.569 61.2048 37.1835C63.5345 39.5864 65.0376 42.4865 65.6446 45.794C66.807 52.126 65.107 57.6008 60.5768 62.122C58.2083 64.4856 55.341 65.9431 52.0991 66.6465C51.4953 66.7773 50.8866 66.8836 50.2796 67.0014C49.1608 66.9998 48.0435 66.9998 46.9263 66.9998ZM48.691 36.907C42.0199 36.9528 36.4726 42.1496 36.3854 49.2127C36.3014 55.9929 41.5194 61.6689 48.515 61.7376C55.1844 61.803 60.7334 56.5196 60.8206 49.4564C60.9029 42.6763 55.6849 37.0837 48.691 36.907Z" fill="#E94E1A"/>
<path d="M0.00463867 60.1953C0.34368 61.1473 0.566478 62.1664 1.04598 63.0382C2.21325 65.1647 4.03438 66.4488 6.41413 66.8806C6.51584 66.8986 6.60948 66.9575 6.70797 66.9984C4.47352 66.9984 2.23908 66.9984 0.00463867 66.9984C0.00463867 64.7312 0.00463867 62.4641 0.00463867 60.1953Z" fill="white"/>
<path d="M9.84814 30.127C11.5595 30.127 13.224 30.127 14.9225 30.127C14.9225 31.8461 14.9225 33.5358 14.9225 35.2779C13.2547 35.2779 11.574 35.2779 9.84814 35.2779C9.84814 33.5915 9.84814 31.8854 9.84814 30.127Z" fill="#E94E1A"/>
<path d="M25.2374 30.1367C25.2374 31.851 25.2374 33.5407 25.2374 35.2811C23.5631 35.2811 21.8825 35.2811 20.1582 35.2811C20.1582 33.5865 20.1582 31.8804 20.1582 30.1367C21.8453 30.1367 23.526 30.1367 25.2374 30.1367Z" fill="#E94E1A"/>
<path d="M35.5571 30.1304C35.5571 31.8659 35.5571 33.5556 35.5571 35.2895C33.8619 35.2895 32.1812 35.2895 30.4634 35.2895C30.4634 33.5736 30.4634 31.8675 30.4634 30.1304C32.1554 30.1304 33.8216 30.1304 35.5571 30.1304Z" fill="#E94E1A"/>
<path d="M9.84167 40.5796C11.5563 40.5796 13.2063 40.5796 14.9063 40.5796C14.9063 42.2971 14.9063 44.0016 14.9063 45.7551C13.2418 45.7551 11.5611 45.7551 9.84167 45.7551C9.84167 44.0474 9.84167 42.3413 9.84167 40.5796Z" fill="#E94E1A"/>
<path d="M20.1437 45.7535C20.1437 44.0163 20.1437 42.3266 20.1437 40.6025C21.8373 40.6025 23.5018 40.6025 25.218 40.6025C25.218 42.2955 25.218 44.0016 25.218 45.7535C23.5551 45.7535 21.876 45.7535 20.1437 45.7535Z" fill="#E94E1A"/>
<path d="M14.9111 56.2403C13.1998 56.2403 11.5353 56.2403 9.83682 56.2403C9.83682 54.5211 9.83682 52.8314 9.83682 51.0894C11.5046 51.0894 13.1853 51.0894 14.9111 51.0894C14.9111 52.7758 14.9111 54.4819 14.9111 56.2403Z" fill="#E94E1A"/>
<path d="M20.1598 51.0645C21.8696 51.0645 23.5357 51.0645 25.2341 51.0645C25.2341 52.7836 25.2341 54.4733 25.2341 56.2154C23.5664 56.2154 21.8857 56.2154 20.1598 56.2154C20.1598 54.529 20.1598 52.8229 20.1598 51.0645Z" fill="#E94E1A"/>
<path d="M51.0658 40.6152C51.0658 42.6599 51.0658 44.6572 51.0658 46.7035C52.5221 46.7035 53.9315 46.7035 55.3862 46.7035C55.3862 48.4586 55.3862 50.1663 55.3862 51.9133C52.2412 51.9133 49.0994 51.9133 45.9269 51.9133C45.9269 48.1462 45.9269 44.4052 45.9269 40.6169C47.6092 40.6152 49.2915 40.6152 51.0658 40.6152Z" fill="#E94E1A"/>
</g>
<defs>
<clipPath id="clip0_1_82">
<rect width="66" height="67" fill="white" transform="translate(0.00463867)"/>
</clipPath>
</defs>
</svg>
