<svg width="279" height="535" viewBox="0 0 279 535" fill="none" xmlns="http://www.w3.org/2000/svg">
<g clip-path="url(#clip0_206_718)">
<path d="M250.608 248.387L231.735 259.693C231.874 260.332 232.142 261.458 232.58 262.835C233.308 265.127 234.081 266.736 234.237 267.08C236.685 272.416 232.919 283.047 237.444 286.465C239.258 287.837 241.817 288.552 245.386 288.181C245.386 288.181 249.188 295.635 260.252 287.77C260.252 287.77 265.563 288.235 270.544 283.06C270.544 283.06 281.22 282.998 278.254 275.423C275.288 267.849 265.943 253.955 256.531 254.451C256.536 254.451 252.627 248.539 250.608 248.387Z" fill="black" stroke="#C6C6C6" stroke-miterlimit="10"/>
<path d="M261.856 269.949C261.856 269.949 266.068 278.784 270.544 283.06" stroke="#9D9D9C" stroke-miterlimit="10"/>
<path d="M251.385 273.47C251.385 273.47 253.543 282.721 260.252 287.766" stroke="#9D9D9C" stroke-miterlimit="10"/>
<path d="M237.163 270.074C237.163 270.074 240.718 283.382 245.391 288.181" stroke="#9D9D9C" stroke-miterlimit="10"/>
<path d="M272.809 278.672L273.823 278.104C274.645 277.644 274.94 276.603 274.484 275.781L271.442 270.32C270.982 269.497 269.941 269.203 269.119 269.658L268.105 270.226C267.283 270.686 266.988 271.727 267.444 272.55L270.486 278.01C270.946 278.837 271.987 279.132 272.809 278.672Z" fill="#F39200" stroke="#EF7C0B" stroke-miterlimit="10"/>
<path d="M262.356 283.78L263.37 283.212C264.192 282.752 264.487 281.711 264.031 280.888L260.989 275.428C260.529 274.605 259.488 274.31 258.667 274.766L257.653 275.334C256.831 275.794 256.536 276.835 256.991 277.657L260.033 283.118C260.493 283.945 261.534 284.24 262.356 283.78Z" fill="#F39200" stroke="#EF7C0B" stroke-miterlimit="10"/>
<path d="M251.256 287.35L252.27 286.783C253.092 286.322 253.387 285.281 252.931 284.459L249.889 278.998C249.429 278.176 248.388 277.881 247.566 278.337L246.552 278.904C245.73 279.365 245.435 280.406 245.891 281.228L248.933 286.689C249.393 287.516 250.434 287.811 251.256 287.35Z" fill="#F39200" stroke="#EF7C0B" stroke-miterlimit="10"/>
<path d="M237.464 263.007L252.067 253.904L250.947 252.107L236.344 261.209L237.464 263.007Z" fill="#F39200" stroke="#EF7C0B" stroke-miterlimit="10"/>
<path d="M155.315 298.044C155.315 298.044 170.784 295.247 172.875 291.372C172.875 291.372 173.138 294.42 171.557 295.546C171.557 295.546 180.111 291.095 180.594 287.77C180.594 287.77 180.594 292.038 179.307 292.909C179.307 292.909 186.543 284.521 186.704 280.625C186.704 280.625 187.348 283.163 186.704 285.254C186.704 285.254 190.564 277.211 189.277 270.776C189.277 270.776 190.644 272.063 190.845 273.35C190.845 273.35 192.199 260.815 190.845 256.203C190.845 256.203 193.029 259.42 192.922 262.316C192.922 262.316 191.43 251.055 192.927 245.478C192.927 245.478 193.673 247.837 194.102 249.661C194.102 249.661 195.71 219.684 228.676 203.436C228.676 203.436 256.277 186.705 261.851 192.979C267.431 199.253 256.764 202.953 241.272 210.514C225.781 218.075 208.092 240.106 206.966 248.396C206.966 248.396 209.62 247.194 209.941 246.39C209.941 246.39 208.012 254.491 205.599 257.557C205.599 257.557 207.127 257.973 208.092 256.444C208.092 256.444 206.243 264.247 204.233 265.936C204.233 265.936 206.725 264.408 207.368 262.638C207.368 262.638 205.197 273.497 203.026 275.91C203.026 275.91 206.243 273.658 206.564 272.532C206.564 272.532 203.831 280.736 198.363 286.528C198.363 286.528 202.464 284.356 203.107 283.31C203.107 283.31 197.559 291.354 191.609 294.894C191.609 294.894 193.78 294.974 195.147 293.767C195.147 293.767 188.071 301.007 180.754 303.259C180.754 303.259 183.971 303.661 185.498 302.696C185.498 302.696 179.039 308.622 162.422 309.694L155.315 298.044Z" fill="#F9B233"/>
<path d="M247.772 193.944C247.772 193.944 246.436 199.642 251.64 205.545L247.035 207.748C247.035 207.748 242.206 203.516 242.005 196.38L247.772 193.944Z" fill="black"/>
<path d="M237.225 198.712C237.225 198.712 235.832 204.723 241.036 210.626L236.783 213.053C236.783 213.053 231.673 208.941 231.472 201.809L237.225 198.712Z" fill="black"/>
<path d="M210.227 236.388C210.857 235.114 210.968 233.883 210.475 233.639C209.981 233.395 209.071 234.23 208.441 235.505C207.811 236.779 207.701 238.01 208.194 238.254C208.687 238.498 209.597 237.662 210.227 236.388Z" fill="black"/>
<path d="M203.633 244.472C204.263 243.198 204.374 241.967 203.881 241.723C203.388 241.479 202.477 242.314 201.847 243.589C201.218 244.863 201.107 246.094 201.6 246.338C202.093 246.582 203.004 245.746 203.633 244.472Z" fill="black"/>
<path d="M197.677 250.638C198.002 249.254 197.831 248.03 197.295 247.904C196.76 247.779 196.062 248.799 195.738 250.182C195.413 251.566 195.584 252.79 196.119 252.916C196.655 253.042 197.352 252.022 197.677 250.638Z" fill="black"/>
<path d="M202.742 255.666C203.067 254.282 202.896 253.058 202.361 252.932C201.825 252.806 201.128 253.826 200.803 255.21C200.478 256.594 200.649 257.818 201.184 257.944C201.72 258.069 202.418 257.049 202.742 255.666Z" fill="black"/>
<path d="M201.885 268.249C202.435 268.226 202.832 267.056 202.773 265.636C202.713 264.216 202.219 263.083 201.67 263.106C201.12 263.129 200.723 264.299 200.782 265.719C200.842 267.14 201.335 268.272 201.885 268.249Z" fill="black"/>
<path d="M200.042 274.015C200.392 274 200.645 273.252 200.607 272.345C200.569 271.438 200.254 270.714 199.904 270.728C199.554 270.743 199.301 271.491 199.339 272.398C199.377 273.305 199.692 274.029 200.042 274.015Z" fill="black"/>
<path d="M195.895 264.348C196.444 264.325 196.842 263.155 196.783 261.735C196.723 260.315 196.229 259.182 195.68 259.205C195.13 259.228 194.733 260.398 194.792 261.818C194.851 263.239 195.345 264.371 195.895 264.348Z" fill="black"/>
<path d="M194.006 276.776C194.555 276.753 194.953 275.583 194.893 274.162C194.834 272.742 194.34 271.609 193.791 271.632C193.241 271.655 192.844 272.825 192.903 274.246C192.962 275.666 193.456 276.799 194.006 276.776Z" fill="black"/>
<path d="M196.008 287.589C196.719 286.358 196.909 285.137 196.432 284.862C195.956 284.586 194.994 285.361 194.283 286.592C193.572 287.824 193.383 289.045 193.859 289.32C194.336 289.595 195.298 288.82 196.008 287.589Z" fill="black"/>
<path d="M183.994 299.15C184.704 297.919 184.894 296.698 184.418 296.423C183.941 296.148 182.979 296.923 182.268 298.154C181.558 299.385 181.368 300.606 181.845 300.881C182.321 301.156 183.283 300.381 183.994 299.15Z" fill="black"/>
<path d="M174.927 299.46C175.17 298.059 174.928 296.848 174.386 296.753C173.844 296.659 173.207 297.718 172.964 299.119C172.721 300.519 172.963 301.731 173.505 301.825C174.047 301.919 174.684 300.86 174.927 299.46Z" fill="black"/>
<path d="M188.287 287.736C188.839 286.779 188.986 285.829 188.614 285.614C188.242 285.399 187.493 286.001 186.94 286.959C186.388 287.916 186.241 288.867 186.613 289.081C186.985 289.296 187.734 288.694 188.287 287.736Z" fill="black"/>
<path d="M204.44 233.428C204.875 232.548 204.952 231.697 204.611 231.529C204.271 231.36 203.642 231.938 203.207 232.818C202.772 233.699 202.695 234.549 203.035 234.717C203.376 234.886 204.005 234.309 204.44 233.428Z" fill="black"/>
<path d="M160.55 273.314C160.55 273.314 172.888 310.923 171.441 341.328C169.993 371.734 160.345 434.475 160.345 434.475C160.345 434.475 156.968 476.464 157.45 495.286L133.329 497.699C133.329 497.699 132.364 459.572 130.434 452.332C128.505 445.093 120.786 424.823 122.233 414.205C123.68 403.587 114.032 378.008 119.821 353.877C119.821 353.877 123.412 344.546 116.766 344.975C110.119 345.404 108.618 363.851 108.618 363.851C108.618 363.851 98.4333 402.89 94.8955 408.038C94.8955 408.038 96.6644 423.965 87.0158 443.592C77.3672 463.218 71.7389 487.189 70.4524 495.554H44.7229L56.6228 397.099C56.6228 397.099 48.2607 344.331 63.0552 316.017L69.4876 286.416L160.55 273.314Z" fill="#82368C"/>
<path d="M54.2732 364.561L78.886 383.652L108.622 363.851C108.622 363.851 98.1518 404.575 94.8999 408.038C94.8999 408.038 94.815 426.096 88.1906 441.107C88.1906 441.107 72.5608 473.126 70.4569 495.554H44.7274L56.6273 397.099C56.6228 397.099 53.219 370.407 54.2732 364.561Z" fill="#EC661A"/>
<path d="M118.418 362.063L166.898 332.923C166.898 332.923 164.709 369.289 162.346 381.029C159.983 392.768 158.857 403.091 158.857 403.091L121.822 404.914C121.822 404.914 115.765 369.008 118.418 362.063Z" fill="#EC661A"/>
<path d="M140.887 378.115C140.887 378.115 169.511 373.289 167.742 393.559C167.742 393.559 165.777 408.668 161.212 428.706C161.212 428.706 157.83 463.661 157.638 479.476C157.638 479.476 146.824 486.38 132.757 481.236L130.43 452.337C130.43 452.337 121.853 427.348 122.099 418.83C122.345 410.313 112.902 388.737 120.46 384.394C128.022 380.046 140.887 378.115 140.887 378.115Z" fill="black" stroke="#B2B2B2" stroke-miterlimit="10"/>
<path d="M142.674 394.149C148.417 394.149 153.073 391.94 153.073 389.216C153.073 386.491 148.417 384.282 142.674 384.282C136.931 384.282 132.275 386.491 132.275 389.216C132.275 391.94 136.931 394.149 142.674 394.149Z" fill="#B2B2B2" stroke="black" stroke-miterlimit="10"/>
<path d="M125.671 394.574C127.993 390.549 128.534 386.512 126.878 385.555C125.222 384.599 121.997 387.086 119.675 391.111C117.352 395.135 116.811 399.173 118.467 400.129C120.123 401.086 123.348 398.599 125.671 394.574Z" fill="black" stroke="#B2B2B2" stroke-miterlimit="10"/>
<path d="M166.552 400.576C168.208 399.62 167.667 395.582 165.345 391.558C163.022 387.533 159.797 385.046 158.141 386.002C156.485 386.958 157.026 390.996 159.349 395.021C161.671 399.045 164.897 401.533 166.552 400.576Z" fill="black" stroke="#B2B2B2" stroke-miterlimit="10"/>
<path d="M161.73 443.556L160.631 443.462C160.251 443.431 159.965 443.1 159.988 442.716L160.591 432.907C160.613 432.536 160.921 432.245 161.292 432.245H162.31C162.712 432.245 163.034 432.585 163.012 432.987L162.489 442.89C162.471 443.288 162.127 443.592 161.73 443.556Z" fill="black" stroke="#B2B2B2" stroke-miterlimit="10"/>
<path d="M140.431 402.247C140.431 402.247 161.502 398.868 161.497 409.808C161.497 420.747 164.472 430.641 153.618 431.767C142.763 432.893 121.697 437.112 122.582 423.942C123.466 410.773 119.365 402.488 140.431 402.247Z" fill="black" stroke="#B2B2B2" stroke-miterlimit="10"/>
<path d="M151.206 424.126H133.275C129.635 424.126 126.682 421.172 126.682 417.53C126.682 413.888 129.635 410.934 133.275 410.934H151.206C154.846 410.934 157.799 413.888 157.799 417.53C157.799 421.172 154.851 424.126 151.206 424.126Z" fill="#B2B2B2" stroke="black" stroke-width="0.8142" stroke-miterlimit="10"/>
<path d="M149.477 442.948H136.13C134.464 442.948 133.115 441.598 133.115 439.932V439.047C133.115 437.38 134.464 436.03 136.13 436.03H149.477C151.143 436.03 152.492 437.38 152.492 439.047V439.932C152.492 441.594 151.143 442.948 149.477 442.948Z" fill="#B2B2B2" stroke="black" stroke-width="0.8142" stroke-miterlimit="10"/>
<path d="M144.291 445.844C144.291 445.844 133.195 445.844 134.481 453.807C135.768 461.77 137.296 460.886 136.894 465.873C136.492 470.86 138.904 479.225 146.542 477.858C154.181 476.49 155.547 475.123 153.939 464.827C153.939 464.827 153.689 462.012 154.538 458.875C155.387 455.738 156.432 443.752 144.291 445.844Z" fill="#B2B2B2" stroke="#B2B2B2" stroke-width="0.8142" stroke-miterlimit="10"/>
<path d="M144.693 448.096C145.492 452.498 145.97 456.944 146.355 461.395C146.672 465.85 147.007 470.337 146.627 474.801C145.912 465.899 144.894 457.029 144.693 448.096Z" fill="#575756"/>
<path d="M148.552 454.29C148.619 452.918 150.084 451.296 151.527 451.877C150.348 452.601 149.79 453.552 148.552 454.29Z" fill="#575756"/>
<path d="M149.517 459.263C149.584 457.892 151.049 456.269 152.492 456.85C151.313 457.579 150.754 458.531 149.517 459.263Z" fill="#575756"/>
<path d="M149.517 464.733C149.584 463.361 151.049 461.739 152.492 462.32C151.313 463.049 150.754 463.996 149.517 464.733Z" fill="#575756"/>
<path d="M149.517 470.199C149.584 468.827 151.049 467.204 152.492 467.785C151.313 468.514 150.754 469.461 149.517 470.199Z" fill="#575756"/>
<path d="M141.687 454.839C140.36 454.29 139.667 453.427 138.394 452.878C139.739 452.096 141.423 453.49 141.687 454.839Z" fill="#575756"/>
<path d="M141.445 459.902C140.119 459.353 139.426 458.49 138.153 457.941C139.498 457.163 141.182 458.553 141.445 459.902Z" fill="#575756"/>
<path d="M142.232 465.314C140.905 464.764 140.212 463.902 138.939 463.352C140.288 462.57 141.968 463.965 142.232 465.314Z" fill="#575756"/>
<path d="M143.018 470.726C141.691 470.176 140.999 469.314 139.726 468.764C141.075 467.982 142.754 469.372 143.018 470.726Z" fill="#575756"/>
<path d="M124.94 434.332C124.94 434.332 121.322 433.322 121.751 436.272C122.179 439.221 122.34 449.571 129.148 447.855L124.94 434.332Z" fill="black" stroke="#B2B2B2" stroke-miterlimit="10"/>
<path d="M132.668 480.052L132.074 467.785C132.074 467.785 128.129 467.128 128.237 470.721C128.344 474.319 127.714 479.784 132.668 480.052Z" fill="black" stroke="#B2B2B2" stroke-miterlimit="10"/>
<path d="M158.205 466.06C158.205 466.06 162.543 464.876 162.596 468.094C162.65 471.311 163.566 476.455 157.709 476.406L158.205 466.06Z" fill="black" stroke="#B2B2B2" stroke-miterlimit="10"/>
<path d="M129.148 408.413C136.916 405.567 145.76 404.771 153.828 406.747C154.659 406.983 155.48 407.256 156.298 407.529C155.445 407.395 154.605 407.238 153.761 407.086C145.564 405.911 137.224 406.706 129.148 408.413Z" fill="#9D9D9C"/>
<path d="M128.719 427.638C138.225 428.634 148.012 429.077 157.263 426.271C148.771 430.239 137.675 429.868 128.719 427.638Z" fill="#9D9D9C"/>
<path d="M133.785 416.377C139.623 414.267 146.279 414.263 152.117 416.377C146.015 415.492 139.891 415.487 133.785 416.377Z" fill="#575756"/>
<path d="M133.825 419.384C139.663 417.275 146.319 417.27 152.157 419.384C146.055 418.504 139.931 418.499 133.825 419.384Z" fill="#575756"/>
<path d="M71.1493 380.662C71.1493 380.662 97.4148 378.41 93.5554 402.005C89.696 425.6 76.8312 456.85 76.8312 456.85C76.8312 456.85 76.724 477.505 69.434 479.65C62.1439 481.795 44.9909 482.975 45.3125 475.253C45.6342 467.531 52.4954 399.105 52.4954 399.105C52.4954 399.105 48.6359 381.735 71.1493 380.662Z" fill="black" stroke="#B2B2B2" stroke-miterlimit="10"/>
<path d="M68.7907 392.84C72.9353 392.84 76.2952 391.409 76.2952 389.645C76.2952 387.88 72.9353 386.449 68.7907 386.449C64.6461 386.449 61.2863 387.88 61.2863 389.645C61.2863 391.409 64.6461 392.84 68.7907 392.84Z" fill="#B2B2B2" stroke="black" stroke-miterlimit="10"/>
<path d="M93.6626 391.441C93.6626 391.441 99.1837 392.996 101.757 391.441C101.757 391.441 101.81 398.627 98.2189 398.251C94.6275 397.876 81.0658 396.75 81.6019 391.441C82.1379 386.132 93.6626 391.441 93.6626 391.441Z" fill="black" stroke="#B2B2B2" stroke-miterlimit="10"/>
<path d="M50.6997 388.411L49.842 396.133C49.842 396.133 59.169 396.83 59.0618 391.307C58.9545 385.784 50.6997 388.411 50.6997 388.411Z" fill="black" stroke="#B2B2B2" stroke-miterlimit="10"/>
<path d="M93.2606 426.034C93.2606 426.034 94.6721 436.576 88.8383 438.497C83.0045 440.414 80.9586 440.186 80.9586 440.186L82.6471 432.303C82.6471 432.303 91.8133 431.352 93.2606 426.034Z" fill="black" stroke="#B2B2B2" stroke-miterlimit="10"/>
<path d="M49.4936 429.497C49.4936 429.497 46.0675 428.697 45.7458 433.112C45.4242 437.527 45.5538 439.418 48.5287 439.449L49.4936 429.497Z" fill="black" stroke="#B2B2B2" stroke-miterlimit="10"/>
<path d="M76.0941 466.034C76.0941 466.034 82.8526 465.274 82.933 458.888C83.0134 452.502 82.7186 452.802 77.9613 454.035L76.8357 456.855C76.8312 456.85 76.2639 464.939 76.0941 466.034Z" fill="black" stroke="#B2B2B2" stroke-miterlimit="10"/>
<path d="M67.3032 395.208C67.3032 395.208 91.5319 392.741 89.6021 407.649C87.6724 422.557 84.0274 429.421 66.4456 427.491C48.8637 425.56 47.0412 421.699 48.3277 413.012C49.6142 404.324 46.5052 394.886 67.3032 395.208Z" fill="black" stroke="#B2B2B2" stroke-miterlimit="10"/>
<path d="M66.8744 403.252C66.8744 403.252 86.1716 401.809 84.5635 411.434C82.9554 421.056 75.3437 417.762 66.4456 417.534C57.5475 417.306 52.2944 417.114 52.616 410.719C52.9376 404.325 54.7601 402.501 66.8744 403.252Z" fill="#B2B2B2" stroke="black" stroke-width="0.8142" stroke-miterlimit="10"/>
<path d="M58.1907 400.249C65.3691 396.875 74.4325 397.948 81.5885 400.892C80.6058 400.709 79.6409 400.468 78.6716 400.271C71.9488 398.931 64.8732 398.368 58.1907 400.249Z" fill="#9D9D9C"/>
<path d="M60.0132 408.829C64.766 408.396 69.568 408.57 74.2717 409.365C69.5233 409.803 64.7214 409.616 60.0132 408.829Z" fill="#575756"/>
<path d="M60.0132 413.119C64.7705 412.721 69.5724 412.931 74.2717 413.763C69.5188 414.165 64.7169 413.941 60.0132 413.119Z" fill="#575756"/>
<path d="M53.018 420.626C60.5716 423.049 68.6121 423.326 76.4739 422.874C77.604 422.807 78.7341 422.691 79.8732 422.637C71.3011 424.599 61.0406 424.563 53.018 420.626Z" fill="#9D9D9C"/>
<path d="M60.7637 440.682C60.7637 440.682 73.3425 439.074 69.6261 453.955C65.9096 468.836 64.9447 476.236 58.0299 476.155C51.1151 476.075 48.7655 478.086 49.4891 464.09C50.2217 450.089 49.3462 439.476 60.7637 440.682Z" fill="#B2B2B2" stroke="#B2B2B2" stroke-width="0.8142" stroke-miterlimit="10"/>
<path d="M61.0049 443.819C58.0031 451.291 56.7256 459.357 56.1627 467.352C56.0198 469.153 55.9662 471.141 55.859 472.938C54.9656 463.334 56.2119 452.319 61.0049 443.819Z" fill="#575756"/>
<path d="M61.4069 450.496C61.8044 448.601 63.7922 446.273 65.9096 446.956C63.9798 447.631 62.9927 449.231 61.4069 450.496Z" fill="#575756"/>
<path d="M61.4069 456.251C61.8044 454.357 63.7922 452.028 65.9096 452.712C63.9798 453.387 62.9927 454.987 61.4069 456.251Z" fill="#575756"/>
<path d="M61.0049 461.945C61.4024 460.05 63.3902 457.722 65.5075 458.405C63.5778 459.08 62.5906 460.68 61.0049 461.945Z" fill="#575756"/>
<path d="M60.4822 469.148C60.8798 467.254 62.8676 464.925 64.9849 465.609C63.0507 466.284 62.0635 467.888 60.4822 469.148Z" fill="#575756"/>
<path d="M56.4129 450.254C55.0772 448.731 54.3893 446.979 52.607 445.973C54.8137 445.674 56.3548 448.319 56.4129 450.254Z" fill="#575756"/>
<path d="M55.3944 455.921C54.0588 454.397 53.3709 452.645 51.5886 451.64C53.7952 451.34 55.3363 453.986 55.3944 455.921Z" fill="#575756"/>
<path d="M54.7824 461.596C53.4468 460.072 52.7589 458.32 50.9766 457.315C53.1833 457.016 54.7243 459.661 54.7824 461.596Z" fill="#575756"/>
<path d="M54.0275 468.782C52.6919 467.258 52.004 465.506 50.2217 464.501C52.4239 464.201 53.9694 466.847 54.0275 468.782Z" fill="#575756"/>
<path d="M70.9572 436.687H56.1091C55.2247 436.687 54.5099 435.972 54.5099 435.087V432.067C54.5099 431.182 55.2247 430.467 56.1091 430.467H70.9572C71.8416 430.467 72.5563 431.182 72.5563 432.067V435.087C72.5563 435.968 71.8416 436.687 70.9572 436.687Z" fill="#B2B2B2" stroke="black" stroke-width="0.8142" stroke-miterlimit="10"/>
<path d="M115.238 305.194C129.903 304.81 144.344 302.03 158.871 300.225C151.786 302.187 144.55 303.59 137.26 304.555C129.974 305.422 122.555 306.141 115.238 305.194Z" fill="white"/>
<path d="M233.701 259.885C233.701 259.885 214.725 227.71 203.147 221.919C191.569 216.127 159.085 192.639 151.688 175.587L160.385 132.441C160.385 132.441 182.403 140.14 208.936 177.195C224.325 198.681 250.747 248.946 250.747 248.946L233.701 259.885Z" fill="black"/>
<path d="M152.461 171.757C152.461 171.757 164.714 176.217 170.503 175.573C170.503 175.573 179.937 201.528 188.728 206.247C197.519 210.966 208.239 208.709 208.239 208.709C208.239 208.709 218.683 243.355 239.405 256.225L233.701 259.885C233.701 259.885 216.762 230.405 203.147 221.919C189.532 213.432 160.104 193.833 151.688 175.587L152.461 171.757Z" fill="#82368C"/>
<path d="M46.6258 273.399C46.6258 273.399 41.5871 234.038 34.2971 225.243C34.2971 225.243 58.9545 194.355 61.5275 190.709L50.1323 133.384C50.1323 133.384 19.0961 147.594 1.81356 200.683C1.81356 200.683 -3.65396 221.919 4.38652 238.65C12.427 255.381 32.689 285.304 32.689 285.304L46.6258 273.399Z" fill="black"/>
<path d="M42.8423 276.63C42.8423 276.63 30.5493 222.544 20.74 215.305C20.74 215.305 40.8277 206.778 42.8423 190.53C42.8423 190.53 55.1353 158.52 53.5362 150.472L61.532 190.704L34.3016 225.239C34.3016 225.239 41.1628 232.545 46.6303 273.394L42.8423 276.63Z" fill="#82368C"/>
<path d="M41.6407 138.746C41.6407 138.746 95.3511 96.9185 167.715 136.172C167.715 136.172 154.207 143.894 163.534 174.782C163.534 174.782 168.037 185.4 160.64 223.045C160.64 223.045 162.891 287.073 165.786 291.899C165.786 291.899 93.0998 303.804 56.4352 294.473C56.4352 294.473 54.1839 226.906 50.9677 220.793C47.7515 214.679 44.2137 190.87 49.3596 179.608C54.5055 168.347 54.1839 141.32 41.6407 138.746Z" fill="#82368C"/>
<path d="M41.6407 138.746C41.6407 138.746 97.0664 96.5431 167.715 136.172C167.715 136.172 161.471 139.568 160.412 151.679C160.412 151.679 92.2689 145.905 52.2675 157.207C52.2675 157.202 51.7181 140.998 41.6407 138.746Z" fill="black"/>
<path d="M150.786 151.04C150.786 151.04 151.956 159.982 156.888 164.057L154.685 168.191C154.493 168.557 154.667 169.009 155.061 169.143L162.677 171.761C162.677 171.761 159.331 159.571 160.416 151.683L150.786 151.04Z" fill="white"/>
<path d="M51.1687 174.125L66.3294 153.976L52.272 157.207C52.2675 157.202 52.9733 168.647 51.1687 174.125Z" fill="white"/>
<path d="M164.772 182.643C164.772 182.643 161.015 190.87 159.407 192.478C157.799 194.087 154.904 197.144 153.457 202.131C152.01 207.118 147.668 210.336 147.668 210.336C147.668 210.336 160.099 230.445 161.037 233.18L160.64 223.045C160.64 223.045 166.054 192.814 164.772 182.643Z" fill="black"/>
<path d="M47.1216 188.626C47.1216 188.626 51.3473 192.492 51.1329 195.28C50.9185 198.069 59.7094 200.321 60.3527 203.646C60.3527 203.646 72.8958 214.156 75.0399 215.122C75.0399 215.122 54.3491 250.304 54.4563 252.065C54.4563 252.065 52.9152 228.313 51.9414 224.551C50.9721 220.788 48.3992 214.594 47.6934 208.039C47.6889 208.039 45.6297 192.671 47.1216 188.626Z" fill="#EC661A"/>
<path d="M158.263 293.017C158.263 293.017 153.229 235.052 156.32 224.618L161.042 233.18C161.042 233.18 163.003 287.73 165.79 291.899L158.263 293.017Z" fill="#EC661A"/>
<path d="M52.8974 118.369C52.8974 118.369 58.6865 154.19 97.7096 153.976C136.733 153.761 149.597 122.659 150.241 118.369C150.241 118.369 136.947 131.279 98.9961 134.027C61.045 136.771 52.8974 118.369 52.8974 118.369Z" fill="#82368C"/>
<path d="M101.569 153.846C102.623 159.562 103.552 165.934 104.379 171.712C109.918 213.504 112.33 256.015 108.14 298.04C108.274 295.028 108.426 292.016 108.587 289.008C108.752 286.465 108.868 282.582 108.908 279.977C110.047 237.899 106.885 195.58 101.569 153.846Z" fill="white"/>
<path d="M77.5012 211.931L81.2803 207.909H90.6072C92.9613 207.909 94.8687 209.817 94.8687 212.172V225.042C94.8687 227.397 92.9613 229.305 90.6072 229.305H70.8276L72.0337 224.962H85.7829C88.137 224.962 90.0444 223.054 90.0444 220.699V216.194C90.0444 213.839 88.137 211.931 85.7829 211.931H77.5012Z" fill="black"/>
<path d="M96.8788 207.909H101.783V223.925C101.783 224.721 102.288 225.453 103.052 225.677C103.338 225.762 103.669 225.811 104.035 225.789C104.236 225.78 104.428 225.748 104.602 225.704C105.411 225.503 105.965 224.756 105.965 223.925V207.909H110.95V224.399C110.95 227.107 108.752 229.305 106.045 229.305H101.783C99.0765 229.305 96.8788 227.107 96.8788 224.399V207.909Z" fill="black"/>
<path d="M112.558 229.305V207.909H117.864V216.275H121.241L124.243 207.909H129.496L126.012 216.275L130.997 229.305H124.243L121.456 221.101H117.918L117.972 229.305H112.558Z" fill="black"/>
<path d="M132.23 207.909V229.305H143.272V224.962H136.572L136.625 221.101H146.488V216.275H136.625L136.679 211.931H144.88L142.147 207.909H132.23Z" fill="black"/>
<path d="M110.467 287.247C116.967 286.921 126.142 286.541 132.529 285.987C139.833 285.397 147.194 284.58 154.315 282.743C141.87 287.878 123.846 288.387 110.467 287.247Z" fill="white"/>
<path d="M26.8865 365.147C26.8865 365.147 34.1229 375.657 45.0579 369.437C55.993 363.216 110.829 324.392 110.829 324.392C110.829 324.392 124.391 303.527 114.742 285.75C105.093 267.978 67.1424 242.882 34.7661 282.135C2.38981 321.389 26.8865 365.147 26.8865 365.147Z" fill="#EC661A" stroke="white" stroke-miterlimit="10"/>
<path d="M21.8701 352.782C21.8701 352.782 48.3545 337.972 56.6496 325.035L37.7724 278.69C37.7724 278.69 7.4687 305.887 21.8701 352.782Z" fill="#9D9D9C"/>
<path d="M27.2795 365.665L34.2256 360.857L36.3117 363.967L36.9102 371.403C36.9102 371.403 31.3757 370.903 27.2795 365.665Z" fill="black"/>
<path d="M117.181 307.174C117.181 307.174 46.0808 365.804 36.8209 370.232L36.9147 371.403C36.9147 371.403 41.3459 371.685 44.2851 369.848C44.2851 369.848 93.8636 336.837 110.695 324.235C110.695 324.235 116.028 315.387 117.181 307.174Z" fill="black"/>
<path d="M50.3646 347.022C50.3646 347.022 90.1382 317.206 93.9976 305.194C93.9976 305.194 84.8851 330.934 50.3646 347.022Z" fill="white"/>
<path d="M39.644 358.926C39.644 358.926 86.252 328.691 94.3639 314.596C95.2618 313.037 96.173 311.486 97.1468 309.976C101.042 303.929 109.484 290.21 109.596 278.949C109.596 278.949 116.082 284.901 117.641 295.367C117.641 295.367 104.397 316.92 86.2252 328.834L39.644 358.926Z" fill="#82368C"/>
<path d="M40.6491 285.75C40.6491 285.75 71.2297 263.241 77.7201 261.574C77.7201 261.574 70.4703 260.761 65.4852 262.044C60.5046 263.322 43.8563 274.748 38.4647 280.397L40.6491 285.75Z" fill="white"/>
<path d="M29.8525 281.657L46.9877 267.857C47.5371 268.21 48.5019 268.849 49.641 269.739C51.5395 271.218 52.7813 272.5 53.0493 272.764C57.208 276.911 68.4781 277.059 70.1174 282.488C70.7741 284.664 70.5596 287.314 68.9784 290.536C68.9784 290.536 74.6514 296.685 63.4483 304.345C63.4483 304.345 62.0457 309.493 55.4704 312.375C55.4704 312.375 51.7137 322.372 45.6386 316.969C39.5636 311.566 29.7676 297.981 33.4931 289.321C33.4886 289.321 29.2941 283.605 29.8525 281.657Z" fill="black" stroke="#B2B2B2" stroke-miterlimit="10"/>
<path d="M46.1747 299.679C46.1747 299.679 53.0002 306.691 55.4614 312.375" stroke="#B2B2B2" stroke-miterlimit="10"/>
<path d="M53.1029 291.073C53.1029 291.073 61.0272 296.301 63.4394 304.345" stroke="#B2B2B2" stroke-miterlimit="10"/>
<path d="M54.8405 276.545C54.8405 276.545 66.0882 284.486 68.9739 290.536" stroke="#B2B2B2" stroke-miterlimit="10"/>
<path d="M50.5657 312.983L49.6812 313.738C48.9665 314.35 47.89 314.27 47.2736 313.551L43.2086 308.805C42.5967 308.09 42.6771 307.013 43.3963 306.396L44.2807 305.641C44.9954 305.029 46.0719 305.109 46.6884 305.829L50.7533 310.574C51.3653 311.289 51.2804 312.366 50.5657 312.983Z" fill="#F39200" stroke="black" stroke-miterlimit="10"/>
<path d="M58.9724 304.939L58.088 305.694C57.3733 306.307 56.2967 306.226 55.6803 305.507L51.6154 300.761C51.0034 300.046 51.0838 298.969 51.803 298.352L52.6874 297.597C53.4022 296.985 54.4787 297.065 55.0951 297.785L59.16 302.531C59.772 303.25 59.6871 304.327 58.9724 304.939Z" fill="#F39200" stroke="black" stroke-miterlimit="10"/>
<path d="M66.1642 295.76L65.2797 296.516C64.565 297.128 63.4885 297.047 62.8721 296.328L58.8072 291.582C58.1952 290.867 58.2756 289.79 58.9948 289.173L59.8792 288.418C60.5939 287.806 61.6705 287.886 62.2869 288.606L66.3518 293.352C66.9638 294.067 66.8789 295.144 66.1642 295.76Z" fill="#F39200" stroke="black" stroke-miterlimit="10"/>
<path d="M46.8293 272.704L33.2361 283.259L34.5345 284.933L48.1277 274.377L46.8293 272.704Z" fill="#F39200" stroke="black" stroke-miterlimit="10"/>
<path d="M22.0041 340.032C22.0041 340.032 18.1402 306.678 29.7989 292.467C29.7989 292.467 19.4311 323.623 22.0041 340.032Z" fill="white"/>
<path d="M80.7665 141.919C80.7665 141.919 78.5822 149.292 82.9241 153.234C82.9241 153.234 82.6025 148.434 83.7281 147.576C83.7281 147.576 84.693 154.923 89.1152 156.853C89.1152 156.853 87.4267 151.947 87.7484 150.499C87.7484 150.499 91.3666 157.416 94.422 158.623C94.422 158.623 92.5726 154.601 92.5726 152.268C92.5726 152.268 96.9815 157.497 98.3931 158.301C98.3931 158.301 103.829 153.797 104.312 152.51C104.312 152.51 103.749 157.819 102.623 158.623C102.623 158.623 107.85 153.395 108.171 152.027C108.171 152.027 108.01 156.21 107.206 156.934C107.206 156.934 112.433 152.429 112.513 148.649C112.513 148.649 113.639 152.108 112.513 154.199C112.513 154.199 117.302 147.773 116.475 142.218C116.475 142.218 104.665 142.272 99.0988 128.727C99.0988 128.727 91.715 140.176 80.7665 141.919Z" fill="#F39200"/>
<path d="M87.056 139.783C87.056 139.783 87.668 144.984 88.6328 145.507C88.6328 145.507 88.9544 143.402 90.1203 142.625C90.1203 142.625 92.9345 143.858 92.7737 145.507C92.7737 145.507 94.9044 142.652 95.025 140.963C95.025 140.963 95.4672 143.738 96.3115 145.507C96.3115 145.507 98.0804 142.29 98.201 140.48C98.201 140.48 101.457 144.622 101.618 145.749C101.618 145.749 102.382 142.37 102.06 141.405C102.06 141.405 103.548 144.341 104.794 145.346C104.794 145.346 103.91 142.129 104.191 141.083C104.191 141.083 105.88 144.1 106.965 144.622C106.965 144.622 106.179 140.954 107.595 139.309L99.0988 128.727L87.056 139.783Z" fill="#F9B233"/>
<path d="M67.5802 130.658C67.5802 130.658 72.0829 140.632 80.7666 141.919C89.4503 143.206 99.4205 133.232 99.0988 128.727C99.0988 128.727 104.566 146.008 117.11 142.031C129.653 138.058 129.653 130.658 129.653 130.658C129.653 130.658 142.196 127.118 142.839 121.97C142.839 121.97 143.804 125.268 142.839 127.279C142.839 127.279 152.246 117.305 152.407 114.409C152.407 114.409 152.89 116.983 152.407 118.351C152.407 118.351 161.413 104.207 160.876 97.6648C160.876 97.6648 162.699 99.3808 162.056 100.453C162.056 100.453 166.13 89.192 164.629 82.9715C164.629 82.9715 166.804 83.548 167.447 85.693C167.447 85.693 168.037 72.8766 165.705 69.096C165.705 69.096 194.41 30.0837 172.218 3.37841C172.218 3.37841 155.172 -8.84812 135.553 19.7877C135.553 19.7877 126.95 14.6397 122.367 14.9614C122.367 14.9614 127.191 10.8591 129.282 10.9396C129.282 10.9396 118.99 10.6178 115.131 13.3527C115.131 13.3527 118.508 8.20467 119.875 8.12423C121.241 8.04379 108.457 9.25036 106.527 11.2613C106.527 11.2613 108.457 5.55023 110.789 4.90672C110.789 4.90672 101.944 6.51548 98.8085 11.02C98.8085 11.02 90.3481 7.15898 83.5941 8.04379C83.5941 8.04379 87.8556 9.73299 88.9812 11.9852C88.9812 11.9852 79.0111 9.16992 72.3375 10.2156C72.3375 10.2156 76.5185 11.5026 77.3226 13.594C77.3226 13.594 68.478 12.2266 66.1463 13.1918C66.1463 13.1918 71.2922 14.3179 71.2118 16.0876C71.2118 16.0876 65.7443 17.1333 62.4477 20.9138C62.4477 20.9138 39.7736 -7.85606 26.748 2.11822C13.7224 12.0925 9.86299 42.4979 31.7331 68.7206C31.7331 68.7206 27.9809 77.5688 29.2673 84.969C29.2673 84.969 31.5187 78.3732 33.1268 76.4426C33.1268 76.4426 30.8754 91.5649 32.3227 99.4478C32.3227 99.4478 34.7349 91.0823 36.1821 89.1518C36.1821 89.1518 35.5389 105.722 41.9713 115.053C41.9713 115.053 41.4889 108.779 41.9713 107.331C41.9713 107.331 44.2226 117.466 51.459 122.775C51.459 122.775 50.1726 119.075 50.9766 116.822C50.9766 116.818 58.7759 127.923 67.5802 130.658Z" fill="#F39200"/>
<path d="M66.8298 117.126C66.8298 117.126 52.6785 107.045 51.392 101.253C51.392 101.253 50.6952 104.203 50.9096 106.026C50.9096 106.026 44.1556 93.7993 45.0133 89.2947C45.0133 89.2947 42.6547 92.9412 42.8691 94.121C42.8691 94.121 39.1169 81.1437 40.8322 77.6045C40.8322 77.6045 38.2057 80.8488 37.9913 82.9938C37.9913 82.9938 38.8489 69.3462 41.261 66.9331C41.261 66.9331 37.8036 69.2702 37.482 71.3169C37.482 71.3169 36.2759 51.5695 43.0299 47.3867C43.0299 47.3867 40.5106 45.1881 38.1521 46.0461C38.1521 46.0461 42.0651 41.0053 45.2813 41.1126C45.2813 41.1126 42.3867 40.3618 40.1354 41.6488C40.1354 41.6488 43.0299 35.9646 49.7839 34.2485C49.7839 34.2485 48.5779 32.7873 46.2193 33.3235C46.2193 33.3235 48.0418 29.4625 53.0805 27.6393C53.0805 27.6393 53.831 27.3175 55.9751 27.6393C55.9751 27.6393 49.7571 35.1468 49.4355 43.2978C49.4355 43.2978 59.5665 28.0683 66.8298 26.7812C66.8298 26.7812 58.8697 36.97 57.2616 42.6543C57.2616 42.6543 59.9417 38.257 64.8732 34.7178C64.8732 34.7178 64.0156 37.2918 63.5868 42.118C63.5868 42.118 70.2336 30.106 80.0965 28.9263C80.0965 28.9263 70.5552 38.7933 73.8786 51.2343C73.8786 51.2343 75.7011 49.9473 75.9155 46.5153C75.9155 46.5153 77.0948 53.4866 76.5587 56.5968C76.5587 56.5968 78.274 56.4896 78.274 54.0228C78.274 54.0228 85.028 59.5462 84.7064 66.303C84.3848 73.0597 66.8298 117.126 66.8298 117.126Z" fill="#F9B233"/>
<path d="M129.188 116.492C129.188 116.492 143.339 106.41 144.626 100.619C144.626 100.619 145.323 103.568 145.108 105.391C145.108 105.391 151.862 93.1647 151.005 88.6602C151.005 88.6602 153.363 92.3067 153.149 93.4865C153.149 93.4865 156.901 80.5092 155.186 76.9699C155.186 76.9699 157.812 80.2143 158.027 82.3593C158.027 82.3593 157.169 68.7117 154.757 66.2985C154.757 66.2985 158.214 68.6357 158.536 70.6824C158.536 70.6824 159.742 50.9349 152.988 46.7522C152.988 46.7522 155.507 44.5536 157.866 45.4116C157.866 45.4116 153.953 40.3708 150.737 40.478C150.737 40.478 153.631 39.7273 155.882 41.0143C155.882 41.0143 152.988 35.33 146.234 33.614C146.234 33.614 147.44 32.1527 149.798 32.689C149.798 32.689 147.976 28.828 142.937 27.0047C142.937 27.0047 142.187 26.683 140.043 27.0047C140.043 27.0047 146.261 34.5122 146.582 42.6633C146.582 42.6633 136.451 27.4337 129.188 26.1467C129.188 26.1467 137.148 36.3355 138.756 42.0198C138.756 42.0198 136.076 37.6225 131.145 34.0832C131.145 34.0832 132.002 36.6573 132.431 41.4835C132.431 41.4835 125.784 29.4715 115.921 28.2917C115.921 28.2917 125.463 38.1588 122.139 50.5998C122.139 50.5998 120.317 49.3128 120.102 45.8808C120.102 45.8808 118.923 52.852 119.459 55.9623C119.459 55.9623 117.744 55.855 117.744 53.3883C117.744 53.3883 110.99 58.9117 111.311 65.6684C111.633 72.4252 129.188 116.492 129.188 116.492Z" fill="#F9B233"/>
<path d="M158.111 58.6793C158.111 58.6793 166.398 49.7864 164.575 40.2411C164.575 40.2411 167.47 45.1747 166.612 47.1052C166.612 47.1052 171.436 39.9194 167.684 33.1626C167.684 33.1626 170.793 35.9511 170.364 39.4904C170.364 39.4904 171.758 27.2639 168.756 24.6899C168.756 24.6899 171.758 26.1914 171.758 28.3364C171.758 28.3364 175.296 1.41656 153.962 12.9996C153.962 12.9996 157.928 12.7851 159.215 13.5358C159.215 13.5358 152.032 14.3938 149.352 18.0403C149.352 18.0403 154.176 16.7533 156.427 17.2896C156.427 17.2896 149.673 19.4346 146.672 22.7594C146.672 22.7594 149.673 22.1159 152.782 22.2231C152.782 22.2231 145.751 23.957 144.313 27.5856C144.313 27.5856 148.449 29.5117 149.799 32.6889C149.799 32.6889 147.712 32.2242 146.234 33.614C146.234 33.614 152.322 34.8831 155.882 41.0142C155.882 41.0142 154.252 39.7094 150.737 40.478C150.737 40.478 153.984 40.4065 157.866 45.4115C157.866 45.4115 155.914 44.4284 152.988 46.7521C152.988 46.7521 156.829 48.6022 158.111 58.6793Z" fill="#EC661A"/>
<path d="M43.03 47.3868C43.03 47.3868 40.4704 45.0541 38.1521 46.0461C38.1521 46.0461 41.2745 41.5148 45.2813 41.1126C45.2813 41.1126 41.8641 40.4423 40.1354 41.6489C40.1354 41.6489 43.0434 35.8842 49.784 34.2486C49.784 34.2486 48.6181 32.7471 46.2193 33.3236C46.2193 33.3236 48.1491 29.6368 51.535 28.3096C51.535 28.3096 46.0719 23.8721 42.4805 24.1403C42.4805 24.1403 45.2143 22.9069 47.3048 23.2823C47.3048 23.2823 43.767 19.8503 39.4787 20.4938C39.4787 20.4938 42.3197 18.9923 44.6782 20.0648C44.6782 20.0648 40.4436 15.3457 36.6914 15.3457C36.6914 15.3457 38.6434 14.166 41.6318 14.7022C41.6318 14.7022 37.8706 5.80047 29.0797 13.8442C29.0797 13.8442 23.505 19.314 24.3627 31.6478C24.3627 31.6478 25.6491 26.4998 28.0077 24.9983C28.0077 24.9983 24.2554 32.2913 26.078 38.7263C26.078 38.7263 26.078 33.7928 28.9725 31.6478C28.9725 31.6478 26.8284 40.5496 30.4734 48.9151C30.4734 48.9151 29.723 45.1613 31.8671 42.1583C31.8671 42.1583 32.6577 53.1649 36.1955 57.1331C36.1955 57.1331 34.3909 61.4812 31.7331 68.7162C31.7331 68.7162 37.683 50.2557 43.03 47.3868Z" fill="#EC661A"/>
<path d="M94.4756 45.054C94.4756 45.054 95.5476 53.0977 96.4053 54.921C96.4053 54.921 98.6566 50.7382 98.871 46.1265C98.871 46.1265 101.98 53.5267 101.551 58.0312C101.551 58.0312 104.231 52.9905 104.231 49.344C104.231 49.344 105.625 55.9935 105.089 58.0312C105.089 58.0312 107.34 56.208 107.662 53.8485C107.662 53.8485 109.484 57.6022 107.662 62.1067C107.662 62.1067 109.851 61.6241 111.302 58.0849C111.302 58.0849 112.022 61.2621 111.302 64.4797C111.302 64.4797 114.371 82.1179 126.405 109.409C126.405 109.409 125.472 111.817 124.828 113.104C124.828 113.104 123.301 109.444 122.497 109.404C122.497 109.404 121.733 112.903 121.25 113.989C121.25 113.989 120.326 110.41 119.12 110.168C119.12 110.168 119.079 113.506 118.235 114.592C118.235 114.592 116.265 110.048 115.099 109.967C115.099 109.967 113.572 114.271 113.25 114.874L81.0614 113.868C81.0614 113.868 79.9893 111.294 80.0965 110.758C80.0965 110.758 78.274 112.233 78.5956 114.874C78.5956 114.874 76.2371 112.367 76.1299 110.544C76.1299 110.544 75.0042 110.973 75.0846 113.466C75.0846 113.466 72.9941 111.053 73.0745 109.766C73.0745 109.766 71.5468 110.812 71.788 112.501C71.788 112.501 70.0504 108.926 70.5998 107.505C71.1493 106.084 83.5941 71.3213 83.5941 71.3213C83.5941 71.3213 86.712 64.7478 82.5087 58.9429C82.5087 58.9429 86.8818 60.2701 87.5786 61.6643C87.5786 61.6643 86.989 55.5511 85.0057 54.3177C85.0057 54.3177 89.7227 55.8192 89.9372 58.286C89.9327 58.286 95.0518 49.3574 94.4756 45.054Z" fill="#F9B233"/>
<path d="M82.0531 111.16C82.0531 111.16 77.1216 102.044 79.4801 95.8236C79.4801 95.8236 81.1954 100.864 82.0531 101.722C82.0531 101.722 81.1641 92.2844 84.7153 89.0669C84.7153 89.0669 84.4116 94.0004 86.2341 97.3252C86.2341 97.3252 85.6981 90.8901 89.5575 87.3509C93.4169 83.8116 97.9196 73.0866 97.8124 69.7618C97.8124 69.7618 109.712 87.4581 106.603 95.6091C106.603 95.6091 108.426 96.2527 109.605 91.1046C109.605 91.1046 111.964 96.3599 109.176 100.65C109.176 100.65 113.25 97.3252 113.572 94.8584C113.572 94.8584 113.858 106.978 111.303 109.873C111.303 109.873 94.2835 112.818 82.0531 111.16Z" fill="#EC661A"/>
<path d="M99.0988 128.727C99.0988 128.727 103.24 144.529 116.475 142.218C116.475 142.218 128.103 139.859 129.653 130.658C131.207 121.461 132.06 123.141 126.405 109.413L124.828 113.109C124.828 113.109 123.381 109.663 122.497 109.409C122.497 109.409 121.612 113.229 121.25 113.994C121.25 113.994 120.245 110.28 119.12 110.173C119.12 110.173 119.093 113.551 118.235 114.597C118.235 114.597 116.734 109.556 113.867 110.521C110.999 111.487 81.0614 113.873 81.0614 113.873C81.0614 113.873 79.9089 111.393 80.0965 110.763C80.0965 110.763 78.1936 112.224 78.5956 114.878C78.5956 114.878 76.1567 112.13 76.1299 110.548C76.1299 110.548 74.7898 111.621 75.0846 113.471C75.0846 113.471 72.8199 110.736 73.0745 109.771C73.0745 109.771 71.6138 110.454 71.788 112.505C71.788 112.505 70.1933 109.221 70.3944 108.041C70.3944 108.041 62.2958 116.617 67.5802 130.662C73.2621 145.749 93.5956 145.69 99.0988 128.727Z" fill="#CA9E67"/>
<path d="M114.394 113.507C114.394 116.527 111.946 118.976 108.926 118.976C108.926 118.976 104.531 120.272 103.633 122.802C103.628 122.81 103.628 122.815 103.624 122.824C102.896 124.982 100.854 126.537 98.4467 126.537C96.039 126.537 93.9976 124.982 93.2695 122.824C93.2695 122.824 93.2695 122.819 93.265 122.819C91.6748 120.46 87.056 119.419 87.056 119.419C84.0364 119.419 81.5885 116.97 81.5885 113.949C81.5885 110.928 84.0364 108.479 87.056 108.479C88.1102 108.479 89.0929 108.779 89.9282 109.297C89.9282 109.301 89.9327 109.301 89.9372 109.301C92.5414 110.003 96.2177 110.879 97.8392 110.731C99.4919 110.579 103.378 109.574 106.081 108.832C106.911 108.327 107.885 108.037 108.926 108.037C111.946 108.037 114.394 110.486 114.394 113.507Z" fill="black"/>
<path d="M115.077 79.1953C115.077 79.1953 109.851 63.5591 121.536 55.5154C121.536 55.5154 120.679 57.8749 120.571 59.2691C120.571 59.2691 126.874 52.2978 126.405 50.1528C126.405 50.1528 127.357 54.4428 126.432 55.7298C126.432 55.7298 129.903 51.7616 130.117 49.5093C130.117 49.5093 130.868 51.8688 129.581 53.9066C129.581 53.9066 133.119 50.9036 133.441 48.8658C133.441 48.8658 134.191 52.2978 133.441 53.2631C133.441 53.2631 138.05 50.4746 138.908 47.2571C138.908 47.2571 139.015 53.5848 138.372 55.1936C138.372 55.1936 143.304 52.0833 143.732 49.1876C143.732 49.1876 145.662 55.8371 142.124 59.1619C142.124 59.1619 147.056 57.9821 147.699 56.1588C147.699 56.1588 145.863 61.3069 144.313 62.1649C144.313 62.1649 145.341 63.7513 147.699 63.224C147.699 63.224 146.734 67.3129 141.695 68.9216C141.695 68.9216 143.732 69.6724 145.662 69.1361C145.662 69.1361 144.032 72.1391 139.971 72.9971C139.971 72.9971 139.873 74.4986 141.91 74.0696C141.91 74.0696 139.444 77.2871 135.906 77.2871C135.906 77.2871 135.799 79.0032 137.943 78.5742C137.943 78.5742 134.191 81.3627 130.332 81.2554C130.332 81.2554 129.796 82.7569 132.047 82.8642C132.047 82.8642 121.746 85.3711 116.605 84.0082L115.077 79.1953Z" fill="#EC661A"/>
<path d="M80.4584 79.9417C80.4584 79.9417 85.6847 64.3055 73.9992 56.2617C73.9992 56.2617 74.8568 58.6212 74.964 60.0154C74.964 60.0154 68.6612 53.0442 69.1302 50.8992C69.1302 50.8992 68.1788 55.1892 69.1034 56.4762C69.1034 56.4762 65.6326 52.5079 65.4182 50.2557C65.4182 50.2557 64.6678 52.6152 65.9542 54.6529C65.9542 54.6529 62.4164 51.6499 62.0948 49.6122C62.0948 49.6122 61.3444 53.0442 62.0948 54.0094C62.0948 54.0094 57.4849 51.2209 56.6273 48.0034C56.6273 48.0034 56.5201 54.3312 57.1633 55.9399C57.1633 55.9399 52.2318 52.8297 51.803 49.9339C51.803 49.9339 49.8733 56.5834 53.4111 59.9082C53.4111 59.9082 48.4796 58.7284 47.8364 56.9052C47.8364 56.9052 49.6723 62.0532 51.2223 62.9112C51.2223 62.9112 50.1949 64.4976 47.8364 63.9703C47.8364 63.9703 48.8012 68.0592 53.8399 69.668C53.8399 69.668 51.803 70.4187 49.8733 69.8825C49.8733 69.8825 51.5037 72.8855 55.5642 73.7435C55.5642 73.7435 55.6624 75.245 53.6255 74.816C53.6255 74.816 56.0913 78.0335 59.6291 78.0335C59.6291 78.0335 59.7363 79.7495 57.5921 79.3205C57.5921 79.3205 61.3444 82.109 65.2038 82.0017C65.2038 82.0017 65.7398 83.5033 63.4885 83.6105C63.4885 83.6105 73.7892 86.1175 78.9307 84.7545L80.4584 79.9417Z" fill="#EC661A"/>
<path d="M121.697 62.7056C121.697 62.7056 132.31 58.8446 133.275 55.788C133.275 55.788 132.713 59.3272 131.346 60.5338C131.346 60.5338 136.009 60.0467 137.054 58.6793C137.054 58.6793 137.135 60.6947 136.411 61.2577C136.411 61.2577 138.18 62.0621 138.823 60.936C138.823 60.936 138.18 62.8665 137.054 63.1882C137.054 63.1882 141.075 63.1882 142.602 65.0383C142.602 65.0383 136.894 67.3084 135.527 71.3214C134.16 75.3343 127.325 77.667 123.466 75.6561C123.466 75.6561 118.682 85.0673 130.805 96.8112C130.805 96.8112 127.969 96.2481 127.406 95.4437C127.406 95.4437 133.034 102.04 133.034 105.498C133.034 105.498 132.552 104.211 130.381 103.729C130.381 103.729 134.531 109.641 134.464 112.398C134.464 112.398 132.873 110.807 131.506 110.807C131.506 110.807 134.321 115.285 133.838 120.084C133.838 120.084 129.443 112.215 127.66 112.474C127.66 112.474 116.466 84.9377 115.479 80.9113C114.496 76.8805 116.855 64.7389 121.697 62.7056Z" fill="black"/>
<path d="M74.2404 62.7056C74.2404 62.7056 63.627 58.8446 62.6621 55.788C62.6621 55.788 63.2249 59.3272 64.5918 60.5338C64.5918 60.5338 59.9283 60.0467 58.8831 58.6793C58.8831 58.6793 58.8027 60.6947 59.5263 61.2577C59.5263 61.2577 57.7574 62.0621 57.1142 60.936C57.1142 60.936 57.7574 62.8665 58.8831 63.1882C58.8831 63.1882 54.8628 63.1882 53.3351 65.0383C53.3351 65.0383 59.0439 67.3084 60.4108 71.3214C61.7776 75.3343 68.612 77.667 72.4715 75.6561C72.4715 75.6561 77.2556 85.0673 65.1323 96.8112C65.1323 96.8112 67.9688 96.2481 68.5316 95.4437C68.5316 95.4437 62.9033 102.04 62.9033 105.498C62.9033 105.498 63.3857 104.211 65.5567 103.729C65.5567 103.729 61.4069 109.641 61.4739 112.398C61.4739 112.398 63.0641 110.807 64.431 110.807C64.431 110.807 61.6168 115.285 62.0993 120.084C62.0993 120.084 66.4947 112.215 68.277 112.474C68.277 112.474 79.4712 84.9377 80.4583 80.9113C81.4455 76.8805 79.087 64.7389 74.2404 62.7056Z" fill="black"/>
<path d="M63.1624 65.7891L75.4911 67.8268C75.4911 67.8268 75.0087 75.0126 68.1475 74.3155C61.2863 73.6183 63.1624 65.7891 63.1624 65.7891Z" fill="white"/>
<path d="M65.4405 66.2985C64.7303 68.3854 65.7353 71.1649 67.8169 71.8934C69.3759 72.443 71.051 71.9604 72.0962 70.8074C72.5921 70.2578 72.8869 69.5562 73.012 68.8278L73.2442 67.4514L65.4405 66.2985Z" fill="black"/>
<path d="M69.1392 69.5384C69.714 69.5384 70.1799 69.0722 70.1799 68.4972C70.1799 67.9221 69.714 67.4559 69.1392 67.4559C68.5643 67.4559 68.0984 67.9221 68.0984 68.4972C68.0984 69.0722 68.5643 69.5384 69.1392 69.5384Z" fill="white"/>
<path d="M133.463 64.949L121.134 66.9867C121.134 66.9867 121.617 74.1725 128.478 73.4754C135.339 72.7782 133.463 64.949 133.463 64.949Z" fill="white"/>
<path d="M131.185 65.4584C131.895 67.5453 130.89 70.3249 128.808 71.0533C127.249 71.6029 125.574 71.1203 124.529 69.9674C124.033 69.4177 123.738 68.7161 123.613 67.9877L123.381 66.6113L131.185 65.4584Z" fill="black"/>
<path d="M127.491 68.6982C128.065 68.6982 128.531 68.232 128.531 67.6569C128.531 67.0819 128.065 66.6157 127.491 66.6157C126.916 66.6157 126.45 67.0819 126.45 67.6569C126.45 68.232 126.916 68.6982 127.491 68.6982Z" fill="white"/>
<path d="M98.3886 33.3458C99.59 33.3458 100.564 31.4491 100.564 29.1094C100.564 26.7697 99.59 24.873 98.3886 24.873C97.1872 24.873 96.2132 26.7697 96.2132 29.1094C96.2132 31.4491 97.1872 33.3458 98.3886 33.3458Z" fill="black"/>
<path d="M90.6774 29.2047C91.9558 27.2455 92.1765 25.1246 91.1704 24.4676C90.1643 23.8107 88.3124 24.8664 87.0341 26.8256C85.7557 28.7849 85.535 30.9058 86.5411 31.5627C87.5472 32.2197 89.3991 31.164 90.6774 29.2047Z" fill="black"/>
<path d="M109.257 30.9032C110.263 30.2462 110.043 28.1254 108.764 26.1661C107.486 24.2069 105.634 23.1511 104.628 23.8081C103.622 24.4651 103.843 26.586 105.121 28.5452C106.399 30.5045 108.251 31.5602 109.257 30.9032Z" fill="black"/>
<path d="M120.584 26.2891C120.987 25.1566 119.526 23.6034 117.322 22.8201C115.119 22.0368 113.006 22.3199 112.604 23.4525C112.201 24.585 113.662 26.1382 115.866 26.9215C118.069 27.7048 120.182 27.4217 120.584 26.2891Z" fill="black"/>
<path d="M121.868 19.534C122.27 18.4014 120.809 16.8483 118.606 16.065C116.402 15.2816 114.289 15.5648 113.887 16.6973C113.485 17.8299 114.945 19.3831 117.149 20.1664C119.353 20.9497 121.465 20.6666 121.868 19.534Z" fill="black"/>
<path d="M128.965 22.778C129.498 22.1241 128.901 20.7526 127.63 19.7147C126.359 18.6768 124.896 18.3655 124.362 19.0194C123.829 19.6733 124.426 21.0448 125.697 22.0827C126.968 23.1206 128.431 23.4319 128.965 22.778Z" fill="black"/>
<path d="M133.152 29.6778C133.734 28.9646 133.082 27.4692 131.697 26.3376C130.311 25.206 128.716 24.8669 128.134 25.58C127.552 26.2932 128.204 27.7887 129.59 28.9202C130.975 30.0518 132.57 30.391 133.152 29.6778Z" fill="black"/>
<path d="M107.13 21.0552C109.461 20.8584 111.268 19.7279 111.167 18.5302C111.066 17.3325 109.095 16.521 106.764 16.7178C104.434 16.9146 102.626 18.045 102.727 19.2428C102.828 20.4405 104.8 21.2519 107.13 21.0552Z" fill="black"/>
<path d="M89.0428 22.0204C91.3733 21.8236 93.1807 20.6931 93.0797 19.4954C92.9786 18.2977 91.0074 17.4863 88.6769 17.683C86.3463 17.8798 84.539 19.0103 84.64 20.208C84.7411 21.4057 86.7122 22.2171 89.0428 22.0204Z" fill="black"/>
<path d="M97.3701 15.7826C97.8024 14.9006 96.763 13.5038 95.0484 12.6627C93.3339 11.8216 91.5936 11.8548 91.1613 12.7368C90.7289 13.6187 91.7684 15.0156 93.4829 15.8567C95.1974 16.6977 96.9378 16.6646 97.3701 15.7826Z" fill="black"/>
<path d="M103.067 15.8598C104.782 15.0187 105.821 13.6218 105.389 12.7399C104.957 11.8579 103.216 11.8247 101.502 12.6658C99.7872 13.5069 98.7477 14.9037 99.1801 15.7857C99.6124 16.6677 101.353 16.7008 103.067 15.8598Z" fill="black"/>
<path d="M80.3313 29.0355C82.1355 27.4969 82.9572 25.4975 82.1666 24.5697C81.376 23.6419 79.2725 24.137 77.4684 25.6756C75.6642 27.2142 74.8425 29.2136 75.6331 30.1414C76.4236 31.0692 78.5271 30.5741 80.3313 29.0355Z" fill="black"/>
<path d="M80.2688 20.5635C82.073 19.0249 82.8947 17.0255 82.1041 16.0977C81.3136 15.1699 79.2101 15.665 77.4059 17.2036C75.6017 18.7421 74.78 20.7415 75.5706 21.6693C76.3612 22.5972 78.4647 22.102 80.2688 20.5635Z" fill="black"/>
<path d="M67.2225 31.8925C69.0267 30.3539 69.8484 28.3545 69.0578 27.4267C68.2672 26.4988 66.1638 26.994 64.3596 28.5325C62.5554 30.0711 61.7337 32.0705 62.5243 32.9983C63.3149 33.9261 65.4183 33.431 67.2225 31.8925Z" fill="black"/>
<path d="M69.1092 23.1917C70.3858 22.103 70.9666 20.6876 70.4065 20.0302C69.8464 19.3729 68.3574 19.7225 67.0808 20.8112C65.8041 21.8999 65.2233 23.3154 65.7834 23.9727C66.3435 24.6301 67.8325 24.2804 69.1092 23.1917Z" fill="black"/>
<path d="M140.838 12.9371C140.838 12.9371 140.177 17.4148 141.302 21.3562C141.302 21.3562 143.071 14.2777 145.001 12.5081C145.001 12.5081 144.76 15.5647 145.644 16.9321C145.644 16.9321 147.333 12.1238 149.021 10.1039C149.021 10.1039 148.539 11.7037 149.021 13.8755C149.021 13.8755 153.653 2.40421 156.687 1.71155C156.687 1.71155 148.016 4.35705 140.838 12.9371Z" fill="black"/>
<path d="M166.898 54.8495C166.898 54.8495 176.122 50.1127 177.355 46.0371C178.588 41.9616 184.583 23.1884 175.421 7.86499C175.421 7.86499 176.229 17.5265 174.728 19.886C174.728 19.886 176.98 17.6337 177.087 16.6684C177.087 16.6684 176.765 23.0811 175.05 26.1467C175.05 26.1467 178.159 25.1412 178.373 23.747C178.373 23.747 176.658 35.33 173.12 39.2983C173.12 39.2983 177.516 36.7242 178.052 35.1155C178.047 35.1155 173.009 48.629 166.898 54.8495Z" fill="black"/>
<path d="M29.3522 57.5844C29.3522 57.5844 21.2045 47.2884 20.9901 42.3549C20.9901 42.3549 21.955 44.2854 23.5631 44.6072C23.5631 44.6072 17.8811 34.0966 18.7388 29.1095C18.7388 29.1095 19.2748 30.3429 21.6333 32.2734C21.6333 32.2734 18.4172 24.9133 19.918 19.8502C19.918 19.8502 20.1325 22.1919 21.3117 23.3716C21.3117 23.3716 20.9678 7.75328 23.5809 5.15247C23.5809 5.15247 7.71885 25.0787 22.0756 53.7726C22.0756 53.7726 24.0991 56.2974 29.3522 57.5844Z" fill="black"/>
<path d="M56.0466 21.4411C56.0466 21.4411 57.0918 16.9545 56.5156 14.2643C56.5156 14.2643 42.5386 -0.49606 33.426 0.0133784C33.426 0.0133784 44.2539 6.42605 45.0579 12.4321C45.0579 12.4321 45.7548 9.32181 45.0579 7.49855C45.0579 7.49855 49.3998 11.8958 49.7214 18.3308C49.7214 18.3308 50.7935 14.4698 50.579 12.5393C50.579 12.5393 54.0096 13.2901 56.0466 21.4411Z" fill="black"/>
<path d="M41.3202 70.5843C42.184 68.3807 42.3033 66.3665 41.5867 66.0854C40.8701 65.8043 39.589 67.3627 38.7252 69.5662C37.8614 71.7697 37.7421 73.7839 38.4587 74.0651C39.1753 74.3462 40.4565 72.7878 41.3202 70.5843Z" fill="black"/>
<path d="M36.6684 83.8225C37.3361 83.7895 37.7954 82.1001 37.6942 80.0492C37.593 77.9983 36.9697 76.3624 36.3019 76.3954C35.6342 76.4283 35.1749 78.1177 35.2761 80.1686C35.3772 82.2196 36.0006 83.8554 36.6684 83.8225Z" fill="black"/>
<path d="M40.1737 97.0779C40.7405 97.05 41.1303 95.6164 41.0444 93.8761C40.9586 92.1358 40.4295 90.7476 39.8628 90.7756C39.2961 90.8036 38.9062 92.2371 38.9921 93.9775C39.078 95.7178 39.607 97.1059 40.1737 97.0779Z" fill="black"/>
<path d="M44.1636 88.9887C44.8289 88.9558 45.2863 87.2686 45.1852 85.2201C45.0841 83.1716 44.4629 81.5377 43.7976 81.5705C43.1323 81.6034 42.6749 83.2906 42.776 85.3391C42.877 87.3876 43.4983 89.0215 44.1636 88.9887Z" fill="black"/>
<path d="M48.897 75.4349C49.668 73.4681 49.7754 71.6705 49.1369 71.42C48.4984 71.1695 47.3558 72.5609 46.5848 74.5278C45.8137 76.4947 45.7063 78.2922 46.3448 78.5427C46.9834 78.7932 48.126 77.4018 48.897 75.4349Z" fill="black"/>
<path d="M57.3259 85.4743C57.6945 84.8957 56.5497 83.5061 54.7688 82.3706C52.988 81.235 51.2455 80.7835 50.8769 81.3621C50.5082 81.9407 51.653 83.3303 53.4339 84.4659C55.2148 85.6014 56.9573 86.0529 57.3259 85.4743Z" fill="black"/>
<path d="M55.2005 95.6821C55.7033 95.2155 54.9469 93.5816 53.5109 92.0326C52.0749 90.4836 50.5031 89.6062 50.0003 90.0727C49.4974 90.5393 50.2539 92.1732 51.6899 93.7222C53.1259 95.2711 54.6976 96.1486 55.2005 95.6821Z" fill="black"/>
<path d="M47.3022 106.861C48.0098 106.628 48.0419 104.795 47.3739 102.768C46.706 100.741 45.591 99.2861 44.8834 99.5194C44.1758 99.7527 44.1437 101.585 44.8116 103.613C45.4796 105.64 46.5946 107.095 47.3022 106.861Z" fill="black"/>
<path d="M61.3445 93.2141C61.9092 93.0279 61.9725 91.6799 61.4861 90.2033C60.9996 88.7266 60.1475 87.6805 59.5829 87.8666C59.0182 88.0528 58.9548 89.4008 59.4413 90.8774C59.9278 92.3541 60.7799 93.4002 61.3445 93.2141Z" fill="black"/>
<path d="M57.8863 105.713C58.451 105.526 58.5144 104.178 58.0279 102.702C57.5414 101.225 56.6893 100.179 56.1247 100.365C55.56 100.551 55.4967 101.899 55.9831 103.376C56.4696 104.853 57.3217 105.899 57.8863 105.713Z" fill="black"/>
<path d="M57.2374 113.66C57.6578 113.24 57.1077 112.008 56.0088 110.908C54.9098 109.809 53.6781 109.258 53.2576 109.679C52.8372 110.1 53.3873 111.332 54.4863 112.431C55.5853 113.531 56.817 114.081 57.2374 113.66Z" fill="black"/>
<path d="M157.786 73.964C158.503 73.6829 158.384 71.6687 157.52 69.4652C156.656 67.2616 155.375 65.7032 154.658 65.9844C153.942 66.2655 154.061 68.2797 154.925 70.4832C155.789 72.6868 157.07 74.2452 157.786 73.964Z" fill="black"/>
<path d="M160.962 80.0609C161.063 78.01 160.604 76.3206 159.936 76.2876C159.268 76.2547 158.645 77.8905 158.544 79.9415C158.442 81.9924 158.902 83.6818 159.569 83.7147C160.237 83.7477 160.861 82.1118 160.962 80.0609Z" fill="black"/>
<path d="M157.243 93.8674C157.329 92.1271 156.939 90.6936 156.372 90.6656C155.805 90.6376 155.276 92.0257 155.191 93.7661C155.105 95.5064 155.494 96.9399 156.061 96.9679C156.628 96.9959 157.157 95.6078 157.243 93.8674Z" fill="black"/>
<path d="M153.459 85.233C153.56 83.1845 153.103 81.4973 152.437 81.4644C151.772 81.4316 151.151 83.0656 151.05 85.114C150.949 87.1625 151.406 88.8498 152.071 88.8826C152.737 88.9155 153.358 87.2815 153.459 85.233Z" fill="black"/>
<path d="M149.904 78.4465C150.543 78.196 150.435 76.3985 149.664 74.4316C148.893 72.4648 147.751 71.0734 147.112 71.3239C146.474 71.5744 146.581 73.3719 147.352 75.3388C148.123 77.3056 149.266 78.697 149.904 78.4465Z" fill="black"/>
<path d="M142.809 84.3546C144.59 83.2191 145.735 81.8295 145.366 81.2509C144.998 80.6723 143.255 81.1238 141.474 82.2594C139.694 83.3949 138.549 84.7845 138.917 85.3631C139.286 85.9417 141.028 85.4902 142.809 84.3546Z" fill="black"/>
<path d="M144.544 93.618C145.98 92.069 146.737 90.4351 146.234 89.9686C145.731 89.502 144.159 90.3795 142.723 91.9285C141.287 93.4775 140.531 95.1114 141.034 95.5779C141.536 96.0445 143.108 95.167 144.544 93.618Z" fill="black"/>
<path d="M151.409 103.517C152.077 101.489 152.044 99.6565 151.337 99.4232C150.629 99.1899 149.514 100.644 148.846 102.672C148.178 104.699 148.211 106.532 148.918 106.765C149.626 106.999 150.741 105.544 151.409 103.517Z" fill="black"/>
<path d="M136.783 90.7777C137.27 89.3011 137.206 87.9531 136.642 87.7669C136.077 87.5807 135.225 88.6269 134.739 90.1035C134.252 91.5802 134.315 92.9281 134.88 93.1143C135.445 93.3005 136.297 92.2543 136.783 90.7777Z" fill="black"/>
<path d="M140.239 103.278C140.725 101.801 140.662 100.453 140.097 100.267C139.532 100.081 138.68 101.127 138.194 102.603C137.707 104.08 137.771 105.428 138.335 105.614C138.9 105.8 139.752 104.754 140.239 103.278Z" fill="black"/>
<path d="M141.751 112.329C142.85 111.229 143.4 109.997 142.979 109.577C142.559 109.156 141.327 109.706 140.228 110.806C139.129 111.905 138.579 113.137 139 113.558C139.42 113.979 140.652 113.428 141.751 112.329Z" fill="black"/>
<path d="M105.643 127.083C111.566 128.481 117.994 128.164 123.6 125.724C124.422 125.411 125.172 124.955 125.972 124.589C120.098 128.539 112.308 129.335 105.643 127.083Z" fill="#B17F4A"/>
<path d="M105.643 129.455C111.566 130.854 117.994 130.537 123.6 128.097C124.422 127.784 125.172 127.328 125.972 126.962C120.098 130.912 112.308 131.708 105.643 129.455Z" fill="#B17F4A"/>
<path d="M105.911 132.074C111.834 133.473 118.262 133.156 123.868 130.716C124.69 130.403 125.44 129.947 126.24 129.581C120.366 133.531 112.576 134.326 105.911 132.074Z" fill="#B17F4A"/>
<path d="M70.9617 124.884C76.4739 127.471 82.8258 128.477 88.816 127.239C89.6826 127.105 90.5134 126.81 91.3711 126.613C84.8136 129.277 77.0233 128.454 70.9617 124.884Z" fill="#B17F4A"/>
<path d="M70.4748 127.208C75.987 129.795 82.3389 130.801 88.3291 129.563C89.1957 129.429 90.0265 129.134 90.8842 128.937C84.3267 131.596 76.5364 130.778 70.4748 127.208Z" fill="#B17F4A"/>
<path d="M70.2023 129.826C75.7145 132.414 82.0664 133.419 88.0566 132.181C88.9232 132.047 89.754 131.752 90.6117 131.556C84.0498 134.219 76.2639 133.397 70.2023 129.826Z" fill="#B17F4A"/>
<path d="M122.943 122.176C123.077 122.176 123.185 122.068 123.185 121.935C123.185 121.801 123.077 121.693 122.943 121.693C122.81 121.693 122.702 121.801 122.702 121.935C122.702 122.068 122.81 122.176 122.943 122.176Z" fill="#B17F4A"/>
<path d="M123.555 122.73C123.688 122.73 123.796 122.622 123.796 122.489C123.796 122.355 123.688 122.247 123.555 122.247C123.422 122.247 123.314 122.355 123.314 122.489C123.314 122.622 123.422 122.73 123.555 122.73Z" fill="#B17F4A"/>
<path d="M123.689 121.577C123.822 121.577 123.93 121.469 123.93 121.336C123.93 121.202 123.822 121.094 123.689 121.094C123.556 121.094 123.448 121.202 123.448 121.336C123.448 121.469 123.556 121.577 123.689 121.577Z" fill="#B17F4A"/>
<path d="M124.44 122.578C124.573 122.578 124.681 122.47 124.681 122.337C124.681 122.203 124.573 122.095 124.44 122.095C124.307 122.095 124.199 122.203 124.199 122.337C124.199 122.47 124.307 122.578 124.44 122.578Z" fill="#B17F4A"/>
<path d="M124.44 121.693C124.573 121.693 124.681 121.585 124.681 121.452C124.681 121.319 124.573 121.211 124.44 121.211C124.307 121.211 124.199 121.319 124.199 121.452C124.199 121.585 124.307 121.693 124.44 121.693Z" fill="#B17F4A"/>
<path d="M123.314 120.326C123.447 120.326 123.555 120.218 123.555 120.084C123.555 119.951 123.447 119.843 123.314 119.843C123.181 119.843 123.073 119.951 123.073 120.084C123.073 120.218 123.181 120.326 123.314 120.326Z" fill="#B17F4A"/>
<path d="M122.59 121.13C122.724 121.13 122.832 121.022 122.832 120.889C122.832 120.755 122.724 120.647 122.59 120.647C122.457 120.647 122.349 120.755 122.349 120.889C122.349 121.022 122.457 121.13 122.59 121.13Z" fill="#B17F4A"/>
<path d="M121.84 121.935C121.973 121.935 122.081 121.826 122.081 121.693C122.081 121.56 121.973 121.452 121.84 121.452C121.707 121.452 121.599 121.56 121.599 121.693C121.599 121.826 121.707 121.935 121.84 121.935Z" fill="#B17F4A"/>
<path d="M123.448 123.619C123.581 123.619 123.689 123.511 123.689 123.378C123.689 123.245 123.581 123.137 123.448 123.137C123.315 123.137 123.207 123.245 123.207 123.378C123.207 123.511 123.315 123.619 123.448 123.619Z" fill="#B17F4A"/>
<path d="M124.681 123.378C124.814 123.378 124.922 123.27 124.922 123.137C124.922 123.003 124.814 122.895 124.681 122.895C124.548 122.895 124.44 123.003 124.44 123.137C124.44 123.27 124.548 123.378 124.681 123.378Z" fill="#B17F4A"/>
<path d="M124.199 120.648C124.332 120.648 124.44 120.54 124.44 120.406C124.44 120.273 124.332 120.165 124.199 120.165C124.065 120.165 123.957 120.273 123.957 120.406C123.957 120.54 124.065 120.648 124.199 120.648Z" fill="#B17F4A"/>
<path d="M122.461 122.931C122.594 122.931 122.702 122.823 122.702 122.69C122.702 122.557 122.594 122.448 122.461 122.448C122.328 122.448 122.22 122.557 122.22 122.69C122.22 122.823 122.328 122.931 122.461 122.931Z" fill="#B17F4A"/>
<path d="M76.5587 121.863C76.6919 121.863 76.7999 121.755 76.7999 121.622C76.7999 121.489 76.6919 121.38 76.5587 121.38C76.4255 121.38 76.3175 121.489 76.3175 121.622C76.3175 121.755 76.4255 121.863 76.5587 121.863Z" fill="#B17F4A"/>
<path d="M75.9468 122.417C76.08 122.417 76.188 122.309 76.188 122.176C76.188 122.043 76.08 121.935 75.9468 121.935C75.8135 121.935 75.7055 122.043 75.7055 122.176C75.7055 122.309 75.8135 122.417 75.9468 122.417Z" fill="#B17F4A"/>
<path d="M75.8127 121.264C75.9459 121.264 76.0539 121.156 76.0539 121.023C76.0539 120.89 75.9459 120.782 75.8127 120.782C75.6795 120.782 75.5715 120.89 75.5715 121.023C75.5715 121.156 75.6795 121.264 75.8127 121.264Z" fill="#B17F4A"/>
<path d="M75.0623 122.265C75.1955 122.265 75.3035 122.157 75.3035 122.024C75.3035 121.891 75.1955 121.783 75.0623 121.783C74.9291 121.783 74.8211 121.891 74.8211 122.024C74.8211 122.157 74.9291 122.265 75.0623 122.265Z" fill="#B17F4A"/>
<path d="M75.0623 121.38C75.1955 121.38 75.3035 121.272 75.3035 121.139C75.3035 121.006 75.1955 120.898 75.0623 120.898C74.9291 120.898 74.8211 121.006 74.8211 121.139C74.8211 121.272 74.9291 121.38 75.0623 121.38Z" fill="#B17F4A"/>
<path d="M76.188 120.013C76.3212 120.013 76.4292 119.905 76.4292 119.772C76.4292 119.638 76.3212 119.53 76.188 119.53C76.0547 119.53 75.9467 119.638 75.9467 119.772C75.9467 119.905 76.0547 120.013 76.188 120.013Z" fill="#B17F4A"/>
<path d="M76.9116 120.817C77.0448 120.817 77.1528 120.709 77.1528 120.576C77.1528 120.443 77.0448 120.335 76.9116 120.335C76.7784 120.335 76.6704 120.443 76.6704 120.576C76.6704 120.709 76.7784 120.817 76.9116 120.817Z" fill="#B17F4A"/>
<path d="M77.662 121.622C77.7953 121.622 77.9033 121.514 77.9033 121.38C77.9033 121.247 77.7953 121.139 77.662 121.139C77.5288 121.139 77.4208 121.247 77.4208 121.38C77.4208 121.514 77.5288 121.622 77.662 121.622Z" fill="#B17F4A"/>
<path d="M76.054 123.306C76.1872 123.306 76.2952 123.198 76.2952 123.065C76.2952 122.932 76.1872 122.824 76.054 122.824C75.9207 122.824 75.8127 122.932 75.8127 123.065C75.8127 123.198 75.9207 123.306 76.054 123.306Z" fill="#B17F4A"/>
<path d="M74.8211 123.065C74.9543 123.065 75.0623 122.957 75.0623 122.824C75.0623 122.691 74.9543 122.583 74.8211 122.583C74.6879 122.583 74.5799 122.691 74.5799 122.824C74.5799 122.957 74.6879 123.065 74.8211 123.065Z" fill="#B17F4A"/>
<path d="M75.3035 120.335C75.4367 120.335 75.5447 120.227 75.5447 120.093C75.5447 119.96 75.4367 119.852 75.3035 119.852C75.1703 119.852 75.0623 119.96 75.0623 120.093C75.0623 120.227 75.1703 120.335 75.3035 120.335Z" fill="#B17F4A"/>
<path d="M77.0411 122.618C77.1744 122.618 77.2824 122.51 77.2824 122.377C77.2824 122.244 77.1744 122.136 77.0411 122.136C76.9079 122.136 76.7999 122.244 76.7999 122.377C76.7999 122.51 76.9079 122.618 77.0411 122.618Z" fill="#B17F4A"/>
<path d="M70.6802 495.778C70.6802 495.778 64.4489 489.624 58.3202 489.084C52.1916 488.543 44.9507 495.778 44.9507 495.778C44.9507 495.778 35.5434 510.556 35.4808 516.164C35.4272 520.575 38.3441 525.164 43.1505 528.239C46.6035 530.446 51.0347 531.867 56.0376 531.867C68.0045 531.867 74.9283 526.997 76.0182 519.413C77.1126 511.83 70.6802 495.778 70.6802 495.778Z" fill="black" stroke="#B2B2B2" stroke-miterlimit="10"/>
<path d="M76.0182 522.546C74.9283 530.129 68.0045 535 56.0376 535C51.0347 535 46.6035 533.579 43.1505 531.371C38.3441 528.297 35.4272 523.708 35.4808 519.297C35.5434 513.689 44.9507 498.91 44.9507 498.91L45.0267 498.834C45.5002 498.379 48.082 495.934 51.3072 494.142C53.5004 492.927 55.993 492.011 58.3202 492.216C64.4489 492.757 70.6802 498.91 70.6802 498.91C70.6802 498.91 77.1126 514.962 76.0182 522.546Z" fill="#EC661A"/>
<path d="M51.3072 494.142C51.2178 500.926 50.3691 523.448 43.1505 531.371C38.3441 528.297 35.4272 523.708 35.4808 519.297C35.5434 513.689 44.9507 498.91 44.9507 498.91L45.0267 498.834C45.5002 498.379 48.082 495.934 51.3072 494.142Z" fill="#82368C"/>
<path d="M47.7827 515.136C48.024 514.198 48.4975 513.367 49.0558 512.603C49.6231 511.843 50.3066 511.164 51.0883 510.578C52.6428 509.416 54.6574 508.666 56.7523 508.661C57.7931 508.648 58.8384 508.827 59.8033 509.166C60.7726 509.497 61.6704 509.975 62.4432 510.578C63.9977 511.776 65.1591 513.313 65.7353 515.141C63.9396 514.48 62.4164 513.805 60.9423 513.362C60.5805 513.233 60.2097 513.166 59.8658 513.054C59.504 512.996 59.1645 512.88 58.8116 512.848C58.1192 512.732 57.4447 512.67 56.7657 512.679C55.4167 512.688 54.0275 512.915 52.5534 513.367C51.0704 513.805 49.5427 514.426 47.7827 515.136Z" fill="black"/>
<path d="M47.7515 508.094C47.9927 507.155 48.4662 506.324 49.0246 505.56C49.5919 504.8 50.2753 504.121 51.057 503.535C52.6115 502.374 54.6261 501.623 56.7211 501.618C57.7619 501.605 58.8071 501.784 59.772 502.123C60.7413 502.454 61.6392 502.932 62.412 503.535C63.9665 504.733 65.1279 506.27 65.7041 508.098C63.9084 507.437 62.3852 506.762 60.9111 506.32C60.5492 506.19 60.1785 506.123 59.8345 506.011C59.4727 505.953 59.1332 505.837 58.7803 505.806C58.088 505.689 57.4135 505.627 56.7345 505.636C55.3855 505.645 53.9963 505.873 52.5222 506.324C51.0347 506.762 49.507 507.383 47.7515 508.094Z" fill="black"/>
<path d="M133.686 495.778C133.686 495.778 139.918 489.624 146.046 489.084C152.175 488.543 159.416 495.778 159.416 495.778C159.416 495.778 168.823 510.556 168.886 516.164C168.939 520.575 166.022 525.164 161.216 528.239C157.763 530.446 153.332 531.867 148.329 531.867C136.362 531.867 129.438 526.997 128.348 519.413C127.254 511.83 133.686 495.778 133.686 495.778Z" fill="black" stroke="#B2B2B2" stroke-miterlimit="10"/>
<path d="M128.348 522.546C129.438 530.129 136.362 535 148.329 535C153.332 535 157.763 533.579 161.216 531.371C166.022 528.297 168.939 523.708 168.886 519.297C168.823 513.689 159.416 498.91 159.416 498.91L159.34 498.834C158.866 498.379 156.284 495.934 153.059 494.142C150.866 492.927 148.374 492.011 146.046 492.216C139.918 492.757 133.686 498.91 133.686 498.91C133.686 498.91 127.254 514.962 128.348 522.546Z" fill="#EC661A"/>
<path d="M153.059 494.142C153.149 500.926 153.997 523.448 161.216 531.371C166.022 528.297 168.939 523.708 168.886 519.297C168.823 513.689 159.416 498.91 159.416 498.91L159.34 498.834C158.866 498.379 156.284 495.934 153.059 494.142Z" fill="#82368C"/>
<path d="M156.579 515.136C156.338 514.198 155.865 513.367 155.306 512.603C154.739 511.843 154.055 511.164 153.274 510.578C151.719 509.416 149.705 508.666 147.61 508.661C146.569 508.648 145.524 508.827 144.559 509.166C143.589 509.497 142.692 509.975 141.919 510.578C140.364 511.776 139.203 513.313 138.627 515.141C140.422 514.48 141.946 513.805 143.42 513.362C143.782 513.233 144.152 513.166 144.496 513.054C144.858 512.996 145.198 512.88 145.55 512.848C146.243 512.732 146.917 512.67 147.596 512.679C148.945 512.688 150.335 512.915 151.809 513.367C153.296 513.805 154.824 514.426 156.579 515.136Z" fill="black"/>
<path d="M156.615 508.094C156.374 507.155 155.9 506.324 155.342 505.56C154.775 504.8 154.091 504.121 153.309 503.535C151.755 502.374 149.74 501.623 147.645 501.618C146.605 501.605 145.559 501.784 144.595 502.123C143.625 502.454 142.727 502.932 141.955 503.535C140.4 504.733 139.239 506.27 138.662 508.098C140.458 507.437 141.981 506.762 143.455 506.32C143.817 506.19 144.188 506.123 144.532 506.011C144.894 505.953 145.233 505.837 145.586 505.806C146.279 505.689 146.953 505.627 147.632 505.636C148.981 505.645 150.37 505.873 151.844 506.324C153.332 506.762 154.86 507.383 156.615 508.094Z" fill="black"/>
</g>
<defs>
<clipPath id="clip0_206_718">
<rect width="279" height="535" fill="white"/>
</clipPath>
</defs>
</svg>
