<svg width="267" height="508" viewBox="0 0 267 508" fill="none" xmlns="http://www.w3.org/2000/svg">
<g clip-path="url(#clip0_269_84)">
<path d="M148.754 285.271C148.754 285.271 163.57 282.593 165.572 278.885C165.572 278.885 165.824 281.802 164.31 282.88C164.31 282.88 172.502 278.62 172.965 275.437C172.965 275.437 172.965 279.522 171.732 280.356C171.732 280.356 178.663 272.328 178.817 268.598C178.817 268.598 179.433 271.028 178.817 273.029C178.817 273.029 182.514 265.33 181.281 259.171C181.281 259.171 182.591 260.403 182.783 261.635C182.783 261.635 184.079 249.637 182.783 245.223C182.783 245.223 184.875 248.303 184.772 251.074C184.772 251.074 183.344 240.296 184.777 234.958C184.777 234.958 185.491 237.216 185.902 238.961C185.902 238.961 187.442 210.269 219.015 194.717C219.015 194.717 245.451 178.703 250.79 184.709C256.133 190.714 245.917 194.255 231.08 201.492C216.243 208.73 199.301 229.816 198.223 237.751C198.223 237.751 200.764 236.6 201.072 235.83C201.072 235.83 199.224 243.585 196.914 246.519C196.914 246.519 198.377 246.917 199.301 245.454C199.301 245.454 197.53 252.922 195.605 254.539C195.605 254.539 197.992 253.076 198.608 251.382C198.608 251.382 196.529 261.776 194.45 264.086C194.45 264.086 197.53 261.93 197.838 260.852C197.838 260.852 195.22 268.705 189.983 274.248C189.983 274.248 193.911 272.17 194.527 271.169C194.527 271.169 189.213 278.868 183.515 282.255C183.515 282.255 185.594 282.332 186.903 281.178C186.903 281.178 180.126 288.107 173.119 290.262C173.119 290.262 176.199 290.647 177.662 289.723C177.662 289.723 171.476 295.395 155.561 296.422L148.754 285.271Z" fill="#F9B233"/>
<path d="M237.305 185.632C237.305 185.632 236.026 191.086 241.01 196.736L236.599 198.845C236.599 198.845 231.974 194.794 231.782 187.964L237.305 185.632Z" fill="black"/>
<path d="M227.204 190.196C227.204 190.196 225.869 195.949 230.853 201.599L226.78 203.922C226.78 203.922 221.886 199.987 221.694 193.16L227.204 190.196Z" fill="black"/>
<path d="M201.346 226.257C201.949 225.038 202.056 223.86 201.583 223.626C201.111 223.393 200.239 224.192 199.636 225.412C199.033 226.631 198.927 227.81 199.399 228.043C199.871 228.276 200.743 227.477 201.346 226.257Z" fill="black"/>
<path d="M195.031 233.995C195.634 232.775 195.74 231.597 195.268 231.364C194.796 231.13 193.924 231.93 193.321 233.149C192.717 234.369 192.611 235.547 193.084 235.781C193.556 236.014 194.428 235.215 195.031 233.995Z" fill="black"/>
<path d="M189.326 239.897C189.637 238.572 189.474 237.401 188.961 237.28C188.448 237.16 187.78 238.136 187.469 239.461C187.158 240.785 187.321 241.957 187.834 242.077C188.347 242.197 189.015 241.221 189.326 239.897Z" fill="black"/>
<path d="M194.178 244.708C194.489 243.384 194.325 242.212 193.812 242.092C193.299 241.972 192.631 242.948 192.32 244.272C192.009 245.597 192.173 246.768 192.686 246.889C193.199 247.009 193.867 246.033 194.178 244.708Z" fill="black"/>
<path d="M193.356 256.753C193.883 256.731 194.264 255.611 194.207 254.252C194.15 252.892 193.677 251.808 193.15 251.83C192.624 251.852 192.243 252.972 192.3 254.331C192.357 255.691 192.83 256.775 193.356 256.753Z" fill="black"/>
<path d="M191.591 262.271C191.926 262.257 192.168 261.542 192.132 260.673C192.096 259.805 191.795 259.112 191.459 259.126C191.124 259.14 190.882 259.855 190.918 260.724C190.955 261.593 191.256 262.285 191.591 262.271Z" fill="black"/>
<path d="M187.619 253.019C188.146 252.997 188.527 251.877 188.47 250.518C188.413 249.159 187.94 248.074 187.413 248.096C186.887 248.118 186.506 249.238 186.563 250.598C186.62 251.957 187.093 253.041 187.619 253.019Z" fill="black"/>
<path d="M185.81 264.914C186.337 264.892 186.717 263.772 186.66 262.413C186.603 261.053 186.131 259.969 185.604 259.991C185.078 260.013 184.697 261.133 184.754 262.492C184.811 263.852 185.284 264.936 185.81 264.914Z" fill="black"/>
<path d="M187.728 275.264C188.409 274.086 188.59 272.917 188.134 272.653C187.678 272.39 186.756 273.132 186.076 274.31C185.395 275.488 185.213 276.657 185.67 276.921C186.126 277.184 187.048 276.442 187.728 275.264Z" fill="black"/>
<path d="M176.221 286.33C176.902 285.151 177.083 283.983 176.627 283.719C176.171 283.456 175.249 284.198 174.569 285.376C173.888 286.554 173.706 287.723 174.163 287.986C174.619 288.25 175.541 287.508 176.221 286.33Z" fill="black"/>
<path d="M167.537 286.626C167.77 285.285 167.538 284.126 167.019 284.036C166.5 283.945 165.89 284.959 165.657 286.3C165.424 287.64 165.656 288.8 166.176 288.89C166.695 288.98 167.304 287.966 167.537 286.626Z" fill="black"/>
<path d="M180.333 275.405C180.862 274.489 181.002 273.579 180.646 273.373C180.29 273.168 179.572 273.744 179.043 274.661C178.514 275.577 178.374 276.487 178.73 276.692C179.086 276.898 179.803 276.321 180.333 275.405Z" fill="black"/>
<path d="M195.804 223.424C196.22 222.581 196.294 221.768 195.968 221.606C195.641 221.445 195.039 221.998 194.622 222.84C194.206 223.683 194.132 224.497 194.458 224.658C194.785 224.82 195.387 224.267 195.804 223.424Z" fill="black"/>
<path d="M153.768 261.601C153.768 261.601 165.585 297.598 164.198 326.7C162.812 355.803 153.571 415.855 153.571 415.855C153.571 415.855 151.381 456.301 151.843 474.317H127.2C127.2 474.317 126.772 439.876 124.924 432.947C123.076 426.018 115.683 406.616 117.069 396.454C118.456 386.291 109.215 361.808 114.759 338.711C114.759 338.711 118.199 329.78 111.833 330.19C105.467 330.601 104.029 348.258 104.029 348.258C104.029 348.258 94.275 385.624 90.8867 390.551C90.8867 390.551 92.5809 405.795 83.3399 424.581C74.0989 443.366 68.7083 466.31 67.4762 474.317H42.8336L54.2308 380.08C54.2308 380.08 46.222 329.575 60.3915 302.474L66.5521 274.141L153.768 261.601Z" fill="#0968B2"/>
<path d="M51.9805 348.938L75.5535 367.21L104.034 348.258C104.034 348.258 94.0055 387.236 90.891 390.551C90.891 390.551 90.8097 407.835 84.4651 422.203C84.4651 422.203 69.4955 452.849 67.4805 474.317H42.8379L54.2351 380.08C54.2308 380.08 50.9708 354.532 51.9805 348.938Z" fill="#EC661A"/>
<path d="M113.416 346.547L159.847 318.655C159.847 318.655 157.751 353.463 155.488 364.699C153.225 375.936 152.147 385.816 152.147 385.816L116.676 387.561C116.676 387.561 110.875 353.194 113.416 346.547Z" fill="#EC661A"/>
<path d="M134.935 361.911C134.935 361.911 162.35 357.291 160.656 376.693C160.656 376.693 158.774 391.154 154.401 410.333C154.401 410.333 151.163 443.79 150.979 458.927C150.979 458.927 140.621 465.535 127.149 460.612L124.92 432.951C124.92 432.951 116.706 409.033 116.941 400.881C117.176 392.728 108.132 372.078 115.371 367.92C122.614 363.758 134.935 361.911 134.935 361.911Z" fill="black"/>
<path d="M137.237 462.631C134.17 462.631 130.734 462.144 127.08 460.809L126.952 460.762L124.715 432.99C124.402 432.083 116.505 408.849 116.731 400.868C116.808 398.139 115.824 393.93 114.781 389.482C112.701 380.615 110.344 370.563 115.268 367.732C122.434 363.617 134.704 361.731 134.901 361.701C135.162 361.658 150.144 359.25 157.229 365.786C160.049 368.391 161.276 372.065 160.87 376.714C160.849 376.868 158.936 391.415 154.611 410.38C154.581 410.688 151.377 443.974 151.197 458.927V459.043L151.098 459.107C151.021 459.154 145.438 462.631 137.237 462.631ZM127.354 460.454C139.817 464.949 149.691 459.44 150.769 458.803C150.966 443.777 154.157 410.646 154.192 410.312C158.517 391.338 160.429 376.808 160.446 376.667C160.84 372.167 159.659 368.609 156.943 366.102C149.986 359.682 135.124 362.099 134.974 362.124H134.97C134.845 362.142 122.605 364.015 115.482 368.104C110.832 370.777 113.151 380.662 115.196 389.388C116.248 393.866 117.241 398.1 117.159 400.885C116.928 408.909 125.044 432.643 125.125 432.883L125.138 432.934L127.354 460.454Z" fill="#B2B2B2"/>
<path d="M136.647 377.257C142.147 377.257 146.606 375.143 146.606 372.535C146.606 369.927 142.147 367.813 136.647 367.813C131.146 367.813 126.687 369.927 126.687 372.535C126.687 375.143 131.146 377.257 136.647 377.257Z" fill="#B2B2B2"/>
<path d="M136.647 377.471C131.038 377.471 126.473 375.256 126.473 372.535C126.473 369.815 131.038 367.599 136.647 367.599C142.255 367.599 146.82 369.815 146.82 372.535C146.82 375.256 142.26 377.471 136.647 377.471ZM136.647 368.027C131.273 368.027 126.901 370.05 126.901 372.535C126.901 375.02 131.273 377.044 136.647 377.044C142.02 377.044 146.392 375.02 146.392 372.535C146.392 370.05 142.024 368.027 136.647 368.027Z" fill="black"/>
<path d="M120.362 377.664C122.586 373.812 123.104 369.947 121.518 369.032C119.933 368.116 116.844 370.497 114.619 374.349C112.394 378.201 111.877 382.066 113.462 382.981C115.048 383.897 118.137 381.516 120.362 377.664Z" fill="black"/>
<path d="M114.246 383.391C113.925 383.391 113.63 383.318 113.365 383.169C111.653 382.181 112.124 378.258 114.443 374.246C116.761 370.234 119.919 367.86 121.634 368.848C123.346 369.836 122.875 373.759 120.556 377.771C118.593 381.167 116.026 383.391 114.246 383.391ZM120.753 369.049C119.166 369.049 116.654 371.274 114.819 374.456C112.693 378.134 112.128 381.954 113.583 382.796C115.037 383.635 118.062 381.235 120.188 377.557C122.315 373.874 122.879 370.059 121.425 369.216C121.224 369.101 121.001 369.049 120.753 369.049Z" fill="#B2B2B2"/>
<path d="M159.516 383.409C161.102 382.494 160.584 378.629 158.36 374.777C156.135 370.925 153.046 368.544 151.461 369.46C149.875 370.375 150.393 374.24 152.617 378.092C154.842 381.944 157.931 384.324 159.516 383.409Z" fill="black"/>
<path d="M158.744 383.827C158.012 383.827 157.131 383.451 156.177 382.715C154.85 381.693 153.524 380.093 152.433 378.207C151.342 376.321 150.619 374.37 150.401 372.711C150.17 370.987 150.508 369.772 151.355 369.285C152.202 368.797 153.426 369.109 154.803 370.17C156.13 371.192 157.456 372.792 158.547 374.678C159.638 376.564 160.361 378.515 160.583 380.174C160.814 381.898 160.476 383.113 159.629 383.601C159.364 383.755 159.069 383.827 158.744 383.827ZM152.236 369.49C151.988 369.49 151.762 369.546 151.573 369.652C150.897 370.042 150.624 371.137 150.829 372.655C151.043 374.259 151.749 376.154 152.81 377.993C153.871 379.832 155.163 381.389 156.442 382.377C157.653 383.31 158.735 383.622 159.415 383.233C160.091 382.843 160.365 381.749 160.16 380.23C159.946 378.626 159.24 376.731 158.179 374.892C157.118 373.053 155.826 371.496 154.547 370.508C153.674 369.841 152.87 369.49 152.236 369.49Z" fill="#B2B2B2"/>
<path d="M154.898 424.547L153.845 424.457C153.481 424.427 153.208 424.11 153.229 423.743L153.807 414.354C153.828 413.999 154.123 413.721 154.478 413.721H155.454C155.839 413.721 156.147 414.046 156.125 414.431L155.625 423.909C155.608 424.29 155.278 424.581 154.898 424.547Z" fill="black"/>
<path d="M154.957 424.765C154.932 424.765 154.906 424.765 154.88 424.761L153.828 424.671C153.345 424.628 152.989 424.217 153.019 423.73L153.597 414.341C153.627 413.875 154.016 413.507 154.483 413.507H155.458C155.706 413.507 155.933 413.605 156.104 413.785C156.275 413.965 156.361 414.196 156.348 414.444L155.847 423.922C155.834 424.166 155.728 424.384 155.544 424.547C155.377 424.688 155.171 424.765 154.957 424.765ZM154.915 424.333C155.039 424.346 155.163 424.303 155.257 424.222C155.351 424.14 155.407 424.025 155.415 423.897L155.916 414.418C155.924 414.29 155.877 414.17 155.792 414.076C155.702 413.982 155.586 413.931 155.458 413.931H154.483C154.239 413.931 154.038 414.119 154.025 414.363L153.447 423.751C153.43 423.999 153.623 424.217 153.866 424.239L154.915 424.333Z" fill="#B2B2B2"/>
<path d="M134.499 385.008C134.499 385.008 154.679 381.774 154.675 392.245C154.675 402.716 157.524 412.185 147.128 413.263C136.732 414.341 116.556 418.379 117.403 405.774C118.25 393.169 114.323 385.239 134.499 385.008Z" fill="black"/>
<path d="M130.773 414.944C126.049 414.944 121.746 414.243 119.298 411.924C117.724 410.436 117.014 408.357 117.189 405.757C117.326 403.691 117.339 401.787 117.348 399.944C117.395 390.619 117.425 384.986 134.482 384.79C135.201 384.674 147.453 382.814 152.639 387.236C154.132 388.511 154.889 390.192 154.889 392.241C154.889 394.17 154.983 396.056 155.077 397.878C155.479 405.761 155.826 412.57 147.15 413.469C145.995 413.588 144.715 413.747 143.359 413.913C139.504 414.388 134.974 414.944 130.773 414.944ZM141.066 384.755C137.494 384.755 134.593 385.205 134.533 385.217L134.503 385.222C117.852 385.414 117.827 390.885 117.78 399.952C117.771 401.8 117.758 403.712 117.621 405.791C117.454 408.259 118.122 410.222 119.598 411.621C124.073 415.855 135.192 414.491 143.312 413.498C144.668 413.332 145.952 413.173 147.111 413.054C155.385 412.194 155.064 405.889 154.658 397.908C154.564 396.077 154.47 394.187 154.47 392.249C154.47 390.333 153.764 388.759 152.369 387.57C149.704 385.299 144.985 384.755 141.066 384.755Z" fill="#B2B2B2"/>
<path d="M144.818 405.949H127.645C124.158 405.949 121.331 403.122 121.331 399.636C121.331 396.15 124.158 393.323 127.645 393.323H144.818C148.305 393.323 151.133 396.15 151.133 399.636C151.133 403.122 148.309 405.949 144.818 405.949Z" fill="#B2B2B2"/>
<path d="M144.818 406.12H127.645C124.069 406.12 121.155 403.212 121.155 399.632C121.155 396.052 124.064 393.143 127.645 393.143H144.818C148.395 393.143 151.308 396.052 151.308 399.632C151.308 403.212 148.399 406.12 144.818 406.12ZM127.645 393.494C124.261 393.494 121.506 396.248 121.506 399.632C121.506 403.019 124.261 405.769 127.645 405.769H144.818C148.202 405.769 150.957 403.015 150.957 399.632C150.957 396.248 148.202 393.494 144.818 393.494H127.645Z" fill="black"/>
<path d="M143.162 423.965H130.379C128.783 423.965 127.491 422.673 127.491 421.078V420.231C127.491 418.635 128.783 417.344 130.379 417.344H143.162C144.758 417.344 146.05 418.635 146.05 420.231V421.078C146.05 422.669 144.758 423.965 143.162 423.965Z" fill="#B2B2B2"/>
<path d="M143.162 424.136H130.379C128.689 424.136 127.316 422.763 127.316 421.073V420.227C127.316 418.537 128.689 417.164 130.379 417.164H143.162C144.852 417.164 146.226 418.537 146.226 420.227V421.073C146.226 422.763 144.852 424.136 143.162 424.136ZM130.379 417.515C128.882 417.515 127.667 418.734 127.667 420.227V421.073C127.667 422.571 128.886 423.785 130.379 423.785H143.162C144.66 423.785 145.875 422.566 145.875 421.073V420.227C145.875 418.73 144.655 417.515 143.162 417.515H130.379Z" fill="black"/>
<path d="M138.195 426.737C138.195 426.737 127.568 426.737 128.8 434.359C130.032 441.981 131.496 441.134 131.111 445.907C130.726 450.681 133.036 458.688 140.352 457.379C147.667 456.07 148.976 454.761 147.436 444.906C147.436 444.906 147.197 442.212 148.01 439.209C148.822 436.206 149.824 424.735 138.195 426.737Z" fill="#B2B2B2"/>
<path d="M138.803 457.695C137.053 457.695 135.534 457.118 134.268 455.967C131.615 453.564 130.687 449.06 130.939 445.89C131.145 443.341 130.82 442.426 130.276 440.911C129.823 439.637 129.198 437.892 128.629 434.384C128.321 432.49 128.711 430.89 129.784 429.628C132.326 426.643 137.785 426.561 138.183 426.557C141.896 425.92 144.685 426.591 146.465 428.546C149.383 431.75 148.694 437.361 148.181 439.252C147.385 442.19 147.612 444.859 147.612 444.889C149.182 454.924 147.642 456.25 140.386 457.55C139.838 457.648 139.312 457.695 138.803 457.695ZM140.732 426.677C139.954 426.677 139.119 426.754 138.225 426.908L138.195 426.912C138.14 426.912 132.527 426.946 130.05 429.859C129.044 431.04 128.685 432.541 128.971 434.333C129.532 437.806 130.152 439.534 130.601 440.8C131.158 442.357 131.496 443.302 131.282 445.924C131.034 449.008 131.932 453.388 134.495 455.715C136.043 457.122 138.003 457.623 140.317 457.212C147.526 455.925 148.805 454.808 147.261 444.936C147.257 444.898 147.026 442.165 147.838 439.166C148.305 437.451 148.998 431.861 146.2 428.785C144.929 427.382 143.094 426.677 140.732 426.677Z" fill="#B2B2B2"/>
<path d="M138.58 428.892C139.346 433.105 139.804 437.361 140.172 441.621C140.476 445.886 140.797 450.18 140.433 454.453C139.748 445.933 138.773 437.443 138.58 428.892Z" fill="#575756"/>
<path d="M142.277 434.821C142.341 433.507 143.744 431.955 145.126 432.511C143.997 433.204 143.462 434.115 142.277 434.821Z" fill="#575756"/>
<path d="M143.201 439.581C143.265 438.268 144.668 436.715 146.05 437.271C144.921 437.969 144.386 438.88 143.201 439.581Z" fill="#575756"/>
<path d="M143.201 444.816C143.265 443.503 144.668 441.951 146.05 442.507C144.921 443.204 144.386 444.111 143.201 444.816Z" fill="#575756"/>
<path d="M143.201 450.048C143.265 448.734 144.668 447.182 146.05 447.738C144.921 448.435 144.386 449.342 143.201 450.048Z" fill="#575756"/>
<path d="M135.701 435.347C134.43 434.82 133.767 433.995 132.548 433.469C133.836 432.72 135.449 434.055 135.701 435.347Z" fill="#575756"/>
<path d="M135.47 440.193C134.199 439.667 133.536 438.841 132.317 438.315C133.605 437.571 135.218 438.901 135.47 440.193Z" fill="#575756"/>
<path d="M136.223 445.372C134.952 444.846 134.289 444.021 133.07 443.495C134.362 442.746 135.971 444.081 136.223 445.372Z" fill="#575756"/>
<path d="M136.976 450.552C135.705 450.026 135.042 449.201 133.823 448.674C135.115 447.926 136.724 449.256 136.976 450.552Z" fill="#575756"/>
<path d="M119.662 415.718C119.662 415.718 116.197 414.752 116.607 417.575C117.018 420.398 117.172 430.304 123.692 428.661L119.662 415.718Z" fill="black"/>
<path d="M122.323 429.055C121.442 429.055 120.65 428.815 119.966 428.336C117.343 426.501 116.843 421.706 116.543 418.836C116.492 418.349 116.449 417.93 116.402 417.605C116.287 416.805 116.449 416.206 116.894 415.817C117.831 414.995 119.649 415.492 119.726 415.513L119.837 415.543L123.97 428.811L123.752 428.867C123.247 428.995 122.772 429.055 122.323 429.055ZM118.43 415.77C117.976 415.77 117.493 415.851 117.168 416.137C116.843 416.424 116.727 416.895 116.821 417.54C116.868 417.87 116.915 418.297 116.967 418.794C117.241 421.403 117.745 426.262 120.21 427.985C121.087 428.601 122.169 428.772 123.423 428.503L119.495 415.898C119.303 415.855 118.883 415.77 118.43 415.77Z" fill="#B2B2B2"/>
<path d="M127.063 459.479L126.494 447.738C126.494 447.738 122.717 447.109 122.819 450.548C122.922 453.991 122.319 459.222 127.063 459.479Z" fill="black"/>
<path d="M127.29 459.706L127.055 459.693C122.67 459.453 122.644 455.227 122.627 451.831C122.623 451.391 122.623 450.963 122.61 450.561C122.58 449.543 122.871 448.756 123.478 448.226C124.625 447.225 126.456 447.515 126.533 447.528L126.704 447.558L127.29 459.706ZM125.836 447.909C125.245 447.909 124.368 448.012 123.756 448.546C123.251 448.987 123.008 449.658 123.038 450.544C123.05 450.95 123.05 451.382 123.055 451.827C123.072 455.142 123.093 458.893 126.841 459.248L126.293 447.93C126.182 447.918 126.024 447.909 125.836 447.909Z" fill="#B2B2B2"/>
<path d="M151.522 446.087C151.522 446.087 155.676 444.953 155.728 448.033C155.779 451.113 156.656 456.036 151.047 455.989L151.522 446.087Z" fill="black"/>
<path d="M151.128 456.207C151.103 456.207 151.073 456.207 151.047 456.207H150.825L151.317 445.924L151.466 445.882C151.561 445.856 153.837 445.248 155.111 446.211C155.646 446.613 155.929 447.229 155.941 448.033C155.946 448.358 155.963 448.705 155.976 449.064C156.061 451.044 156.164 453.504 154.756 454.958C153.952 455.8 152.763 456.207 151.128 456.207ZM151.732 446.258L151.274 455.775C152.711 455.753 153.751 455.386 154.457 454.658C155.736 453.337 155.638 451.074 155.552 449.077C155.535 448.713 155.522 448.362 155.518 448.033C155.505 447.366 155.287 446.865 154.859 446.544C153.918 445.847 152.237 446.147 151.732 446.258Z" fill="#B2B2B2"/>
<path d="M123.692 390.91C131.132 388.186 139.603 387.424 147.329 389.315C148.125 389.542 148.912 389.803 149.695 390.063C148.878 389.935 148.074 389.785 147.265 389.64C139.415 388.515 131.427 389.276 123.692 390.91Z" fill="#9D9D9C"/>
<path d="M123.281 409.311C132.386 410.265 141.759 410.688 150.619 408.002C142.482 411.8 131.859 411.445 123.281 409.311Z" fill="#9D9D9C"/>
<path d="M128.133 398.532C133.725 396.513 140.099 396.509 145.691 398.532C139.847 397.685 133.981 397.681 128.133 398.532Z" fill="#575756"/>
<path d="M128.171 401.411C133.763 399.392 140.138 399.388 145.729 401.411C139.885 400.568 134.02 400.564 128.171 401.411Z" fill="#575756"/>
<path d="M68.1436 364.349C68.1436 364.349 93.2996 362.193 89.6032 384.777C85.9068 407.361 73.5855 437.271 73.5855 437.271C73.5855 437.271 73.4829 457.041 66.5008 459.094C59.5187 461.147 43.0903 462.276 43.3983 454.885C43.7064 447.494 50.2777 382.001 50.2777 382.001C50.2777 382.001 46.5813 365.375 68.1436 364.349Z" fill="black"/>
<path d="M54.7955 460.852C50.8724 460.852 47.099 460.262 44.9428 458.576C43.7149 457.618 43.1245 456.374 43.1887 454.881C43.4925 447.631 49.8884 383.784 50.0638 382.018C49.9611 381.5 48.8616 375.465 52.5965 370.576C55.5956 366.654 60.8193 364.485 68.1308 364.139C68.426 364.118 80.2596 363.237 86.4373 369.909C89.7187 373.451 90.8525 378.468 89.8129 384.815C86.2149 406.796 74.3043 436.082 73.7994 437.323C73.7909 438.597 73.5214 457.263 66.5607 459.308C63.8654 460.095 59.2364 460.852 54.7955 460.852ZM69.7907 364.511C68.7982 364.511 68.1907 364.558 68.165 364.562H68.1565C60.9776 364.905 55.8608 367.013 52.9431 370.829C49.174 375.756 50.4788 381.898 50.4916 381.958L50.5002 381.992L50.4959 382.026C50.4318 382.681 43.9203 447.597 43.6165 454.898C43.5609 456.245 44.0957 457.37 45.208 458.238C49.4777 461.575 61.1273 460.454 66.4452 458.893C73.1962 456.908 73.3759 437.468 73.3759 437.271L73.393 437.19C73.5171 436.891 85.7485 407.04 89.3979 384.738C90.4161 378.523 89.3166 373.63 86.1293 370.191C81.3976 365.089 73.2476 364.511 69.7907 364.511Z" fill="#B2B2B2"/>
<path d="M65.8847 376.004C69.8542 376.004 73.0721 374.635 73.0721 372.946C73.0721 371.257 69.8542 369.888 65.8847 369.888C61.9152 369.888 58.6973 371.257 58.6973 372.946C58.6973 374.635 61.9152 376.004 65.8847 376.004Z" fill="#B2B2B2"/>
<path d="M65.8847 376.218C61.7348 376.218 58.4834 374.781 58.4834 372.946C58.4834 371.111 61.7348 369.674 65.8847 369.674C70.0346 369.674 73.286 371.111 73.286 372.946C73.286 374.781 70.0389 376.218 65.8847 376.218ZM65.8847 370.106C62.1028 370.106 58.9112 371.406 58.9112 372.95C58.9112 374.494 62.1028 375.795 65.8847 375.795C69.6667 375.795 72.8582 374.494 72.8582 372.95C72.8582 371.406 69.6667 370.106 65.8847 370.106Z" fill="black"/>
<path d="M89.7059 374.665C89.7059 374.665 94.9938 376.154 97.458 374.665C97.458 374.665 97.5094 381.543 94.0697 381.184C90.63 380.825 77.6413 379.747 78.1547 374.665C78.6681 369.584 89.7059 374.665 89.7059 374.665Z" fill="black"/>
<path d="M94.3264 381.411C94.2365 381.411 94.1424 381.406 94.0483 381.393L93.5392 381.342C89.1326 380.897 77.4316 379.713 77.9408 374.64C78.0306 373.737 78.4413 373.074 79.1558 372.668C82.0864 370.991 89.2909 374.238 89.7786 374.46C90.0952 374.546 95.0537 375.863 97.3468 374.477L97.6677 374.285L97.6719 374.661C97.6719 374.845 97.6848 379.169 95.8922 380.795C95.443 381.205 94.9168 381.411 94.3264 381.411ZM81.3762 372.617C80.5933 372.617 79.8959 372.741 79.3697 373.04C78.775 373.382 78.4456 373.917 78.3686 374.682C77.898 379.328 89.7059 380.521 93.582 380.914L94.0911 380.966C94.6815 381.026 95.1735 380.867 95.6056 380.474C96.9746 379.233 97.2013 376.085 97.2398 375.02C94.6301 376.244 89.8599 374.926 89.6503 374.866L89.6203 374.854C89.5604 374.832 84.7004 372.617 81.3762 372.617Z" fill="#B2B2B2"/>
<path d="M48.5579 371.765L47.7365 379.156C47.7365 379.156 56.6694 379.824 56.5667 374.537C56.464 369.25 48.5579 371.765 48.5579 371.765Z" fill="black"/>
<path d="M48.7205 379.4C48.1514 379.4 47.7792 379.375 47.7236 379.37L47.5012 379.353L48.3611 371.603L48.4937 371.56C48.682 371.5 53.1698 370.101 55.4715 371.748C56.3143 372.356 56.755 373.288 56.7806 374.528C56.802 375.7 56.4042 376.684 55.587 377.454C53.7816 379.169 50.4018 379.4 48.7205 379.4ZM47.976 378.955C48.9985 379.002 53.2853 379.054 55.2961 377.146C56.0191 376.462 56.3742 375.585 56.3528 374.541C56.3314 373.442 55.9507 372.621 55.2234 372.099C53.3024 370.722 49.5119 371.714 48.7547 371.928L47.976 378.955Z" fill="#B2B2B2"/>
<path d="M89.3208 407.776C89.3208 407.776 90.6728 417.866 85.0854 419.705C79.498 421.54 77.5386 421.322 77.5386 421.322L79.1558 413.777C79.1558 413.777 87.9347 412.865 89.3208 407.776Z" fill="black"/>
<path d="M77.7825 421.544C77.6199 421.544 77.5343 421.535 77.5172 421.535L77.2819 421.51L78.9804 413.58L79.1344 413.563C79.22 413.554 87.785 412.609 89.1155 407.72L89.3936 406.702L89.5348 407.75C89.5904 408.169 90.8439 418.037 85.1539 419.91C80.6446 421.39 78.4841 421.544 77.7825 421.544ZM79.3355 413.969L77.8039 421.112C78.4755 421.103 80.6189 420.945 85.0212 419.499C89.3936 418.062 89.3636 411.24 89.1968 408.734C87.2416 412.831 80.4863 413.828 79.3355 413.969Z" fill="#B2B2B2"/>
<path d="M47.4028 411.09C47.4028 411.09 44.1214 410.325 43.8134 414.551C43.5053 418.777 43.6294 420.586 46.4787 420.616L47.4028 411.09Z" fill="black"/>
<path d="M46.6712 420.834H46.4744C45.422 420.821 44.7118 420.577 44.2412 420.064C43.3427 419.085 43.4069 417.16 43.5994 414.542C43.7064 413.062 44.1813 412.001 45.0112 411.39C46.1065 410.586 47.3985 410.872 47.4498 410.885L47.6338 410.928L46.6712 420.834ZM46.8295 411.253C46.406 411.253 45.7984 411.338 45.2637 411.732C44.5406 412.267 44.1257 413.22 44.0273 414.568C43.8219 417.412 43.8476 418.995 44.5578 419.773C44.9171 420.162 45.469 420.363 46.2862 420.402L47.1718 411.274C47.0819 411.261 46.9621 411.253 46.8295 411.253Z" fill="#B2B2B2"/>
<path d="M72.8796 446.061C72.8796 446.061 79.3526 445.334 79.4296 439.222C79.5066 433.11 79.2242 433.396 74.6679 434.577L73.5898 437.276C73.5855 437.271 73.0422 445.013 72.8796 446.061Z" fill="black"/>
<path d="M72.6229 446.305L72.6657 446.027C72.8283 445 73.3673 437.336 73.3716 437.259L73.3844 437.194L74.5011 434.397L75.0572 434.252C77.0808 433.726 78.1932 433.435 78.8734 433.965C79.6136 434.547 79.6734 436.014 79.6349 439.222C79.5579 445.454 72.9609 446.266 72.8967 446.271L72.6229 446.305ZM73.7994 437.323C73.7567 437.904 73.316 444.141 73.1278 445.809C74.3513 445.599 79.1472 444.436 79.2157 439.218C79.2542 436.223 79.2071 434.761 78.6167 434.303C78.1033 433.901 76.9996 434.192 75.1728 434.667L74.8262 434.756L73.7994 437.323Z" fill="#B2B2B2"/>
<path d="M64.4601 378.271C64.4601 378.271 87.6652 375.91 85.817 390.179C83.9688 404.448 80.4778 411.018 63.6387 409.17C46.7995 407.322 45.054 403.627 46.2862 395.312C47.5183 386.997 44.5406 377.963 64.4601 378.271Z" fill="black"/>
<path d="M68.7811 409.692C67.2067 409.692 65.4911 409.589 63.6173 409.384C54.2864 408.362 49.3836 406.732 47.2316 403.947C45.5332 401.745 45.5417 398.892 46.0765 395.282C46.2648 394.016 46.3546 392.72 46.4402 391.462C46.9322 384.435 47.407 377.792 64.4515 378.057C65.166 377.985 78.1932 376.774 83.7335 382.463C85.6672 384.447 86.4373 387.057 86.0309 390.209C85.1239 397.211 83.8362 402.553 80.5034 405.872C77.9023 408.456 74.193 409.692 68.7811 409.692ZM63.4632 378.476C47.775 378.476 47.3514 384.516 46.868 391.492C46.7781 392.758 46.6883 394.063 46.5001 395.346C45.9824 398.845 45.9653 401.603 47.5739 403.686C49.6488 406.373 54.4576 407.951 63.6643 408.96C80.1227 410.765 83.7335 404.619 85.6074 390.153C85.9967 387.138 85.2651 384.648 83.4297 382.762C78.0007 377.185 64.6184 378.472 64.4857 378.485H64.4601C64.1221 378.476 63.7884 378.476 63.4632 378.476Z" fill="#B2B2B2"/>
<path d="M64.0493 385.97C64.0493 385.97 82.5313 384.589 80.9911 393.802C79.451 403.011 72.1609 399.858 63.6386 399.64C55.1164 399.422 50.0852 399.238 50.3932 393.117C50.7013 386.997 52.4468 385.251 64.0493 385.97Z" fill="#B2B2B2"/>
<path d="M73.3716 400.508C71.9341 400.508 70.3597 400.35 68.6912 400.183C67.0655 400.021 65.3842 399.854 63.6344 399.807C57.9529 399.662 53.465 399.546 51.45 397.369C50.5301 396.377 50.128 394.978 50.2221 393.1C50.3505 390.572 50.7184 388.635 52.1088 387.39C53.8714 385.816 57.2213 385.367 64.0493 385.786C64.6825 385.739 75.9856 384.982 79.9301 389.302C81.0468 390.525 81.4617 392.044 81.1623 393.819C80.2467 399.311 77.3375 400.508 73.3716 400.508ZM59.7668 385.991C55.8223 385.991 53.619 386.509 52.3398 387.655C51.0393 388.819 50.6927 390.679 50.5686 393.122C50.4788 394.901 50.851 396.214 51.7067 397.134C53.6233 399.204 58.047 399.315 63.6472 399.46C65.4098 399.508 67.0954 399.674 68.7297 399.837C75.0572 400.466 79.6264 400.923 80.8243 393.767C81.1024 392.104 80.7173 390.679 79.6777 389.542C75.8188 385.316 64.182 386.128 64.0665 386.141H64.0536H64.0408C62.4279 386.043 61.0118 385.991 59.7668 385.991Z" fill="black"/>
<path d="M55.7325 383.096C62.6076 379.866 71.2881 380.893 78.1418 383.712C77.2006 383.536 76.2765 383.305 75.3482 383.117C68.9094 381.834 62.1327 381.295 55.7325 383.096Z" fill="#9D9D9C"/>
<path d="M57.478 391.308C62.03 390.893 66.6291 391.06 71.1341 391.821C66.5863 392.241 61.9873 392.061 57.478 391.308Z" fill="#575756"/>
<path d="M57.478 395.414C62.0343 395.034 66.6334 395.235 71.1341 396.03C66.5821 396.415 61.983 396.201 57.478 395.414Z" fill="#575756"/>
<path d="M50.7783 402.6C58.0128 404.918 65.7136 405.184 73.2433 404.752C74.3257 404.687 75.4081 404.576 76.499 404.525C68.2891 406.403 58.462 406.368 50.7783 402.6Z" fill="#9D9D9C"/>
<path d="M58.1967 421.796C58.1967 421.796 70.2442 420.257 66.6847 434.5C63.1252 448.743 62.2012 455.826 55.5785 455.749C48.9558 455.672 46.7054 457.597 47.3985 444.201C48.1001 430.8 47.2616 420.641 58.1967 421.796Z" fill="#B2B2B2"/>
<path d="M51.9762 455.98C50.4702 455.98 49.328 455.822 48.5236 455.001C47.2359 453.683 46.8851 450.753 47.2273 444.196C47.3001 442.823 47.3557 441.484 47.407 440.188C47.7322 432.318 47.9889 426.103 51.3216 423.225C52.9345 421.835 55.1806 421.309 58.1924 421.625C58.5775 421.578 63.0354 421.125 65.6665 424.085C67.6345 426.296 68.0324 429.816 66.8516 434.547C66.4708 436.074 66.12 437.519 65.7863 438.88C63.0311 450.206 61.6407 455.924 55.6854 455.924C55.6469 455.924 55.6127 455.924 55.5742 455.924C54.7699 455.916 54.0126 455.937 53.3452 455.954C52.8618 455.967 52.404 455.98 51.9762 455.98ZM56.5881 421.882C54.4533 421.882 52.7976 422.412 51.5526 423.486C48.3311 426.266 48.0787 432.417 47.7578 440.201C47.7065 441.497 47.6509 442.836 47.5782 444.213C47.2487 450.578 47.5824 453.533 48.7761 454.757C49.7044 455.706 51.2318 455.663 53.3409 455.608C54.0126 455.591 54.7699 455.569 55.5827 455.578C61.3583 455.651 62.7274 450.013 65.4526 438.798C65.782 437.434 66.1371 435.988 66.5179 434.461C67.6687 429.85 67.2965 426.437 65.4141 424.316C62.8429 421.424 58.2695 421.967 58.2224 421.972L58.201 421.976H58.1796C57.6234 421.907 57.0929 421.882 56.5881 421.882Z" fill="#B2B2B2"/>
<path d="M58.4278 424.799C55.5528 431.951 54.3292 439.671 53.7901 447.323C53.6532 449.047 53.6019 450.95 53.4992 452.669C52.6436 443.478 53.8372 432.934 58.4278 424.799Z" fill="#575756"/>
<path d="M58.8128 431.189C59.1936 429.376 61.0974 427.147 63.1253 427.802C61.2771 428.447 60.3316 429.979 58.8128 431.189Z" fill="#575756"/>
<path d="M58.8128 436.698C59.1936 434.885 61.0974 432.656 63.1253 433.311C61.2771 433.957 60.3316 435.488 58.8128 436.698Z" fill="#575756"/>
<path d="M58.4278 442.148C58.8085 440.334 60.7123 438.106 62.7402 438.76C60.892 439.406 59.9465 440.937 58.4278 442.148Z" fill="#575756"/>
<path d="M57.9272 449.042C58.308 447.229 60.2118 445 62.2397 445.655C60.3872 446.301 59.4417 447.836 57.9272 449.042Z" fill="#575756"/>
<path d="M54.0298 430.958C52.7506 429.5 52.0917 427.823 50.3847 426.861C52.4981 426.574 53.9741 429.106 54.0298 430.958Z" fill="#575756"/>
<path d="M53.0543 436.382C51.7751 434.923 51.1163 433.247 49.4093 432.284C51.5227 431.998 52.9987 434.53 53.0543 436.382Z" fill="#575756"/>
<path d="M52.4682 441.814C51.189 440.355 50.5302 438.679 48.8232 437.716C50.9366 437.43 52.4126 439.962 52.4682 441.814Z" fill="#575756"/>
<path d="M51.7452 448.692C50.466 447.233 49.8071 445.556 48.1001 444.594C50.2093 444.307 51.6896 446.84 51.7452 448.692Z" fill="#575756"/>
<path d="M67.9597 417.972H53.7388C52.8917 417.972 52.2072 417.288 52.2072 416.441V413.55C52.2072 412.703 52.8917 412.019 53.7388 412.019H67.9597C68.8067 412.019 69.4913 412.703 69.4913 413.55V416.441C69.4913 417.284 68.8067 417.972 67.9597 417.972Z" fill="#B2B2B2"/>
<path d="M67.9596 418.144H53.7388C52.7976 418.144 52.0318 417.378 52.0318 416.437V413.545C52.0318 412.604 52.7976 411.839 53.7388 411.839H67.9596C68.9009 411.839 69.6667 412.604 69.6667 413.545V416.437C69.6667 417.378 68.9009 418.144 67.9596 418.144ZM53.7388 412.19C52.9901 412.19 52.3826 412.797 52.3826 413.545V416.437C52.3826 417.185 52.9901 417.793 53.7388 417.793H67.9596C68.7083 417.793 69.3158 417.185 69.3158 416.437V413.545C69.3158 412.797 68.7083 412.19 67.9596 412.19H53.7388Z" fill="black"/>
<path d="M110.37 292.114C124.415 291.717 138.242 289.06 152.159 287.358C145.374 289.253 138.448 290.6 131.466 291.524C124.488 292.354 117.377 293.038 110.37 292.114Z" fill="black"/>
<path d="M223.828 248.747C223.828 248.747 205.654 217.951 194.565 212.408C183.476 206.865 152.365 184.383 145.28 168.061L153.61 126.765C153.61 126.765 174.697 134.134 200.11 169.601C214.848 190.166 240.154 238.277 240.154 238.277L223.828 248.747Z" fill="black"/>
<path d="M146.02 164.396C146.02 164.396 157.755 168.665 163.3 168.049C163.3 168.049 172.336 192.891 180.755 197.408C189.175 201.924 199.442 199.764 199.442 199.764C199.442 199.764 209.445 232.926 229.292 245.244L223.828 248.747C223.828 248.747 207.605 220.53 194.565 212.408C181.525 204.285 153.34 185.525 145.28 168.061L146.02 164.396Z" fill="#0968B2"/>
<path d="M44.6561 261.682C44.6561 261.682 39.8303 224.008 32.8482 215.59C32.8482 215.59 56.4641 186.026 58.9283 182.536L48.0146 127.667C48.0146 127.667 18.2894 141.269 1.73695 192.083C1.73695 192.083 -3.4996 212.408 4.20121 228.422C11.902 244.436 31.3081 273.076 31.3081 273.076L44.6561 261.682Z" fill="black"/>
<path d="M41.0325 264.774C41.0325 264.774 29.2588 213.007 19.8638 206.078C19.8638 206.078 39.103 197.917 41.0325 182.365C41.0325 182.365 52.8062 151.727 51.2746 144.023L58.9326 182.531L32.8525 215.586C32.8525 215.586 39.4239 222.579 44.6604 261.678L41.0325 264.774Z" fill="#0968B2"/>
<path d="M39.8817 132.8C39.8817 132.8 91.3231 92.7648 160.63 130.336C160.63 130.336 147.693 137.727 156.626 167.292C156.626 167.292 160.938 177.454 153.854 213.486C153.854 213.486 156.01 274.77 158.782 279.39C158.782 279.39 89.1669 290.784 54.0511 281.853C54.0511 281.853 51.8949 217.181 48.8146 211.33C45.7343 205.479 42.3459 182.69 47.2744 171.911C52.203 161.132 51.8949 135.264 39.8817 132.8Z" fill="#EC661A"/>
<path d="M39.8817 132.8C39.8817 132.8 92.9659 92.4056 160.63 130.336C160.63 130.336 154.649 133.587 153.635 145.178C153.635 145.178 88.3711 139.652 50.0596 150.469C50.0596 150.465 49.5333 134.956 39.8817 132.8Z" fill="black"/>
<path d="M144.416 144.567C144.416 144.567 145.537 153.125 150.26 157.026L148.151 160.983C147.967 161.333 148.134 161.765 148.51 161.894L155.805 164.4C155.805 164.4 152.6 152.732 153.64 145.183L144.416 144.567Z" fill="white"/>
<path d="M49.0071 166.663L63.5274 147.377L50.0638 150.469C50.0596 150.465 50.7355 161.419 49.0071 166.663Z" fill="white"/>
<path d="M157.811 174.815C157.811 174.815 154.213 182.69 152.673 184.23C151.133 185.769 148.36 188.695 146.974 193.468C145.588 198.242 141.43 201.321 141.43 201.321C141.43 201.321 153.336 220.569 154.234 223.187L153.854 213.486C153.854 213.486 159.039 184.55 157.811 174.815Z" fill="black"/>
<path d="M45.131 180.542C45.131 180.542 49.1782 184.242 48.9729 186.911C48.7675 189.58 57.1871 191.736 57.8032 194.918C57.8032 194.918 69.8164 204.978 71.87 205.902C71.87 205.902 52.0532 239.577 52.1559 241.262C52.1559 241.262 50.6799 218.529 49.7472 214.927C48.8189 211.326 46.3546 205.398 45.6787 199.123C45.6744 199.123 43.7021 184.413 45.131 180.542Z" fill="#0968B2"/>
<path d="M151.578 280.459C151.578 280.459 146.756 224.979 149.717 214.991L154.239 223.187C154.239 223.187 156.117 275.399 158.786 279.39L151.578 280.459Z" fill="#0968B2"/>
<path d="M50.6628 113.296C50.6628 113.296 56.2074 147.582 93.582 147.377C130.957 147.171 143.278 117.402 143.894 113.296C143.894 113.296 131.162 125.653 94.8141 128.283C58.4663 130.909 50.6628 113.296 50.6628 113.296Z" fill="#0968B2"/>
<path d="M97.2784 147.253C98.288 152.723 99.1779 158.823 99.9694 164.353C105.274 204.354 107.585 245.043 103.572 285.267C103.7 282.384 103.845 279.501 103.999 276.622C104.158 274.189 104.269 270.472 104.308 267.978C105.398 227.703 102.369 187.198 97.2784 147.253Z" fill="black"/>
<path d="M74.2273 202.848L77.8467 198.999H86.7796C89.0342 198.999 90.861 200.825 90.861 203.079V215.398C90.861 217.652 89.0342 219.478 86.7796 219.478H67.8356L68.9907 215.321H82.1591C84.4137 215.321 86.2405 213.494 86.2405 211.24V206.929C86.2405 204.675 84.4137 202.848 82.1591 202.848H74.2273Z" fill="white"/>
<path d="M92.7862 198.999H97.4837V214.328C97.4837 215.09 97.9672 215.791 98.6987 216.005C98.9725 216.086 99.2891 216.133 99.6399 216.112C99.8325 216.103 100.016 216.074 100.183 216.031C100.958 215.838 101.488 215.124 101.488 214.328V198.999H106.263V214.782C106.263 217.374 104.158 219.478 101.565 219.478H97.4837C94.8911 219.478 92.7862 217.374 92.7862 214.782V198.999Z" fill="white"/>
<path d="M107.803 219.478V198.999H112.885V207.006H116.12L118.995 198.999H124.026L120.689 207.006L125.463 219.478H118.995L116.325 211.625H112.937L112.988 219.478H107.803Z" fill="white"/>
<path d="M126.644 198.999V219.478H137.22V215.321H130.803L130.854 211.625H140.3V207.006H130.854L130.905 202.848H138.76L136.142 198.999H126.644Z" fill="white"/>
<path d="M105.801 274.937C112.025 274.616 120.813 274.24 126.931 273.714C133.926 273.149 140.972 272.371 147.796 270.626C135.902 275.566 118.597 276.058 105.801 274.937Z" fill="black"/>
<path d="M25.7507 349.498C25.7507 349.498 32.6814 359.558 43.1545 353.604C53.6276 347.65 106.147 310.49 106.147 310.49C106.147 310.49 119.136 290.519 109.895 273.504C100.654 256.494 64.3061 232.473 33.2975 270.044C2.28886 307.615 25.7507 349.498 25.7507 349.498Z" fill="black"/>
<path d="M20.9462 337.663C20.9462 337.663 46.3118 323.488 54.2565 311.106L36.1767 266.746C36.1767 266.746 7.15319 292.778 20.9462 337.663Z" fill="#9D9D9C"/>
<path d="M26.1271 349.994L32.7798 345.392L34.7777 348.369L35.351 355.486C35.351 355.486 30.0503 355.007 26.1271 349.994Z" fill="#EC661A"/>
<path d="M112.539 294.009C112.539 294.009 44.1342 350.127 35.2612 354.366L35.351 355.486C35.351 355.486 39.595 355.756 42.4101 353.998C42.4101 353.998 90.0225 322.547 106.143 310.485C106.147 310.49 111.799 300.729 112.539 294.009Z" fill="#EC661A"/>
<path d="M48.237 332.15C48.237 332.15 86.3304 303.612 90.0268 292.115C90.0268 292.115 81.2992 316.751 48.237 332.15Z" fill="white"/>
<path d="M37.9693 343.544C37.9693 343.544 82.6083 314.604 90.3776 301.114C91.2375 299.621 92.1102 298.137 93.0429 296.691C96.7735 290.904 104.744 277.294 104.851 266.515C104.851 266.515 111.687 273.663 112.843 282.273C112.843 282.273 99.9865 303.338 82.5826 314.741L37.9693 343.544Z" fill="#0968B2"/>
<path d="M38.9319 273.504C38.9319 273.504 68.2206 251.96 74.4369 250.364C74.4369 250.364 67.4933 249.586 62.7188 250.813C57.9486 252.037 42.0036 262.974 36.8398 268.38L38.9319 273.504Z" fill="white"/>
<path d="M28.5914 269.586L45.0027 256.378C45.5289 256.716 46.453 257.328 47.5439 258.179C49.3622 259.595 50.5515 260.822 50.8082 261.075C54.7913 265.044 65.5852 265.185 67.1553 270.382C67.7842 272.465 67.5789 275.001 66.0644 278.085C66.0644 278.085 71.4977 283.971 60.7679 291.302C60.7679 291.302 59.4246 296.229 53.127 298.988C53.127 298.988 49.529 308.556 43.7106 303.385C37.8922 298.214 28.5101 285.211 32.0781 276.922C32.0739 276.922 28.0566 271.451 28.5914 269.586Z" fill="#0968B2"/>
<path d="M44.224 286.836C44.224 286.836 50.7612 293.547 53.1185 298.988L44.224 286.836Z" fill="#82368C"/>
<path d="M52.9217 299.074C50.6071 293.736 44.1342 287.055 44.07 286.986L44.378 286.687C44.4422 286.755 50.9708 293.492 53.3153 298.903L52.9217 299.074Z" fill="black"/>
<path d="M50.8596 278.599C50.8596 278.599 58.4491 283.603 60.7594 291.302L50.8596 278.599Z" fill="#82368C"/>
<path d="M60.554 291.366C58.2951 283.834 50.8168 278.829 50.7398 278.778L50.9751 278.423C51.0521 278.474 58.6588 283.56 60.9605 291.246L60.554 291.366Z" fill="black"/>
<path d="M52.5238 264.693C52.5238 264.693 63.2964 272.294 66.0601 278.085L52.5238 264.693Z" fill="#82368C"/>
<path d="M65.8676 278.175C63.1637 272.503 52.5109 264.945 52.404 264.868L52.6521 264.518C53.0928 264.83 63.5017 272.217 66.2569 277.991L65.8676 278.175Z" fill="black"/>
<path d="M48.4295 299.57L47.5824 300.293C46.8979 300.879 45.8668 300.802 45.2764 300.113L41.3833 295.571C40.7971 294.886 40.8742 293.855 41.5629 293.265L42.41 292.542C43.0946 291.956 44.1256 292.033 44.716 292.722L48.6092 297.264C49.1953 297.949 49.114 298.98 48.4295 299.57Z" fill="#F39200"/>
<path d="M46.5214 300.9C45.9995 300.9 45.4818 300.682 45.1182 300.254L41.225 295.712C40.5618 294.937 40.6517 293.77 41.4261 293.107L42.2731 292.384C42.6496 292.063 43.1245 291.905 43.6165 291.943C44.1085 291.982 44.5577 292.209 44.8786 292.585L48.7718 297.127C49.4349 297.902 49.3451 299.069 48.5707 299.732L47.7236 300.459C47.3728 300.755 46.945 300.9 46.5214 300.9ZM43.4668 292.363C43.1288 292.363 42.8036 292.482 42.5427 292.705L41.6956 293.428C41.1009 293.937 41.0325 294.835 41.5416 295.429L45.4348 299.972C45.9439 300.566 46.8423 300.635 47.437 300.126L48.2841 299.399C48.8787 298.89 48.9472 297.991 48.4381 297.397L44.5449 292.854C44.2967 292.568 43.9545 292.393 43.5737 292.363C43.5438 292.363 43.5053 292.363 43.4668 292.363Z" fill="black"/>
<path d="M56.4811 291.871L55.634 292.594C54.9495 293.18 53.9185 293.103 53.3281 292.414L49.4349 287.872C48.8488 287.187 48.9258 286.156 49.6146 285.566L50.4617 284.843C51.1462 284.257 52.1772 284.334 52.7676 285.023L56.6608 289.565C57.2469 290.254 57.1657 291.285 56.4811 291.871Z" fill="#F39200"/>
<path d="M54.5731 293.205C54.526 293.205 54.4747 293.205 54.4276 293.201C53.9356 293.163 53.4864 292.936 53.1655 292.559L49.2723 288.017C48.9515 287.641 48.7932 287.166 48.8317 286.674C48.8702 286.182 49.0969 285.733 49.4734 285.412L50.3205 284.685C50.697 284.364 51.1719 284.206 51.6639 284.244C52.1559 284.283 52.6051 284.51 52.9259 284.886L56.8191 289.428C57.14 289.805 57.2983 290.28 57.2598 290.772C57.2213 291.263 56.9945 291.713 56.618 292.033L55.771 292.756C55.4373 293.047 55.0137 293.205 54.5731 293.205ZM51.5227 284.668C51.1847 284.668 50.8596 284.788 50.5986 285.01L49.7515 285.737C49.4648 285.985 49.2894 286.327 49.2595 286.708C49.2295 287.085 49.3493 287.452 49.5975 287.743L53.4907 292.286C53.7388 292.572 54.0811 292.748 54.4618 292.778C54.8383 292.803 55.2062 292.688 55.4972 292.44L56.3442 291.717L56.4854 291.879L56.3442 291.708C56.6309 291.46 56.8063 291.118 56.8362 290.737C56.8662 290.361 56.7464 289.993 56.4983 289.702L52.6051 285.16C52.3569 284.873 52.0147 284.698 51.6339 284.668C51.5954 284.668 51.5569 284.668 51.5227 284.668Z" fill="black"/>
<path d="M63.3691 283.085L62.522 283.808C61.8375 284.394 60.8064 284.317 60.216 283.629L56.3228 279.086C55.7367 278.402 55.8137 277.371 56.5025 276.781L57.3496 276.058C58.0341 275.472 59.0652 275.549 59.6556 276.237L63.5488 280.78C64.1349 281.464 64.0536 282.495 63.3691 283.085Z" fill="#F39200"/>
<path d="M61.461 284.415C61.4139 284.415 61.3626 284.415 61.3155 284.411C60.8235 284.373 60.3743 284.146 60.0535 283.77L56.1603 279.227C55.4972 278.453 55.587 277.285 56.3614 276.622L57.2084 275.899C57.5849 275.579 58.0598 275.42 58.5518 275.459C59.0438 275.497 59.493 275.724 59.8139 276.101L63.7071 280.643C64.3702 281.417 64.2804 282.585 63.506 283.248L62.6589 283.971C62.3252 284.261 61.9017 284.415 61.461 284.415ZM58.4106 275.878C58.0726 275.878 57.7475 275.998 57.4865 276.22L56.6394 276.943C56.0448 277.452 55.9763 278.35 56.4854 278.945L60.3786 283.487C60.6267 283.774 60.969 283.949 61.3498 283.979C61.7305 284.005 62.0942 283.889 62.3851 283.641L63.2322 282.918C63.8269 282.409 63.8953 281.511 63.3862 280.917L59.493 276.374C59.2449 276.088 58.9026 275.912 58.5219 275.882C58.4834 275.878 58.4448 275.878 58.4106 275.878Z" fill="black"/>
<path d="M44.851 261.017L31.832 271.12L33.0755 272.722L46.0945 262.618L44.851 261.017Z" fill="#F39200"/>
<path d="M33.0236 273.012L31.5177 271.071L31.6888 270.938L44.8743 260.707L46.3802 262.649L46.2091 262.781L33.0236 273.012ZM32.1166 271.148L33.1006 272.414L45.7813 262.572L44.7973 261.306L32.1166 271.148Z" fill="black"/>
<path d="M240.021 237.742L221.946 248.564C222.079 249.175 222.335 250.253 222.754 251.571C223.452 253.765 224.192 255.305 224.342 255.634C226.686 260.741 223.08 270.916 227.413 274.189C229.15 275.502 231.602 276.186 235.02 275.831C235.02 275.831 238.661 282.966 249.258 275.438C249.258 275.438 254.345 275.882 259.115 270.929C259.115 270.929 269.34 270.869 266.499 263.62C263.659 256.37 254.709 243.072 245.694 243.546C245.699 243.546 241.955 237.888 240.021 237.742Z" fill="#0968B2"/>
<path d="M250.794 258.38C250.794 258.38 254.828 266.836 259.115 270.929L250.794 258.38Z" fill="#82368C"/>
<path d="M258.97 271.083C254.704 267.007 250.644 258.555 250.602 258.47L250.987 258.286C251.025 258.371 255.055 266.755 259.265 270.775L258.97 271.083Z" fill="#7D2584"/>
<path d="M240.766 261.75C240.766 261.75 242.832 270.604 249.258 275.433L240.766 261.75Z" fill="#82368C"/>
<path d="M249.13 275.604C242.717 270.784 240.578 261.887 240.556 261.797L240.971 261.699C240.993 261.789 243.097 270.532 249.386 275.262L249.13 275.604Z" fill="#7D2584"/>
<path d="M227.144 258.5C227.144 258.5 230.549 271.237 235.024 275.831L227.144 258.5Z" fill="#82368C"/>
<path d="M234.87 275.977C230.408 271.396 227.08 259.073 226.939 258.551L227.354 258.44C227.388 258.568 230.793 271.177 235.178 275.677L234.87 275.977Z" fill="#7D2584"/>
<path d="M261.284 266.729L262.255 266.186C263.043 265.745 263.325 264.749 262.889 263.962L259.975 258.735C259.534 257.948 258.538 257.666 257.75 258.102L256.779 258.645C255.992 259.086 255.71 260.082 256.146 260.869L259.06 266.096C259.5 266.887 260.497 267.17 261.284 266.729Z" fill="#F39200"/>
<path d="M260.493 267.152C260.322 267.152 260.155 267.131 259.984 267.08C259.509 266.943 259.115 266.635 258.876 266.203L255.962 260.976C255.466 260.086 255.787 258.957 256.677 258.461L257.648 257.918C258.08 257.678 258.576 257.619 259.055 257.755C259.53 257.892 259.924 258.2 260.163 258.632L263.077 263.859C263.316 264.291 263.376 264.787 263.239 265.262C263.102 265.737 262.794 266.13 262.362 266.37L261.391 266.913C261.109 267.071 260.805 267.152 260.493 267.152ZM258.546 258.115C258.307 258.115 258.071 258.175 257.857 258.294L256.886 258.838C256.202 259.218 255.958 260.086 256.339 260.771L259.252 265.998C259.436 266.327 259.74 266.566 260.103 266.673C260.467 266.776 260.852 266.733 261.182 266.549L262.153 266.006C262.482 265.822 262.722 265.519 262.829 265.155C262.931 264.791 262.889 264.407 262.705 264.073L259.791 258.846C259.607 258.517 259.303 258.277 258.94 258.17C258.807 258.132 258.675 258.115 258.546 258.115Z" fill="#EF7C0B"/>
<path d="M251.273 271.618L252.244 271.075C253.032 270.634 253.314 269.638 252.878 268.851L249.964 263.624C249.523 262.837 248.527 262.554 247.739 262.991L246.768 263.534C245.981 263.975 245.699 264.971 246.135 265.758L249.048 270.985C249.489 271.776 250.486 272.059 251.273 271.618Z" fill="#F39200"/>
<path d="M250.482 272.041C250.311 272.041 250.144 272.02 249.973 271.969C249.498 271.832 249.104 271.524 248.865 271.092L245.951 265.865C245.455 264.975 245.776 263.846 246.666 263.35L247.637 262.807C248.527 262.311 249.656 262.631 250.152 263.521L253.066 268.748C253.562 269.638 253.241 270.767 252.351 271.263L251.38 271.806C251.098 271.96 250.794 272.041 250.482 272.041ZM248.535 263.004C248.3 263.004 248.065 263.063 247.846 263.183L246.875 263.726C246.191 264.107 245.947 264.975 246.328 265.66L249.241 270.887C249.425 271.216 249.729 271.455 250.092 271.562C250.456 271.665 250.841 271.622 251.171 271.438L252.142 270.895C252.826 270.514 253.07 269.646 252.689 268.962L249.776 263.735C249.519 263.265 249.031 263.004 248.535 263.004Z" fill="#EF7C0B"/>
<path d="M240.642 275.035L241.613 274.492C242.4 274.052 242.682 273.055 242.246 272.268L239.333 267.041C238.892 266.254 237.895 265.972 237.108 266.408L236.137 266.951C235.35 267.392 235.067 268.389 235.504 269.176L238.417 274.402C238.858 275.194 239.855 275.476 240.642 275.035Z" fill="#F39200"/>
<path d="M239.85 275.459C239.2 275.459 238.571 275.117 238.233 274.509L235.32 269.283C234.823 268.393 235.144 267.264 236.034 266.768L237.005 266.224C237.437 265.985 237.934 265.925 238.413 266.062C238.888 266.199 239.281 266.507 239.521 266.939L242.434 272.165C242.931 273.055 242.61 274.184 241.72 274.68L240.749 275.224C240.462 275.382 240.154 275.459 239.85 275.459ZM237.904 266.421C237.664 266.421 237.429 266.481 237.215 266.601L236.244 267.144C235.559 267.525 235.315 268.393 235.696 269.077L238.61 274.304C238.99 274.988 239.859 275.232 240.543 274.852L241.515 274.308C242.199 273.928 242.443 273.059 242.062 272.375L239.149 267.148C238.965 266.819 238.661 266.579 238.297 266.472C238.165 266.438 238.032 266.421 237.904 266.421Z" fill="#EF7C0B"/>
<path d="M227.432 251.736L241.419 243.023L240.346 241.302L226.36 250.015L227.432 251.736Z" fill="#F39200"/>
<path d="M227.349 252.028L226.049 249.941L240.398 241.001L241.699 243.089L227.349 252.028ZM226.643 250.078L227.491 251.438L241.112 242.952L240.265 241.592L226.643 250.078Z" fill="#EF7C0B"/>
<path d="M21.0745 325.46C21.0745 325.46 17.3739 293.535 28.54 279.933C28.54 279.933 18.6103 309.754 21.0745 325.46Z" fill="white"/>
<path d="M73.3245 492.888C72.8283 497.298 70.1843 500.442 67.3436 504.091C63.7713 508.689 47.0434 510.057 40.1255 503.62C39.9159 503.428 39.7105 503.222 39.5223 503.013C38.8249 502.247 38.2559 501.387 37.8495 500.425C37.2077 498.911 36.8783 497.251 36.7799 495.527C36.6131 492.649 37.0879 489.595 37.8366 486.721C38.2217 485.258 38.6752 483.842 39.1501 482.525C40.8528 477.798 42.8336 474.317 42.8336 474.317H67.4762C67.4762 474.317 69.8036 476.926 72.5887 486.272C73.3459 488.816 73.5385 490.972 73.3245 492.888Z" fill="#0968B2"/>
<path d="M48.4338 487.905C48.3611 488.504 48.2755 489.107 48.1686 489.71C47.4926 493.586 46.0893 497.439 43.454 500.566C42.8978 500.322 42.3673 500.053 41.8667 499.766C44.2369 497.072 45.5717 493.701 46.269 490.237C46.346 489.873 46.4102 489.514 46.4701 489.15C47.407 483.427 46.7268 477.623 46.1535 474.317H47.9119C48.468 477.49 49.0627 482.619 48.4338 487.905Z" fill="black"/>
<path d="M60.2631 489.68C59.6855 490.339 55.587 490.023 55.587 490.023C50.2863 489.283 50.0638 489.732 47.8306 490.237C46.8509 490.459 46.5728 490.138 46.5514 490.142L46.269 490.237C46.346 489.873 46.4102 489.514 46.4701 489.15C47.1418 488.628 47.9033 488.376 48.4338 487.905C51.8222 484.894 55.3945 485.673 57.2384 486.374C59.1807 487.118 61.0589 488.769 60.2631 489.68Z" fill="black"/>
<path d="M53.3581 478.684C51.8264 481.969 48.5408 480.446 48.5408 480.446L37.8366 486.721C38.2217 485.258 38.6752 483.842 39.1501 482.525C41.4218 480.848 46.1022 477.482 48.4081 476.442C51.5184 475.044 54.8939 475.395 53.3581 478.684Z" fill="black"/>
<path d="M60.708 501.768L58.1711 498.898H49.8028L47.3129 501.845C45.9011 501.52 44.6133 501.088 43.4539 500.566C42.8978 500.322 42.3673 500.053 41.8667 499.766C39.7404 498.569 38.0762 497.08 36.7799 495.528C36.8783 497.251 37.2077 498.911 37.8495 500.425C38.2559 501.387 38.8249 502.247 39.5222 503.013L40.0057 503.71C40.0442 503.684 40.087 503.654 40.1255 503.62C47.0434 510.057 63.7713 508.689 67.3436 504.091C70.1843 500.442 72.8283 497.298 73.3245 492.888C71.6988 496.225 68.2078 500.177 60.708 501.768Z" fill="black"/>
<path d="M121.356 492.888C121.853 497.298 124.496 500.442 127.337 504.091C130.91 508.689 147.637 510.057 154.555 503.62C154.765 503.428 154.97 503.222 155.159 503.013C155.856 502.247 156.425 501.387 156.831 500.425C157.473 498.911 157.802 497.251 157.901 495.527C158.068 492.649 157.593 489.595 156.844 486.721C156.459 485.258 156.006 483.842 155.531 482.525C153.828 477.798 151.847 474.317 151.847 474.317H127.205C127.205 474.317 124.877 476.926 122.092 486.272C121.335 488.816 121.142 490.972 121.356 492.888Z" fill="#0968B2"/>
<path d="M146.247 487.905C146.32 488.504 146.405 489.107 146.512 489.71C147.188 493.586 148.591 497.439 151.227 500.566C151.783 500.322 152.313 500.053 152.814 499.766C150.444 497.072 149.109 493.701 148.412 490.237C148.335 489.873 148.271 489.514 148.211 489.15C147.274 483.427 147.954 477.623 148.527 474.317H146.769C146.213 477.49 145.618 482.619 146.247 487.905Z" fill="black"/>
<path d="M134.418 489.68C134.995 490.339 139.094 490.023 139.094 490.023C144.395 489.283 144.617 489.732 146.85 490.237C147.83 490.459 148.108 490.138 148.129 490.142L148.412 490.237C148.335 489.873 148.271 489.514 148.211 489.15C147.539 488.628 146.777 488.376 146.247 487.905C142.859 484.894 139.286 485.673 137.442 486.374C135.5 487.118 133.618 488.769 134.418 489.68Z" fill="black"/>
<path d="M141.323 478.684C142.854 481.969 146.14 480.446 146.14 480.446L156.844 486.721C156.459 485.258 156.006 483.842 155.531 482.525C153.259 480.848 148.579 477.482 146.273 476.442C143.162 475.044 139.787 475.395 141.323 478.684Z" fill="black"/>
<path d="M133.973 501.768L136.51 498.898H144.878L147.368 501.845C148.78 501.52 150.067 501.088 151.227 500.566C151.783 500.322 152.313 500.053 152.814 499.766C154.94 498.569 156.605 497.08 157.901 495.528C157.802 497.251 157.473 498.911 156.831 500.425C156.425 501.387 155.856 502.247 155.159 503.013L154.675 503.71C154.637 503.684 154.594 503.654 154.555 503.62C147.637 510.057 130.91 508.689 127.337 504.091C124.496 500.442 121.853 497.298 121.356 492.888C122.982 496.225 126.473 500.177 133.973 501.768Z" fill="black"/>
<path d="M77.3546 135.837C77.3546 135.837 75.2626 142.894 79.421 146.667C79.421 146.667 79.113 142.073 80.1911 141.252C80.1911 141.252 81.1152 148.284 85.3506 150.131C85.3506 150.131 83.7335 145.435 84.0415 144.049C84.0415 144.049 87.5069 150.67 90.4332 151.825C90.4332 151.825 88.662 147.976 88.662 145.743C88.662 145.743 92.8846 150.747 94.2365 151.517C94.2365 151.517 99.4431 147.206 99.9052 145.974C99.9052 145.974 99.3661 151.055 98.288 151.825C98.288 151.825 103.294 146.821 103.602 145.512C103.602 145.512 103.448 149.515 102.677 150.208C102.677 150.208 107.683 145.897 107.76 142.278C107.76 142.278 108.838 145.589 107.76 147.591C107.76 147.591 112.346 141.44 111.555 136.123C111.555 136.123 100.243 136.175 94.9125 123.21C94.9125 123.21 87.8406 134.169 77.3546 135.837Z" fill="#F39200"/>
<path d="M83.3784 133.792C83.3784 133.792 83.9645 138.771 84.8886 139.271C84.8886 139.271 85.1966 137.257 86.3133 136.513C86.3133 136.513 89.0085 137.693 88.8545 139.271C88.8545 139.271 90.8952 136.538 91.0107 134.921C91.0107 134.921 91.4343 137.578 92.2429 139.271C92.2429 139.271 93.9371 136.192 94.0526 134.459C94.0526 134.459 97.1714 138.424 97.3254 139.502C97.3254 139.502 98.057 136.269 97.749 135.345C97.749 135.345 99.1736 138.155 100.367 139.117C100.367 139.117 99.5201 136.038 99.7897 135.037C99.7897 135.037 101.407 137.924 102.446 138.424C102.446 138.424 101.693 134.913 103.05 133.339L94.9125 123.21L83.3784 133.792Z" fill="#F9B233"/>
<path d="M64.7253 125.058C64.7253 125.058 69.0378 134.605 77.3546 135.837C85.6715 137.069 95.2205 127.522 94.9125 123.21C94.9125 123.21 100.149 139.75 112.162 135.944C124.176 132.141 124.176 125.058 124.176 125.058C124.176 125.058 136.189 121.671 136.805 116.743C136.805 116.743 137.729 119.9 136.805 121.825C136.805 121.825 145.815 112.278 145.969 109.506C145.969 109.506 146.431 111.97 145.969 113.279C145.969 113.279 154.594 99.7411 154.08 93.4792C154.08 93.4792 155.826 95.1217 155.21 96.1482C155.21 96.1482 159.112 85.3696 157.674 79.4156C157.674 79.4156 159.758 79.9674 160.374 82.0205C160.374 82.0205 160.938 69.7533 158.705 66.1348C158.705 66.1348 186.197 28.7944 164.943 3.23361C164.943 3.23361 148.617 -8.46894 129.827 18.9397C129.827 18.9397 121.587 14.0123 117.198 14.3202C117.198 14.3202 121.818 10.3937 123.82 10.4707C123.82 10.4707 113.963 10.1627 110.267 12.7804C110.267 12.7804 113.501 7.85303 114.811 7.77604C116.12 7.69905 103.875 8.85391 102.027 10.7787C102.027 10.7787 103.875 5.31235 106.109 4.69642C106.109 4.69642 97.6377 6.23623 94.6344 10.5477C94.6344 10.5477 86.5314 6.85216 80.0628 7.69905C80.0628 7.69905 84.1442 9.31585 85.2223 11.4716C85.2223 11.4716 75.6733 8.77692 69.2816 9.77779C69.2816 9.77779 73.2861 11.0096 74.0561 13.0114C74.0561 13.0114 65.5852 11.7026 63.352 12.6264C63.352 12.6264 68.2805 13.7043 68.2035 15.3981C68.2035 15.3981 62.967 16.399 59.8096 20.0175C59.8096 20.0175 38.0933 -7.51939 25.618 2.02742C13.1427 11.5742 9.44632 40.6766 30.3925 65.7755C30.3925 65.7755 26.7988 74.2444 28.0309 81.3276C28.0309 81.3276 30.1872 75.0143 31.7273 73.1666C31.7273 73.1666 29.5711 87.6408 30.9573 95.1858C30.9573 95.1858 33.2675 87.1788 34.6536 85.3311C34.6536 85.3311 34.0376 101.191 40.1982 110.122C40.1982 110.122 39.7362 104.117 40.1982 102.731C40.1982 102.731 42.3545 112.432 49.2852 117.513C49.2852 117.513 48.0531 113.972 48.8231 111.816C48.8231 111.812 56.2929 122.44 64.7253 125.058Z" fill="#F39200"/>
<path d="M64.0066 112.107C64.0066 112.107 50.4531 102.457 49.221 96.9138C49.221 96.9138 48.5536 99.7368 48.759 101.482C48.759 101.482 42.2903 89.7794 43.1117 85.4679C43.1117 85.4679 40.8528 88.9582 41.0581 90.0874C41.0581 90.0874 37.4644 77.6662 39.1073 74.2787C39.1073 74.2787 36.5917 77.3839 36.3863 79.437C36.3863 79.437 37.2077 66.3743 39.518 64.0646C39.518 64.0646 36.2066 66.3016 35.8986 68.2606C35.8986 68.2606 34.7435 49.3594 41.2122 45.3559C41.2122 45.3559 38.7992 43.2515 36.5403 44.0728C36.5403 44.0728 40.2881 39.248 43.3684 39.3507C43.3684 39.3507 40.5961 38.6321 38.4399 39.8639C38.4399 39.8639 41.2122 34.4233 47.6808 32.7808C47.6808 32.7808 46.5257 31.3822 44.2668 31.8954C44.2668 31.8954 46.0123 28.1999 50.8382 26.4548C50.8382 26.4548 51.5569 26.1468 53.6105 26.4548C53.6105 26.4548 47.6552 33.6405 47.3471 41.4422C47.3471 41.4422 57.0502 26.8654 64.0066 25.6335C64.0066 25.6335 56.3828 35.3857 54.8426 40.8263C54.8426 40.8263 57.4095 36.6175 62.1327 33.2299C62.1327 33.2299 61.3113 35.6936 60.9006 40.3131C60.9006 40.3131 67.2666 28.8158 76.7129 27.6866C76.7129 27.6866 67.5746 37.1308 70.7576 49.0386C70.7576 49.0386 72.5031 47.8068 72.7085 44.5219C72.7085 44.5219 73.8379 51.1944 73.3245 54.1713C73.3245 54.1713 74.9674 54.0687 74.9674 51.7076C74.9674 51.7076 81.4361 56.9943 81.128 63.4615C80.82 69.9287 64.0066 112.107 64.0066 112.107Z" fill="#F9B233"/>
<path d="M123.731 111.499C123.731 111.499 137.284 101.85 138.516 96.3064C138.516 96.3064 139.184 99.1294 138.978 100.875C138.978 100.875 145.447 89.172 144.626 84.8605C144.626 84.8605 146.884 88.3508 146.679 89.4799C146.679 89.4799 150.273 77.0588 148.63 73.6713C148.63 73.6713 151.146 76.7765 151.351 78.8296C151.351 78.8296 150.529 65.7669 148.219 63.4572C148.219 63.4572 151.531 65.6942 151.839 67.6532C151.839 67.6532 152.994 48.752 146.525 44.7485C146.525 44.7485 148.938 42.6441 151.197 43.4653C151.197 43.4653 147.449 38.6406 144.369 38.7433C144.369 38.7433 147.141 38.0247 149.297 39.2565C149.297 39.2565 146.525 33.8159 140.056 32.1734C140.056 32.1734 141.211 30.7747 143.47 31.288C143.47 31.288 141.725 27.5925 136.899 25.8474C136.899 25.8474 136.18 25.5394 134.127 25.8474C134.127 25.8474 140.082 33.0331 140.39 40.8348C140.39 40.8348 130.687 26.258 123.731 25.0261C123.731 25.0261 131.354 34.7782 132.895 40.2189C132.895 40.2189 130.328 36.0101 125.605 32.6225C125.605 32.6225 126.426 35.0862 126.837 39.7056C126.837 39.7056 120.471 28.2084 111.024 27.0792C111.024 27.0792 120.163 36.5234 116.98 48.4312C116.98 48.4312 115.234 47.1994 115.029 43.9144C115.029 43.9144 113.899 50.5869 114.413 53.5639C114.413 53.5639 112.77 53.4613 112.77 51.1002C112.77 51.1002 106.301 56.3869 106.609 62.8541C106.917 69.3213 123.731 111.499 123.731 111.499Z" fill="#F9B233"/>
<path d="M151.432 56.1644C151.432 56.1644 159.368 47.6527 157.623 38.5165C157.623 38.5165 160.395 43.2386 159.574 45.0864C159.574 45.0864 164.194 38.2086 160.6 31.7414C160.6 31.7414 163.578 34.4104 163.167 37.7979C163.167 37.7979 164.502 26.0954 161.627 23.6317C161.627 23.6317 164.502 25.0689 164.502 27.1219C164.502 27.1219 167.891 1.35581 147.458 12.4424C147.458 12.4424 151.257 12.2371 152.489 12.9557C152.489 12.9557 145.61 13.7769 143.043 17.2672C143.043 17.2672 147.663 16.0353 149.819 16.5486C149.819 16.5486 143.351 18.6017 140.476 21.7839C140.476 21.7839 143.351 21.168 146.328 21.2707C146.328 21.2707 139.594 22.9302 138.217 26.4034C138.217 26.4034 142.178 28.2469 143.47 31.288C143.47 31.288 141.472 30.8431 140.056 32.1734C140.056 32.1734 145.888 33.3881 149.297 39.2565C149.297 39.2565 147.736 38.0075 144.369 38.7432C144.369 38.7432 147.479 38.6748 151.197 43.4653C151.197 43.4653 149.327 42.5243 146.525 44.7485C146.525 44.7485 150.204 46.5192 151.432 56.1644Z" fill="#EC661A"/>
<path d="M41.2122 45.3559C41.2122 45.3559 38.7607 43.1232 36.5403 44.0728C36.5403 44.0728 39.5308 39.7356 43.3684 39.3507C43.3684 39.3507 40.0955 38.7091 38.4399 39.8639C38.4399 39.8639 41.225 34.3463 47.6808 32.7808C47.6808 32.7808 46.5642 31.3437 44.2668 31.8954C44.2668 31.8954 46.115 28.3667 49.3579 27.0964C49.3579 27.0964 44.1256 22.8491 40.6859 23.1057C40.6859 23.1057 43.3042 21.9252 45.3064 22.2845C45.3064 22.2845 41.9181 18.9995 37.811 19.6155C37.811 19.6155 40.5319 18.1783 42.7908 19.2048C42.7908 19.2048 38.7351 14.6881 35.1414 14.6881C35.1414 14.6881 37.0109 13.5589 39.8731 14.0722C39.8731 14.0722 36.2708 5.55188 27.8513 13.2509C27.8513 13.2509 22.512 18.4863 23.3334 30.2915C23.3334 30.2915 24.5656 25.3641 26.8245 23.9269C26.8245 23.9269 23.2308 30.9074 24.9763 37.0666C24.9763 37.0666 24.9763 32.3445 27.7486 30.2915C27.7486 30.2915 25.695 38.8117 29.1861 46.8187C29.1861 46.8187 28.4673 43.2259 30.5209 40.3516C30.5209 40.3516 31.2781 50.8864 34.6665 54.6846C34.6665 54.6846 32.9381 58.8464 30.3925 65.7712C30.3925 65.7712 36.0911 48.1019 41.2122 45.3559Z" fill="#EC661A"/>
<path d="M90.4845 43.1232C90.4845 43.1232 91.5113 50.8222 92.3327 52.5673C92.3327 52.5673 94.489 48.5638 94.6943 44.1497C94.6943 44.1497 97.672 51.2328 97.2613 55.5443C97.2613 55.5443 99.8282 50.7196 99.8282 47.2293C99.8282 47.2293 101.163 53.5939 100.65 55.5443C100.65 55.5443 102.806 53.7992 103.114 51.5408C103.114 51.5408 104.859 55.1337 103.114 59.4451C103.114 59.4451 105.21 58.9832 106.601 55.5956C106.601 55.5956 107.289 58.6367 106.601 61.7164C106.601 61.7164 109.54 78.5987 121.065 104.72C121.065 104.72 120.171 107.025 119.555 108.257C119.555 108.257 118.092 104.754 117.322 104.716C117.322 104.716 116.59 108.065 116.128 109.104C116.128 109.104 115.243 105.678 114.088 105.447C114.088 105.447 114.049 108.642 113.24 109.681C113.24 109.681 111.354 105.331 110.237 105.254C110.237 105.254 108.774 109.373 108.466 109.951L77.637 108.988C77.637 108.988 76.6102 106.525 76.7129 106.012C76.7129 106.012 74.9674 107.423 75.2754 109.951C75.2754 109.951 73.0165 107.551 72.9139 105.806C72.9139 105.806 71.8357 106.217 71.9127 108.604C71.9127 108.604 69.9105 106.294 69.9875 105.062C69.9875 105.062 68.5244 106.063 68.7554 107.68C68.7554 107.68 67.0912 104.258 67.6174 102.898C68.1436 101.538 80.0628 68.2648 80.0628 68.2648C80.0628 68.2648 83.049 61.973 79.0232 56.4168C79.0232 56.4168 83.2116 57.6872 83.879 59.0217C83.879 59.0217 83.3142 53.1704 81.4147 51.9899C81.4147 51.9899 85.9325 53.4271 86.1379 55.7881C86.1336 55.7881 91.0364 47.2422 90.4845 43.1232Z" fill="#F9B233"/>
<path d="M78.5868 106.397C78.5868 106.397 73.8636 97.6709 76.1225 91.717C76.1225 91.717 77.7654 96.5417 78.5868 97.363C78.5868 97.363 77.7354 88.3294 81.1366 85.2498C81.1366 85.2498 80.8457 89.9719 82.5912 93.1541C82.5912 93.1541 82.0778 86.9949 85.7742 83.6073C89.4706 80.2198 93.783 69.9544 93.6804 66.7721C93.6804 66.7721 105.078 83.71 102.1 91.5117C102.1 91.5117 103.845 92.1276 104.975 87.2002C104.975 87.2002 107.234 92.2303 104.564 96.3364C104.564 96.3364 108.466 93.1542 108.774 90.7931C108.774 90.7931 109.048 102.393 106.601 105.165C106.601 105.165 90.3006 107.983 78.5868 106.397Z" fill="#EC661A"/>
<path d="M94.9125 123.21C94.9125 123.21 98.8784 138.335 111.555 136.123C111.555 136.123 122.691 133.865 124.176 125.058C125.664 116.255 126.482 117.864 121.065 104.724L119.555 108.261C119.555 108.261 118.169 104.964 117.322 104.72C117.322 104.72 116.475 108.377 116.128 109.108C116.128 109.108 115.166 105.554 114.088 105.451C114.088 105.451 114.062 108.685 113.24 109.686C113.24 109.686 111.803 104.861 109.056 105.785C106.31 106.709 77.637 108.993 77.637 108.993C77.637 108.993 76.5332 106.619 76.7129 106.016C76.7129 106.016 74.8904 107.414 75.2754 109.955C75.2754 109.955 72.9395 107.325 72.9138 105.81C72.9138 105.81 71.6304 106.837 71.9127 108.608C71.9127 108.608 69.7437 105.99 69.9875 105.066C69.9875 105.066 68.5885 105.721 68.7554 107.684C68.7554 107.684 67.2281 104.54 67.4206 103.411C67.4206 103.411 59.6642 111.619 64.7253 125.062C70.1672 139.502 89.6417 139.447 94.9125 123.21Z" fill="#CA9E67"/>
<path d="M109.561 108.642C109.561 111.533 107.217 113.877 104.325 113.877C104.325 113.877 100.115 115.118 99.2549 117.539C99.2506 117.547 99.2506 117.551 99.2464 117.56C98.549 119.626 96.5939 121.114 94.2879 121.114C91.9819 121.114 90.0268 119.626 89.3294 117.56C89.3294 117.56 89.3294 117.556 89.3251 117.556C87.8021 115.297 83.3784 114.301 83.3784 114.301C80.4863 114.301 78.1418 111.957 78.1418 109.065C78.1418 106.174 80.4863 103.83 83.3784 103.83C84.3881 103.83 85.3293 104.117 86.1293 104.613C86.1293 104.617 86.1336 104.617 86.1379 104.617C88.6321 105.289 92.153 106.127 93.706 105.986C95.289 105.84 99.011 104.878 101.599 104.168C102.395 103.685 103.328 103.407 104.325 103.407C107.217 103.407 109.561 105.751 109.561 108.642Z" fill="black"/>
<path d="M110.216 75.8013C110.216 75.8013 105.21 60.8352 116.402 53.1362C116.402 53.1362 115.581 55.3946 115.478 56.7291C115.478 56.7291 121.515 50.0565 121.065 48.0035C121.065 48.0035 121.977 52.1096 121.091 53.3415C121.091 53.3415 124.415 49.5433 124.621 47.3875C124.621 47.3875 125.339 49.6459 124.107 51.5964C124.107 51.5964 127.496 48.722 127.804 46.7716C127.804 46.7716 128.522 50.0565 127.804 50.9804C127.804 50.9804 132.219 48.3114 133.04 45.2318C133.04 45.2318 133.143 51.2884 132.527 52.8282C132.527 52.8282 137.25 49.8512 137.661 47.0796C137.661 47.0796 139.509 53.4441 136.12 56.6264C136.12 56.6264 140.844 55.4972 141.46 53.7521C141.46 53.7521 139.701 58.6795 138.217 59.5007C138.217 59.5007 139.201 61.0191 141.46 60.5144C141.46 60.5144 140.536 64.4281 135.71 65.9679C135.71 65.9679 137.661 66.6865 139.509 66.1732C139.509 66.1732 137.947 69.0475 134.058 69.8688C134.058 69.8688 133.964 71.3059 135.915 70.8953C135.915 70.8953 133.553 73.9749 130.165 73.9749C130.165 73.9749 130.062 75.6174 132.116 75.2068C132.116 75.2068 128.522 77.8758 124.826 77.7731C124.826 77.7731 124.312 79.2103 126.469 79.3129C126.469 79.3129 116.603 81.7124 111.679 80.4079L110.216 75.8013Z" fill="#EC661A"/>
<path d="M77.0595 76.5156C77.0595 76.5156 82.065 61.5496 70.8731 53.8505C70.8731 53.8505 71.6946 56.1089 71.7972 57.4434C71.7972 57.4434 65.7607 50.7709 66.2099 48.7178C66.2099 48.7178 65.2986 52.824 66.1842 54.0558C66.1842 54.0558 62.86 50.2576 62.6547 48.1019C62.6547 48.1019 61.9359 50.3603 63.168 52.3107C63.168 52.3107 59.7797 49.4364 59.4717 47.486C59.4717 47.486 58.7529 50.7709 59.4717 51.6948C59.4717 51.6948 55.0565 49.0258 54.2351 45.9462C54.2351 45.9462 54.1324 52.0027 54.7485 53.5426C54.7485 53.5426 50.0253 50.5656 49.6146 47.7939C49.6146 47.7939 47.7664 54.1585 51.1548 57.3407C51.1548 57.3407 46.4316 56.2116 45.8156 54.4664C45.8156 54.4664 47.5739 59.3938 49.0584 60.2151C49.0584 60.2151 48.0745 61.7335 45.8156 61.2288C45.8156 61.2288 46.7397 65.1424 51.5655 66.6823C51.5655 66.6823 49.6146 67.4008 47.7664 66.8876C47.7664 66.8876 49.328 69.7619 53.2169 70.5831C53.2169 70.5831 53.311 72.0203 51.3601 71.6096C51.3601 71.6096 53.7217 74.6893 57.1101 74.6893C57.1101 74.6893 57.2128 76.3317 55.1592 75.9211C55.1592 75.9211 58.7529 78.5901 62.4493 78.4875C62.4493 78.4875 62.9627 79.9246 60.8065 80.0273C60.8065 80.0273 70.6721 82.4268 75.5963 81.1222L77.0595 76.5156Z" fill="#EC661A"/>
<path d="M116.556 60.0183C116.556 60.0183 126.721 56.3227 127.645 53.3971C127.645 53.3971 127.106 56.7847 125.797 57.9395C125.797 57.9395 130.264 57.4733 131.265 56.1645C131.265 56.1645 131.342 58.0935 130.649 58.6324C130.649 58.6324 132.343 59.4023 132.959 58.3245C132.959 58.3245 132.343 60.1723 131.265 60.4802C131.265 60.4802 135.115 60.4802 136.578 62.251C136.578 62.251 131.111 64.4238 129.801 68.2648C128.492 72.1058 121.947 74.3385 118.25 72.4137C118.25 72.4137 113.668 81.4216 125.279 92.6622C125.279 92.6622 122.563 92.1233 122.024 91.3534C122.024 91.3534 127.414 97.6666 127.414 100.977C127.414 100.977 126.952 99.7453 124.873 99.2834C124.873 99.2834 128.847 104.942 128.783 107.581C128.783 107.581 127.26 106.059 125.951 106.059C125.951 106.059 128.646 110.344 128.184 114.938C128.184 114.938 123.975 107.406 122.267 107.654C122.267 107.654 111.546 81.2976 110.601 77.4438C109.66 73.5857 111.918 61.9644 116.556 60.0183Z" fill="black"/>
<path d="M71.1041 60.0183C71.1041 60.0183 60.9391 56.3227 60.015 53.3971C60.015 53.3971 60.554 56.7847 61.8632 57.9395C61.8632 57.9395 57.3967 57.4733 56.3956 56.1645C56.3956 56.1645 56.3186 58.0935 57.0117 58.6324C57.0117 58.6324 55.3175 59.4023 54.7014 58.3245C54.7014 58.3245 55.3175 60.1723 56.3956 60.4802C56.3956 60.4802 52.5452 60.4802 51.082 62.251C51.082 62.251 56.5496 64.4238 57.8587 68.2648C59.1679 72.1058 65.7136 74.3385 69.41 72.4137C69.41 72.4137 73.9919 81.4216 62.3808 92.6622C62.3808 92.6622 65.0975 92.1233 65.6366 91.3534C65.6366 91.3534 60.246 97.6666 60.246 100.977C60.246 100.977 60.708 99.7453 62.7873 99.2834C62.7873 99.2834 58.8128 104.942 58.877 107.581C58.877 107.581 60.4 106.059 61.7092 106.059C61.7092 106.059 59.0139 110.344 59.4759 114.938C59.4759 114.938 63.6857 107.406 65.3927 107.654C65.3927 107.654 76.1139 81.2976 77.0594 77.4438C78.0049 73.5857 75.746 61.9644 71.1041 60.0183Z" fill="black"/>
<path d="M60.4941 62.9696L72.3021 64.92C72.3021 64.92 71.84 71.7978 65.2687 71.1306C58.6973 70.4633 60.4941 62.9696 60.4941 62.9696Z" fill="white"/>
<path d="M62.676 63.4572C61.9958 65.4546 62.9584 68.1151 64.9521 68.8123C66.4452 69.3384 68.0495 68.8764 69.0506 67.7729C69.5255 67.2468 69.8078 66.5753 69.9276 65.8781L70.1501 64.5607L62.676 63.4572Z" fill="black"/>
<path d="M66.2184 66.5581C66.7689 66.5581 67.2152 66.1119 67.2152 65.5615C67.2152 65.0111 66.7689 64.5649 66.2184 64.5649C65.6679 64.5649 65.2216 65.0111 65.2216 65.5615C65.2216 66.1119 65.6679 66.5581 66.2184 66.5581Z" fill="white"/>
<path d="M127.825 62.1654L116.017 64.1158C116.017 64.1158 116.479 70.9936 123.05 70.3264C129.622 69.6591 127.825 62.1654 127.825 62.1654Z" fill="white"/>
<path d="M125.643 62.6531C126.323 64.6506 125.361 67.311 123.367 68.0082C121.874 68.5343 120.27 68.0724 119.268 66.9688C118.794 66.4427 118.511 65.7712 118.391 65.074L118.169 63.7566L125.643 62.6531Z" fill="black"/>
<path d="M122.105 65.7541C122.655 65.7541 123.102 65.3079 123.102 64.7575C123.102 64.2071 122.655 63.7609 122.105 63.7609C121.554 63.7609 121.108 64.2071 121.108 64.7575C121.108 65.3079 121.554 65.7541 122.105 65.7541Z" fill="white"/>
<path d="M94.2322 31.9168C95.3829 31.9168 96.3157 30.1014 96.3157 27.862C96.3157 25.6225 95.3829 23.8071 94.2322 23.8071C93.0816 23.8071 92.1487 25.6225 92.1487 27.862C92.1487 30.1014 93.0816 31.9168 94.2322 31.9168Z" fill="black"/>
<path d="M86.8469 27.9532C88.0712 26.0779 88.2826 24.0479 87.319 23.4191C86.3554 22.7903 84.5818 23.8007 83.3574 25.676C82.1331 27.5513 81.9217 29.5813 82.8853 30.2101C83.8488 30.8389 85.6225 29.8285 86.8469 27.9532Z" fill="black"/>
<path d="M104.642 29.5787C105.605 28.9499 105.394 26.9199 104.17 25.0446C102.945 23.1693 101.172 22.1589 100.208 22.7877C99.2444 23.4165 99.4558 25.4465 100.68 27.3218C101.905 29.1971 103.678 30.2075 104.642 29.5787Z" fill="black"/>
<path d="M115.49 25.1626C115.876 24.0785 114.477 22.5919 112.366 21.8422C110.255 21.0924 108.232 21.3634 107.847 22.4475C107.462 23.5315 108.86 25.0181 110.971 25.7678C113.082 26.5176 115.105 26.2466 115.49 25.1626Z" fill="black"/>
<path d="M116.719 18.6969C117.105 17.6128 115.706 16.1262 113.595 15.3765C111.484 14.6267 109.461 14.8977 109.076 15.9818C108.691 17.0658 110.089 18.5524 112.2 19.3021C114.311 20.0519 116.334 19.7809 116.719 18.6969Z" fill="black"/>
<path d="M123.517 21.8018C124.028 21.176 123.455 19.8633 122.238 18.8698C121.021 17.8764 119.62 17.5784 119.109 18.2043C118.598 18.8302 119.17 20.1429 120.387 21.1363C121.605 22.1297 123.006 22.4277 123.517 21.8018Z" fill="black"/>
<path d="M127.527 28.4059C128.085 27.7233 127.461 26.2919 126.133 25.2089C124.806 24.1258 123.279 23.8012 122.721 24.4838C122.164 25.1664 122.788 26.5977 124.115 27.6808C125.442 28.7639 126.97 29.0885 127.527 28.4059Z" fill="black"/>
<path d="M102.605 20.1527C104.837 19.9644 106.568 18.8824 106.471 17.736C106.374 16.5896 104.486 15.8129 102.254 16.0013C100.022 16.1896 98.291 17.2716 98.3878 18.418C98.4846 19.5644 100.373 20.3411 102.605 20.1527Z" fill="black"/>
<path d="M85.2812 21.0767C87.5133 20.8883 89.2443 19.8063 89.1476 18.6599C89.0508 17.5135 87.1629 16.7369 84.9308 16.9252C82.6987 17.1136 80.9677 18.1956 81.0644 19.342C81.1612 20.4884 83.0491 21.265 85.2812 21.0767Z" fill="black"/>
<path d="M93.2568 15.1062C93.6708 14.2621 92.6753 12.9251 91.0332 12.1201C89.3911 11.315 87.7243 11.3468 87.3102 12.1909C86.8962 13.0351 87.8917 14.3721 89.5338 15.1771C91.1759 15.9822 92.8427 15.9504 93.2568 15.1062Z" fill="black"/>
<path d="M98.7132 15.1801C100.355 14.3751 101.351 13.0381 100.937 12.1939C100.523 11.3497 98.8559 11.318 97.2138 12.123C95.5717 12.9281 94.5762 14.265 94.9903 15.1092C95.4043 15.9534 97.0711 15.9851 98.7132 15.1801Z" fill="black"/>
<path d="M76.9378 27.7911C78.6657 26.3184 79.4527 24.4047 78.6955 23.5167C77.9383 22.6286 75.9237 23.1025 74.1958 24.5751C72.4678 26.0478 71.6808 27.9615 72.438 28.8495C73.1952 29.7376 75.2098 29.2637 76.9378 27.7911Z" fill="black"/>
<path d="M76.8779 19.6822C78.6059 18.2095 79.3929 16.2958 78.6357 15.4078C77.8785 14.5197 75.8639 14.9936 74.136 16.4663C72.408 17.9389 71.621 19.8526 72.3782 20.7407C73.1354 21.6287 75.15 21.1548 76.8779 19.6822Z" fill="black"/>
<path d="M64.3827 30.5257C66.1107 29.0531 66.8977 27.1393 66.1405 26.2513C65.3833 25.3632 63.3687 25.8371 61.6408 27.3098C59.9128 28.7824 59.1258 30.6961 59.883 31.5842C60.6402 32.4722 62.6548 31.9983 64.3827 30.5257Z" fill="black"/>
<path d="M66.1897 22.1979C67.4124 21.1558 67.9687 19.8011 67.4323 19.1719C66.8958 18.5427 65.4697 18.8774 64.247 19.9194C63.0243 20.9614 62.468 22.3162 63.0045 22.9454C63.5409 23.5746 64.967 23.2399 66.1897 22.1979Z" fill="black"/>
<path d="M134.888 12.3826C134.888 12.3826 134.255 16.6684 135.333 20.441C135.333 20.441 137.027 13.6658 138.876 11.972C138.876 11.972 138.645 14.8976 139.492 16.2065C139.492 16.2065 141.109 11.6042 142.726 9.67085C142.726 9.67085 142.264 11.2021 142.726 13.2808C142.726 13.2808 147.163 2.30116 150.067 1.63818C150.067 1.63818 141.763 4.17031 134.888 12.3826Z" fill="black"/>
<path d="M159.847 52.4989C159.847 52.4989 168.682 47.965 169.863 44.0642C171.044 40.1633 176.785 22.1946 168.01 7.52795C168.01 7.52795 168.785 16.7754 167.347 19.0337C167.347 19.0337 169.503 16.878 169.606 15.9541C169.606 15.9541 169.298 22.092 167.655 25.0262C167.655 25.0262 170.633 24.0638 170.838 22.7293C170.838 22.7293 169.195 33.8159 165.807 37.6141C165.807 37.6141 170.017 35.1504 170.53 33.6106C170.526 33.6106 165.7 46.545 159.847 52.4989Z" fill="black"/>
<path d="M28.1122 55.1166C28.1122 55.1166 20.3087 45.2618 20.1034 40.5397C20.1034 40.5397 21.0275 42.3875 22.5676 42.6954C22.5676 42.6954 17.1257 32.6354 17.9471 27.862C17.9471 27.862 18.4605 29.0425 20.7194 30.8902C20.7194 30.8902 17.6391 23.8456 19.0766 18.9995C19.0766 18.9995 19.282 21.2408 20.4114 22.37C20.4114 22.37 20.082 7.421 22.5847 4.93164C22.5847 4.93164 7.39275 24.0039 21.143 51.4681C21.143 51.4681 23.081 53.8847 28.1122 55.1166Z" fill="black"/>
<path d="M53.6789 20.5222C53.6789 20.5222 54.68 16.2279 54.1281 13.653C54.1281 13.653 40.7416 -0.47478 32.014 0.012826C32.014 0.012826 42.3844 6.15067 43.1545 11.8993C43.1545 11.8993 43.8219 8.92233 43.1545 7.17721C43.1545 7.17721 47.3129 11.386 47.621 17.5453C47.621 17.5453 48.6477 13.8497 48.4424 12.0019C48.4424 12.0019 51.7281 12.7205 53.6789 20.5222Z" fill="black"/>
<path d="M39.5747 67.5593C40.402 65.4502 40.5163 63.5223 39.8299 63.2532C39.1436 62.9841 37.9166 64.4757 37.0893 66.5848C36.262 68.6939 36.1477 70.6218 36.834 70.8909C37.5204 71.16 38.7474 69.6684 39.5747 67.5593Z" fill="black"/>
<path d="M35.1193 80.2301C35.7589 80.1986 36.1988 78.5816 36.1019 76.6186C36.0049 74.6555 35.4079 73.0898 34.7684 73.1213C34.1288 73.1529 33.6889 74.7698 33.7858 76.7329C33.8828 78.6959 34.4798 80.2617 35.1193 80.2301Z" fill="black"/>
<path d="M38.4766 92.9176C39.0194 92.8908 39.3928 91.5187 39.3105 89.8529C39.2283 88.1872 38.7216 86.8586 38.1788 86.8853C37.636 86.9121 37.2627 88.2842 37.3449 89.9499C37.4272 91.6157 37.9338 92.9444 38.4766 92.9176Z" fill="black"/>
<path d="M42.2979 85.1749C42.9351 85.1435 43.3732 83.5285 43.2764 81.5678C43.1796 79.6072 42.5846 78.0432 41.9474 78.0747C41.3102 78.1061 40.8721 79.721 40.9689 81.6817C41.0657 83.6424 41.6607 85.2064 42.2979 85.1749Z" fill="black"/>
<path d="M46.8314 72.202C47.5698 70.3194 47.6727 68.5989 47.0611 68.3592C46.4496 68.1194 45.3552 69.4512 44.6168 71.3337C43.8784 73.2163 43.7755 74.9368 44.387 75.1766C44.9986 75.4163 46.0929 74.0846 46.8314 72.202Z" fill="black"/>
<path d="M54.9042 81.8112C55.2573 81.2574 54.1608 79.9274 52.4552 78.8405C50.7495 77.7536 49.0807 77.3215 48.7276 77.8753C48.3745 78.4291 49.471 79.7591 51.1766 80.846C52.8822 81.9329 54.5511 82.365 54.9042 81.8112Z" fill="black"/>
<path d="M52.8686 91.5815C53.3502 91.1349 52.6257 89.5711 51.2504 88.0885C49.875 86.6059 48.3697 85.766 47.8881 86.2125C47.4064 86.6591 48.131 88.223 49.5063 89.7056C50.8816 91.1882 52.387 92.0281 52.8686 91.5815Z" fill="black"/>
<path d="M45.3039 102.282C45.9816 102.058 46.0124 100.304 45.3727 98.3637C44.7329 96.4231 43.665 95.031 42.9873 95.2543C42.3096 95.4776 42.2789 97.2317 42.9186 99.1723C43.5583 101.113 44.6263 102.505 45.3039 102.282Z" fill="black"/>
<path d="M58.7531 89.2192C59.2939 89.041 59.3546 87.7508 58.8887 86.3374C58.4228 84.9241 57.6066 83.9227 57.0659 84.1009C56.5251 84.2791 56.4644 85.5693 56.9303 86.9827C57.3962 88.3961 58.2123 89.3974 58.7531 89.2192Z" fill="black"/>
<path d="M55.441 101.182C55.9818 101.004 56.0425 99.7137 55.5765 98.3003C55.1106 96.8869 54.2945 95.8856 53.7537 96.0638C53.2129 96.242 53.1522 97.5322 53.6182 98.9456C54.0841 100.359 54.9002 101.36 55.441 101.182Z" fill="black"/>
<path d="M54.8195 108.789C55.2221 108.387 54.6953 107.207 53.6427 106.155C52.5901 105.103 51.4105 104.576 51.0078 104.979C50.6052 105.381 51.132 106.56 52.1846 107.613C53.2371 108.665 54.4168 109.192 54.8195 108.789Z" fill="black"/>
<path d="M151.121 70.7941C151.807 70.5251 151.693 68.5972 150.866 66.4881C150.038 64.379 148.811 62.8874 148.125 63.1565C147.439 63.4255 147.553 65.3534 148.38 67.4625C149.207 69.5716 150.434 71.0632 151.121 70.7941Z" fill="black"/>
<path d="M154.162 76.6297C154.259 74.6667 153.819 73.0497 153.18 73.0182C152.54 72.9866 151.943 74.5524 151.846 76.5154C151.749 78.4785 152.189 80.0954 152.829 80.127C153.468 80.1585 154.065 78.5928 154.162 76.6297Z" fill="black"/>
<path d="M150.6 89.8446C150.682 88.1788 150.309 86.8067 149.766 86.78C149.224 86.7532 148.717 88.0818 148.635 89.7476C148.552 91.4133 148.926 92.7854 149.469 92.8122C150.011 92.839 150.518 91.5103 150.6 89.8446Z" fill="black"/>
<path d="M146.976 81.5802C147.073 79.6195 146.635 78.0046 145.998 77.9732C145.361 77.9417 144.766 79.5057 144.669 81.4664C144.572 83.427 145.01 85.042 145.647 85.0734C146.284 85.1049 146.879 83.5409 146.976 81.5802Z" fill="black"/>
<path d="M143.572 75.0846C144.183 74.8448 144.08 73.1243 143.342 71.2417C142.604 69.3592 141.509 68.0274 140.898 68.2672C140.286 68.5069 140.389 70.2274 141.127 72.11C141.866 73.9926 142.96 75.3243 143.572 75.0846Z" fill="black"/>
<path d="M136.776 80.7394C138.482 79.6526 139.579 78.3225 139.225 77.7687C138.872 77.2149 137.204 77.6471 135.498 78.7339C133.792 79.8208 132.696 81.1508 133.049 81.7047C133.402 82.2585 135.071 81.8263 136.776 80.7394Z" fill="black"/>
<path d="M138.438 89.606C139.813 88.1234 140.538 86.5595 140.056 86.1129C139.575 85.6664 138.069 86.5063 136.694 87.9889C135.319 89.4715 134.594 91.0353 135.076 91.4819C135.557 91.9285 137.063 91.0886 138.438 89.606Z" fill="black"/>
<path d="M145.013 99.0804C145.652 97.1399 145.621 95.3857 144.944 95.1624C144.266 94.9391 143.198 96.3312 142.558 98.2718C141.919 100.212 141.95 101.967 142.627 102.19C143.305 102.413 144.373 101.021 145.013 99.0804Z" fill="black"/>
<path d="M131.005 86.8874C131.471 85.4741 131.41 84.1839 130.87 84.0057C130.329 83.8275 129.513 84.8288 129.047 86.2422C128.581 87.6555 128.641 88.9457 129.182 89.1239C129.723 89.3021 130.539 88.3008 131.005 86.8874Z" fill="black"/>
<path d="M134.314 98.8516C134.78 97.4382 134.72 96.148 134.179 95.9698C133.638 95.7916 132.822 96.7929 132.356 98.2063C131.89 99.6196 131.951 100.91 132.492 101.088C133.032 101.266 133.848 100.265 134.314 98.8516Z" fill="black"/>
<path d="M135.763 107.515C136.815 106.463 137.342 105.283 136.939 104.881C136.537 104.478 135.357 105.005 134.304 106.057C133.252 107.109 132.725 108.289 133.128 108.691C133.53 109.094 134.71 108.567 135.763 107.515Z" fill="black"/>
</g>
<defs>
<clipPath id="clip0_269_84">
<rect width="267" height="508" fill="white"/>
</clipPath>
</defs>
</svg>
