<svg width="67" height="67" viewBox="0 0 67 67" fill="none" xmlns="http://www.w3.org/2000/svg">
<path d="M16.554 0C27.5863 0 38.6137 0 49.646 0C49.8323 0.0441292 50.0137 0.107873 50.2 0.13239C51.9554 0.362842 53.6568 0.799228 55.2602 1.53962C60.7224 4.06969 64.2331 8.23745 65.6943 14.0919C65.8953 14.901 66.0277 15.7247 66.1895 16.5435C66.1895 27.5758 66.1895 38.6032 66.1895 49.6355C66.0816 50.2239 65.9836 50.8172 65.8659 51.4007C64.1203 60.0647 56.6821 66.1693 47.8318 66.1742C38.0106 66.184 28.1894 66.1889 18.3682 66.1644C17.1914 66.1595 15.995 66.0712 14.8378 65.8555C7.63988 64.512 1.89327 58.8634 0.402687 51.6557C0.137912 50.3808 0.0202501 49.052 0.0202501 47.7478C-0.0091694 37.9707 0.0104543 28.1887 0.000647855 18.4117C-0.00425539 15.7688 0.471354 13.224 1.58929 10.8362C4.11937 5.41809 8.2822 1.93678 14.1024 0.490324C14.9114 0.299098 15.7351 0.16671 16.554 0ZM5.93847 33.0969C5.92866 33.0969 5.91886 33.0969 5.90905 33.0969C5.90905 37.9021 5.91395 42.7072 5.90414 47.5075C5.90414 48.9785 6.06596 50.42 6.52686 51.8273C8.1008 56.6128 12.7491 60.3344 18.5496 60.3001C28.2433 60.2412 37.937 60.3099 47.6307 60.256C49.0282 60.2461 50.4795 60.0402 51.8083 59.6283C56.6331 58.1279 60.3252 53.4454 60.2909 47.6399C60.2321 37.9462 60.3007 28.2525 60.2468 18.5588C60.237 17.1613 60.031 15.71 59.6192 14.3812C58.1139 9.54171 53.4166 5.86428 47.6307 5.8986C37.937 5.95744 28.2433 5.92312 18.5496 5.90841C16.4706 5.90351 14.4701 6.27125 12.6412 7.26661C8.53228 9.50739 6.11498 12.9495 5.96789 17.6566C5.81589 22.7952 5.93847 27.9485 5.93847 33.0969Z" fill="white"/>
<path d="M33.1122 50.1549C23.7028 50.1598 16.0293 42.4862 16.0391 33.0769C16.0489 23.6921 23.7028 16.043 33.0877 16.0332C42.497 16.0283 50.1706 23.7019 50.1608 33.1112C50.1509 42.496 42.497 50.15 33.1122 50.1549ZM44.2425 33.0818C44.2327 26.8939 39.2461 21.9318 33.068 21.9514C26.8997 21.9759 21.9671 26.9086 21.9524 33.0769C21.9377 39.2599 26.9047 44.2367 33.0926 44.2416C39.2805 44.2416 44.2523 39.2648 44.2425 33.0818Z" fill="white"/>
</svg>
