<svg width="57" height="66" viewBox="0 0 57 66" fill="none" xmlns="http://www.w3.org/2000/svg">
<path d="M19.2509 65.1999C17.9639 64.9878 16.66 64.8469 15.3933 64.5515C7.61381 62.737 1.4231 56.0338 0.232774 48.1882C-1.32211 37.9459 5.05681 28.2179 15.0593 25.6055C17.618 24.9367 20.2208 24.7568 22.8524 25.0759C23.1389 25.1098 23.4289 25.1115 23.4272 25.5648C23.4102 28.9528 23.4136 32.3392 23.4102 35.7273C23.4102 35.7664 23.3848 35.8054 23.3577 35.8835C22.7506 35.7765 22.1419 35.6526 21.5264 35.5644C16.7295 34.8769 11.9716 38.2259 10.9983 42.9652C9.88086 48.4072 13.2806 53.4673 18.7456 54.4976C24.3242 55.55 29.8604 51.1197 29.9146 45.4384C29.9875 37.6896 29.9519 29.9408 29.957 22.1903C29.9621 15.1391 29.9587 8.08963 29.9587 1.03847C29.9587 0.770279 29.9587 0.502084 29.9587 0.198242C33.5263 0.198242 37.0057 0.198242 40.4427 0.198242C41.5703 10.0977 47.0319 15.5465 57.0039 16.5836C57.0039 19.9564 57.0039 23.4379 57.0039 27.0059C54.0637 27.0364 51.2015 26.5493 48.4071 25.6123C45.6229 24.6787 43.0692 23.3055 40.5987 21.4519C40.5987 21.81 40.5987 22.0477 40.5987 22.2853C40.6259 29.7388 40.6632 37.1905 40.6801 44.644C40.7022 54.3329 34.4436 62.3262 25.0261 64.6126C23.8443 64.8995 22.6184 65.0081 21.4128 65.1982C20.6904 65.1999 19.9715 65.1999 19.2509 65.1999Z" fill="white"/>
</svg>
