<svg width="65" height="65" viewBox="0 0 65 65" fill="none" xmlns="http://www.w3.org/2000/svg">
<path d="M0.000610352 64.7262C0.513632 62.8475 0.996237 61.0813 1.47783 59.3161C2.45014 55.7534 3.43258 52.1937 4.38056 48.6248C4.46065 48.3227 4.41097 47.908 4.26092 47.6332C1.18076 42.0082 -0.205207 35.9777 0.378786 29.6156C1.38557 18.6516 6.6709 10.2293 16.0736 4.48772C21.7533 1.01924 28.0069 -0.423502 34.6235 0.106755C45.1049 0.946245 53.3224 5.83516 59.1786 14.5444C63.2635 20.6195 64.8593 27.4165 64.323 34.6941C63.303 48.5153 52.9534 60.4091 39.3816 63.397C31.7278 65.082 24.4158 64.0834 17.4413 60.5216C17.1949 60.3959 16.836 60.3564 16.5684 60.4253C11.3033 61.7859 6.04331 63.1678 0.782309 64.5447C0.567367 64.6015 0.349384 64.6451 0.000610352 64.7262ZM7.74561 57.0592C7.90479 57.0248 7.9859 57.0106 8.06498 56.9893C11.0539 56.2106 14.0479 55.4472 17.0287 54.6381C17.6025 54.482 18.0375 54.5712 18.5333 54.8693C23.7902 58.0316 29.4892 59.2583 35.5684 58.5354C40.9693 57.8937 45.7173 55.7148 49.8428 52.1612C58.115 45.0347 61.1911 33.0435 57.3384 22.8693C52.561 10.2516 39.7283 3.2518 26.5449 6.11702C15.2463 8.57262 6.2978 18.4752 5.73408 30.957C5.50697 35.999 6.66381 40.7439 9.13057 45.1594C9.55234 45.9147 10.2235 46.6447 10.3138 47.4396C10.406 48.2436 9.91835 49.1135 9.6882 49.955C9.04642 52.3001 8.40565 54.6462 7.74561 57.0592Z" fill="white"/>
<path d="M15.9823 24.8552C16.033 22.2039 17.0651 20.016 18.9307 18.1849C19.5562 17.5705 20.2892 17.2491 21.1673 17.2684C21.6387 17.2785 22.1132 17.3353 22.5806 17.2968C23.3826 17.2309 23.8743 17.6364 24.1602 18.3036C25.1031 20.5067 26.046 22.7109 26.9119 24.9455C27.0538 25.3115 26.9332 25.9087 26.7132 26.2615C26.1444 27.1719 25.4844 28.0307 24.8 28.86C24.3184 29.443 24.2464 29.9439 24.6489 30.613C27.2586 34.9524 30.8589 38.1208 35.5846 39.9853C36.3389 40.2834 36.7414 40.2063 37.2473 39.5919C38.0605 38.6044 38.8756 37.6169 39.6492 36.599C40.075 36.0383 40.58 35.7909 41.2187 36.09C43.5314 37.1728 45.8359 38.2719 48.1212 39.4094C48.3554 39.526 48.5673 39.9346 48.5774 40.2155C48.6666 42.6021 47.962 44.5934 45.8369 45.9783C43.1907 47.7029 40.4137 47.8459 37.4613 47.0155C29.8886 44.8864 24.2707 40.1465 19.7559 33.896C18.2635 31.8287 16.9049 29.6995 16.327 27.176C16.1526 26.4166 16.0938 25.6298 15.9823 24.8552Z" fill="white"/>
</svg>
