<svg width="1200" height="635" viewBox="0 0 1200 635" fill="none" xmlns="http://www.w3.org/2000/svg">
<g clip-path="url(#clip0_0_1)">
<path d="M95.2256 471.588C97.9488 471.588 100.265 470.651 102.175 468.76C104.085 466.869 105.04 464.571 105.04 461.849V449.795C105.04 447.073 104.085 444.758 102.175 442.849C100.265 440.94 97.9488 439.986 95.2256 439.986H16.3926V471.588H95.2256ZM122.9 518H105.181L89.2486 487.989H16.3926V518H0V423.602H95.2256C100.053 423.602 104.439 424.786 108.4 427.155C112.343 429.523 115.509 432.687 117.843 436.628C120.195 440.569 121.362 444.97 121.362 449.795V461.849C121.362 467.028 119.947 471.764 117.135 476.059C114.324 480.372 110.522 483.588 105.747 485.745L122.9 518Z" fill="#1C5FAB"/>
<path d="M204.103 440.198L233.086 483.641H175.12L204.103 440.198ZM195.403 423.602L132.449 518H152.202L164.191 501.104H243.944L255.986 518H275.686L212.715 423.602H195.403Z" fill="#1C5FAB"/>
<path d="M382.989 518H310.999C306.172 518 301.769 516.833 297.79 514.483C293.811 512.132 290.646 508.986 288.311 505.009C285.96 501.033 284.792 496.632 284.792 491.807V449.813C284.792 444.988 285.96 440.605 288.311 436.646C290.663 432.686 293.829 429.54 297.79 427.172C301.751 424.804 306.172 423.62 310.999 423.62H382.989C387.816 423.62 392.22 424.804 396.198 427.172C400.16 429.54 403.325 432.704 405.677 436.646C408.029 440.587 409.196 444.988 409.196 449.813V452.057H392.803V449.813C392.803 447.091 391.866 444.776 389.974 442.867C388.082 440.958 385.765 440.004 382.989 440.004H310.999C308.241 440.004 305.907 440.958 304.014 442.867C302.122 444.776 301.185 447.091 301.185 449.813V491.807C301.185 494.564 302.122 496.897 304.014 498.788C305.907 500.679 308.223 501.616 310.999 501.616H382.989C385.748 501.616 388.082 500.679 389.974 498.788C391.866 496.897 392.803 494.582 392.803 491.807V487.989H409.196V491.807C409.196 496.632 408.029 501.033 405.677 505.009C403.325 508.986 400.16 512.15 396.198 514.483C392.22 516.833 387.816 518 382.989 518Z" fill="#1C5FAB"/>
<path d="M442.317 423.602H425.925V518H442.317V423.602Z" fill="#1C5FAB"/>
<path d="M570.628 423.602V496.013L477.56 423.602H462.618V518H479.01V445.589L572.061 518H587.021V423.602H570.628Z" fill="#1C5FAB"/>
<path d="M704.775 518H632.786C627.958 518 623.555 516.833 619.576 514.483C615.615 512.132 612.45 508.986 610.098 505.009C607.746 501.033 606.579 496.632 606.579 491.807V449.813C606.579 444.988 607.746 440.605 610.098 436.646C612.45 432.686 615.615 429.54 619.576 427.172C623.555 424.804 627.958 423.62 632.786 423.62H704.775C709.603 423.62 714.006 424.804 717.967 427.172C721.946 429.54 725.111 432.704 727.445 436.646C729.797 440.587 730.964 444.988 730.964 449.813V452.057H714.572V449.813C714.572 447.091 713.635 444.776 711.743 442.867C709.85 440.958 707.534 440.004 704.758 440.004H632.768C630.009 440.004 627.675 440.958 625.783 442.867C623.891 444.776 622.954 447.091 622.954 449.813V491.807C622.954 494.564 623.891 496.897 625.783 498.788C627.675 500.679 629.992 501.616 632.768 501.616H704.758C707.516 501.616 709.85 500.679 711.743 498.788C713.635 496.897 714.572 494.582 714.572 491.807V479.028H666.561V462.644H730.964V491.807C730.964 496.632 729.797 501.033 727.445 505.009C725.094 508.986 721.928 512.15 717.967 514.483C714.006 516.833 709.603 518 704.775 518Z" fill="#1C5FAB"/>
<path d="M136.711 145.692C138.532 139.383 135.986 136.219 129.072 136.219H48.8418L73.9523 97H163.183C173.546 97 180.867 100.075 185.146 106.191C189.426 112.324 190.186 119.976 187.463 129.185L123.059 345.853C121.415 351.633 119.01 356.405 115.827 360.187C112.644 363.969 109.054 366.991 105.04 369.254C101.043 371.516 96.7287 373.089 92.0779 373.99C87.4448 374.892 82.7587 375.351 78.0195 375.351H0L68.7711 142.706H114.607L57.0292 336.115H73.4042C77.9488 336.115 80.955 333.764 82.405 329.08L136.711 145.692Z" fill="#E94E1B"/>
<path d="M267.94 97L200.265 324.75C198.992 328.903 199.045 331.837 200.407 333.534C201.769 335.249 204.545 336.097 208.736 336.097H218.833L290.045 97H335.898L254.571 370.473L200.619 399.724L207.905 375.334H187.162C180.071 375.334 173.829 374.521 168.471 372.895C163.095 371.269 158.868 368.617 155.791 364.924C152.697 361.23 150.875 356.405 150.327 350.448C149.779 344.492 150.787 337.193 153.333 328.532L222.105 97H267.94Z" fill="#E94E1B"/>
<path d="M360.991 97H407.215L367.268 227.913H369.726L429.939 97H481.044L412.556 230.9C416.552 231.271 419.788 232.349 422.246 234.152C424.687 235.955 426.473 238.217 427.569 240.921C428.665 243.625 429.107 246.736 428.931 250.253C428.754 253.77 428.117 257.429 427.021 261.211L392.909 375.369H346.791L379.806 265.011C380.902 261.406 380.991 258.648 380.071 256.757C379.152 254.866 376.711 253.912 372.715 253.912H314.324L360.991 97ZM324.156 375.334H278.32L312.432 260.381H358.55L324.156 375.334Z" fill="#E94E1B"/>
<path d="M584.457 213.579L612.291 120.259C613.741 115.381 615.65 111.422 618.02 108.365C620.39 105.307 623.06 102.903 626.066 101.189C629.072 99.4744 632.291 98.3432 635.757 97.813C639.205 97.2651 642.671 97 646.119 97H730.982L708.33 173.83L662.211 184.099L677.49 132.985H660.301C657.755 132.985 655.88 133.391 654.713 134.204C653.528 135.017 652.574 136.679 651.849 139.206L630.027 213.597H584.457V213.579ZM657.048 220.083C662.317 220.083 667.003 220.808 671.106 222.24C675.191 223.689 678.462 225.986 680.92 229.132C683.378 232.296 684.828 236.308 685.288 241.169C685.73 246.029 684.97 251.897 682.972 258.754L655.138 352.622C653.67 357.5 651.636 361.406 649.002 364.393C646.349 367.363 643.449 369.66 640.266 371.286C637.083 372.912 633.723 373.99 630.169 374.538C626.614 375.086 623.113 375.351 619.665 375.351H565.907C558.091 375.351 552.025 372.559 547.764 366.974C543.484 361.389 542.724 354.072 545.447 345.058L559.099 298.521H603.431L592.379 330.706C591.654 333.057 591.831 334.542 592.927 335.16C594.024 335.796 595.385 336.115 597.012 336.115H607.375C609.921 336.115 611.831 335.708 613.104 334.895C614.377 334.082 615.385 332.421 616.11 329.893L637.932 257.676C638.285 256.598 638.338 255.697 638.073 254.972C637.808 254.248 636.747 253.894 634.943 253.894H572.45L582.547 220.083H657.048Z" fill="#E94E1B"/>
<path d="M493.316 142.723L424.28 375.351H508.329L530.027 336.132H481.875L506.137 253.912H550.345L562.087 213.88H518.161L539.169 142.741H493.316V142.723ZM498.515 97L473.422 136.219H584.757L596.199 97H498.515Z" fill="#E94E1B"/>
</g>
<g clip-path="url(#clip1_0_1)">
<path d="M1166.32 294.815L1143.93 308.234C1144.09 308.992 1144.41 310.329 1144.93 311.963C1145.79 314.684 1146.71 316.593 1146.89 317.001C1149.8 323.335 1145.33 335.953 1150.7 340.01C1152.85 341.639 1155.89 342.487 1160.12 342.047C1160.12 342.047 1164.63 350.894 1177.76 341.559C1177.76 341.559 1184.06 342.111 1189.97 335.969C1189.97 335.969 1202.63 335.895 1199.11 326.904C1195.6 317.914 1184.51 301.424 1173.34 302.012C1173.35 302.012 1168.71 294.995 1166.32 294.815Z" fill="black" stroke="#C6C6C6" stroke-miterlimit="10"/>
<path d="M1179.66 320.407C1179.66 320.407 1184.66 330.893 1189.97 335.969" stroke="#9D9D9C" stroke-miterlimit="10"/>
<path d="M1167.24 324.586C1167.24 324.586 1169.8 335.566 1177.76 341.554" stroke="#9D9D9C" stroke-miterlimit="10"/>
<path d="M1150.36 320.555C1150.36 320.555 1154.58 336.351 1160.13 342.047" stroke="#9D9D9C" stroke-miterlimit="10"/>
<path d="M1192.65 330.76L1193.86 330.087C1194.83 329.54 1195.18 328.304 1194.64 327.328L1191.03 320.847C1190.49 319.871 1189.25 319.521 1188.28 320.062L1187.07 320.736C1186.1 321.282 1185.75 322.518 1186.29 323.494L1189.9 329.975C1190.45 330.956 1191.68 331.307 1192.65 330.76Z" fill="#F39200" stroke="#EF7C0B" stroke-miterlimit="10"/>
<path d="M1180.25 336.823L1181.46 336.149C1182.43 335.603 1182.78 334.367 1182.24 333.391L1178.63 326.909C1178.09 325.934 1176.85 325.583 1175.88 326.124L1174.67 326.798C1173.7 327.344 1173.35 328.58 1173.89 329.556L1177.5 336.038C1178.04 337.019 1179.28 337.369 1180.25 336.823Z" fill="#F39200" stroke="#EF7C0B" stroke-miterlimit="10"/>
<path d="M1167.08 341.061L1168.29 340.387C1169.26 339.841 1169.61 338.605 1169.07 337.629L1165.46 331.147C1164.92 330.172 1163.68 329.821 1162.71 330.362L1161.5 331.036C1160.53 331.582 1160.18 332.818 1160.72 333.794L1164.33 340.276C1164.87 341.257 1166.11 341.607 1167.08 341.061Z" fill="#F39200" stroke="#EF7C0B" stroke-miterlimit="10"/>
<path d="M1150.72 312.167L1168.05 301.363L1166.72 299.23L1149.39 310.034L1150.72 312.167Z" fill="#F39200" stroke="#EF7C0B" stroke-miterlimit="10"/>
<path d="M1053.26 353.753C1053.26 353.753 1071.61 350.433 1074.09 345.834C1074.09 345.834 1074.41 349.452 1072.53 350.788C1072.53 350.788 1082.68 345.505 1083.25 341.559C1083.25 341.559 1083.25 346.625 1081.73 347.659C1081.73 347.659 1090.31 337.703 1090.5 333.078C1090.5 333.078 1091.27 336.091 1090.5 338.573C1090.5 338.573 1095.08 329.026 1093.55 321.388C1093.55 321.388 1095.18 322.915 1095.41 324.443C1095.41 324.443 1097.02 309.565 1095.41 304.091C1095.41 304.091 1098.01 307.91 1097.88 311.347C1097.88 311.347 1096.11 297.981 1097.88 291.362C1097.88 291.362 1098.77 294.162 1099.28 296.326C1099.28 296.326 1101.19 260.747 1140.3 241.461C1140.3 241.461 1173.04 221.603 1179.66 229.05C1186.27 236.497 1173.62 240.888 1155.24 249.863C1136.86 258.837 1115.88 284.986 1114.54 294.825C1114.54 294.825 1117.69 293.398 1118.07 292.444C1118.07 292.444 1115.78 302.06 1112.92 305.699C1112.92 305.699 1114.73 306.192 1115.88 304.378C1115.88 304.378 1113.68 313.639 1111.3 315.644C1111.3 315.644 1114.25 313.83 1115.02 311.729C1115.02 311.729 1112.44 324.618 1109.87 327.482C1109.87 327.482 1113.68 324.809 1114.06 323.472C1114.06 323.472 1110.82 333.211 1104.33 340.085C1104.33 340.085 1109.2 337.507 1109.96 336.266C1109.96 336.266 1103.38 345.813 1096.32 350.014C1096.32 350.014 1098.9 350.109 1100.52 348.677C1100.52 348.677 1092.12 357.27 1083.44 359.943C1083.44 359.943 1087.26 360.42 1089.07 359.275C1089.07 359.275 1081.41 366.308 1061.69 367.581L1053.26 353.753Z" fill="#F9B233"/>
<path d="M1162.95 230.196C1162.95 230.196 1161.37 236.958 1167.54 243.965L1162.08 246.58C1162.08 246.58 1156.35 241.557 1156.11 233.086L1162.95 230.196Z" fill="black"/>
<path d="M1150.44 235.855C1150.44 235.855 1148.79 242.989 1154.96 249.996L1149.91 252.876C1149.91 252.876 1143.85 247.996 1143.61 239.531L1150.44 235.855Z" fill="black"/>
<path d="M1118.41 280.573C1119.16 279.06 1119.29 277.599 1118.7 277.31C1118.12 277.02 1117.04 278.012 1116.29 279.524C1115.54 281.037 1115.41 282.498 1116 282.787C1116.58 283.077 1117.66 282.085 1118.41 280.573Z" fill="black"/>
<path d="M1110.59 290.168C1111.33 288.655 1111.46 287.195 1110.88 286.905C1110.29 286.616 1109.21 287.607 1108.47 289.12C1107.72 290.632 1107.59 292.093 1108.17 292.382C1108.76 292.672 1109.84 291.68 1110.59 290.168Z" fill="black"/>
<path d="M1103.52 297.486C1103.91 295.844 1103.7 294.391 1103.07 294.242C1102.43 294.092 1101.6 295.303 1101.22 296.946C1100.83 298.588 1101.04 300.041 1101.67 300.19C1102.31 300.339 1103.13 299.129 1103.52 297.486Z" fill="black"/>
<path d="M1109.53 303.453C1109.91 301.811 1109.71 300.358 1109.08 300.209C1108.44 300.059 1107.61 301.27 1107.23 302.913C1106.84 304.555 1107.05 306.008 1107.68 306.157C1108.32 306.306 1109.14 305.096 1109.53 303.453Z" fill="black"/>
<path d="M1108.51 318.39C1109.16 318.362 1109.64 316.974 1109.57 315.288C1109.49 313.602 1108.91 312.257 1108.26 312.285C1107.6 312.312 1107.13 313.701 1107.2 315.387C1107.27 317.072 1107.86 318.417 1108.51 318.39Z" fill="black"/>
<path d="M1106.33 325.232C1106.74 325.215 1107.04 324.328 1107 323.251C1106.95 322.174 1106.58 321.315 1106.16 321.332C1105.75 321.349 1105.45 322.237 1105.49 323.314C1105.54 324.391 1105.91 325.25 1106.33 325.232Z" fill="black"/>
<path d="M1101.41 313.759C1102.06 313.732 1102.53 312.343 1102.46 310.658C1102.39 308.972 1101.8 307.627 1101.15 307.655C1100.5 307.682 1100.03 309.071 1100.1 310.756C1100.17 312.442 1100.75 313.787 1101.41 313.759Z" fill="black"/>
<path d="M1099.16 328.51C1099.82 328.482 1100.29 327.094 1100.22 325.408C1100.15 323.722 1099.56 322.378 1098.91 322.405C1098.26 322.432 1097.79 323.821 1097.86 325.507C1097.93 327.193 1098.51 328.537 1099.16 328.51Z" fill="black"/>
<path d="M1101.54 341.344C1102.38 339.883 1102.61 338.433 1102.04 338.107C1101.48 337.78 1100.34 338.7 1099.49 340.161C1098.65 341.622 1098.43 343.072 1098.99 343.398C1099.56 343.725 1100.7 342.805 1101.54 341.344Z" fill="black"/>
<path d="M1087.29 355.066C1088.13 353.605 1088.35 352.156 1087.79 351.829C1087.22 351.503 1086.08 352.422 1085.24 353.884C1084.4 355.345 1084.17 356.794 1084.74 357.121C1085.3 357.447 1086.44 356.528 1087.29 355.066Z" fill="black"/>
<path d="M1076.53 355.434C1076.82 353.771 1076.53 352.333 1075.89 352.221C1075.24 352.11 1074.49 353.367 1074.2 355.029C1073.91 356.691 1074.2 358.129 1074.84 358.241C1075.49 358.353 1076.24 357.096 1076.53 355.434Z" fill="black"/>
<path d="M1092.38 341.519C1093.03 340.382 1093.21 339.255 1092.77 339C1092.33 338.745 1091.44 339.46 1090.78 340.596C1090.13 341.733 1089.95 342.86 1090.39 343.115C1090.83 343.37 1091.72 342.655 1092.38 341.519Z" fill="black"/>
<path d="M1111.54 277.06C1112.06 276.014 1112.15 275.005 1111.75 274.805C1111.34 274.605 1110.6 275.29 1110.08 276.335C1109.56 277.381 1109.47 278.39 1109.88 278.59C1110.28 278.79 1111.03 278.105 1111.54 277.06Z" fill="black"/>
<path d="M1059.47 324.401C1059.47 324.401 1074.11 369.039 1072.39 405.128C1070.68 441.217 1059.23 515.686 1059.23 515.686C1059.23 515.686 1055.22 565.522 1055.8 587.863L1027.18 590.727C1027.18 590.727 1026.03 545.473 1023.74 536.881C1021.46 528.288 1012.3 504.229 1014.01 491.627C1015.73 479.024 1004.29 448.664 1011.15 420.022C1011.15 420.022 1015.41 408.947 1007.53 409.456C999.643 409.965 997.862 431.861 997.862 431.861C997.862 431.861 985.779 478.197 981.582 484.307C981.582 484.307 983.681 503.211 972.234 526.506C960.787 549.801 954.11 578.252 952.583 588.181H922.058L936.176 471.323C936.176 471.323 926.256 408.692 943.807 375.086L951.439 339.952L1059.47 324.401Z" fill="#82368C"/>
<path d="M933.389 432.704L962.589 455.363L997.867 431.861C997.867 431.861 985.445 480.196 981.587 484.307C981.587 484.307 981.487 505.741 973.628 523.557C973.628 523.557 955.085 561.56 952.589 588.181H922.064L936.182 471.323C936.176 471.323 932.138 439.642 933.389 432.704Z" fill="#EC661A"/>
<path d="M1009.49 429.739L1067 395.151C1067 395.151 1064.41 438.315 1061.6 452.249C1058.8 466.183 1057.47 478.435 1057.47 478.435L1013.53 480.599C1013.53 480.599 1006.34 437.981 1009.49 429.739Z" fill="#EC661A"/>
<path d="M1036.15 448.791C1036.15 448.791 1070.1 443.063 1068.01 467.122C1068.01 467.122 1065.67 485.055 1060.26 508.838C1060.26 508.838 1056.25 550.326 1056.02 569.097C1056.02 569.097 1043.19 577.292 1026.5 571.187L1023.74 536.886C1023.74 536.886 1013.56 507.226 1013.86 497.116C1014.15 487.007 1002.94 461.399 1011.91 456.243C1020.88 451.082 1036.15 448.791 1036.15 448.791Z" fill="black" stroke="#B2B2B2" stroke-miterlimit="10"/>
<path d="M1038.27 467.822C1045.08 467.822 1050.6 465.2 1050.6 461.966C1050.6 458.732 1045.08 456.111 1038.27 456.111C1031.45 456.111 1025.93 458.732 1025.93 461.966C1025.93 465.2 1031.45 467.822 1038.27 467.822Z" fill="#B2B2B2" stroke="black" stroke-miterlimit="10"/>
<path d="M1018.09 468.326C1020.85 463.549 1021.49 458.757 1019.53 457.622C1017.56 456.487 1013.74 459.439 1010.98 464.216C1008.22 468.992 1007.58 473.785 1009.55 474.92C1011.51 476.055 1015.34 473.103 1018.09 468.326Z" fill="black" stroke="#B2B2B2" stroke-miterlimit="10"/>
<path d="M1066.59 475.451C1068.56 474.315 1067.92 469.523 1065.16 464.746C1062.41 459.969 1058.58 457.017 1056.62 458.152C1054.65 459.287 1055.29 464.08 1058.05 468.857C1060.8 473.633 1064.63 476.586 1066.59 475.451Z" fill="black" stroke="#B2B2B2" stroke-miterlimit="10"/>
<path d="M1060.87 526.463L1059.57 526.352C1059.12 526.315 1058.78 525.922 1058.81 525.466L1059.52 513.824C1059.55 513.384 1059.91 513.039 1060.35 513.039H1061.56C1062.04 513.039 1062.42 513.442 1062.39 513.919L1061.77 525.673C1061.75 526.145 1061.34 526.506 1060.87 526.463Z" fill="black" stroke="#B2B2B2" stroke-miterlimit="10"/>
<path d="M1035.6 477.433C1035.6 477.433 1060.6 473.423 1060.6 486.407C1060.6 499.391 1064.13 511.135 1051.25 512.471C1038.37 513.808 1013.38 518.815 1014.43 503.184C1015.48 487.553 1010.61 477.719 1035.6 477.433Z" fill="black" stroke="#B2B2B2" stroke-miterlimit="10"/>
<path d="M1048.39 503.401H1027.12C1022.8 503.401 1019.29 499.895 1019.29 495.573C1019.29 491.25 1022.8 487.744 1027.12 487.744H1048.39C1052.71 487.744 1056.21 491.25 1056.21 495.573C1056.21 499.895 1052.71 503.401 1048.39 503.401Z" fill="#B2B2B2" stroke="black" stroke-width="0.8142" stroke-miterlimit="10"/>
<path d="M1046.34 525.742H1030.5C1028.52 525.742 1026.92 524.14 1026.92 522.162V521.112C1026.92 519.133 1028.52 517.531 1030.5 517.531H1046.34C1048.31 517.531 1049.91 519.133 1049.91 521.112V522.162C1049.91 524.135 1048.31 525.742 1046.34 525.742Z" fill="#B2B2B2" stroke="black" stroke-width="0.8142" stroke-miterlimit="10"/>
<path d="M1040.18 529.179C1040.18 529.179 1027.02 529.179 1028.55 538.631C1030.07 548.083 1031.88 547.032 1031.41 552.952C1030.93 558.871 1033.79 568.8 1042.85 567.177C1051.92 565.554 1053.54 563.931 1051.63 551.711C1051.63 551.711 1051.33 548.369 1052.34 544.646C1053.35 540.922 1054.59 526.697 1040.18 529.179Z" fill="#B2B2B2" stroke="#B2B2B2" stroke-width="0.8142" stroke-miterlimit="10"/>
<path d="M1040.66 531.852C1041.61 537.077 1042.18 542.354 1042.63 547.637C1043.01 552.925 1043.41 558.251 1042.96 563.549C1042.11 552.984 1040.9 542.455 1040.66 531.852Z" fill="#575756"/>
<path d="M1045.24 539.204C1045.32 537.575 1047.06 535.65 1048.77 536.339C1047.37 537.199 1046.71 538.328 1045.24 539.204Z" fill="#575756"/>
<path d="M1046.38 545.107C1046.46 543.479 1048.2 541.553 1049.91 542.243C1048.51 543.107 1047.85 544.237 1046.38 545.107Z" fill="#575756"/>
<path d="M1046.38 551.599C1046.46 549.971 1048.2 548.045 1049.91 548.735C1048.51 549.6 1047.85 550.724 1046.38 551.599Z" fill="#575756"/>
<path d="M1046.38 558.086C1046.46 556.458 1048.2 554.532 1049.91 555.222C1048.51 556.086 1047.85 557.211 1046.38 558.086Z" fill="#575756"/>
<path d="M1037.09 539.856C1035.52 539.204 1034.7 538.18 1033.19 537.528C1034.78 536.599 1036.78 538.254 1037.09 539.856Z" fill="#575756"/>
<path d="M1036.81 545.865C1035.23 545.213 1034.41 544.189 1032.9 543.537C1034.5 542.614 1036.5 544.264 1036.81 545.865Z" fill="#575756"/>
<path d="M1037.74 552.289C1036.17 551.636 1035.35 550.613 1033.83 549.96C1035.44 549.032 1037.43 550.687 1037.74 552.289Z" fill="#575756"/>
<path d="M1038.67 558.712C1037.1 558.06 1036.28 557.036 1034.77 556.384C1036.37 555.455 1038.36 557.105 1038.67 558.712Z" fill="#575756"/>
<path d="M1017.23 515.516C1017.23 515.516 1012.93 514.317 1013.44 517.818C1013.95 521.319 1014.14 533.603 1022.22 531.566L1017.23 515.516Z" fill="black" stroke="#B2B2B2" stroke-miterlimit="10"/>
<path d="M1026.39 569.781L1025.69 555.222C1025.69 555.222 1021.01 554.442 1021.14 558.707C1021.26 562.976 1020.52 569.463 1026.39 569.781Z" fill="black" stroke="#B2B2B2" stroke-miterlimit="10"/>
<path d="M1056.69 553.175C1056.69 553.175 1061.84 551.769 1061.9 555.588C1061.96 559.407 1063.05 565.512 1056.1 565.453L1056.69 553.175Z" fill="black" stroke="#B2B2B2" stroke-miterlimit="10"/>
<path d="M1022.22 484.753C1031.43 481.374 1041.93 480.43 1051.5 482.774C1052.48 483.055 1053.46 483.379 1054.43 483.702C1053.42 483.543 1052.42 483.358 1051.42 483.177C1041.69 481.782 1031.8 482.726 1022.22 484.753Z" fill="#9D9D9C"/>
<path d="M1021.71 507.57C1032.99 508.753 1044.6 509.278 1055.57 505.947C1045.5 510.657 1032.34 510.217 1021.71 507.57Z" fill="#9D9D9C"/>
<path d="M1027.72 494.204C1034.65 491.701 1042.54 491.696 1049.47 494.204C1042.23 493.154 1034.96 493.149 1027.72 494.204Z" fill="#575756"/>
<path d="M1027.77 497.774C1034.69 495.27 1042.59 495.265 1049.52 497.774C1042.28 496.729 1035.01 496.724 1027.77 497.774Z" fill="#575756"/>
<path d="M953.41 451.814C953.41 451.814 984.571 449.141 979.992 477.146C975.414 505.152 960.151 542.243 960.151 542.243C960.151 542.243 960.024 566.758 951.375 569.304C942.726 571.85 922.376 573.25 922.758 564.085C923.14 554.92 931.28 473.704 931.28 473.704C931.28 473.704 926.701 453.087 953.41 451.814Z" fill="black" stroke="#B2B2B2" stroke-miterlimit="10"/>
<path d="M950.612 466.268C955.529 466.268 959.515 464.57 959.515 462.475C959.515 460.381 955.529 458.683 950.612 458.683C945.695 458.683 941.709 460.381 941.709 462.475C941.709 464.57 945.695 466.268 950.612 466.268Z" fill="#B2B2B2" stroke="black" stroke-miterlimit="10"/>
<path d="M980.119 464.608C980.119 464.608 986.67 466.453 989.722 464.608C989.722 464.608 989.786 473.137 985.525 472.691C981.264 472.245 965.175 470.909 965.811 464.608C966.447 458.306 980.119 464.608 980.119 464.608Z" fill="black" stroke="#B2B2B2" stroke-miterlimit="10"/>
<path d="M929.149 461.011L928.132 470.177C928.132 470.177 939.197 471.004 939.07 464.448C938.943 457.893 929.149 461.011 929.149 461.011Z" fill="black" stroke="#B2B2B2" stroke-miterlimit="10"/>
<path d="M979.642 505.666C979.642 505.666 981.317 518.179 974.396 520.459C967.475 522.735 965.048 522.464 965.048 522.464L967.051 513.108C967.051 513.108 977.925 511.978 979.642 505.666Z" fill="black" stroke="#B2B2B2" stroke-miterlimit="10"/>
<path d="M927.718 509.777C927.718 509.777 923.653 508.827 923.272 514.068C922.89 519.308 923.044 521.552 926.573 521.589L927.718 509.777Z" fill="black" stroke="#B2B2B2" stroke-miterlimit="10"/>
<path d="M959.277 553.143C959.277 553.143 967.295 552.241 967.39 544.662C967.485 537.082 967.136 537.437 961.492 538.901L960.156 542.248C960.151 542.243 959.478 551.843 959.277 553.143Z" fill="black" stroke="#B2B2B2" stroke-miterlimit="10"/>
<path d="M948.847 469.079C948.847 469.079 977.592 466.151 975.302 483.845C973.013 501.54 968.688 509.687 947.83 507.395C926.971 505.104 924.809 500.521 926.335 490.21C927.861 479.899 924.173 468.697 948.847 469.079Z" fill="black" stroke="#B2B2B2" stroke-miterlimit="10"/>
<path d="M948.339 478.626C948.339 478.626 971.232 476.913 969.324 488.338C967.417 499.757 958.386 495.848 947.83 495.578C937.273 495.307 931.041 495.079 931.423 487.489C931.804 479.899 933.966 477.735 948.339 478.626Z" fill="#B2B2B2" stroke="black" stroke-width="0.8142" stroke-miterlimit="10"/>
<path d="M938.036 475.062C946.553 471.057 957.305 472.33 965.795 475.826C964.629 475.608 963.484 475.322 962.334 475.088C954.359 473.497 945.964 472.829 938.036 475.062Z" fill="#9D9D9C"/>
<path d="M940.198 485.246C945.837 484.731 951.534 484.938 957.114 485.882C951.481 486.402 945.784 486.179 940.198 485.246Z" fill="#575756"/>
<path d="M940.198 490.338C945.842 489.866 951.539 490.115 957.114 491.101C951.476 491.579 945.779 491.314 940.198 490.338Z" fill="#575756"/>
<path d="M931.899 499.248C940.861 502.123 950.4 502.452 959.727 501.916C961.068 501.837 962.408 501.699 963.76 501.635C953.59 503.964 941.417 503.921 931.899 499.248Z" fill="#9D9D9C"/>
<path d="M941.089 523.053C941.089 523.053 956.012 521.143 951.603 538.806C947.194 556.468 946.049 565.252 937.845 565.156C929.642 565.061 926.854 567.448 927.713 550.835C928.582 534.218 927.543 521.621 941.089 523.053Z" fill="#B2B2B2" stroke="#B2B2B2" stroke-width="0.8142" stroke-miterlimit="10"/>
<path d="M941.375 526.776C937.814 535.645 936.298 545.219 935.63 554.707C935.461 556.845 935.397 559.205 935.27 561.337C934.21 549.939 935.689 536.865 941.375 526.776Z" fill="#575756"/>
<path d="M941.852 534.701C942.323 532.452 944.682 529.688 947.194 530.5C944.904 531.301 943.733 533.2 941.852 534.701Z" fill="#575756"/>
<path d="M941.852 541.532C942.323 539.283 944.682 536.52 947.194 537.331C944.904 538.132 943.733 540.031 941.852 541.532Z" fill="#575756"/>
<path d="M941.375 548.289C941.847 546.041 944.205 543.277 946.717 544.089C944.427 544.89 943.256 546.788 941.375 548.289Z" fill="#575756"/>
<path d="M940.755 556.84C941.227 554.591 943.585 551.827 946.097 552.639C943.802 553.44 942.631 555.344 940.755 556.84Z" fill="#575756"/>
<path d="M935.927 534.414C934.342 532.605 933.526 530.526 931.412 529.333C934.03 528.978 935.858 532.118 935.927 534.414Z" fill="#575756"/>
<path d="M934.719 541.14C933.134 539.331 932.318 537.252 930.204 536.058C932.822 535.703 934.65 538.843 934.719 541.14Z" fill="#575756"/>
<path d="M933.993 547.876C932.408 546.067 931.592 543.988 929.478 542.795C932.095 542.439 933.924 545.579 933.993 547.876Z" fill="#575756"/>
<path d="M933.097 556.405C931.513 554.596 930.697 552.517 928.582 551.323C931.195 550.968 933.028 554.108 933.097 556.405Z" fill="#575756"/>
<path d="M953.182 518.311H935.567C934.517 518.311 933.669 517.462 933.669 516.412V512.827C933.669 511.776 934.517 510.928 935.567 510.928H953.182C954.231 510.928 955.079 511.776 955.079 512.827V516.412C955.079 517.457 954.231 518.311 953.182 518.311Z" fill="#B2B2B2" stroke="black" stroke-width="0.8142" stroke-miterlimit="10"/>
<path d="M1005.72 362.24C1023.11 361.783 1040.25 358.484 1057.48 356.342C1049.08 358.67 1040.49 360.335 1031.84 361.481C1023.2 362.51 1014.4 363.364 1005.72 362.24Z" fill="white"/>
<path d="M1146.26 308.462C1146.26 308.462 1123.75 270.273 1110.01 263.399C1096.27 256.525 1057.74 228.647 1048.96 208.407L1059.28 157.196C1059.28 157.196 1085.4 166.335 1116.88 210.316C1135.13 235.818 1166.48 295.478 1166.48 295.478L1146.26 308.462Z" fill="black"/>
<path d="M1049.88 203.861C1049.88 203.861 1064.41 209.155 1071.28 208.391C1071.28 208.391 1082.47 239.197 1092.9 244.798C1103.33 250.399 1116.05 247.72 1116.05 247.72C1116.05 247.72 1128.44 288.842 1153.03 304.118L1146.26 308.462C1146.26 308.462 1126.16 273.471 1110.01 263.399C1093.86 253.327 1058.94 230.063 1048.96 208.407L1049.88 203.861Z" fill="#82368C"/>
<path d="M924.316 324.501C924.316 324.501 918.338 277.783 909.689 267.345C909.689 267.345 938.943 230.684 941.995 226.355L928.476 158.315C928.476 158.315 891.655 175.182 871.152 238.194C871.152 238.194 864.665 263.399 874.204 283.257C883.743 303.116 907.782 338.631 907.782 338.631L924.316 324.501Z" fill="black"/>
<path d="M919.827 328.336C919.827 328.336 905.243 264.141 893.605 255.549C893.605 255.549 917.437 245.429 919.827 226.143C919.827 226.143 934.411 188.15 932.514 178.598L942 226.35L909.695 267.34C909.695 267.34 917.835 276.012 924.321 324.496L919.827 328.336Z" fill="#82368C"/>
<path d="M918.402 164.68C918.402 164.68 982.123 115.034 1067.97 161.625C1067.97 161.625 1051.95 170.79 1063.01 207.452C1063.01 207.452 1068.36 220.054 1059.58 264.735C1059.58 264.735 1062.25 340.732 1065.68 346.46C1065.68 346.46 979.452 360.59 935.953 349.515C935.953 349.515 933.283 269.318 929.467 262.062C925.651 254.806 921.454 226.546 927.559 213.18C933.664 199.814 933.283 167.735 918.402 164.68Z" fill="#82368C"/>
<path d="M918.402 164.68C918.402 164.68 984.158 114.588 1067.97 161.625C1067.97 161.625 1060.57 165.656 1059.31 180.03C1059.31 180.03 978.466 173.177 931.009 186.591C931.009 186.586 930.357 167.353 918.402 164.68Z" fill="black"/>
<path d="M1047.89 179.271C1047.89 179.271 1049.28 189.885 1055.13 194.722L1052.52 199.628C1052.29 200.063 1052.49 200.599 1052.96 200.758L1062 203.866C1062 203.866 1058.03 189.397 1059.31 180.035L1047.89 179.271Z" fill="white"/>
<path d="M929.705 206.672L947.692 182.756L931.014 186.591C931.009 186.586 931.846 200.169 929.705 206.672Z" fill="white"/>
<path d="M1064.48 216.781C1064.48 216.781 1060.02 226.546 1058.12 228.456C1056.21 230.365 1052.78 233.993 1051.06 239.912C1049.34 245.832 1044.19 249.651 1044.19 249.651C1044.19 249.651 1058.94 273.519 1060.05 276.765L1059.58 264.735C1059.58 264.735 1066 228.853 1064.48 216.781Z" fill="black"/>
<path d="M924.904 223.884C924.904 223.884 929.917 228.472 929.663 231.781C929.409 235.091 939.838 237.764 940.601 241.71C940.601 241.71 955.482 254.186 958.026 255.331C958.026 255.331 933.479 297.09 933.606 299.18C933.606 299.18 931.778 270.989 930.622 266.523C929.472 262.057 926.42 254.705 925.582 246.924C925.577 246.924 923.134 228.684 924.904 223.884Z" fill="#EC661A"/>
<path d="M1056.76 347.786C1056.76 347.786 1050.79 278.987 1054.46 266.602L1060.06 276.765C1060.06 276.765 1062.38 341.511 1065.69 346.46L1056.76 347.786Z" fill="#EC661A"/>
<path d="M931.756 140.493C931.756 140.493 938.624 183.011 984.921 182.756C1031.22 182.501 1046.48 145.585 1047.24 140.493C1047.24 140.493 1031.47 155.817 986.447 159.079C941.423 162.335 931.756 140.493 931.756 140.493Z" fill="#82368C"/>
<path d="M989.5 182.602C990.75 189.386 991.852 196.95 992.833 203.808C999.404 253.411 1002.27 303.869 997.295 353.748C997.454 350.173 997.634 346.598 997.825 343.028C998.021 340.01 998.159 335.401 998.207 332.309C999.558 282.366 995.806 232.137 989.5 182.602Z" fill="white"/>
<path d="M960.946 251.544L965.429 246.771H976.494C979.287 246.771 981.55 249.035 981.55 251.831V267.106C981.55 269.901 979.287 272.166 976.494 272.166H953.028L954.459 267.011H970.771C973.564 267.011 975.827 264.746 975.827 261.951V256.604C975.827 253.809 973.564 251.544 970.771 251.544H960.946Z" fill="black"/>
<path d="M983.935 246.771H989.754V265.78C989.754 266.724 990.352 267.594 991.259 267.859C991.598 267.96 991.99 268.019 992.425 267.992C992.663 267.981 992.891 267.944 993.098 267.891C994.057 267.653 994.714 266.767 994.714 265.78V246.771H1000.63V266.342C1000.63 269.557 998.021 272.166 994.809 272.166H989.754C986.542 272.166 983.935 269.557 983.935 266.342V246.771Z" fill="black"/>
<path d="M1002.54 272.166V246.771H1008.83V256.7H1012.84L1016.4 246.771H1022.63L1018.5 256.7L1024.41 272.166H1016.4L1013.09 262.428H1008.9L1008.96 272.166H1002.54Z" fill="black"/>
<path d="M1025.88 246.771V272.166H1038.98V267.011H1031.03L1031.09 262.428H1042.79V256.7H1031.09L1031.15 251.544H1040.88L1037.64 246.771H1025.88Z" fill="black"/>
<path d="M1000.06 340.938C1007.77 340.551 1018.65 340.1 1026.23 339.443C1034.89 338.743 1043.63 337.772 1052.08 335.592C1037.31 341.686 1015.93 342.291 1000.06 340.938Z" fill="white"/>
<path d="M900.897 433.399C900.897 433.399 909.483 445.874 922.456 438.49C935.429 431.107 1000.49 385.026 1000.49 385.026C1000.49 385.026 1016.57 360.261 1005.13 339.162C993.681 318.067 948.656 288.28 910.246 334.871C871.835 381.461 900.897 433.399 900.897 433.399Z" fill="#EC661A" stroke="white" stroke-miterlimit="10"/>
<path d="M894.946 418.722C894.946 418.722 926.367 401.145 936.208 385.789L913.812 330.781C913.812 330.781 877.861 363.062 894.946 418.722Z" fill="#9D9D9C"/>
<path d="M901.364 434.014L909.604 428.307L912.079 431.998L912.789 440.824C912.789 440.824 906.223 440.23 901.364 434.014Z" fill="black"/>
<path d="M1008.02 364.589C1008.02 364.589 923.669 434.178 912.684 439.434L912.795 440.824C912.795 440.824 918.052 441.158 921.539 438.978C921.539 438.978 980.358 399.797 1000.33 384.84C1000.33 384.84 1006.65 374.338 1008.02 364.589Z" fill="black"/>
<path d="M928.751 411.885C928.751 411.885 975.938 376.497 980.517 362.24C980.517 362.24 969.706 392.791 928.751 411.885Z" fill="white"/>
<path d="M916.033 426.015C916.033 426.015 971.327 390.128 980.951 373.399C982.016 371.548 983.098 369.708 984.253 367.915C988.874 360.738 998.89 344.455 999.023 331.089C999.023 331.089 1006.72 338.154 1008.57 350.576C1008.57 350.576 992.854 376.157 971.296 390.298L916.033 426.015Z" fill="#82368C"/>
<path d="M917.225 339.162C917.225 339.162 953.505 312.445 961.206 310.467C961.206 310.467 952.605 309.502 946.69 311.024C940.781 312.541 921.03 326.103 914.634 332.807L917.225 339.162Z" fill="white"/>
<path d="M904.416 334.303L924.745 317.924C925.397 318.343 926.542 319.102 927.893 320.157C930.145 321.913 931.619 323.435 931.937 323.748C936.87 328.67 950.241 328.845 952.186 335.29C952.965 337.873 952.711 341.018 950.835 344.842C950.835 344.842 957.565 352.141 944.274 361.232C944.274 361.232 942.61 367.342 934.809 370.763C934.809 370.763 930.352 382.628 923.145 376.216C915.937 369.803 904.316 353.679 908.736 343.4C908.73 343.4 903.754 336.616 904.416 334.303Z" fill="black" stroke="#B2B2B2" stroke-miterlimit="10"/>
<path d="M923.781 355.694C923.781 355.694 931.878 364.016 934.798 370.763" stroke="#B2B2B2" stroke-miterlimit="10"/>
<path d="M932 345.479C932 345.479 941.402 351.684 944.263 361.232" stroke="#B2B2B2" stroke-miterlimit="10"/>
<path d="M934.062 328.235C934.062 328.235 947.406 337.661 950.829 344.842" stroke="#B2B2B2" stroke-miterlimit="10"/>
<path d="M928.99 371.485L927.941 372.381C927.093 373.108 925.816 373.012 925.084 372.158L920.262 366.525C919.536 365.677 919.631 364.398 920.484 363.666L921.534 362.77C922.382 362.043 923.659 362.139 924.39 362.993L929.213 368.626C929.939 369.474 929.838 370.753 928.99 371.485Z" fill="#F39200" stroke="black" stroke-miterlimit="10"/>
<path d="M938.964 361.937L937.914 362.834C937.066 363.56 935.789 363.465 935.058 362.611L930.235 356.978C929.509 356.129 929.605 354.851 930.458 354.119L931.507 353.223C932.355 352.496 933.632 352.592 934.364 353.445L939.186 359.078C939.912 359.932 939.812 361.211 938.964 361.937Z" fill="#F39200" stroke="black" stroke-miterlimit="10"/>
<path d="M947.496 351.043L946.447 351.939C945.599 352.666 944.322 352.57 943.59 351.716L938.768 346.083C938.042 345.235 938.137 343.956 938.99 343.225L940.04 342.328C940.887 341.601 942.165 341.697 942.896 342.551L947.718 348.184C948.445 349.032 948.344 350.311 947.496 351.043Z" fill="#F39200" stroke="black" stroke-miterlimit="10"/>
<path d="M924.557 323.676L908.431 336.205L909.971 338.191L926.098 325.663L924.557 323.676Z" fill="#F39200" stroke="black" stroke-miterlimit="10"/>
<path d="M895.105 403.59C895.105 403.59 890.521 364.001 904.353 347.134C904.353 347.134 892.053 384.114 895.105 403.59Z" fill="white"/>
<path d="M964.82 168.446C964.82 168.446 962.228 177.198 967.379 181.876C967.379 181.876 966.998 176.179 968.333 175.161C968.333 175.161 969.478 183.881 974.725 186.172C974.725 186.172 972.721 180.348 973.103 178.63C973.103 178.63 977.395 186.84 981.02 188.272C981.02 188.272 978.826 183.499 978.826 180.73C978.826 180.73 984.057 186.936 985.732 187.89C985.732 187.89 992.181 182.544 992.753 181.016C992.753 181.016 992.086 187.318 990.75 188.272C990.75 188.272 996.951 182.067 997.332 180.444C997.332 180.444 997.141 185.408 996.187 186.267C996.187 186.267 1002.39 180.921 1002.48 176.434C1002.48 176.434 1003.82 180.539 1002.48 183.021C1002.48 183.021 1008.16 175.394 1007.18 168.801C1007.18 168.801 993.172 168.865 986.569 152.788C986.569 152.788 977.809 166.377 964.82 168.446Z" fill="#F39200"/>
<path d="M972.281 165.911C972.281 165.911 973.008 172.084 974.152 172.705C974.152 172.705 974.534 170.207 975.917 169.284C975.917 169.284 979.256 170.748 979.065 172.705C979.065 172.705 981.593 169.316 981.736 167.311C981.736 167.311 982.26 170.605 983.262 172.705C983.262 172.705 985.361 168.886 985.504 166.738C985.504 166.738 989.367 171.655 989.558 172.991C989.558 172.991 990.464 168.982 990.082 167.836C990.082 167.836 991.847 171.321 993.326 172.514C993.326 172.514 992.276 168.695 992.61 167.454C992.61 167.454 994.613 171.034 995.901 171.655C995.901 171.655 994.969 167.3 996.648 165.348L986.569 152.788L972.281 165.911Z" fill="#F9B233"/>
<path d="M949.176 155.08C949.176 155.08 954.518 166.918 964.82 168.446C975.122 169.973 986.95 158.135 986.569 152.788C986.569 152.788 993.055 173.299 1007.94 168.578C1022.82 163.863 1022.82 155.08 1022.82 155.08C1022.82 155.08 1037.7 150.879 1038.46 144.769C1038.46 144.769 1039.61 148.683 1038.46 151.07C1038.46 151.07 1049.62 139.231 1049.81 135.794C1049.81 135.794 1050.39 138.849 1049.81 140.472C1049.81 140.472 1060.5 123.685 1059.86 115.92C1059.86 115.92 1062.02 117.957 1061.26 119.23C1061.26 119.23 1066.09 105.863 1064.31 98.4801C1064.31 98.4801 1066.89 99.1643 1067.66 101.71C1067.66 101.71 1068.36 86.4983 1065.59 82.0111C1065.59 82.0111 1099.64 35.7068 1073.32 4.00981C1073.32 4.00981 1053.09 -10.5021 1029.82 23.4863C1029.82 23.4863 1019.61 17.376 1014.17 17.7579C1014.17 17.7579 1019.9 12.8888 1022.38 12.9843C1022.38 12.9843 1010.17 12.6024 1005.59 15.8484C1005.59 15.8484 1009.59 9.73818 1011.22 9.64271C1012.84 9.54723 997.671 10.9793 995.382 13.3661C995.382 13.3661 997.671 6.58758 1000.44 5.8238C1000.44 5.8238 989.945 7.73325 986.224 13.0797C986.224 13.0797 976.187 8.49703 968.174 9.54723C968.174 9.54723 973.23 11.5522 974.565 14.2254C974.565 14.2254 962.737 10.8839 954.82 12.125C954.82 12.125 959.78 13.6526 960.734 16.1349C960.734 16.1349 950.241 14.5118 947.475 15.6575C947.475 15.6575 953.58 16.9941 953.484 19.0945C953.484 19.0945 946.998 20.3357 943.087 24.8229C943.087 24.8229 916.186 -9.32455 900.733 2.51407C885.28 14.3527 880.701 50.4414 906.647 81.5655C906.647 81.5655 902.196 92.0675 903.722 100.851C903.722 100.851 906.393 93.0223 908.301 90.7309C908.301 90.7309 905.63 108.68 907.347 118.036C907.347 118.036 910.209 108.107 911.926 105.816C911.926 105.816 911.163 125.483 918.794 136.558C918.794 136.558 918.221 129.111 918.794 127.392C918.794 127.392 921.465 139.422 930.05 145.723C930.05 145.723 928.524 141.332 929.477 138.658C929.477 138.653 938.73 151.834 949.176 155.08Z" fill="#F39200"/>
<path d="M948.286 139.019C948.286 139.019 931.497 127.053 929.971 120.179C929.971 120.179 929.144 123.68 929.398 125.844C929.398 125.844 921.385 111.332 922.403 105.985C922.403 105.985 919.605 110.313 919.859 111.714C919.859 111.714 915.408 96.3108 917.443 92.11C917.443 92.11 914.327 95.9607 914.072 98.5067C914.072 98.5067 915.09 82.3081 917.951 79.4439C917.951 79.4439 913.85 82.2179 913.468 84.6472C913.468 84.6472 912.037 61.2086 920.05 56.2441C920.05 56.2441 917.061 53.6345 914.263 54.6528C914.263 54.6528 918.905 48.6699 922.721 48.7972C922.721 48.7972 919.287 47.9061 916.616 49.4337C916.616 49.4337 920.05 42.6869 928.063 40.6502C928.063 40.6502 926.632 38.9157 923.834 39.5522C923.834 39.5522 925.996 34.9695 931.974 32.8055C931.974 32.8055 932.864 32.4236 935.408 32.8055C935.408 32.8055 928.031 41.7163 927.649 51.3909C927.649 51.3909 939.669 33.3147 948.286 31.7871C948.286 31.7871 938.842 43.8803 936.934 50.6271C936.934 50.6271 940.114 45.4079 945.964 41.2071C945.964 41.2071 944.947 44.2622 944.438 49.9906C944.438 49.9906 952.324 35.7333 964.025 34.3331C964.025 34.3331 952.705 46.0444 956.648 60.8108C956.648 60.8108 958.81 59.2833 959.065 55.2098C959.065 55.2098 960.464 63.4841 959.828 67.1757C959.828 67.1757 961.863 67.0484 961.863 64.1206C961.863 64.1206 969.876 70.6763 969.494 78.6961C969.112 86.7158 948.286 139.019 948.286 139.019Z" fill="#F9B233"/>
<path d="M1022.27 138.266C1022.27 138.266 1039.05 126.3 1040.58 119.426C1040.58 119.426 1041.41 122.926 1041.15 125.091C1041.15 125.091 1049.17 110.579 1048.15 105.232C1048.15 105.232 1050.95 109.56 1050.69 110.961C1050.69 110.961 1055.14 95.5576 1053.11 91.3568C1053.11 91.3568 1056.23 95.2076 1056.48 97.7535C1056.48 97.7535 1055.46 81.5549 1052.6 78.6908C1052.6 78.6908 1056.7 81.4648 1057.08 83.894C1057.08 83.894 1058.51 60.4555 1050.5 55.4909C1050.5 55.4909 1053.49 52.8813 1056.29 53.8997C1056.29 53.8997 1051.65 47.9167 1047.83 48.044C1047.83 48.044 1051.26 47.1529 1053.94 48.6805C1053.94 48.6805 1050.5 41.9337 1042.49 39.897C1042.49 39.897 1043.92 38.1626 1046.72 38.7991C1046.72 38.7991 1044.56 34.2164 1038.58 32.0523C1038.58 32.0523 1037.69 31.6704 1035.14 32.0523C1035.14 32.0523 1042.52 40.9631 1042.9 50.6377C1042.9 50.6377 1030.88 32.5615 1022.27 31.0339C1022.27 31.0339 1031.71 43.1272 1033.62 49.8739C1033.62 49.8739 1030.44 44.6547 1024.59 40.4539C1024.59 40.4539 1025.6 43.509 1026.11 49.2374C1026.11 49.2374 1018.23 34.9801 1006.53 33.5799C1006.53 33.5799 1017.85 45.2912 1013.9 60.0577C1013.9 60.0577 1011.74 58.5301 1011.49 54.4566C1011.49 54.4566 1010.09 62.7309 1010.72 66.4225C1010.72 66.4225 1008.69 66.2952 1008.69 63.3674C1008.69 63.3674 1000.68 69.9232 1001.06 77.9429C1001.44 85.9626 1022.27 138.266 1022.27 138.266Z" fill="#F9B233"/>
<path d="M1056.58 69.6475C1056.58 69.6475 1066.41 59.0924 1064.25 47.763C1064.25 47.763 1067.68 53.6187 1066.67 55.91C1066.67 55.91 1072.39 47.3811 1067.94 39.3614C1067.94 39.3614 1071.63 42.6711 1071.12 46.8719C1071.12 46.8719 1072.77 32.3601 1069.21 29.3049C1069.21 29.3049 1072.77 31.0871 1072.77 33.633C1072.77 33.633 1076.97 1.68147 1051.66 15.4295C1051.66 15.4295 1056.36 15.175 1057.89 16.066C1057.89 16.066 1049.37 17.0844 1046.19 21.4125C1046.19 21.4125 1051.91 19.8849 1054.58 20.5214C1054.58 20.5214 1046.57 23.0674 1043.01 27.0136C1043.01 27.0136 1046.57 26.2498 1050.26 26.3771C1050.26 26.3771 1041.92 28.4351 1040.21 32.7419C1040.21 32.7419 1045.12 35.028 1046.72 38.7992C1046.72 38.7992 1044.24 38.2475 1042.49 39.8971C1042.49 39.8971 1049.71 41.4034 1053.94 48.6806C1053.94 48.6806 1052 47.1318 1047.83 48.0441C1047.83 48.0441 1051.68 47.9592 1056.29 53.8998C1056.29 53.8998 1053.97 52.7329 1050.5 55.491C1050.5 55.491 1055.06 57.6869 1056.58 69.6475Z" fill="#EC661A"/>
<path d="M920.05 56.2441C920.05 56.2441 917.013 53.4753 914.263 54.6528C914.263 54.6528 917.967 49.2745 922.721 48.7972C922.721 48.7972 918.667 48.0016 916.616 49.4337C916.616 49.4337 920.066 42.5914 928.063 40.6502C928.063 40.6502 926.679 38.868 923.834 39.5522C923.834 39.5522 926.123 35.1764 930.14 33.6011C930.14 33.6011 923.659 28.3342 919.398 28.6524C919.398 28.6524 922.641 27.1885 925.121 27.634C925.121 27.634 920.924 23.5605 915.837 24.3243C915.837 24.3243 919.207 22.5422 922.005 23.8151C922.005 23.8151 916.981 18.2141 912.53 18.2141C912.53 18.2141 914.846 16.8138 918.391 17.4503C918.391 17.4503 913.929 6.88462 903.5 16.4319C903.5 16.4319 896.886 22.9241 897.903 37.5632C897.903 37.5632 899.43 31.453 902.228 29.6708C902.228 29.6708 897.776 38.327 899.938 45.9648C899.938 45.9648 899.938 40.1092 903.372 37.5632C903.372 37.5632 900.829 48.1289 905.153 58.058C905.153 58.058 904.263 53.6026 906.806 50.0383C906.806 50.0383 907.744 63.1022 911.942 67.8122C911.942 67.8122 909.801 72.973 906.647 81.5602C906.647 81.5602 913.706 59.6492 920.05 56.2441Z" fill="#EC661A"/>
<path d="M981.084 53.4753C981.084 53.4753 982.356 63.0226 983.373 65.1867C983.373 65.1867 986.044 60.2221 986.299 54.7483C986.299 54.7483 989.987 63.5318 989.478 68.8783C989.478 68.8783 992.658 62.8953 992.658 58.5672C992.658 58.5672 994.311 66.4596 993.676 68.8783C993.676 68.8783 996.346 66.7142 996.728 63.9137C996.728 63.9137 998.89 68.3691 996.728 73.7156C996.728 73.7156 999.325 73.1427 1001.05 68.9419C1001.05 68.9419 1001.9 72.7131 1001.05 76.532C1001.05 76.532 1004.69 97.4671 1018.96 129.859C1018.96 129.859 1017.86 132.718 1017.09 134.245C1017.09 134.245 1015.28 129.901 1014.33 129.854C1014.33 129.854 1013.42 134.007 1012.85 135.296C1012.85 135.296 1011.75 131.047 1010.32 130.761C1010.32 130.761 1010.27 134.723 1009.27 136.012C1009.27 136.012 1006.93 130.617 1005.55 130.522C1005.55 130.522 1003.74 135.63 1003.36 136.346L965.17 135.152C965.17 135.152 963.898 132.097 964.025 131.461C964.025 131.461 961.863 133.211 962.244 136.346C962.244 136.346 959.446 133.37 959.319 131.206C959.319 131.206 957.984 131.715 958.079 134.675C958.079 134.675 955.599 131.811 955.694 130.283C955.694 130.283 953.882 131.524 954.168 133.529C954.168 133.529 952.106 129.286 952.758 127.599C953.41 125.913 968.174 84.6525 968.174 84.6525C968.174 84.6525 971.873 76.8503 966.887 69.9603C966.887 69.9603 972.075 71.5356 972.902 73.1905C972.902 73.1905 972.202 65.9345 969.849 64.4706C969.849 64.4706 975.445 66.2528 975.7 69.1806C975.694 69.1806 981.768 58.5831 981.084 53.4753Z" fill="#F9B233"/>
<path d="M966.346 131.938C966.346 131.938 960.495 121.118 963.294 113.735C963.294 113.735 965.329 119.718 966.346 120.736C966.346 120.736 965.291 109.534 969.505 105.715C969.505 105.715 969.144 111.571 971.306 115.517C971.306 115.517 970.67 107.879 975.249 103.678C979.828 99.4774 985.17 86.7477 985.043 82.8015C985.043 82.8015 999.16 103.806 995.472 113.48C995.472 113.48 997.634 114.244 999.033 108.134C999.033 108.134 1001.83 114.371 998.524 119.463C998.524 119.463 1003.36 115.517 1003.74 112.589C1003.74 112.589 1004.08 126.974 1001.05 130.411C1001.05 130.411 980.856 133.906 966.346 131.938Z" fill="#EC661A"/>
<path d="M986.569 152.788C986.569 152.788 991.481 171.543 1007.18 168.801C1007.18 168.801 1020.98 166.001 1022.82 155.08C1024.66 144.164 1025.67 146.158 1018.96 129.864L1017.09 134.251C1017.09 134.251 1015.38 130.161 1014.33 129.859C1014.33 129.859 1013.28 134.394 1012.85 135.301C1012.85 135.301 1011.66 130.893 1010.32 130.766C1010.32 130.766 1010.29 134.776 1009.27 136.017C1009.27 136.017 1007.49 130.034 1004.09 131.18C1000.69 132.325 965.169 135.158 965.169 135.158C965.169 135.158 963.802 132.214 964.025 131.466C964.025 131.466 961.767 133.2 962.244 136.351C962.244 136.351 959.351 133.089 959.319 131.211C959.319 131.211 957.729 132.484 958.079 134.68C958.079 134.68 955.392 131.434 955.694 130.289C955.694 130.289 953.961 131.1 954.168 133.535C954.168 133.535 952.276 129.636 952.514 128.236C952.514 128.236 942.906 138.414 949.176 155.085C955.917 172.991 980.04 172.922 986.569 152.788Z" fill="#CA9E67"/>
<path d="M1004.71 134.723C1004.71 138.308 1001.81 141.215 998.228 141.215C998.228 141.215 993.013 142.753 991.948 145.755C991.943 145.766 991.943 145.771 991.937 145.782C991.073 148.343 988.652 150.189 985.795 150.189C982.939 150.189 980.517 148.343 979.653 145.782C979.653 145.782 979.653 145.776 979.648 145.776C977.761 142.976 972.281 141.74 972.281 141.74C968.699 141.74 965.795 138.833 965.795 135.248C965.795 131.662 968.699 128.756 972.281 128.756C973.532 128.756 974.698 129.111 975.689 129.726C975.689 129.732 975.694 129.732 975.7 129.732C978.789 130.564 983.151 131.604 985.074 131.429C987.035 131.248 991.646 130.055 994.852 129.175C995.838 128.575 996.993 128.23 998.228 128.23C1001.81 128.23 1004.71 131.137 1004.71 134.723Z" fill="black"/>
<path d="M1005.53 93.9983C1005.53 93.9983 999.325 75.4395 1013.19 65.8922C1013.19 65.8922 1012.17 68.6927 1012.04 70.3476C1012.04 70.3476 1019.52 62.0733 1018.96 59.5274C1018.96 59.5274 1020.09 64.6192 1019 66.1468C1019 66.1468 1023.11 61.4368 1023.37 58.7636C1023.37 58.7636 1024.26 61.5641 1022.73 63.9827C1022.73 63.9827 1026.93 60.4184 1027.31 57.9998C1027.31 57.9998 1028.2 62.0733 1027.31 63.219C1027.31 63.219 1032.78 59.9092 1033.8 56.0903C1033.8 56.0903 1033.92 63.6009 1033.16 65.5103C1033.16 65.5103 1039.01 61.8187 1039.52 58.3817C1039.52 58.3817 1041.81 66.2741 1037.61 70.2203C1037.61 70.2203 1043.46 68.82 1044.23 66.656C1044.23 66.656 1042.05 72.7662 1040.21 73.7846C1040.21 73.7846 1041.43 75.6676 1044.23 75.0417C1044.23 75.0417 1043.08 79.8949 1037.1 81.8043C1037.1 81.8043 1039.52 82.6954 1041.81 82.0589C1041.81 82.0589 1039.88 85.6232 1035.06 86.6416C1035.06 86.6416 1034.94 88.4238 1037.36 87.9146C1037.36 87.9146 1034.43 91.7335 1030.24 91.7335C1030.24 91.7335 1030.11 93.7703 1032.65 93.2611C1032.65 93.2611 1028.2 96.5708 1023.62 96.4435C1023.62 96.4435 1022.99 98.2256 1025.66 98.3529C1025.66 98.3529 1013.44 101.329 1007.34 99.7108L1005.53 93.9983Z" fill="#EC661A"/>
<path d="M964.454 94.8841C964.454 94.8841 970.655 76.3252 956.791 66.7779C956.791 66.7779 957.809 69.5785 957.936 71.2333C957.936 71.2333 950.458 62.959 951.015 60.4131C951.015 60.4131 949.886 65.505 950.983 67.0325C950.983 67.0325 946.865 62.3225 946.611 59.6493C946.611 59.6493 945.721 62.4498 947.247 64.8685C947.247 64.8685 943.05 61.3042 942.668 58.8855C942.668 58.8855 941.778 62.959 942.668 64.1047C942.668 64.1047 937.199 60.795 936.182 56.9761C936.182 56.9761 936.054 64.4866 936.818 66.3961C936.818 66.3961 930.967 62.7044 930.458 59.2674C930.458 59.2674 928.169 67.1598 932.366 71.106C932.366 71.106 926.515 69.7058 925.752 67.5417C925.752 67.5417 927.93 73.652 929.769 74.6704C929.769 74.6704 928.55 76.5533 925.752 75.9274C925.752 75.9274 926.897 80.7806 932.875 82.6901C932.875 82.6901 930.458 83.5812 928.169 82.9447C928.169 82.9447 930.103 86.509 934.92 87.5274C934.92 87.5274 935.037 89.3095 932.62 88.8003C932.62 88.8003 935.546 92.6192 939.743 92.6192C939.743 92.6192 939.87 94.656 937.326 94.1468C937.326 94.1468 941.778 97.4565 946.357 97.3292C946.357 97.3292 946.993 99.1114 944.322 99.2387C944.322 99.2387 956.542 102.214 962.642 100.597L964.454 94.8841Z" fill="#EC661A"/>
<path d="M1013.38 74.4262C1013.38 74.4262 1025.97 69.8435 1027.12 66.2156C1027.12 66.2156 1026.45 70.4164 1024.83 71.8485C1024.83 71.8485 1030.36 71.2703 1031.6 69.6473C1031.6 69.6473 1031.69 72.0394 1030.84 72.7077C1030.84 72.7077 1032.93 73.6625 1033.7 72.3258C1033.7 72.3258 1032.93 74.6172 1031.6 74.9991C1031.6 74.9991 1036.37 74.9991 1038.18 77.1949C1038.18 77.1949 1031.41 79.8894 1029.79 84.6524C1028.16 89.4155 1020.06 92.1842 1015.48 89.7974C1015.48 89.7974 1009.8 100.968 1024.18 114.907C1024.18 114.907 1020.82 114.238 1020.15 113.284C1020.15 113.284 1026.83 121.112 1026.83 125.218C1026.83 125.218 1026.26 123.69 1023.68 123.117C1023.68 123.117 1028.6 130.135 1028.52 133.407C1028.52 133.407 1026.64 131.519 1025.02 131.519C1025.02 131.519 1028.36 136.834 1027.78 142.53C1027.78 142.53 1022.57 133.19 1020.45 133.497C1020.45 133.497 1007.17 100.814 1006 96.0349C1004.84 91.2507 1007.63 76.8396 1013.38 74.4262Z" fill="black"/>
<path d="M957.077 74.4262C957.077 74.4262 944.486 69.8435 943.341 66.2156C943.341 66.2156 944.009 70.4164 945.63 71.8485C945.63 71.8485 940.098 71.2703 938.858 69.6473C938.858 69.6473 938.762 72.0394 939.621 72.7077C939.621 72.7077 937.522 73.6625 936.759 72.3258C936.759 72.3258 937.522 74.6172 938.858 74.9991C938.858 74.9991 934.088 74.9991 932.276 77.1949C932.276 77.1949 939.048 79.8894 940.67 84.6524C942.292 89.4155 950.4 92.1842 954.979 89.7974C954.979 89.7974 960.654 100.968 946.272 114.907C946.272 114.907 949.637 114.238 950.304 113.284C950.304 113.284 943.627 121.112 943.627 125.218C943.627 125.218 944.199 123.69 946.775 123.117C946.775 123.117 941.852 130.135 941.931 133.407C941.931 133.407 943.818 131.519 945.44 131.519C945.44 131.519 942.101 136.834 942.673 142.53C942.673 142.53 947.888 133.19 950.002 133.497C950.002 133.497 963.283 100.814 964.454 96.0349C965.625 91.2507 962.827 76.8396 957.077 74.4262Z" fill="black"/>
<path d="M943.935 78.0862L958.561 80.5048C958.561 80.5048 957.989 89.0337 949.849 88.2063C941.709 87.3789 943.935 78.0862 943.935 78.0862Z" fill="white"/>
<path d="M946.637 78.6909C945.795 81.1679 946.987 84.467 949.457 85.3316C951.306 85.984 953.293 85.4111 954.533 84.0427C955.122 83.3903 955.471 82.5576 955.62 81.693L955.895 80.0594L946.637 78.6909Z" fill="black"/>
<path d="M951.025 82.5361C951.707 82.5361 952.26 81.9828 952.26 81.3003C952.26 80.6178 951.707 80.0645 951.025 80.0645C950.343 80.0645 949.791 80.6178 949.791 81.3003C949.791 81.9828 950.343 82.5361 951.025 82.5361Z" fill="white"/>
<path d="M1027.34 77.0889L1012.71 79.5075C1012.71 79.5075 1013.28 88.0364 1021.42 87.209C1029.56 86.3816 1027.34 77.0889 1027.34 77.0889Z" fill="white"/>
<path d="M1024.63 77.6936C1025.48 80.1706 1024.29 83.4697 1021.82 84.3343C1019.97 84.9867 1017.98 84.4138 1016.74 83.0454C1016.15 82.393 1015.8 81.5603 1015.65 80.6957L1015.38 79.062L1024.63 77.6936Z" fill="black"/>
<path d="M1020.25 81.5391C1020.93 81.5391 1021.49 80.9858 1021.49 80.3032C1021.49 79.6207 1020.93 79.0674 1020.25 79.0674C1019.57 79.0674 1019.02 79.6207 1019.02 80.3032C1019.02 80.9858 1019.57 81.5391 1020.25 81.5391Z" fill="white"/>
<path d="M985.726 39.5787C987.152 39.5787 988.307 37.3275 988.307 34.5504C988.307 31.7734 987.152 29.5222 985.726 29.5222C984.301 29.5222 983.146 31.7734 983.146 34.5504C983.146 37.3275 984.301 39.5787 985.726 39.5787Z" fill="black"/>
<path d="M976.578 34.6637C978.095 32.3382 978.356 29.8209 977.163 29.0412C975.969 28.2614 973.772 29.5144 972.256 31.8399C970.739 34.1654 970.477 36.6827 971.671 37.4624C972.864 38.2422 975.061 36.9892 976.578 34.6637Z" fill="black"/>
<path d="M998.621 36.6795C999.814 35.8998 999.552 33.3825 998.036 31.057C996.519 28.7315 994.322 27.4785 993.128 28.2583C991.935 29.038 992.197 31.5553 993.713 33.8808C995.23 36.2063 997.427 37.4593 998.621 36.6795Z" fill="black"/>
<path d="M1012.06 31.2031C1012.54 29.8589 1010.8 28.0154 1008.19 27.0857C1005.57 26.1559 1003.07 26.492 1002.59 27.8362C1002.11 29.1805 1003.85 31.024 1006.46 31.9537C1009.08 32.8835 1011.58 32.5474 1012.06 31.2031Z" fill="black"/>
<path d="M1013.58 23.1853C1014.06 21.841 1012.33 19.9976 1009.71 19.0678C1007.1 18.1381 1004.59 18.4741 1004.11 19.8184C1003.64 21.1627 1005.37 23.0061 1007.98 23.9359C1010.6 24.8656 1013.1 24.5296 1013.58 23.1853Z" fill="black"/>
<path d="M1022 27.0356C1022.63 26.2595 1021.93 24.6317 1020.42 23.3997C1018.91 22.1678 1017.17 21.7983 1016.54 22.5745C1015.91 23.3506 1016.62 24.9784 1018.12 26.2103C1019.63 27.4423 1021.37 27.8118 1022 27.0356Z" fill="black"/>
<path d="M1026.97 35.2251C1027.66 34.3786 1026.89 32.6036 1025.24 31.2606C1023.6 29.9175 1021.71 29.5149 1021.02 30.3614C1020.33 31.2079 1021.1 32.9828 1022.74 34.3259C1024.39 35.669 1026.28 36.0715 1026.97 35.2251Z" fill="black"/>
<path d="M996.097 24.9908C998.862 24.7573 1001.01 23.4155 1000.89 21.9939C1000.77 20.5723 998.428 19.6092 995.663 19.8428C992.898 20.0763 990.754 21.4181 990.874 22.8397C990.994 24.2612 993.332 25.2244 996.097 24.9908Z" fill="black"/>
<path d="M974.639 26.1363C977.404 25.9028 979.548 24.561 979.428 23.1394C979.308 21.7178 976.969 20.7547 974.205 20.9883C971.44 21.2218 969.295 22.5636 969.415 23.9852C969.535 25.4068 971.874 26.3699 974.639 26.1363Z" fill="black"/>
<path d="M984.518 18.7326C985.031 17.6858 983.798 16.0279 981.764 15.0296C979.729 14.0313 977.665 14.0706 977.152 15.1175C976.639 16.1643 977.872 17.8222 979.906 18.8205C981.94 19.8188 984.005 19.7795 984.518 18.7326Z" fill="black"/>
<path d="M991.277 18.8242C993.311 17.8259 994.544 16.168 994.031 15.1211C993.518 14.0743 991.454 14.0349 989.42 15.0332C987.386 16.0315 986.152 17.6895 986.665 18.7363C987.178 19.7831 989.243 19.8225 991.277 18.8242Z" fill="black"/>
<path d="M964.303 34.4626C966.444 32.6365 967.419 30.2634 966.481 29.1621C965.543 28.0609 963.047 28.6486 960.907 30.4747C958.766 32.3009 957.792 34.674 958.73 35.7752C959.667 36.8765 962.163 36.2888 964.303 34.4626Z" fill="black"/>
<path d="M964.229 24.4072C966.37 22.5811 967.345 20.208 966.407 19.1067C965.469 18.0055 962.973 18.5931 960.833 20.4193C958.692 22.2454 957.718 24.6186 958.656 25.7198C959.593 26.821 962.089 26.2334 964.229 24.4072Z" fill="black"/>
<path d="M948.751 37.8538C950.892 36.0276 951.867 33.6545 950.929 32.5532C949.991 31.452 947.495 32.0397 945.355 33.8658C943.214 35.692 942.24 38.0651 943.178 39.1663C944.115 40.2676 946.611 39.6799 948.751 37.8538Z" fill="black"/>
<path d="M950.99 27.5268C952.504 26.2346 953.193 24.5546 952.529 23.7743C951.864 22.9941 950.098 23.4091 948.583 24.7013C947.069 25.9935 946.38 27.6735 947.044 28.4537C947.709 29.234 949.475 28.819 950.99 27.5268Z" fill="black"/>
<path d="M1036.09 15.3552C1036.09 15.3552 1035.3 20.6699 1036.64 25.3481C1036.64 25.3481 1038.74 16.9465 1041.03 14.8461C1041.03 14.8461 1040.74 18.474 1041.79 20.0971C1041.79 20.0971 1043.79 14.3899 1045.8 11.9925C1045.8 11.9925 1045.22 13.8913 1045.8 16.4691C1045.8 16.4691 1051.29 2.85362 1054.89 2.03149C1054.89 2.03149 1044.6 5.17149 1036.09 15.3552Z" fill="black"/>
<path d="M1067 65.1019C1067 65.1019 1077.95 59.4796 1079.41 54.6423C1080.87 49.8051 1087.99 27.5228 1077.12 9.33521C1077.12 9.33521 1078.07 20.8025 1076.29 23.6031C1076.29 23.6031 1078.97 20.9298 1079.09 19.7842C1079.09 19.7842 1078.71 27.3955 1076.68 31.034C1076.68 31.034 1080.36 29.8406 1080.62 28.1858C1080.62 28.1858 1078.58 41.9339 1074.39 46.6438C1074.39 46.6438 1079.6 43.5887 1080.24 41.6793C1080.23 41.6793 1074.25 57.7187 1067 65.1019Z" fill="black"/>
<path d="M903.823 68.3478C903.823 68.3478 894.157 56.1273 893.902 50.2716C893.902 50.2716 895.047 52.563 896.955 52.9449C896.955 52.9449 890.214 40.4698 891.231 34.5505C891.231 34.5505 891.867 36.0144 894.665 38.3057C894.665 38.3057 890.85 29.57 892.63 23.5605C892.63 23.5605 892.885 26.3398 894.284 27.7401C894.284 27.7401 893.876 9.20243 896.976 6.11548C896.976 6.11548 878.158 29.7662 895.19 63.8235C895.19 63.8235 897.591 66.8203 903.823 68.3478Z" fill="black"/>
<path d="M935.493 25.4489C935.493 25.4489 936.733 20.1237 936.049 16.9306C936.049 16.9306 919.467 -0.588629 908.656 0.0160319C908.656 0.0160319 921.502 7.62733 922.456 14.756C922.456 14.756 923.283 11.0644 922.456 8.9003C922.456 8.9003 927.607 14.1195 927.988 21.7573C927.988 21.7573 929.26 17.1746 929.006 14.8833C929.006 14.8833 933.076 15.7743 935.493 25.4489Z" fill="black"/>
<path d="M918.022 83.7777C919.046 81.1623 919.188 78.7716 918.338 78.4379C917.488 78.1042 915.968 79.9539 914.943 82.5693C913.918 85.1847 913.777 87.5754 914.627 87.9091C915.477 88.2428 916.997 86.3931 918.022 83.7777Z" fill="black"/>
<path d="M912.502 99.4903C913.295 99.4512 913.84 97.4461 913.72 95.0118C913.599 92.5775 912.86 90.6358 912.068 90.675C911.276 90.7141 910.731 92.7192 910.851 95.1535C910.971 97.5878 911.71 99.5295 912.502 99.4903Z" fill="black"/>
<path d="M916.661 115.223C917.334 115.19 917.796 113.489 917.694 111.423C917.592 109.357 916.965 107.71 916.292 107.743C915.62 107.776 915.158 109.478 915.259 111.543C915.361 113.609 915.989 115.257 916.661 115.223Z" fill="black"/>
<path d="M921.395 105.622C922.184 105.583 922.727 103.58 922.607 101.149C922.487 98.7177 921.75 96.7783 920.961 96.8173C920.171 96.8563 919.629 98.8589 919.749 101.29C919.869 103.722 920.606 105.661 921.395 105.622Z" fill="black"/>
<path d="M927.011 89.535C927.925 87.2005 928.053 85.067 927.295 84.7697C926.538 84.4724 925.182 86.1238 924.267 88.4583C923.353 90.7928 923.225 92.9263 923.983 93.2237C924.74 93.521 926.096 91.8695 927.011 89.535Z" fill="black"/>
<path d="M937.01 101.451C937.448 100.764 936.089 99.1147 933.977 97.7669C931.864 96.4191 929.797 95.8833 929.359 96.57C928.922 97.2568 930.28 98.9061 932.393 100.254C934.506 101.602 936.573 102.138 937.01 101.451Z" fill="black"/>
<path d="M934.489 113.567C935.085 113.013 934.188 111.073 932.484 109.235C930.781 107.396 928.916 106.355 928.319 106.909C927.723 107.462 928.62 109.402 930.324 111.24C932.028 113.079 933.892 114.12 934.489 113.567Z" fill="black"/>
<path d="M925.118 126.836C925.958 126.559 925.996 124.383 925.203 121.977C924.411 119.571 923.088 117.844 922.249 118.121C921.409 118.398 921.371 120.573 922.164 122.98C922.956 125.386 924.279 127.113 925.118 126.836Z" fill="black"/>
<path d="M941.778 110.637C942.448 110.416 942.523 108.816 941.946 107.064C941.369 105.311 940.358 104.069 939.688 104.29C939.018 104.511 938.943 106.111 939.52 107.864C940.097 109.617 941.108 110.858 941.778 110.637Z" fill="black"/>
<path d="M937.675 125.472C938.345 125.251 938.42 123.651 937.843 121.898C937.266 120.146 936.255 118.904 935.585 119.125C934.915 119.346 934.84 120.946 935.417 122.699C935.994 124.451 937.005 125.693 937.675 125.472Z" fill="black"/>
<path d="M936.905 134.905C937.404 134.406 936.752 132.944 935.448 131.639C934.144 130.334 932.683 129.681 932.184 130.18C931.685 130.679 932.338 132.142 933.642 133.447C934.945 134.751 936.407 135.405 936.905 134.905Z" fill="black"/>
<path d="M1056.19 87.7891C1057.04 87.4554 1056.9 85.0647 1055.88 82.4493C1054.85 79.8339 1053.33 77.9842 1052.48 78.3179C1051.63 78.6516 1051.77 81.0423 1052.8 83.6577C1053.82 86.2731 1055.34 88.1228 1056.19 87.7891Z" fill="black"/>
<path d="M1059.96 95.0256C1060.08 92.5913 1059.54 90.5862 1058.74 90.547C1057.95 90.5079 1057.21 92.4495 1057.09 94.8838C1056.97 97.3181 1057.52 99.3232 1058.31 99.3624C1059.1 99.4015 1059.84 97.4598 1059.96 95.0256Z" fill="black"/>
<path d="M1055.55 111.413C1055.65 109.347 1055.19 107.646 1054.52 107.613C1053.84 107.579 1053.22 109.227 1053.11 111.293C1053.01 113.358 1053.48 115.06 1054.15 115.093C1054.82 115.126 1055.45 113.478 1055.55 111.413Z" fill="black"/>
<path d="M1051.06 101.164C1051.18 98.733 1050.64 96.7304 1049.85 96.6914C1049.06 96.6524 1048.32 98.5918 1048.2 101.023C1048.08 103.455 1048.63 105.457 1049.41 105.496C1050.2 105.535 1050.94 103.596 1051.06 101.164Z" fill="black"/>
<path d="M1046.84 93.1095C1047.6 92.8121 1047.47 90.6786 1046.56 88.3441C1045.64 86.0096 1044.29 84.3582 1043.53 84.6555C1042.77 84.9528 1042.9 87.0863 1043.82 89.4208C1044.73 91.7553 1046.09 93.4068 1046.84 93.1095Z" fill="black"/>
<path d="M1038.43 100.122C1040.54 98.7742 1041.9 97.1249 1041.46 96.4381C1041.02 95.7514 1038.96 96.2873 1036.84 97.635C1034.73 98.9828 1033.37 100.632 1033.81 101.319C1034.25 102.006 1036.31 101.47 1038.43 100.122Z" fill="black"/>
<path d="M1040.48 111.117C1042.19 109.278 1043.09 107.339 1042.49 106.785C1041.89 106.232 1040.03 107.273 1038.32 109.112C1036.62 110.95 1035.72 112.889 1036.32 113.443C1036.92 113.997 1038.78 112.955 1040.48 111.117Z" fill="black"/>
<path d="M1048.63 122.866C1049.42 120.459 1049.38 118.284 1048.54 118.007C1047.7 117.73 1046.38 119.457 1045.59 121.863C1044.8 124.269 1044.83 126.445 1045.67 126.722C1046.51 126.998 1047.84 125.272 1048.63 122.866Z" fill="black"/>
<path d="M1031.28 107.746C1031.85 105.993 1031.78 104.393 1031.11 104.172C1030.44 103.951 1029.43 105.193 1028.85 106.945C1028.27 108.698 1028.35 110.298 1029.02 110.519C1029.69 110.74 1030.7 109.498 1031.28 107.746Z" fill="black"/>
<path d="M1035.38 122.582C1035.95 120.829 1035.88 119.229 1035.21 119.008C1034.54 118.787 1033.53 120.029 1032.95 121.782C1032.37 123.534 1032.45 125.134 1033.12 125.355C1033.79 125.576 1034.8 124.334 1035.38 122.582Z" fill="black"/>
<path d="M1037.17 133.325C1038.47 132.02 1039.13 130.558 1038.63 130.058C1038.13 129.559 1036.67 130.212 1035.36 131.517C1034.06 132.822 1033.41 134.285 1033.91 134.784C1034.41 135.283 1035.87 134.63 1037.17 133.325Z" fill="black"/>
<path d="M994.333 150.836C1001.36 152.497 1008.99 152.12 1015.64 149.224C1016.61 148.853 1017.5 148.312 1018.45 147.877C1011.48 152.565 1002.24 153.51 994.333 150.836Z" fill="#B17F4A"/>
<path d="M994.333 153.653C1001.36 155.313 1008.99 154.936 1015.64 152.04C1016.61 151.669 1017.5 151.128 1018.45 150.693C1011.48 155.382 1002.24 156.326 994.333 153.653Z" fill="#B17F4A"/>
<path d="M994.651 156.761C1001.68 158.421 1009.3 158.045 1015.95 155.149C1016.93 154.777 1017.82 154.236 1018.77 153.801C1011.8 158.49 1002.56 159.434 994.651 156.761Z" fill="#B17F4A"/>
<path d="M953.188 148.227C959.727 151.298 967.263 152.491 974.37 151.022C975.398 150.863 976.383 150.513 977.401 150.279C969.621 153.441 960.379 152.465 953.188 148.227Z" fill="#B17F4A"/>
<path d="M952.61 150.985C959.149 154.056 966.685 155.249 973.792 153.78C974.82 153.621 975.806 153.271 976.823 153.038C969.044 156.193 959.801 155.223 952.61 150.985Z" fill="#B17F4A"/>
<path d="M952.287 154.093C958.826 157.164 966.362 158.357 973.469 156.888C974.497 156.729 975.482 156.379 976.5 156.146C968.715 159.307 959.478 158.331 952.287 154.093Z" fill="#B17F4A"/>
<path d="M1014.86 145.013C1015.02 145.013 1015.14 144.884 1015.14 144.726C1015.14 144.568 1015.02 144.44 1014.86 144.44C1014.7 144.44 1014.57 144.568 1014.57 144.726C1014.57 144.884 1014.7 145.013 1014.86 145.013Z" fill="#B17F4A"/>
<path d="M1015.58 145.67C1015.74 145.67 1015.87 145.542 1015.87 145.384C1015.87 145.226 1015.74 145.097 1015.58 145.097C1015.43 145.097 1015.3 145.226 1015.3 145.384C1015.3 145.542 1015.43 145.67 1015.58 145.67Z" fill="#B17F4A"/>
<path d="M1015.74 144.302C1015.9 144.302 1016.03 144.174 1016.03 144.015C1016.03 143.857 1015.9 143.729 1015.74 143.729C1015.58 143.729 1015.46 143.857 1015.46 144.015C1015.46 144.174 1015.58 144.302 1015.74 144.302Z" fill="#B17F4A"/>
<path d="M1016.63 145.49C1016.79 145.49 1016.92 145.362 1016.92 145.204C1016.92 145.045 1016.79 144.917 1016.63 144.917C1016.47 144.917 1016.35 145.045 1016.35 145.204C1016.35 145.362 1016.47 145.49 1016.63 145.49Z" fill="#B17F4A"/>
<path d="M1016.63 144.44C1016.79 144.44 1016.92 144.312 1016.92 144.153C1016.92 143.995 1016.79 143.867 1016.63 143.867C1016.47 143.867 1016.35 143.995 1016.35 144.153C1016.35 144.312 1016.47 144.44 1016.63 144.44Z" fill="#B17F4A"/>
<path d="M1015.3 142.817C1015.46 142.817 1015.58 142.689 1015.58 142.53C1015.58 142.372 1015.46 142.244 1015.3 142.244C1015.14 142.244 1015.01 142.372 1015.01 142.53C1015.01 142.689 1015.14 142.817 1015.3 142.817Z" fill="#B17F4A"/>
<path d="M1014.44 143.772C1014.6 143.772 1014.72 143.643 1014.72 143.485C1014.72 143.327 1014.6 143.199 1014.44 143.199C1014.28 143.199 1014.15 143.327 1014.15 143.485C1014.15 143.643 1014.28 143.772 1014.44 143.772Z" fill="#B17F4A"/>
<path d="M1013.55 144.726C1013.71 144.726 1013.83 144.598 1013.83 144.44C1013.83 144.282 1013.71 144.153 1013.55 144.153C1013.39 144.153 1013.26 144.282 1013.26 144.44C1013.26 144.598 1013.39 144.726 1013.55 144.726Z" fill="#B17F4A"/>
<path d="M1015.46 146.726C1015.61 146.726 1015.74 146.598 1015.74 146.439C1015.74 146.281 1015.61 146.153 1015.46 146.153C1015.3 146.153 1015.17 146.281 1015.17 146.439C1015.17 146.598 1015.3 146.726 1015.46 146.726Z" fill="#B17F4A"/>
<path d="M1016.92 146.439C1017.08 146.439 1017.2 146.311 1017.2 146.153C1017.2 145.995 1017.08 145.866 1016.92 145.866C1016.76 145.866 1016.63 145.995 1016.63 146.153C1016.63 146.311 1016.76 146.439 1016.92 146.439Z" fill="#B17F4A"/>
<path d="M1016.35 143.199C1016.5 143.199 1016.63 143.07 1016.63 142.912C1016.63 142.754 1016.5 142.626 1016.35 142.626C1016.19 142.626 1016.06 142.754 1016.06 142.912C1016.06 143.07 1016.19 143.199 1016.35 143.199Z" fill="#B17F4A"/>
<path d="M1014.28 145.909C1014.44 145.909 1014.57 145.781 1014.57 145.623C1014.57 145.464 1014.44 145.336 1014.28 145.336C1014.13 145.336 1014 145.464 1014 145.623C1014 145.781 1014.13 145.909 1014.28 145.909Z" fill="#B17F4A"/>
<path d="M959.828 144.641C959.986 144.641 960.114 144.513 960.114 144.355C960.114 144.197 959.986 144.068 959.828 144.068C959.67 144.068 959.542 144.197 959.542 144.355C959.542 144.513 959.67 144.641 959.828 144.641Z" fill="#B17F4A"/>
<path d="M959.102 145.299C959.26 145.299 959.388 145.171 959.388 145.012C959.388 144.854 959.26 144.726 959.102 144.726C958.944 144.726 958.815 144.854 958.815 145.012C958.815 145.171 958.944 145.299 959.102 145.299Z" fill="#B17F4A"/>
<path d="M958.943 143.93C959.101 143.93 959.229 143.802 959.229 143.644C959.229 143.486 959.101 143.358 958.943 143.358C958.785 143.358 958.656 143.486 958.656 143.644C958.656 143.802 958.785 143.93 958.943 143.93Z" fill="#B17F4A"/>
<path d="M958.052 145.119C958.21 145.119 958.338 144.991 958.338 144.832C958.338 144.674 958.21 144.546 958.052 144.546C957.894 144.546 957.766 144.674 957.766 144.832C957.766 144.991 957.894 145.119 958.052 145.119Z" fill="#B17F4A"/>
<path d="M958.052 144.068C958.21 144.068 958.338 143.94 958.338 143.782C958.338 143.624 958.21 143.496 958.052 143.496C957.894 143.496 957.766 143.624 957.766 143.782C957.766 143.94 957.894 144.068 958.052 144.068Z" fill="#B17F4A"/>
<path d="M959.388 142.445C959.546 142.445 959.674 142.317 959.674 142.159C959.674 142.001 959.546 141.873 959.388 141.873C959.23 141.873 959.102 142.001 959.102 142.159C959.102 142.317 959.23 142.445 959.388 142.445Z" fill="#B17F4A"/>
<path d="M960.246 143.4C960.404 143.4 960.533 143.272 960.533 143.114C960.533 142.956 960.404 142.827 960.246 142.827C960.088 142.827 959.96 142.956 959.96 143.114C959.96 143.272 960.088 143.4 960.246 143.4Z" fill="#B17F4A"/>
<path d="M961.137 144.355C961.295 144.355 961.423 144.227 961.423 144.068C961.423 143.91 961.295 143.782 961.137 143.782C960.978 143.782 960.85 143.91 960.85 144.068C960.85 144.227 960.978 144.355 961.137 144.355Z" fill="#B17F4A"/>
<path d="M959.229 146.355C959.387 146.355 959.515 146.226 959.515 146.068C959.515 145.91 959.387 145.782 959.229 145.782C959.071 145.782 958.943 145.91 958.943 146.068C958.943 146.226 959.071 146.355 959.229 146.355Z" fill="#B17F4A"/>
<path d="M957.766 146.068C957.924 146.068 958.052 145.94 958.052 145.782C958.052 145.623 957.924 145.495 957.766 145.495C957.608 145.495 957.48 145.623 957.48 145.782C957.48 145.94 957.608 146.068 957.766 146.068Z" fill="#B17F4A"/>
<path d="M958.338 142.827C958.496 142.827 958.625 142.699 958.625 142.541C958.625 142.383 958.496 142.254 958.338 142.254C958.18 142.254 958.052 142.383 958.052 142.541C958.052 142.699 958.18 142.827 958.338 142.827Z" fill="#B17F4A"/>
<path d="M960.4 145.538C960.558 145.538 960.686 145.409 960.686 145.251C960.686 145.093 960.558 144.965 960.4 144.965C960.242 144.965 960.114 145.093 960.114 145.251C960.114 145.409 960.242 145.538 960.4 145.538Z" fill="#B17F4A"/>
<path d="M952.854 588.447C952.854 588.447 945.461 581.143 938.19 580.501C930.919 579.859 922.329 588.447 922.329 588.447C922.329 588.447 911.168 605.987 911.094 612.644C911.03 617.879 914.491 623.326 920.193 626.975C924.289 629.595 929.546 631.282 935.482 631.282C949.679 631.282 957.893 625.501 959.186 616.5C960.485 607.499 952.854 588.447 952.854 588.447Z" fill="black" stroke="#B2B2B2" stroke-miterlimit="10"/>
<path d="M959.186 620.218C957.893 629.219 949.679 635 935.482 635C929.546 635 924.289 633.313 920.193 630.693C914.491 627.044 911.03 621.597 911.094 616.362C911.168 609.705 922.329 592.165 922.329 592.165L922.419 592.074C922.98 591.533 926.043 588.632 929.87 586.505C932.472 585.063 935.429 583.975 938.19 584.219C945.461 584.861 952.854 592.165 952.854 592.165C952.854 592.165 960.485 611.217 959.186 620.218Z" fill="#EC661A"/>
<path d="M929.87 586.505C929.764 594.557 928.757 621.289 920.193 630.693C914.491 627.044 911.03 621.597 911.094 616.362C911.168 609.705 922.329 592.165 922.329 592.165L922.419 592.075C922.98 591.534 926.043 588.632 929.87 586.505Z" fill="#82368C"/>
<path d="M925.688 611.424C925.975 610.31 926.536 609.323 927.199 608.416C927.872 607.515 928.683 606.708 929.61 606.014C931.454 604.635 933.844 603.743 936.33 603.738C937.565 603.722 938.805 603.934 939.949 604.337C941.099 604.73 942.165 605.298 943.081 606.014C944.926 607.435 946.303 609.26 946.987 611.429C944.857 610.644 943.05 609.843 941.301 609.318C940.871 609.164 940.432 609.085 940.024 608.952C939.594 608.883 939.192 608.745 938.773 608.708C937.951 608.57 937.151 608.496 936.346 608.506C934.745 608.517 933.097 608.788 931.348 609.323C929.589 609.843 927.776 610.58 925.688 611.424Z" fill="black"/>
<path d="M925.651 603.065C925.938 601.951 926.499 600.964 927.162 600.057C927.835 599.155 928.646 598.349 929.573 597.654C931.417 596.275 933.807 595.384 936.293 595.379C937.527 595.363 938.768 595.575 939.912 595.978C941.062 596.371 942.127 596.938 943.044 597.654C944.888 599.076 946.266 600.901 946.95 603.07C944.82 602.285 943.012 601.484 941.264 600.959C940.834 600.805 940.395 600.725 939.986 600.593C939.557 600.524 939.154 600.386 938.736 600.349C937.914 600.211 937.114 600.137 936.309 600.147C934.708 600.158 933.06 600.428 931.311 600.964C929.546 601.484 927.734 602.221 925.651 603.065Z" fill="black"/>
<path d="M1027.6 588.447C1027.6 588.447 1035 581.143 1042.27 580.501C1049.54 579.859 1058.13 588.447 1058.13 588.447C1058.13 588.447 1069.29 605.987 1069.36 612.644C1069.43 617.879 1065.97 623.326 1060.26 626.975C1056.17 629.595 1050.91 631.282 1044.97 631.282C1030.78 631.282 1022.56 625.501 1021.27 616.5C1019.97 607.499 1027.6 588.447 1027.6 588.447Z" fill="black" stroke="#B2B2B2" stroke-miterlimit="10"/>
<path d="M1021.27 620.218C1022.56 629.219 1030.78 635 1044.97 635C1050.91 635 1056.17 633.313 1060.26 630.693C1065.97 627.044 1069.43 621.597 1069.36 616.362C1069.29 609.705 1058.13 592.165 1058.13 592.165L1058.04 592.074C1057.48 591.533 1054.41 588.632 1050.59 586.505C1047.98 585.063 1045.03 583.975 1042.27 584.219C1035 584.861 1027.6 592.165 1027.6 592.165C1027.6 592.165 1019.97 611.217 1021.27 620.218Z" fill="#EC661A"/>
<path d="M1050.59 586.505C1050.69 594.557 1051.7 621.289 1060.26 630.693C1065.97 627.044 1069.43 621.597 1069.36 616.362C1069.29 609.705 1058.13 592.165 1058.13 592.165L1058.04 592.075C1057.48 591.534 1054.41 588.632 1050.59 586.505Z" fill="#82368C"/>
<path d="M1054.76 611.424C1054.48 610.31 1053.91 609.323 1053.25 608.416C1052.58 607.515 1051.77 606.708 1050.84 606.014C1049 604.635 1046.61 603.743 1044.12 603.738C1042.89 603.722 1041.65 603.934 1040.5 604.337C1039.35 604.73 1038.29 605.298 1037.37 606.014C1035.53 607.435 1034.15 609.26 1033.46 611.429C1035.59 610.644 1037.4 609.843 1039.15 609.318C1039.58 609.164 1040.02 609.085 1040.43 608.952C1040.86 608.883 1041.26 608.745 1041.68 608.708C1042.5 608.57 1043.3 608.496 1044.11 608.506C1045.71 608.517 1047.35 608.788 1049.1 609.323C1050.87 609.843 1052.68 610.58 1054.76 611.424Z" fill="black"/>
<path d="M1054.8 603.065C1054.52 601.951 1053.96 600.964 1053.29 600.057C1052.62 599.155 1051.81 598.349 1050.88 597.654C1049.04 596.275 1046.65 595.384 1044.16 595.379C1042.93 595.363 1041.69 595.575 1040.54 595.978C1039.39 596.371 1038.33 596.938 1037.41 597.654C1035.57 599.076 1034.19 600.901 1033.51 603.07C1035.64 602.285 1037.44 601.484 1039.19 600.959C1039.62 600.805 1040.06 600.725 1040.47 600.593C1040.9 600.524 1041.3 600.386 1041.72 600.349C1042.54 600.211 1043.34 600.137 1044.15 600.147C1045.75 600.158 1047.4 600.428 1049.15 600.964C1050.91 601.484 1052.72 602.221 1054.8 603.065Z" fill="black"/>
</g>
<defs>
<clipPath id="clip0_0_1">
<rect width="731" height="421" fill="white" transform="translate(0 97)"/>
</clipPath>
<clipPath id="clip1_0_1">
<rect width="331" height="635" fill="white" transform="translate(869)"/>
</clipPath>
</defs>
</svg>
