<svg width="1214" height="672" viewBox="0 0 1214 672" fill="none" xmlns="http://www.w3.org/2000/svg">
<g clip-path="url(#clip0_0_1)">
<path d="M95.2256 526.588C97.9488 526.588 100.265 525.651 102.175 523.76C104.085 521.869 105.04 519.571 105.04 516.849V504.795C105.04 502.073 104.085 499.758 102.175 497.849C100.265 495.94 97.9488 494.986 95.2256 494.986H16.3926V526.588H95.2256ZM122.9 573H105.181L89.2486 542.989H16.3926V573H0V478.602H95.2256C100.053 478.602 104.439 479.786 108.4 482.155C112.343 484.523 115.509 487.687 117.843 491.628C120.195 495.569 121.362 499.97 121.362 504.795V516.849C121.362 522.028 119.947 526.764 117.135 531.059C114.324 535.372 110.522 538.588 105.747 540.745L122.9 573Z" fill="#1C5FAB"/>
<path d="M204.103 495.198L233.086 538.641H175.12L204.103 495.198ZM195.403 478.602L132.449 573H152.202L164.191 556.104H243.944L255.986 573H275.686L212.715 478.602H195.403Z" fill="#1C5FAB"/>
<path d="M382.989 573H310.999C306.172 573 301.769 571.833 297.79 569.483C293.811 567.132 290.646 563.986 288.311 560.009C285.96 556.033 284.792 551.632 284.792 546.807V504.813C284.792 499.988 285.96 495.605 288.311 491.646C290.663 487.686 293.829 484.54 297.79 482.172C301.751 479.804 306.172 478.62 310.999 478.62H382.989C387.816 478.62 392.22 479.804 396.198 482.172C400.16 484.54 403.325 487.704 405.677 491.646C408.029 495.587 409.196 499.988 409.196 504.813V507.057H392.803V504.813C392.803 502.091 391.866 499.776 389.974 497.867C388.082 495.958 385.765 495.004 382.989 495.004H310.999C308.241 495.004 305.907 495.958 304.014 497.867C302.122 499.776 301.185 502.091 301.185 504.813V546.807C301.185 549.564 302.122 551.897 304.014 553.788C305.907 555.679 308.223 556.616 310.999 556.616H382.989C385.748 556.616 388.082 555.679 389.974 553.788C391.866 551.897 392.803 549.582 392.803 546.807V542.989H409.196V546.807C409.196 551.632 408.029 556.033 405.677 560.009C403.325 563.986 400.16 567.15 396.198 569.483C392.22 571.833 387.816 573 382.989 573Z" fill="#1C5FAB"/>
<path d="M442.317 478.602H425.925V573H442.317V478.602Z" fill="#1C5FAB"/>
<path d="M570.628 478.602V551.013L477.56 478.602H462.618V573H479.01V500.589L572.061 573H587.021V478.602H570.628Z" fill="#1C5FAB"/>
<path d="M704.775 573H632.786C627.958 573 623.555 571.833 619.576 569.483C615.615 567.132 612.45 563.986 610.098 560.009C607.746 556.033 606.579 551.632 606.579 546.807V504.813C606.579 499.988 607.746 495.605 610.098 491.646C612.45 487.686 615.615 484.54 619.576 482.172C623.555 479.804 627.958 478.62 632.786 478.62H704.775C709.603 478.62 714.006 479.804 717.967 482.172C721.946 484.54 725.111 487.704 727.445 491.646C729.797 495.587 730.964 499.988 730.964 504.813V507.057H714.572V504.813C714.572 502.091 713.635 499.776 711.743 497.867C709.85 495.958 707.534 495.004 704.758 495.004H632.768C630.009 495.004 627.675 495.958 625.783 497.867C623.891 499.776 622.954 502.091 622.954 504.813V546.807C622.954 549.564 623.891 551.897 625.783 553.788C627.675 555.679 629.992 556.616 632.768 556.616H704.758C707.516 556.616 709.85 555.679 711.743 553.788C713.635 551.897 714.572 549.582 714.572 546.807V534.028H666.561V517.644H730.964V546.807C730.964 551.632 729.797 556.033 727.445 560.009C725.094 563.986 721.928 567.15 717.967 569.483C714.006 571.833 709.603 573 704.775 573Z" fill="#1C5FAB"/>
<path d="M136.711 200.692C138.532 194.383 135.986 191.219 129.072 191.219H48.8418L73.9523 152H163.183C173.546 152 180.867 155.075 185.146 161.191C189.426 167.324 190.186 174.976 187.463 184.185L123.059 400.853C121.415 406.633 119.01 411.405 115.827 415.187C112.644 418.969 109.054 421.991 105.04 424.254C101.043 426.516 96.7287 428.089 92.0779 428.99C87.4448 429.892 82.7587 430.351 78.0195 430.351H0L68.7711 197.706H114.607L57.0292 391.115H73.4042C77.9488 391.115 80.955 388.764 82.405 384.08L136.711 200.692Z" fill="#E94E1B"/>
<path d="M267.94 152L200.265 379.75C198.992 383.904 199.045 386.837 200.407 388.534C201.769 390.249 204.545 391.097 208.736 391.097H218.833L290.045 152H335.898L254.571 425.473L200.619 454.724L207.905 430.334H187.162C180.071 430.334 173.829 429.521 168.471 427.895C163.095 426.269 158.868 423.617 155.791 419.924C152.697 416.23 150.875 411.405 150.327 405.448C149.779 399.492 150.787 392.193 153.333 383.532L222.105 152H267.94Z" fill="#E94E1B"/>
<path d="M360.991 152H407.215L367.268 282.913H369.726L429.939 152H481.044L412.556 285.9C416.552 286.271 419.788 287.349 422.246 289.152C424.687 290.955 426.473 293.217 427.569 295.921C428.665 298.625 429.107 301.736 428.931 305.253C428.754 308.77 428.117 312.429 427.021 316.211L392.909 430.369H346.791L379.806 320.011C380.902 316.406 380.991 313.648 380.071 311.757C379.152 309.866 376.711 308.912 372.715 308.912H314.324L360.991 152ZM324.156 430.334H278.32L312.432 315.381H358.55L324.156 430.334Z" fill="#E94E1B"/>
<path d="M584.457 268.579L612.291 175.259C613.741 170.381 615.65 166.422 618.02 163.365C620.39 160.307 623.06 157.903 626.066 156.189C629.072 154.474 632.291 153.343 635.757 152.813C639.205 152.265 642.671 152 646.119 152H730.982L708.33 228.83L662.211 239.099L677.49 187.985H660.301C657.755 187.985 655.88 188.391 654.713 189.204C653.528 190.017 652.574 191.679 651.849 194.206L630.027 268.597H584.457V268.579ZM657.048 275.083C662.317 275.083 667.003 275.808 671.106 277.24C675.191 278.689 678.462 280.986 680.92 284.132C683.378 287.296 684.828 291.308 685.288 296.169C685.73 301.029 684.97 306.897 682.972 313.754L655.138 407.622C653.67 412.5 651.636 416.406 649.002 419.393C646.349 422.363 643.449 424.66 640.266 426.286C637.083 427.912 633.723 428.99 630.169 429.538C626.614 430.086 623.113 430.351 619.665 430.351H565.907C558.091 430.351 552.025 427.559 547.764 421.974C543.484 416.389 542.724 409.072 545.447 400.058L559.099 353.521H603.431L592.379 385.706C591.654 388.057 591.831 389.542 592.927 390.16C594.024 390.796 595.385 391.115 597.012 391.115H607.375C609.921 391.115 611.831 390.708 613.104 389.895C614.377 389.082 615.385 387.421 616.11 384.893L637.932 312.676C638.285 311.598 638.338 310.697 638.073 309.972C637.808 309.248 636.747 308.894 634.943 308.894H572.45L582.547 275.083H657.048Z" fill="#E94E1B"/>
<path d="M493.316 197.723L424.28 430.351H508.329L530.027 391.132H481.875L506.137 308.912H550.345L562.087 268.88H518.161L539.169 197.741H493.316V197.723ZM498.515 152L473.422 191.219H584.757L596.199 152H498.515Z" fill="#E94E1B"/>
</g>
<g clip-path="url(#clip1_0_1)">
<path d="M1057.67 377.366C1057.67 377.366 1077.26 373.824 1079.9 368.919C1079.9 368.919 1080.24 372.777 1078.23 374.203C1078.23 374.203 1089.07 368.568 1089.68 364.358C1089.68 364.358 1089.68 369.762 1088.05 370.865C1088.05 370.865 1097.21 360.245 1097.41 355.311C1097.41 355.311 1098.23 358.525 1097.41 361.173C1097.41 361.173 1102.3 350.988 1100.67 342.841C1100.67 342.841 1102.4 344.47 1102.66 346.1C1102.66 346.1 1104.37 330.229 1102.66 324.389C1102.66 324.389 1105.42 328.463 1105.29 332.13C1105.29 332.13 1103.4 317.871 1105.29 310.81C1105.29 310.81 1106.24 313.798 1106.78 316.106C1106.78 316.106 1108.82 278.152 1150.56 257.579C1150.56 257.579 1185.51 236.395 1192.57 244.339C1199.63 252.283 1186.13 256.968 1166.51 266.541C1146.89 276.115 1124.5 304.009 1123.07 314.505C1123.07 314.505 1126.43 312.983 1126.84 311.964C1126.84 311.964 1124.39 322.222 1121.34 326.104C1121.34 326.104 1123.27 326.63 1124.5 324.695C1124.5 324.695 1122.15 334.574 1119.61 336.713C1119.61 336.713 1122.77 334.778 1123.58 332.537C1123.58 332.537 1120.83 346.286 1118.08 349.342C1118.08 349.342 1122.15 346.49 1122.56 345.064C1122.56 345.064 1119.1 355.452 1112.18 362.785C1112.18 362.785 1117.37 360.035 1118.18 358.711C1118.18 358.711 1111.16 368.896 1103.62 373.377C1103.62 373.377 1106.37 373.479 1108.1 371.951C1108.1 371.951 1099.14 381.117 1089.88 383.969C1089.88 383.969 1093.95 384.478 1095.89 383.256C1095.89 383.256 1087.71 390.759 1066.67 392.117L1057.67 377.366Z" fill="#F9B233"/>
<path d="M1174.74 245.561C1174.74 245.561 1173.05 252.775 1179.64 260.249L1173.81 263.039C1173.81 263.039 1167.69 257.681 1167.44 248.645L1174.74 245.561Z" fill="black"/>
<path d="M1161.39 251.598C1161.39 251.598 1159.62 259.208 1166.21 266.683L1160.83 269.755C1160.83 269.755 1154.36 264.55 1154.1 255.519L1161.39 251.598Z" fill="black"/>
<path d="M1127.2 299.301C1128 297.688 1128.14 296.129 1127.51 295.82C1126.89 295.512 1125.74 296.569 1124.94 298.183C1124.14 299.796 1124 301.354 1124.62 301.663C1125.25 301.972 1126.4 300.914 1127.2 299.301Z" fill="black"/>
<path d="M1118.85 309.536C1119.65 307.923 1119.79 306.365 1119.16 306.056C1118.54 305.747 1117.39 306.804 1116.59 308.418C1115.79 310.031 1115.65 311.59 1116.28 311.899C1116.9 312.207 1118.05 311.15 1118.85 309.536Z" fill="black"/>
<path d="M1111.31 317.344C1111.72 315.591 1111.5 314.042 1110.82 313.882C1110.15 313.723 1109.26 315.015 1108.85 316.767C1108.44 318.519 1108.66 320.069 1109.34 320.228C1110.01 320.387 1110.9 319.096 1111.31 317.344Z" fill="black"/>
<path d="M1117.72 323.709C1118.13 321.957 1117.92 320.407 1117.24 320.248C1116.56 320.089 1115.68 321.38 1115.27 323.132C1114.85 324.884 1115.07 326.434 1115.75 326.593C1116.43 326.753 1117.31 325.461 1117.72 323.709Z" fill="black"/>
<path d="M1116.64 339.642C1117.33 339.613 1117.84 338.131 1117.76 336.333C1117.69 334.535 1117.06 333.101 1116.36 333.13C1115.67 333.159 1115.16 334.64 1115.24 336.439C1115.32 338.237 1115.94 339.671 1116.64 339.642Z" fill="black"/>
<path d="M1114.3 346.942C1114.75 346.923 1115.07 345.977 1115.02 344.828C1114.97 343.679 1114.57 342.762 1114.13 342.781C1113.68 342.799 1113.36 343.746 1113.41 344.895C1113.46 346.044 1113.86 346.96 1114.3 346.942Z" fill="black"/>
<path d="M1109.05 334.703C1109.75 334.674 1110.25 333.192 1110.18 331.394C1110.1 329.596 1109.47 328.161 1108.78 328.19C1108.08 328.22 1107.58 329.701 1107.65 331.499C1107.73 333.298 1108.36 334.732 1109.05 334.703Z" fill="black"/>
<path d="M1106.66 350.438C1107.36 350.408 1107.86 348.927 1107.78 347.129C1107.71 345.33 1107.08 343.896 1106.39 343.925C1105.69 343.954 1105.19 345.436 1105.26 347.234C1105.34 349.032 1105.96 350.467 1106.66 350.438Z" fill="black"/>
<path d="M1109.19 364.129C1110.09 362.57 1110.33 361.024 1109.73 360.675C1109.13 360.327 1107.91 361.308 1107.01 362.867C1106.11 364.426 1105.87 365.972 1106.47 366.32C1107.08 366.669 1108.3 365.687 1109.19 364.129Z" fill="black"/>
<path d="M1093.98 378.767C1094.88 377.208 1095.12 375.662 1094.52 375.314C1093.91 374.965 1092.7 375.947 1091.8 377.505C1090.9 379.064 1090.66 380.61 1091.26 380.959C1091.86 381.307 1093.08 380.326 1093.98 378.767Z" fill="black"/>
<path d="M1082.5 379.159C1082.81 377.385 1082.5 375.851 1081.82 375.732C1081.13 375.613 1080.32 376.954 1080.02 378.727C1079.71 380.5 1080.01 382.034 1080.7 382.154C1081.39 382.273 1082.19 380.932 1082.5 379.159Z" fill="black"/>
<path d="M1099.42 364.315C1100.12 363.103 1100.3 361.9 1099.83 361.628C1099.36 361.356 1098.41 362.119 1097.71 363.331C1097.01 364.543 1096.83 365.747 1097.3 366.018C1097.77 366.29 1098.72 365.528 1099.42 364.315Z" fill="black"/>
<path d="M1119.87 295.553C1120.42 294.438 1120.52 293.362 1120.09 293.149C1119.66 292.935 1118.86 293.666 1118.31 294.781C1117.76 295.896 1117.66 296.972 1118.09 297.186C1118.52 297.399 1119.32 296.668 1119.87 295.553Z" fill="black"/>
<path d="M1064.3 346.054C1064.3 346.054 1079.92 393.673 1078.09 432.17C1076.25 470.668 1064.04 550.108 1064.04 550.108C1064.04 550.108 1061.14 603.61 1061.75 627.442H1029.17C1029.17 627.442 1028.61 581.883 1026.16 572.717C1023.72 563.551 1013.94 537.886 1015.78 524.442C1017.61 510.999 1005.39 478.612 1012.72 448.058C1012.72 448.058 1017.27 436.244 1008.85 436.787C1000.44 437.33 998.537 460.687 998.537 460.687C998.537 460.687 985.641 510.116 981.161 516.634C981.161 516.634 983.401 536.8 971.184 561.65C958.966 586.5 951.839 616.85 950.21 627.442H917.63L932.699 502.783C932.699 502.783 922.11 435.973 940.844 400.123L948.989 362.644L1064.3 346.054Z" fill="#0968B2"/>
<path d="M929.723 461.587L960.889 485.758L998.543 460.687C998.543 460.687 985.285 512.249 981.167 516.634C981.167 516.634 981.059 539.499 972.671 558.504C972.671 558.504 952.88 599.045 950.216 627.442H917.636L932.704 502.783C932.699 502.783 928.388 468.988 929.723 461.587Z" fill="#EC661A"/>
<path d="M1010.95 458.424L1072.33 421.528C1072.33 421.528 1069.56 467.573 1066.57 482.437C1063.58 497.301 1062.15 510.371 1062.15 510.371L1015.26 512.679C1015.26 512.679 1007.59 467.217 1010.95 458.424Z" fill="#EC661A"/>
<path d="M1039.4 478.748C1039.4 478.748 1075.64 472.637 1073.4 498.302C1073.4 498.302 1070.91 517.432 1065.13 542.803C1065.13 542.803 1060.85 587.06 1060.61 607.084C1060.61 607.084 1046.91 615.826 1029.1 609.314L1026.16 572.723C1026.16 572.723 1015.3 541.083 1015.61 530.299C1015.92 519.514 1003.96 492.197 1013.53 486.697C1023.11 481.192 1039.4 478.748 1039.4 478.748Z" fill="black"/>
<path d="M1042.44 611.984C1038.39 611.984 1033.84 611.339 1029.01 609.574L1028.84 609.512L1025.89 572.774C1025.47 571.574 1015.03 540.84 1015.33 530.282C1015.43 526.672 1014.13 521.104 1012.75 515.22C1010 503.491 1006.89 490.194 1013.4 486.448C1022.87 481.005 1039.09 478.51 1039.35 478.471C1039.7 478.414 1059.51 475.228 1068.87 483.874C1072.6 487.32 1074.22 492.18 1073.69 498.33C1073.66 498.534 1071.13 517.777 1065.41 542.865C1065.37 543.273 1061.13 587.304 1060.9 607.085V607.237L1060.77 607.322C1060.67 607.384 1053.28 611.984 1042.44 611.984ZM1029.37 609.105C1045.85 615.051 1058.91 607.764 1060.33 606.921C1060.59 587.044 1064.81 543.216 1064.86 542.775C1070.57 517.675 1073.1 498.455 1073.13 498.268C1073.65 492.316 1072.09 487.608 1068.49 484.293C1059.3 475.8 1039.65 478.997 1039.45 479.031H1039.44C1039.28 479.053 1023.1 481.532 1013.68 486.941C1007.53 490.477 1010.6 503.553 1013.3 515.095C1014.69 521.019 1016 526.621 1015.9 530.304C1015.59 540.919 1026.32 572.316 1026.43 572.632L1026.44 572.7L1029.37 609.105Z" fill="#B2B2B2"/>
<path d="M1041.66 499.049C1048.93 499.049 1054.83 496.252 1054.83 492.802C1054.83 489.353 1048.93 486.556 1041.66 486.556C1034.39 486.556 1028.49 489.353 1028.49 492.802C1028.49 496.252 1034.39 499.049 1041.66 499.049Z" fill="#B2B2B2"/>
<path d="M1041.66 499.332C1034.24 499.332 1028.21 496.401 1028.21 492.802C1028.21 489.204 1034.24 486.273 1041.66 486.273C1049.08 486.273 1055.11 489.204 1055.11 492.802C1055.11 496.401 1049.08 499.332 1041.66 499.332ZM1041.66 486.839C1034.56 486.839 1028.78 489.515 1028.78 492.802C1028.78 496.09 1034.56 498.766 1041.66 498.766C1048.76 498.766 1054.55 496.09 1054.55 492.802C1054.55 489.515 1048.77 486.839 1041.66 486.839Z" fill="black"/>
<path d="M1020.13 499.587C1023.07 494.492 1023.76 489.379 1021.66 488.168C1019.56 486.957 1015.48 490.107 1012.54 495.202C1009.6 500.298 1008.91 505.41 1011.01 506.621C1013.1 507.832 1017.19 504.683 1020.13 499.587Z" fill="black"/>
<path d="M1012.04 507.163C1011.62 507.163 1011.23 507.067 1010.88 506.869C1008.62 505.562 1009.24 500.373 1012.3 495.066C1015.37 489.759 1019.54 486.618 1021.81 487.925C1024.08 489.232 1023.45 494.421 1020.39 499.728C1017.79 504.221 1014.4 507.163 1012.04 507.163ZM1020.65 488.191C1018.55 488.191 1015.23 491.134 1012.8 495.343C1009.99 500.209 1009.24 505.262 1011.17 506.376C1013.09 507.485 1017.09 504.311 1019.9 499.445C1022.71 494.574 1023.46 489.527 1021.54 488.412C1021.27 488.259 1020.98 488.191 1020.65 488.191Z" fill="#B2B2B2"/>
<path d="M1071.9 507.187C1073.99 505.976 1073.31 500.863 1070.37 495.768C1067.43 490.672 1063.34 487.523 1061.25 488.734C1059.15 489.945 1059.83 495.057 1062.77 500.153C1065.72 505.248 1069.8 508.398 1071.9 507.187Z" fill="black"/>
<path d="M1070.87 507.74C1069.91 507.74 1068.74 507.242 1067.48 506.269C1065.73 504.916 1063.97 502.8 1062.53 500.305C1061.09 497.81 1060.13 495.23 1059.84 493.034C1059.54 490.754 1059.99 489.147 1061.11 488.502C1062.23 487.857 1063.84 488.27 1065.67 489.673C1067.42 491.026 1069.17 493.142 1070.61 495.637C1072.06 498.132 1073.01 500.712 1073.31 502.908C1073.61 505.188 1073.17 506.795 1072.05 507.44C1071.69 507.644 1071.3 507.74 1070.87 507.74ZM1062.27 488.774C1061.94 488.774 1061.64 488.847 1061.39 488.989C1060.5 489.504 1060.14 490.952 1060.41 492.961C1060.69 495.083 1061.63 497.589 1063.03 500.022C1064.43 502.455 1066.14 504.515 1067.83 505.822C1069.43 507.055 1070.86 507.468 1071.76 506.953C1072.66 506.438 1073.02 504.99 1072.75 502.981C1072.46 500.859 1071.53 498.353 1070.13 495.92C1068.73 493.487 1067.02 491.427 1065.33 490.12C1064.17 489.238 1063.11 488.774 1062.27 488.774Z" fill="#B2B2B2"/>
<path d="M1065.79 561.605L1064.4 561.486C1063.92 561.447 1063.56 561.028 1063.58 560.541L1064.35 548.122C1064.38 547.652 1064.77 547.284 1065.24 547.284H1066.52C1067.03 547.284 1067.44 547.714 1067.41 548.224L1066.75 560.762C1066.73 561.266 1066.29 561.65 1065.79 561.605Z" fill="black"/>
<path d="M1065.87 561.894C1065.83 561.894 1065.8 561.894 1065.77 561.888L1064.38 561.769C1063.74 561.712 1063.27 561.169 1063.31 560.524L1064.07 548.105C1064.11 547.488 1064.62 547.001 1065.24 547.001H1066.53C1066.86 547.001 1067.16 547.132 1067.38 547.369C1067.61 547.607 1067.72 547.912 1067.71 548.241L1067.05 560.779C1067.03 561.101 1066.89 561.39 1066.64 561.605C1066.42 561.792 1066.15 561.894 1065.87 561.894ZM1065.81 561.322C1065.98 561.339 1066.14 561.282 1066.26 561.175C1066.39 561.067 1066.46 560.915 1066.47 560.745L1067.14 548.207C1067.15 548.037 1067.08 547.878 1066.97 547.754C1066.85 547.63 1066.7 547.562 1066.53 547.562H1065.24C1064.92 547.562 1064.65 547.811 1064.64 548.133L1063.87 560.553C1063.85 560.881 1064.1 561.169 1064.43 561.198L1065.81 561.322Z" fill="#B2B2B2"/>
<path d="M1038.82 509.302C1038.82 509.302 1065.5 505.024 1065.5 518.875C1065.5 532.726 1069.26 545.253 1055.52 546.679C1041.77 548.105 1015.1 553.446 1016.22 536.772C1017.34 520.097 1012.15 509.607 1038.82 509.302Z" fill="black"/>
<path d="M1033.89 548.902C1027.65 548.902 1021.96 547.974 1018.72 544.908C1016.64 542.939 1015.7 540.189 1015.94 536.749C1016.12 534.016 1016.13 531.498 1016.14 529.059C1016.21 516.725 1016.25 509.273 1038.8 509.013C1039.75 508.86 1055.95 506.399 1062.8 512.249C1064.78 513.935 1065.78 516.159 1065.78 518.869C1065.78 521.421 1065.9 523.916 1066.03 526.327C1066.56 536.754 1067.02 545.762 1055.55 546.95C1054.02 547.109 1052.33 547.318 1050.53 547.539C1045.44 548.167 1039.45 548.902 1033.89 548.902ZM1047.5 508.968C1042.78 508.968 1038.95 509.562 1038.87 509.579L1038.83 509.584C1016.81 509.839 1016.78 517.076 1016.72 529.071C1016.7 531.515 1016.69 534.044 1016.51 536.794C1016.29 540.059 1017.17 542.656 1019.12 544.506C1025.04 550.108 1039.74 548.303 1050.47 546.99C1052.27 546.769 1053.96 546.56 1055.5 546.402C1066.43 545.264 1066.01 536.924 1065.47 526.366C1065.35 523.945 1065.22 521.444 1065.22 518.881C1065.22 516.346 1064.29 514.264 1062.45 512.691C1058.92 509.686 1052.68 508.968 1047.5 508.968Z" fill="#B2B2B2"/>
<path d="M1052.46 537.003H1029.76C1025.15 537.003 1021.41 533.263 1021.41 528.652C1021.41 524.041 1025.15 520.301 1029.76 520.301H1052.46C1057.07 520.301 1060.81 524.041 1060.81 528.652C1060.81 533.263 1057.08 537.003 1052.46 537.003Z" fill="#B2B2B2"/>
<path d="M1052.46 537.23H1029.76C1025.03 537.23 1021.18 533.382 1021.18 528.647C1021.18 523.911 1025.03 520.063 1029.76 520.063H1052.46C1057.19 520.063 1061.04 523.911 1061.04 528.647C1061.04 533.382 1057.2 537.23 1052.46 537.23ZM1029.76 520.527C1025.29 520.527 1021.64 524.171 1021.64 528.647C1021.64 533.128 1025.29 536.766 1029.76 536.766H1052.46C1056.94 536.766 1060.58 533.122 1060.58 528.647C1060.58 524.171 1056.94 520.527 1052.46 520.527H1029.76Z" fill="black"/>
<path d="M1050.27 560.835H1033.37C1031.26 560.835 1029.56 559.126 1029.56 557.016V555.896C1029.56 553.785 1031.26 552.076 1033.37 552.076H1050.27C1052.38 552.076 1054.09 553.785 1054.09 555.896V557.016C1054.09 559.121 1052.38 560.835 1050.27 560.835Z" fill="#B2B2B2"/>
<path d="M1050.27 561.062H1033.37C1031.14 561.062 1029.32 559.245 1029.32 557.01V555.89C1029.32 553.655 1031.14 551.839 1033.37 551.839H1050.27C1052.51 551.839 1054.32 553.655 1054.32 555.89V557.01C1054.32 559.245 1052.51 561.062 1050.27 561.062ZM1033.37 552.303C1031.39 552.303 1029.79 553.915 1029.79 555.89V557.01C1029.79 558.991 1031.4 560.598 1033.37 560.598H1050.27C1052.25 560.598 1053.86 558.985 1053.86 557.01V555.89C1053.86 553.91 1052.25 552.303 1050.27 552.303H1033.37Z" fill="black"/>
<path d="M1043.71 564.502C1043.71 564.502 1029.66 564.502 1031.29 574.585C1032.92 584.667 1034.85 583.547 1034.34 589.861C1033.83 596.176 1036.89 606.768 1046.56 605.036C1056.23 603.305 1057.96 601.574 1055.93 588.537C1055.93 588.537 1055.61 584.973 1056.68 581.001C1057.76 577.029 1059.08 561.854 1043.71 564.502Z" fill="#B2B2B2"/>
<path d="M1044.51 605.455C1042.2 605.455 1040.19 604.691 1038.52 603.169C1035.01 599.989 1033.78 594.031 1034.11 589.839C1034.39 586.467 1033.96 585.256 1033.24 583.253C1032.64 581.567 1031.81 579.258 1031.06 574.618C1030.65 572.112 1031.17 569.996 1032.59 568.327C1035.95 564.377 1043.16 564.27 1043.69 564.264C1048.6 563.421 1052.29 564.309 1054.64 566.895C1058.5 571.133 1057.59 578.556 1056.91 581.057C1055.86 584.944 1056.16 588.475 1056.16 588.515C1058.23 601.789 1056.2 603.543 1046.6 605.263C1045.88 605.393 1045.18 605.455 1044.51 605.455ZM1047.06 564.423C1046.03 564.423 1044.93 564.524 1043.75 564.728L1043.71 564.734C1043.63 564.734 1036.21 564.779 1032.94 568.632C1031.61 570.194 1031.13 572.18 1031.51 574.551C1032.25 579.145 1033.07 581.431 1033.67 583.106C1034.4 585.165 1034.85 586.416 1034.57 589.884C1034.24 593.964 1035.43 599.757 1038.82 602.835C1040.86 604.697 1043.45 605.359 1046.51 604.816C1056.04 603.113 1057.74 601.636 1055.69 588.577C1055.69 588.526 1055.38 584.911 1056.46 580.944C1057.07 578.675 1057.99 571.28 1054.29 567.212C1052.61 565.356 1050.18 564.423 1047.06 564.423Z" fill="#B2B2B2"/>
<path d="M1044.22 567.354C1045.23 572.927 1045.83 578.557 1046.32 584.192C1046.72 589.833 1047.15 595.514 1046.67 601.166C1045.76 589.895 1044.47 578.664 1044.22 567.354Z" fill="#575756"/>
<path d="M1049.1 575.196C1049.19 573.459 1051.04 571.405 1052.87 572.14C1051.38 573.057 1050.67 574.262 1049.1 575.196Z" fill="#575756"/>
<path d="M1050.33 581.493C1050.41 579.756 1052.27 577.702 1054.09 578.438C1052.6 579.36 1051.89 580.565 1050.33 581.493Z" fill="#575756"/>
<path d="M1050.33 588.419C1050.41 586.682 1052.27 584.628 1054.09 585.363C1052.6 586.286 1051.89 587.485 1050.33 588.419Z" fill="#575756"/>
<path d="M1050.33 595.338C1050.41 593.601 1052.27 591.548 1054.09 592.283C1052.6 593.205 1051.89 594.405 1050.33 595.338Z" fill="#575756"/>
<path d="M1040.41 575.891C1038.73 575.195 1037.85 574.103 1036.24 573.408C1037.94 572.417 1040.08 574.183 1040.41 575.891Z" fill="#575756"/>
<path d="M1040.1 582.302C1038.42 581.606 1037.55 580.514 1035.94 579.818C1037.64 578.834 1039.77 580.593 1040.1 582.302Z" fill="#575756"/>
<path d="M1041.1 589.154C1039.42 588.458 1038.54 587.366 1036.93 586.67C1038.64 585.68 1040.77 587.445 1041.1 589.154Z" fill="#575756"/>
<path d="M1042.1 596.006C1040.42 595.31 1039.54 594.218 1037.93 593.522C1039.64 592.532 1041.76 594.292 1042.1 596.006Z" fill="#575756"/>
<path d="M1019.21 549.926C1019.21 549.926 1014.62 548.648 1015.17 552.382C1015.71 556.116 1015.91 569.22 1024.53 567.048L1019.21 549.926Z" fill="black"/>
<path d="M1022.72 567.568C1021.56 567.568 1020.51 567.251 1019.61 566.618C1016.14 564.19 1015.48 557.848 1015.08 554.051C1015.01 553.406 1014.96 552.852 1014.89 552.422C1014.74 551.364 1014.96 550.571 1015.55 550.057C1016.78 548.97 1019.19 549.627 1019.29 549.655L1019.44 549.694L1024.9 567.246L1024.61 567.319C1023.94 567.489 1023.32 567.568 1022.72 567.568ZM1017.58 549.994C1016.98 549.994 1016.34 550.102 1015.91 550.481C1015.48 550.86 1015.32 551.482 1015.45 552.337C1015.51 552.772 1015.57 553.338 1015.64 553.995C1016 557.446 1016.67 563.874 1019.93 566.154C1021.09 566.969 1022.52 567.195 1024.18 566.838L1018.98 550.164C1018.73 550.107 1018.18 549.994 1017.58 549.994Z" fill="#B2B2B2"/>
<path d="M1028.99 607.815L1028.24 592.283C1028.24 592.283 1023.24 591.452 1023.38 596.001C1023.52 600.555 1022.72 607.475 1028.99 607.815Z" fill="black"/>
<path d="M1029.29 608.114L1028.98 608.097C1023.18 607.781 1023.15 602.19 1023.12 597.698C1023.12 597.115 1023.12 596.549 1023.1 596.017C1023.06 594.671 1023.45 593.63 1024.25 592.928C1025.77 591.604 1028.19 591.989 1028.29 592.006L1028.52 592.045L1029.29 608.114ZM1027.37 592.509C1026.59 592.509 1025.43 592.645 1024.62 593.353C1023.95 593.935 1023.63 594.824 1023.67 595.995C1023.68 596.532 1023.68 597.104 1023.69 597.692C1023.71 602.077 1023.74 607.039 1028.7 607.509L1027.97 592.538C1027.83 592.521 1027.62 592.509 1027.37 592.509Z" fill="#B2B2B2"/>
<path d="M1061.33 590.099C1061.33 590.099 1066.82 588.6 1066.89 592.674C1066.96 596.747 1068.11 603.26 1060.7 603.198L1061.33 590.099Z" fill="black"/>
<path d="M1060.81 603.486C1060.77 603.486 1060.73 603.486 1060.7 603.486H1060.41L1061.06 589.884L1061.25 589.828C1061.38 589.794 1064.39 588.99 1066.07 590.263C1066.78 590.795 1067.15 591.61 1067.17 592.674C1067.18 593.104 1067.2 593.562 1067.22 594.037C1067.33 596.657 1067.46 599.91 1065.6 601.834C1064.54 602.949 1062.97 603.486 1060.81 603.486ZM1061.6 590.325L1061 602.915C1062.9 602.886 1064.27 602.4 1065.21 601.438C1066.9 599.69 1066.77 596.697 1066.66 594.054C1066.63 593.573 1066.62 593.109 1066.61 592.674C1066.59 591.791 1066.3 591.129 1065.74 590.705C1064.49 589.782 1062.27 590.178 1061.6 590.325Z" fill="#B2B2B2"/>
<path d="M1024.53 517.11C1034.37 513.506 1045.57 512.498 1055.78 514.999C1056.84 515.299 1057.88 515.644 1058.91 515.989C1057.83 515.82 1056.77 515.622 1055.7 515.429C1045.32 513.941 1034.76 514.948 1024.53 517.11Z" fill="#9D9D9C"/>
<path d="M1023.99 541.451C1036.03 542.712 1048.42 543.273 1060.13 539.719C1049.38 544.744 1035.33 544.274 1023.99 541.451Z" fill="#9D9D9C"/>
<path d="M1030.4 527.192C1037.8 524.522 1046.22 524.516 1053.62 527.192C1045.89 526.072 1038.14 526.066 1030.4 527.192Z" fill="#575756"/>
<path d="M1030.46 531C1037.85 528.33 1046.28 528.324 1053.67 531C1045.94 529.886 1038.19 529.88 1030.46 531Z" fill="#575756"/>
<path d="M951.093 481.973C951.093 481.973 984.351 479.121 979.464 508.996C974.577 538.871 958.287 578.438 958.287 578.438C958.287 578.438 958.152 604.589 948.921 607.305C939.69 610.021 917.97 611.515 918.377 601.738C918.784 591.961 927.472 505.324 927.472 505.324C927.472 505.324 922.585 483.331 951.093 481.973Z" fill="black"/>
<path d="M933.445 609.631C928.258 609.631 923.27 608.85 920.419 606.621C918.795 605.353 918.015 603.707 918.1 601.732C918.501 592.142 926.957 507.683 927.189 505.347C927.054 504.662 925.6 496.678 930.538 490.211C934.503 485.023 941.409 482.154 951.076 481.696C951.466 481.667 967.111 480.502 975.279 489.328C979.617 494.013 981.116 500.65 979.741 509.047C974.985 538.124 959.238 576.865 958.57 578.506C958.559 580.192 958.202 604.884 949 607.588C945.436 608.629 939.316 609.631 933.445 609.631ZM953.27 482.188C951.958 482.188 951.155 482.25 951.121 482.256H951.11C941.618 482.709 934.854 485.498 930.996 490.545C926.013 497.063 927.738 505.188 927.755 505.267L927.766 505.313L927.761 505.358C927.676 506.224 919.067 592.096 918.665 601.755C918.592 603.537 919.299 605.025 920.769 606.174C926.414 610.587 941.816 609.105 948.847 607.039C957.773 604.414 958.01 578.698 958.01 578.438L958.033 578.33C958.197 577.934 974.368 538.446 979.193 508.945C980.539 500.724 979.085 494.251 974.871 489.702C968.616 482.952 957.84 482.188 953.27 482.188Z" fill="#B2B2B2"/>
<path d="M948.106 497.391C953.354 497.391 957.608 495.58 957.608 493.346C957.608 491.112 953.354 489.3 948.106 489.3C942.858 489.3 938.604 491.112 938.604 493.346C938.604 495.58 942.858 497.391 948.106 497.391Z" fill="#B2B2B2"/>
<path d="M948.106 497.674C942.62 497.674 938.321 495.773 938.321 493.346C938.321 490.918 942.62 489.017 948.106 489.017C953.593 489.017 957.891 490.918 957.891 493.346C957.891 495.773 953.598 497.674 948.106 497.674ZM948.106 489.589C943.106 489.589 938.886 491.309 938.886 493.351C938.886 495.394 943.106 497.114 948.106 497.114C953.106 497.114 957.326 495.394 957.326 493.351C957.326 491.309 953.106 489.589 948.106 489.589Z" fill="black"/>
<path d="M979.6 495.62C979.6 495.62 986.591 497.589 989.849 495.62C989.849 495.62 989.917 504.718 985.369 504.243C980.822 503.768 963.649 502.342 964.328 495.62C965.007 488.898 979.6 495.62 979.6 495.62Z" fill="black"/>
<path d="M985.709 504.543C985.59 504.543 985.465 504.537 985.341 504.52L984.668 504.452C978.842 503.864 963.372 502.297 964.045 495.586C964.164 494.392 964.707 493.515 965.652 492.978C969.526 490.76 979.051 495.054 979.696 495.349C980.115 495.462 986.67 497.204 989.702 495.371L990.126 495.117L990.132 495.614C990.132 495.858 990.149 501.578 987.779 503.728C987.185 504.271 986.489 504.543 985.709 504.543ZM968.587 492.91C967.552 492.91 966.63 493.074 965.934 493.47C965.148 493.923 964.713 494.63 964.611 495.643C963.989 501.787 979.6 503.366 984.724 503.887L985.398 503.954C986.178 504.034 986.829 503.824 987.4 503.304C989.21 501.663 989.51 497.499 989.56 496.09C986.11 497.708 979.803 495.965 979.526 495.886L979.487 495.869C979.408 495.841 972.982 492.91 968.587 492.91Z" fill="#B2B2B2"/>
<path d="M925.198 491.784L924.112 501.561C924.112 501.561 935.923 502.444 935.787 495.45C935.651 488.457 925.198 491.784 925.198 491.784Z" fill="black"/>
<path d="M925.413 501.884C924.661 501.884 924.169 501.85 924.095 501.844L923.801 501.821L924.938 491.569L925.114 491.512C925.362 491.433 931.296 489.583 934.339 491.761C935.453 492.565 936.036 493.798 936.07 495.439C936.098 496.989 935.572 498.291 934.492 499.309C932.105 501.578 927.636 501.884 925.413 501.884ZM924.429 501.295C925.781 501.357 931.449 501.425 934.107 498.902C935.063 497.997 935.532 496.837 935.504 495.456C935.476 494.002 934.972 492.916 934.011 492.225C931.471 490.403 926.46 491.716 925.459 491.999L924.429 501.295Z" fill="#B2B2B2"/>
<path d="M979.091 539.419C979.091 539.419 980.878 552.767 973.491 555.2C966.104 557.627 963.514 557.339 963.514 557.339L965.652 547.358C965.652 547.358 977.258 546.153 979.091 539.419Z" fill="black"/>
<path d="M963.836 557.633C963.621 557.633 963.508 557.622 963.485 557.622L963.174 557.588L965.42 547.097L965.623 547.075C965.737 547.064 977.06 545.813 978.819 539.346L979.187 537.999L979.374 539.386C979.447 539.94 981.105 552.993 973.582 555.471C967.62 557.429 964.764 557.633 963.836 557.633ZM965.889 547.612L963.864 557.061C964.752 557.05 967.586 556.841 973.406 554.928C979.187 553.027 979.148 544.003 978.927 540.687C976.342 546.107 967.411 547.426 965.889 547.612Z" fill="#B2B2B2"/>
<path d="M923.671 543.805C923.671 543.805 919.333 542.792 918.926 548.382C918.518 553.972 918.682 556.366 922.449 556.405L923.671 543.805Z" fill="black"/>
<path d="M922.704 556.694H922.444C921.052 556.677 920.113 556.354 919.491 555.675C918.303 554.379 918.388 551.833 918.643 548.371C918.784 546.413 919.412 545.01 920.509 544.201C921.957 543.137 923.665 543.516 923.733 543.533L923.977 543.589L922.704 556.694ZM922.913 544.02C922.353 544.02 921.55 544.133 920.843 544.653C919.887 545.36 919.338 546.622 919.208 548.405C918.937 552.167 918.971 554.261 919.91 555.29C920.385 555.805 921.114 556.071 922.195 556.122L923.366 544.048C923.247 544.031 923.089 544.02 922.913 544.02Z" fill="#B2B2B2"/>
<path d="M957.354 590.065C957.354 590.065 965.912 589.103 966.014 581.018C966.116 572.932 965.742 573.311 959.718 574.873L958.293 578.443C958.287 578.438 957.569 588.679 957.354 590.065Z" fill="black"/>
<path d="M957.015 590.388L957.071 590.02C957.286 588.662 957.999 578.523 958.004 578.421L958.021 578.336L959.498 574.635L960.233 574.443C962.908 573.747 964.379 573.362 965.278 574.064C966.257 574.834 966.336 576.774 966.285 581.018C966.183 589.262 957.461 590.337 957.377 590.342L957.015 590.388ZM958.57 578.506C958.514 579.275 957.931 587.525 957.682 589.731C959.3 589.454 965.64 587.915 965.731 581.012C965.782 577.051 965.72 575.116 964.939 574.511C964.26 573.979 962.801 574.364 960.386 574.992L959.928 575.111L958.57 578.506Z" fill="#B2B2B2"/>
<path d="M946.222 500.39C946.222 500.39 976.902 497.267 974.458 516.142C972.015 535.017 967.399 543.708 945.136 541.264C922.873 538.82 920.566 533.931 922.195 522.932C923.824 511.932 919.887 499.982 946.222 500.39Z" fill="black"/>
<path d="M951.935 541.954C949.854 541.954 947.586 541.818 945.108 541.547C932.772 540.195 926.29 538.039 923.445 534.355C921.199 531.442 921.211 527.668 921.918 522.892C922.166 521.217 922.285 519.503 922.398 517.839C923.049 508.543 923.677 499.756 946.211 500.107C947.156 500.011 964.379 498.41 971.704 505.935C974.26 508.56 975.279 512.012 974.741 516.182C973.542 525.444 971.84 532.511 967.433 536.902C963.994 540.319 959.09 541.954 951.935 541.954ZM944.905 500.662C924.163 500.662 923.603 508.651 922.964 517.879C922.845 519.554 922.726 521.28 922.478 522.977C921.793 527.605 921.771 531.255 923.897 534.01C926.641 537.564 932.998 539.651 945.17 540.987C966.93 543.374 971.704 535.244 974.181 516.108C974.696 512.119 973.729 508.826 971.302 506.331C964.124 498.953 946.432 500.656 946.256 500.673H946.222C945.776 500.662 945.334 500.662 944.905 500.662Z" fill="#B2B2B2"/>
<path d="M945.68 510.574C945.68 510.574 970.114 508.747 968.078 520.934C966.042 533.116 956.404 528.946 945.137 528.658C933.869 528.369 927.218 528.126 927.625 520.029C928.032 511.932 930.34 509.624 945.68 510.574Z" fill="#B2B2B2"/>
<path d="M958.004 529.806C956.104 529.806 954.022 529.597 951.817 529.376C949.667 529.161 947.444 528.941 945.131 528.878C937.619 528.686 931.686 528.533 929.022 525.653C927.806 524.341 927.274 522.49 927.399 520.007C927.568 516.663 928.055 514.1 929.893 512.453C932.223 510.371 936.652 509.777 945.679 510.331C946.517 510.269 961.46 509.268 966.675 514.982C968.152 516.6 968.7 518.609 968.304 520.957C967.094 528.222 963.248 529.806 958.004 529.806ZM940.018 510.603C934.803 510.603 931.89 511.287 930.198 512.804C928.479 514.343 928.021 516.804 927.857 520.035C927.738 522.389 928.23 524.126 929.361 525.342C931.895 528.081 937.744 528.228 945.148 528.42C947.478 528.482 949.707 528.703 951.867 528.918C960.233 529.75 966.274 530.355 967.858 520.889C968.225 518.688 967.716 516.804 966.342 515.299C961.24 509.709 945.855 510.784 945.702 510.801H945.685H945.668C943.536 510.671 941.664 510.603 940.018 510.603Z" fill="black"/>
<path d="M934.684 506.772C943.773 502.5 955.25 503.858 964.311 507.587C963.067 507.355 961.845 507.049 960.618 506.8C952.105 505.103 943.146 504.39 934.684 506.772Z" fill="#9D9D9C"/>
<path d="M936.991 517.636C943.01 517.087 949.09 517.308 955.046 518.315C949.034 518.869 942.953 518.632 936.991 517.636Z" fill="#575756"/>
<path d="M936.991 523.068C943.015 522.564 949.096 522.83 955.046 523.882C949.028 524.392 942.947 524.109 936.991 523.068Z" fill="#575756"/>
<path d="M928.134 532.573C937.698 535.64 947.88 535.991 957.835 535.419C959.266 535.334 960.697 535.187 962.139 535.119C951.285 537.603 938.292 537.558 928.134 532.573Z" fill="#9D9D9C"/>
<path d="M937.942 557.967C937.942 557.967 953.87 555.93 949.164 574.771C944.458 593.613 943.236 602.982 934.48 602.88C925.724 602.779 922.749 605.325 923.665 587.604C924.593 569.877 923.484 556.439 937.942 557.967Z" fill="#B2B2B2"/>
<path d="M929.718 603.186C927.727 603.186 926.216 602.977 925.153 601.89C923.45 600.148 922.987 596.272 923.439 587.598C923.535 585.782 923.609 584.011 923.677 582.296C924.107 571.886 924.446 563.664 928.852 559.856C930.985 558.018 933.954 557.322 937.936 557.74C938.445 557.678 944.339 557.078 947.818 560.994C950.419 563.919 950.945 568.576 949.384 574.833C948.881 576.853 948.417 578.766 947.976 580.565C944.333 595.548 942.495 603.113 934.622 603.113C934.571 603.113 934.525 603.113 934.474 603.113C933.411 603.101 932.41 603.13 931.528 603.152C930.888 603.169 930.283 603.186 929.718 603.186ZM935.815 558.08C932.993 558.08 930.804 558.781 929.158 560.202C924.898 563.879 924.565 572.016 924.141 582.313C924.073 584.028 923.999 585.799 923.903 587.621C923.467 596.04 923.909 599.95 925.487 601.568C926.714 602.824 928.733 602.767 931.522 602.694C932.41 602.671 933.411 602.643 934.486 602.654C942.122 602.75 943.932 595.293 947.535 580.458C947.97 578.653 948.44 576.74 948.943 574.72C950.465 568.621 949.973 564.106 947.484 561.299C944.084 557.474 938.038 558.193 937.976 558.199L937.947 558.204H937.919C937.184 558.114 936.482 558.08 935.815 558.08Z" fill="#B2B2B2"/>
<path d="M938.247 561.939C934.446 571.399 932.829 581.612 932.116 591.734C931.935 594.014 931.867 596.532 931.731 598.807C930.6 586.648 932.178 572.7 938.247 561.939Z" fill="#575756"/>
<path d="M938.756 570.392C939.26 567.993 941.777 565.045 944.458 565.911C942.014 566.765 940.764 568.791 938.756 570.392Z" fill="#575756"/>
<path d="M938.756 577.679C939.26 575.28 941.777 572.332 944.458 573.198C942.014 574.053 940.764 576.078 938.756 577.679Z" fill="#575756"/>
<path d="M938.247 584.888C938.751 582.489 941.268 579.541 943.949 580.407C941.505 581.261 940.255 583.287 938.247 584.888Z" fill="#575756"/>
<path d="M937.585 594.009C938.089 591.61 940.606 588.662 943.287 589.528C940.838 590.382 939.588 592.413 937.585 594.009Z" fill="#575756"/>
<path d="M932.433 570.086C930.741 568.157 929.87 565.939 927.614 564.666C930.408 564.287 932.359 567.636 932.433 570.086Z" fill="#575756"/>
<path d="M931.143 577.261C929.452 575.331 928.581 573.113 926.324 571.84C929.118 571.461 931.069 574.811 931.143 577.261Z" fill="#575756"/>
<path d="M930.368 584.446C928.677 582.517 927.806 580.299 925.549 579.026C928.343 578.647 930.294 581.996 930.368 584.446Z" fill="#575756"/>
<path d="M929.412 593.545C927.721 591.615 926.85 589.397 924.593 588.124C927.382 587.745 929.339 591.095 929.412 593.545Z" fill="#575756"/>
<path d="M950.849 552.908H932.048C930.928 552.908 930.023 552.003 930.023 550.883V547.058C930.023 545.937 930.928 545.032 932.048 545.032H950.849C951.969 545.032 952.874 545.937 952.874 547.058V550.883C952.874 551.997 951.969 552.908 950.849 552.908Z" fill="#B2B2B2"/>
<path d="M950.849 553.135H932.048C930.804 553.135 929.791 552.122 929.791 550.877V547.052C929.791 545.807 930.804 544.795 932.048 544.795H950.849C952.094 544.795 953.106 545.807 953.106 547.052V550.877C953.106 552.122 952.094 553.135 950.849 553.135ZM932.048 545.259C931.058 545.259 930.255 546.062 930.255 547.052V550.877C930.255 551.867 931.058 552.671 932.048 552.671H950.849C951.839 552.671 952.642 551.867 952.642 550.877V547.052C952.642 546.062 951.839 545.259 950.849 545.259H932.048Z" fill="black"/>
<path d="M1006.92 386.419C1025.49 385.893 1043.77 382.379 1062.17 380.127C1053.2 382.634 1044.04 384.416 1034.81 385.638C1025.59 386.736 1016.18 387.641 1006.92 386.419Z" fill="black"/>
<path d="M1156.92 329.052C1156.92 329.052 1132.9 288.314 1118.23 280.981C1103.57 273.648 1062.44 243.909 1053.07 222.318L1064.09 167.689C1064.09 167.689 1091.97 177.438 1125.56 224.354C1145.05 251.559 1178.51 315.201 1178.51 315.201L1156.92 329.052Z" fill="black"/>
<path d="M1054.05 217.469C1054.05 217.469 1069.57 223.115 1076.9 222.301C1076.9 222.301 1088.84 255.163 1099.98 261.138C1111.11 267.113 1124.68 264.255 1124.68 264.255C1124.68 264.255 1137.91 308.122 1164.15 324.418L1156.92 329.052C1156.92 329.052 1135.47 291.725 1118.23 280.981C1100.99 270.236 1063.73 245.419 1053.07 222.317L1054.05 217.469Z" fill="#0968B2"/>
<path d="M920.04 346.162C920.04 346.162 913.66 296.325 904.429 285.19C904.429 285.19 935.651 246.082 938.909 241.465L924.48 168.883C924.48 168.883 885.18 186.875 863.296 254.093C863.296 254.093 856.373 280.981 866.554 302.165C876.736 323.348 902.392 361.235 902.392 361.235L920.04 346.162Z" fill="black"/>
<path d="M915.249 350.253C915.249 350.253 899.683 281.773 887.262 272.607C887.262 272.607 912.698 261.811 915.249 241.238C915.249 241.238 930.815 200.709 928.79 190.519L938.915 241.459L904.434 285.185C904.434 285.185 913.122 294.436 920.046 346.156L915.249 350.253Z" fill="#0968B2"/>
<path d="M913.728 175.672C913.728 175.672 981.738 122.713 1073.37 172.413C1073.37 172.413 1056.26 182.19 1068.07 221.299C1068.07 221.299 1073.78 234.743 1064.41 282.406C1064.41 282.406 1067.26 363.476 1070.93 369.586C1070.93 369.586 978.887 384.659 932.461 372.845C932.461 372.845 929.61 287.295 925.538 279.555C921.465 271.815 916.986 241.668 923.502 227.41C930.017 213.151 929.61 178.931 913.728 175.672Z" fill="#EC661A"/>
<path d="M913.728 175.672C913.728 175.672 983.91 122.237 1073.37 172.413C1073.37 172.413 1065.46 176.713 1064.12 192.047C1064.12 192.047 977.835 184.737 927.184 199.046C927.184 199.04 926.488 178.524 913.728 175.672Z" fill="black"/>
<path d="M1051.93 191.238C1051.93 191.238 1053.41 202.559 1059.66 207.72L1056.87 212.953C1056.63 213.417 1056.85 213.989 1057.34 214.158L1066.99 217.474C1066.99 217.474 1062.75 202.039 1064.13 192.052L1051.93 191.238Z" fill="white"/>
<path d="M925.792 220.467L944.99 194.955L927.189 199.046C927.184 199.04 928.077 213.531 925.792 220.467Z" fill="white"/>
<path d="M1069.64 231.252C1069.64 231.252 1064.88 241.668 1062.85 243.705C1060.81 245.742 1057.15 249.612 1055.31 255.927C1053.48 262.241 1047.98 266.315 1047.98 266.315C1047.98 266.315 1063.73 291.776 1064.91 295.239L1064.41 282.406C1064.41 282.406 1071.26 244.13 1069.64 231.252Z" fill="black"/>
<path d="M920.668 238.828C920.668 238.828 926.018 243.722 925.747 247.253C925.475 250.783 936.607 253.635 937.421 257.845C937.421 257.845 953.304 271.153 956.019 272.375C956.019 272.375 929.819 316.921 929.955 319.15C929.955 319.15 928.004 289.077 926.771 284.313C925.543 279.549 922.285 271.707 921.392 263.407C921.386 263.407 918.778 243.948 920.668 238.828Z" fill="#0968B2"/>
<path d="M1061.4 371.001C1061.4 371.001 1055.03 297.61 1058.94 284.398L1064.92 295.239C1064.92 295.239 1067.4 364.307 1070.93 369.586L1061.4 371.001Z" fill="#0968B2"/>
<path d="M927.981 149.871C927.981 149.871 935.312 195.227 984.725 194.955C1034.14 194.683 1050.43 155.303 1051.24 149.871C1051.24 149.871 1034.41 166.218 986.354 169.697C938.298 173.171 927.981 149.871 927.981 149.871Z" fill="#0968B2"/>
<path d="M989.612 194.791C990.946 202.028 992.123 210.096 993.169 217.412C1000.18 270.327 1003.24 324.152 997.932 377.361C998.102 373.547 998.294 369.733 998.498 365.926C998.707 362.706 998.854 357.789 998.905 354.491C1000.35 301.214 996.342 247.632 989.612 194.791Z" fill="black"/>
<path d="M959.136 268.335L963.921 263.242H975.731C978.712 263.242 981.127 265.658 981.127 268.64V284.936C981.127 287.917 978.712 290.333 975.731 290.333H950.685L952.212 284.834H969.622C972.603 284.834 975.018 282.418 975.018 279.436V273.733C975.018 270.751 972.603 268.335 969.622 268.335H959.136Z" fill="white"/>
<path d="M983.672 263.242H989.883V283.521C989.883 284.528 990.522 285.456 991.489 285.739C991.851 285.847 992.27 285.909 992.734 285.88C992.988 285.869 993.231 285.83 993.452 285.773C994.476 285.518 995.177 284.573 995.177 283.521V263.242H1001.49V284.121C1001.49 287.55 998.707 290.333 995.279 290.333H989.883C986.455 290.333 983.672 287.55 983.672 284.121V263.242Z" fill="white"/>
<path d="M1003.53 290.333V263.242H1010.25V273.834H1014.52L1018.32 263.242H1024.97L1020.56 273.834L1026.87 290.333H1018.32L1014.79 279.945H1010.31L1010.38 290.333H1003.53Z" fill="white"/>
<path d="M1028.44 263.242V290.333H1042.42V284.834H1033.93L1034 279.945H1046.49V273.834H1034L1034.07 268.335H1044.45L1040.99 263.242H1028.44Z" fill="white"/>
<path d="M1000.88 363.696C1009.11 363.272 1020.73 362.774 1028.82 362.078C1038.06 361.331 1047.38 360.301 1056.4 357.993C1040.68 364.528 1017.8 365.179 1000.88 363.696Z" fill="black"/>
<path d="M895.045 462.328C895.045 462.328 904.208 475.636 918.055 467.76C931.901 459.884 1001.34 410.726 1001.34 410.726C1001.34 410.726 1018.51 384.309 1006.29 361.801C994.074 339.299 946.019 307.523 905.023 357.223C864.026 406.924 895.045 462.328 895.045 462.328Z" fill="black"/>
<path d="M888.693 446.672C888.693 446.672 922.229 427.921 932.732 411.541L908.829 352.861C908.829 352.861 870.457 387.296 888.693 446.672Z" fill="#9D9D9C"/>
<path d="M895.543 462.985L904.338 456.896L906.98 460.834L907.738 470.25C907.738 470.25 900.729 469.616 895.543 462.985Z" fill="#EC661A"/>
<path d="M1009.79 388.926C1009.79 388.926 919.35 463.16 907.619 468.767L907.738 470.249C907.738 470.249 913.349 470.606 917.07 468.28C917.07 468.28 980.019 426.677 1001.33 410.721C1001.34 410.726 1008.81 397.815 1009.79 388.926Z" fill="#EC661A"/>
<path d="M924.774 439.379C924.774 439.379 975.137 401.628 980.024 386.419C980.024 386.419 968.486 419.01 924.774 439.379Z" fill="white"/>
<path d="M911.199 454.452C911.199 454.452 970.216 416.169 980.488 398.324C981.625 396.349 982.779 394.386 984.012 392.473C988.944 384.818 999.482 366.814 999.623 352.555C999.623 352.555 1008.66 362.01 1010.19 373.4C1010.19 373.4 993.192 401.266 970.182 416.35L911.199 454.452Z" fill="#0968B2"/>
<path d="M912.472 361.801C912.472 361.801 951.194 333.301 959.413 331.191C959.413 331.191 950.233 330.161 943.92 331.785C937.614 333.403 916.533 347.871 909.706 355.022L912.472 361.801Z" fill="white"/>
<path d="M898.801 356.618L920.498 339.146C921.194 339.593 922.415 340.402 923.858 341.528C926.262 343.401 927.834 345.024 928.173 345.358C933.439 350.609 947.71 350.796 949.786 357.67C950.617 360.426 950.346 363.781 948.344 367.861C948.344 367.861 955.527 375.646 941.341 385.344C941.341 385.344 939.565 391.862 931.239 395.512C931.239 395.512 926.482 408.169 918.79 401.328C911.097 394.488 898.693 377.287 903.41 366.322C903.405 366.322 898.094 359.085 898.801 356.618Z" fill="#0968B2"/>
<path d="M919.469 379.437C919.469 379.437 928.111 388.315 931.228 395.512L919.469 379.437Z" fill="#82368C"/>
<path d="M930.968 395.625C927.908 388.564 919.35 379.726 919.265 379.635L919.672 379.239C919.757 379.33 928.388 388.241 931.488 395.399L930.968 395.625Z" fill="black"/>
<path d="M928.241 368.54C928.241 368.54 938.276 375.16 941.33 385.344L928.241 368.54Z" fill="#82368C"/>
<path d="M941.058 385.429C938.072 375.465 928.185 368.845 928.083 368.777L928.394 368.308C928.496 368.376 938.553 375.103 941.596 385.271L941.058 385.429Z" fill="black"/>
<path d="M930.442 350.145C930.442 350.145 944.684 360.199 948.338 367.86L930.442 350.145Z" fill="#82368C"/>
<path d="M948.083 367.979C944.509 360.477 930.425 350.479 930.283 350.377L930.611 349.913C931.194 350.326 944.955 360.098 948.598 367.736L948.083 367.979Z" fill="black"/>
<path d="M925.029 396.281L923.909 397.237C923.004 398.013 921.641 397.911 920.86 397L915.713 390.991C914.938 390.086 915.04 388.722 915.95 387.941L917.07 386.985C917.975 386.21 919.338 386.312 920.119 387.223L925.266 393.231C926.041 394.137 925.934 395.5 925.029 396.281Z" fill="#F39200"/>
<path d="M922.506 398.041C921.816 398.041 921.132 397.752 920.651 397.186L915.504 391.178C914.627 390.153 914.746 388.609 915.769 387.732L916.889 386.776C917.387 386.351 918.015 386.142 918.665 386.193C919.316 386.244 919.91 386.544 920.334 387.042L925.481 393.05C926.358 394.075 926.239 395.619 925.215 396.496L924.095 397.458C923.632 397.849 923.066 398.041 922.506 398.041ZM918.467 386.747C918.021 386.747 917.591 386.906 917.246 387.2L916.126 388.156C915.34 388.83 915.249 390.018 915.922 390.804L921.069 396.813C921.742 397.6 922.93 397.69 923.716 397.017L924.836 396.055C925.623 395.382 925.713 394.193 925.04 393.407L919.893 387.398C919.565 387.019 919.112 386.787 918.609 386.747C918.569 386.747 918.518 386.747 918.467 386.747Z" fill="black"/>
<path d="M935.674 386.097L934.554 387.053C933.649 387.828 932.286 387.726 931.505 386.815L926.358 380.806C925.583 379.901 925.685 378.537 926.595 377.757L927.715 376.8C928.62 376.025 929.983 376.127 930.764 377.038L935.911 383.047C936.686 383.958 936.579 385.321 935.674 386.097Z" fill="#F39200"/>
<path d="M933.151 387.862C933.089 387.862 933.021 387.862 932.959 387.856C932.308 387.805 931.714 387.505 931.29 387.008L926.143 380.999C925.719 380.501 925.509 379.873 925.56 379.222C925.611 378.571 925.911 377.977 926.409 377.553L927.529 376.591C928.026 376.167 928.654 375.957 929.305 376.008C929.955 376.059 930.549 376.359 930.973 376.857L936.12 382.866C936.545 383.364 936.754 383.992 936.703 384.642C936.652 385.293 936.352 385.887 935.855 386.312L934.735 387.268C934.293 387.653 933.734 387.862 933.151 387.862ZM929.118 376.568C928.671 376.568 928.241 376.727 927.896 377.021L926.776 377.983C926.397 378.311 926.165 378.764 926.126 379.267C926.086 379.765 926.245 380.252 926.573 380.637L931.72 386.645C932.048 387.025 932.5 387.257 933.004 387.296C933.502 387.33 933.988 387.177 934.373 386.849L935.493 385.893L935.679 386.108L935.493 385.882C935.872 385.553 936.103 385.101 936.143 384.597C936.183 384.099 936.024 383.613 935.696 383.228L930.549 377.219C930.221 376.84 929.768 376.608 929.265 376.568C929.214 376.568 929.163 376.568 929.118 376.568Z" fill="black"/>
<path d="M944.78 374.475L943.66 375.431C942.755 376.206 941.392 376.104 940.611 375.193L935.464 369.184C934.689 368.279 934.791 366.916 935.702 366.135L936.822 365.179C937.727 364.403 939.09 364.505 939.87 365.416L945.018 371.425C945.793 372.33 945.685 373.694 944.78 374.475Z" fill="#F39200"/>
<path d="M942.257 376.234C942.195 376.234 942.127 376.234 942.065 376.229C941.415 376.178 940.821 375.878 940.397 375.38L935.249 369.371C934.373 368.347 934.491 366.802 935.515 365.925L936.635 364.969C937.133 364.545 937.761 364.335 938.411 364.386C939.062 364.437 939.656 364.737 940.08 365.235L945.227 371.244C946.104 372.268 945.985 373.813 944.961 374.69L943.841 375.646C943.4 376.031 942.84 376.234 942.257 376.234ZM938.225 364.941C937.778 364.941 937.348 365.099 937.003 365.394L935.883 366.35C935.097 367.023 935.006 368.211 935.679 368.998L940.826 375.007C941.155 375.386 941.607 375.618 942.11 375.657C942.614 375.691 943.095 375.539 943.479 375.21L944.599 374.254C945.385 373.581 945.476 372.393 944.803 371.606L939.656 365.597C939.328 365.218 938.875 364.986 938.372 364.947C938.321 364.941 938.27 364.941 938.225 364.941Z" fill="black"/>
<path d="M920.297 345.282L903.085 358.647L904.729 360.765L921.941 347.401L920.297 345.282Z" fill="#F39200"/>
<path d="M904.66 361.15L902.669 358.581L902.896 358.406L920.328 344.872L922.319 347.441L922.093 347.616L904.66 361.15ZM903.461 358.683L904.762 360.358L921.527 347.339L920.226 345.664L903.461 358.683Z" fill="black"/>
<path d="M1178.33 314.493L1154.43 328.808C1154.61 329.617 1154.95 331.043 1155.5 332.786C1156.43 335.689 1157.4 337.725 1157.6 338.161C1160.7 344.917 1155.93 358.378 1161.66 362.706C1163.96 364.443 1167.2 365.348 1171.72 364.879C1171.72 364.879 1176.53 374.316 1190.54 364.358C1190.54 364.358 1197.27 364.947 1203.58 358.395C1203.58 358.395 1217.09 358.315 1213.34 348.725C1209.58 339.134 1197.75 321.543 1185.83 322.171C1185.84 322.171 1180.89 314.686 1178.33 314.493Z" fill="#0968B2"/>
<path d="M1192.57 341.794C1192.57 341.794 1197.91 352.98 1203.58 358.395L1192.57 341.794Z" fill="#82368C"/>
<path d="M1203.38 358.598C1197.74 353.206 1192.38 342.026 1192.32 341.912L1192.83 341.669C1192.88 341.782 1198.21 352.872 1203.77 358.191L1203.38 358.598Z" fill="#7D2584"/>
<path d="M1179.32 346.252C1179.32 346.252 1182.05 357.964 1190.54 364.352L1179.32 346.252Z" fill="#82368C"/>
<path d="M1190.37 364.579C1181.9 358.202 1179.07 346.433 1179.04 346.314L1179.59 346.184C1179.62 346.303 1182.4 357.868 1190.71 364.126L1190.37 364.579Z" fill="#7D2584"/>
<path d="M1161.31 341.952C1161.31 341.952 1165.81 358.802 1171.73 364.878L1161.31 341.952Z" fill="#82368C"/>
<path d="M1171.52 365.071C1165.62 359.011 1161.22 342.71 1161.04 342.02L1161.58 341.873C1161.63 342.043 1166.13 358.723 1171.93 364.675L1171.52 365.071Z" fill="#7D2584"/>
<path d="M1206.44 352.838L1207.73 352.12C1208.77 351.537 1209.14 350.219 1208.56 349.177L1204.71 342.263C1204.13 341.222 1202.81 340.849 1201.77 341.426L1200.49 342.144C1199.45 342.727 1199.07 344.046 1199.65 345.087L1203.5 352.001C1204.08 353.048 1205.4 353.421 1206.44 352.838Z" fill="#F39200"/>
<path d="M1205.4 353.398C1205.17 353.398 1204.95 353.37 1204.72 353.302C1204.1 353.121 1203.58 352.714 1203.26 352.142L1199.41 345.228C1198.75 344.051 1199.18 342.557 1200.35 341.901L1201.64 341.183C1202.21 340.866 1202.86 340.786 1203.5 340.968C1204.12 341.149 1204.64 341.556 1204.96 342.127L1208.81 349.042C1209.13 349.613 1209.21 350.269 1209.03 350.897C1208.85 351.525 1208.44 352.046 1207.87 352.363L1206.58 353.081C1206.21 353.291 1205.81 353.398 1205.4 353.398ZM1202.82 341.443C1202.51 341.443 1202.2 341.522 1201.91 341.68L1200.63 342.399C1199.72 342.903 1199.4 344.051 1199.9 344.956L1203.76 351.871C1204 352.306 1204.4 352.623 1204.88 352.765C1205.36 352.9 1205.87 352.844 1206.31 352.601L1207.59 351.882C1208.03 351.639 1208.34 351.237 1208.49 350.756C1208.62 350.275 1208.56 349.766 1208.32 349.325L1204.47 342.41C1204.23 341.975 1203.82 341.658 1203.34 341.516C1203.17 341.465 1202.99 341.443 1202.82 341.443Z" fill="#EF7C0B"/>
<path d="M1193.21 359.306L1194.49 358.587C1195.53 358.004 1195.91 356.686 1195.33 355.645L1191.48 348.731C1190.89 347.689 1189.58 347.316 1188.54 347.893L1187.25 348.612C1186.21 349.194 1185.84 350.513 1186.41 351.554L1190.27 358.468C1190.85 359.515 1192.17 359.888 1193.21 359.306Z" fill="#F39200"/>
<path d="M1192.16 359.866C1191.94 359.866 1191.71 359.837 1191.49 359.77C1190.86 359.588 1190.34 359.181 1190.02 358.61L1186.17 351.695C1185.52 350.519 1185.94 349.025 1187.12 348.369L1188.4 347.65C1189.58 346.994 1191.07 347.418 1191.73 348.595L1195.58 355.509C1196.23 356.686 1195.81 358.18 1194.63 358.836L1193.35 359.555C1192.98 359.758 1192.57 359.866 1192.16 359.866ZM1189.59 347.91C1189.28 347.91 1188.97 347.989 1188.68 348.148L1187.39 348.866C1186.49 349.37 1186.17 350.519 1186.67 351.424L1190.52 358.338C1190.76 358.774 1191.17 359.091 1191.65 359.232C1192.13 359.368 1192.64 359.311 1193.07 359.068L1194.36 358.349C1195.26 357.846 1195.58 356.697 1195.08 355.792L1191.23 348.878C1190.89 348.255 1190.24 347.91 1189.59 347.91Z" fill="#EF7C0B"/>
<path d="M1179.15 363.826L1180.44 363.108C1181.48 362.525 1181.85 361.207 1181.27 360.165L1177.42 353.251C1176.84 352.21 1175.52 351.837 1174.48 352.414L1173.2 353.132C1172.16 353.715 1171.78 355.034 1172.36 356.075L1176.21 362.989C1176.79 364.036 1178.11 364.409 1179.15 363.826Z" fill="#F39200"/>
<path d="M1178.11 364.386C1177.25 364.386 1176.41 363.934 1175.97 363.13L1172.12 356.216C1171.46 355.039 1171.88 353.545 1173.06 352.889L1174.34 352.171C1174.92 351.854 1175.57 351.774 1176.21 351.956C1176.83 352.137 1177.35 352.544 1177.67 353.115L1181.52 360.03C1182.18 361.207 1181.75 362.7 1180.58 363.357L1179.29 364.075C1178.91 364.285 1178.51 364.386 1178.11 364.386ZM1175.53 352.431C1175.22 352.431 1174.9 352.51 1174.62 352.668L1173.34 353.387C1172.43 353.891 1172.11 355.039 1172.61 355.945L1176.47 362.859C1176.97 363.764 1178.12 364.087 1179.02 363.583L1180.31 362.864C1181.21 362.361 1181.53 361.212 1181.03 360.307L1177.18 353.393C1176.93 352.957 1176.53 352.64 1176.05 352.499C1175.88 352.453 1175.7 352.431 1175.53 352.431Z" fill="#EF7C0B"/>
<path d="M1161.69 333.004L1180.18 321.479L1178.76 319.203L1160.27 330.728L1161.69 333.004Z" fill="#F39200"/>
<path d="M1161.58 333.391L1159.86 330.63L1178.83 318.805L1180.55 321.566L1161.58 333.391ZM1160.64 330.811L1161.76 332.611L1179.77 321.385L1178.65 319.586L1160.64 330.811Z" fill="#EF7C0B"/>
<path d="M888.863 430.53C888.863 430.53 883.97 388.298 898.733 370.305C898.733 370.305 885.605 409.753 888.863 430.53Z" fill="white"/>
<path d="M957.942 652.01C957.286 657.843 953.791 662.002 950.035 666.828C945.312 672.911 923.196 674.721 914.05 666.206C913.773 665.951 913.501 665.68 913.252 665.402C912.33 664.39 911.578 663.252 911.041 661.979C910.192 659.976 909.757 657.781 909.627 655.501C909.406 651.693 910.034 647.653 911.024 643.851C911.533 641.916 912.132 640.043 912.76 638.3C915.011 632.048 917.63 627.442 917.63 627.442H950.21C950.21 627.442 953.287 630.894 956.969 643.257C957.971 646.623 958.225 649.475 957.942 652.01Z" fill="#0968B2"/>
<path d="M925.034 645.418C924.938 646.21 924.825 647.008 924.684 647.806C923.79 652.932 921.935 658.03 918.451 662.166C917.715 661.844 917.014 661.487 916.352 661.108C919.486 657.543 921.25 653.085 922.172 648.502C922.274 648.021 922.359 647.546 922.438 647.065C923.677 639.494 922.778 631.816 922.02 627.442H924.344C925.08 631.641 925.866 638.425 925.034 645.418Z" fill="black"/>
<path d="M940.674 647.766C939.91 648.638 934.491 648.219 934.491 648.219C927.483 647.24 927.189 647.834 924.237 648.502C922.941 648.796 922.574 648.372 922.545 648.377L922.172 648.502C922.274 648.021 922.359 647.546 922.438 647.065C923.326 646.374 924.333 646.04 925.034 645.418C929.514 641.435 934.237 642.465 936.675 643.393C939.243 644.377 941.726 646.561 940.674 647.766Z" fill="black"/>
<path d="M931.545 633.219C929.52 637.565 925.176 635.55 925.176 635.55L911.024 643.851C911.533 641.916 912.132 640.043 912.76 638.3C915.764 636.082 921.952 631.629 925 630.254C929.112 628.404 933.575 628.868 931.545 633.219Z" fill="black"/>
<path d="M941.262 663.756L937.908 659.959H926.844L923.552 663.858C921.686 663.428 919.983 662.856 918.45 662.166C917.715 661.844 917.014 661.487 916.352 661.108C913.541 659.524 911.341 657.555 909.627 655.501C909.757 657.781 910.192 659.976 911.041 661.979C911.578 663.252 912.33 664.39 913.252 665.402L913.892 666.325C913.942 666.291 913.999 666.251 914.05 666.206C923.196 674.721 945.312 672.911 950.035 666.828C953.791 662.002 957.286 657.843 957.942 652.01C955.793 656.423 951.177 661.651 941.262 663.756Z" fill="black"/>
<path d="M1021.44 652.01C1022.1 657.843 1025.6 662.002 1029.35 666.828C1034.08 672.911 1056.19 674.721 1065.34 666.206C1065.61 665.951 1065.89 665.68 1066.13 665.402C1067.06 664.39 1067.81 663.252 1068.35 661.979C1069.19 659.976 1069.63 657.781 1069.76 655.501C1069.98 651.693 1069.35 647.653 1068.36 643.851C1067.85 641.916 1067.25 640.043 1066.63 638.3C1064.38 632.048 1061.76 627.442 1061.76 627.442H1029.18C1029.18 627.442 1026.1 630.894 1022.42 643.257C1021.42 646.623 1021.16 649.475 1021.44 652.01Z" fill="#0968B2"/>
<path d="M1054.35 645.418C1054.45 646.21 1054.56 647.008 1054.7 647.806C1055.6 652.932 1057.45 658.03 1060.94 662.166C1061.67 661.844 1062.37 661.487 1063.04 661.108C1059.9 657.543 1058.14 653.085 1057.21 648.502C1057.11 648.021 1057.03 647.546 1056.95 647.065C1055.71 639.494 1056.61 631.816 1057.37 627.442H1055.04C1054.31 631.641 1053.52 638.425 1054.35 645.418Z" fill="black"/>
<path d="M1038.71 647.766C1039.48 648.638 1044.9 648.219 1044.9 648.219C1051.9 647.24 1052.2 647.834 1055.15 648.502C1056.45 648.796 1056.81 648.372 1056.84 648.377L1057.21 648.502C1057.11 648.021 1057.03 647.546 1056.95 647.065C1056.06 646.374 1055.05 646.04 1054.35 645.418C1049.87 641.435 1045.15 642.465 1042.71 643.393C1040.14 644.377 1037.66 646.561 1038.71 647.766Z" fill="black"/>
<path d="M1047.84 633.219C1049.87 637.565 1054.21 635.55 1054.21 635.55L1068.36 643.851C1067.85 641.916 1067.25 640.043 1066.63 638.3C1063.62 636.082 1057.44 631.629 1054.39 630.254C1050.27 628.404 1045.81 628.868 1047.84 633.219Z" fill="black"/>
<path d="M1038.13 663.756L1041.48 659.959H1052.54L1055.83 663.858C1057.7 663.428 1059.4 662.856 1060.94 662.166C1061.67 661.844 1062.37 661.487 1063.04 661.108C1065.85 659.524 1068.05 657.555 1069.76 655.501C1069.63 657.781 1069.19 659.976 1068.35 661.979C1067.81 663.252 1067.06 664.39 1066.13 665.402L1065.5 666.325C1065.44 666.291 1065.39 666.251 1065.34 666.206C1056.19 674.721 1034.08 672.911 1029.35 666.828C1025.6 662.002 1022.1 657.843 1021.44 652.01C1023.59 656.423 1028.21 661.651 1038.13 663.756Z" fill="black"/>
<path d="M963.27 179.689C963.27 179.689 960.505 189.025 966.002 194.016C966.002 194.016 965.595 187.939 967.021 186.853C967.021 186.853 968.242 196.155 973.842 198.599C973.842 198.599 971.704 192.386 972.111 190.553C972.111 190.553 976.693 199.312 980.562 200.839C980.562 200.839 978.22 195.747 978.22 192.794C978.22 192.794 983.803 199.414 985.59 200.432C985.59 200.432 992.474 194.729 993.084 193.099C993.084 193.099 992.372 199.821 990.946 200.839C990.946 200.839 997.564 194.219 997.971 192.488C997.971 192.488 997.768 197.784 996.75 198.701C996.75 198.701 1003.37 192.997 1003.47 188.211C1003.47 188.211 1004.89 192.59 1003.47 195.238C1003.47 195.238 1009.53 187.102 1008.49 180.069C1008.49 180.069 993.531 180.136 986.484 162.987C986.484 162.987 977.134 177.483 963.27 179.689Z" fill="#F39200"/>
<path d="M971.234 176.985C971.234 176.985 972.009 183.571 973.231 184.233C973.231 184.233 973.638 181.568 975.115 180.583C975.115 180.583 978.678 182.145 978.474 184.233C978.474 184.233 981.172 180.617 981.325 178.479C981.325 178.479 981.885 181.992 982.954 184.233C982.954 184.233 985.194 180.159 985.347 177.868C985.347 177.868 989.47 183.113 989.674 184.538C989.674 184.538 990.641 180.261 990.234 179.039C990.234 179.039 992.117 182.756 993.695 184.029C993.695 184.029 992.575 179.955 992.932 178.631C992.932 178.631 995.07 182.451 996.444 183.113C996.444 183.113 995.449 178.467 997.242 176.385L986.484 162.987L971.234 176.985Z" fill="#F9B233"/>
<path d="M946.573 165.431C946.573 165.431 952.275 178.06 963.27 179.689C974.266 181.319 986.891 168.69 986.484 162.987C986.484 162.987 993.407 184.867 1009.29 179.831C1025.17 174.801 1025.17 165.431 1025.17 165.431C1025.17 165.431 1041.05 160.95 1041.87 154.432C1041.87 154.432 1043.09 158.607 1041.87 161.154C1041.87 161.154 1053.78 148.525 1053.99 144.858C1053.99 144.858 1054.6 148.117 1053.99 149.849C1053.99 149.849 1065.39 131.941 1064.71 123.657C1064.71 123.657 1067.02 125.83 1066.2 127.188C1066.2 127.188 1071.36 112.93 1069.46 105.054C1069.46 105.054 1072.22 105.783 1073.03 108.499C1073.03 108.499 1073.78 92.272 1070.82 87.4852C1070.82 87.4852 1107.17 38.0901 1079.07 4.27737C1079.07 4.27737 1057.49 -11.2032 1032.64 25.0539C1032.64 25.0539 1021.75 18.5358 1015.95 18.9431C1015.95 18.9431 1022.06 13.749 1024.7 13.8509C1024.7 13.8509 1011.67 13.4435 1006.78 16.9062C1006.78 16.9062 1011.06 10.3881 1012.79 10.2863C1014.52 10.1844 998.333 11.7121 995.89 14.2582C995.89 14.2582 998.333 7.0272 1001.29 6.21243C1001.29 6.21243 990.087 8.24935 986.116 13.9527C986.116 13.9527 975.403 9.06411 966.851 10.1844C966.851 10.1844 972.247 12.3232 973.672 15.1748C973.672 15.1748 961.047 11.6103 952.597 12.9342C952.597 12.9342 957.891 14.5638 958.909 17.2118C958.909 17.2118 947.71 15.4804 944.757 16.7025C944.757 16.7025 951.273 18.1284 951.172 20.369C951.172 20.369 944.248 21.693 940.074 26.4797C940.074 26.4797 911.363 -9.94707 894.87 2.68179C878.376 15.3106 873.489 53.8083 901.182 87.0099C901.182 87.0099 896.431 98.213 898.06 107.583C898.06 107.583 900.91 99.2314 902.947 96.7871C902.947 96.7871 900.096 115.934 901.928 125.915C901.928 125.915 904.983 115.323 906.815 112.879C906.815 112.879 906.001 133.859 914.146 145.673C914.146 145.673 913.535 137.729 914.146 135.896C914.146 135.896 916.997 148.728 926.16 155.45C926.16 155.45 924.531 150.765 925.549 147.914C925.549 147.908 935.425 161.968 946.573 165.431Z" fill="#F39200"/>
<path d="M945.623 148.299C945.623 148.299 927.704 135.534 926.075 128.201C926.075 128.201 925.193 131.935 925.464 134.244C925.464 134.244 916.912 118.763 917.998 113.06C917.998 113.06 915.011 117.677 915.283 119.171C915.283 119.171 910.532 102.74 912.704 98.2584C912.704 98.2584 909.378 102.366 909.106 105.082C909.106 105.082 910.192 87.8022 913.247 84.7469C913.247 84.7469 908.869 87.706 908.461 90.2975C908.461 90.2975 906.934 65.2944 915.487 59.9984C915.487 59.9984 912.296 57.2146 909.31 58.301C909.31 58.301 914.265 51.9186 918.337 52.0544C918.337 52.0544 914.672 51.1039 911.821 52.7334C911.821 52.7334 915.487 45.5363 924.039 43.3636C924.039 43.3636 922.512 41.5134 919.525 42.1924C919.525 42.1924 921.833 37.3038 928.213 34.9953C928.213 34.9953 929.163 34.5879 931.878 34.9953C931.878 34.9953 924.005 44.5009 923.598 54.8212C923.598 54.8212 936.426 35.5385 945.623 33.9089C945.623 33.9089 935.544 46.8094 933.507 54.0065C933.507 54.0065 936.901 48.4389 943.146 43.9577C943.146 43.9577 942.06 47.2168 941.517 53.3275C941.517 53.3275 949.933 38.1186 962.422 36.6248C962.422 36.6248 950.34 49.1179 954.548 64.87C954.548 64.87 956.856 63.2405 957.128 58.8951C957.128 58.8951 958.621 67.7217 957.942 71.6597C957.942 71.6597 960.114 71.5239 960.114 68.4007C960.114 68.4007 968.666 75.394 968.259 83.9491C967.852 92.5041 945.623 148.299 945.623 148.299Z" fill="#F9B233"/>
<path d="M1024.58 147.495C1024.58 147.495 1042.5 134.73 1044.13 127.398C1044.13 127.398 1045.01 131.132 1044.74 133.44C1044.74 133.44 1053.29 117.96 1052.21 112.256C1052.21 112.256 1055.2 116.873 1054.92 118.367C1054.92 118.367 1059.68 101.936 1057.5 97.4549C1057.5 97.4549 1060.83 101.563 1061.1 104.279C1061.1 104.279 1060.01 86.9988 1056.96 83.9434C1056.96 83.9434 1061.34 86.9026 1061.75 89.494C1061.75 89.494 1063.27 64.4909 1054.72 59.1949C1054.72 59.1949 1057.91 56.4111 1060.9 57.4975C1060.9 57.4975 1055.94 51.1152 1051.87 51.251C1051.87 51.251 1055.53 50.3004 1058.39 51.9299C1058.39 51.9299 1054.72 44.7328 1046.17 42.5601C1046.17 42.5601 1047.7 40.7099 1050.68 41.3889C1050.68 41.3889 1048.37 36.5003 1041.99 34.1918C1041.99 34.1918 1041.04 33.7844 1038.33 34.1918C1038.33 34.1918 1046.2 43.6974 1046.61 54.0178C1046.61 54.0178 1033.78 34.735 1024.58 33.1055C1024.58 33.1055 1034.66 46.0059 1036.7 53.203C1036.7 53.203 1033.31 47.6354 1027.06 43.1542C1027.06 43.1542 1028.15 46.4133 1028.69 52.524C1028.69 52.524 1020.27 37.3151 1007.78 35.8214C1007.78 35.8214 1019.87 48.3144 1015.66 64.0665C1015.66 64.0665 1013.35 62.437 1013.08 58.0916C1013.08 58.0916 1011.59 66.9182 1012.26 70.8562C1012.26 70.8562 1010.09 70.7205 1010.09 67.5972C1010.09 67.5972 1001.54 74.5906 1001.95 83.1456C1002.35 91.7007 1024.58 147.495 1024.58 147.495Z" fill="#F9B233"/>
<path d="M1061.21 74.2962C1061.21 74.2962 1071.7 63.0366 1069.39 50.9509C1069.39 50.9509 1073.06 57.1974 1071.97 59.6417C1071.97 59.6417 1078.08 50.5435 1073.33 41.9885C1073.33 41.9885 1077.27 45.5191 1076.72 50.0003C1076.72 50.0003 1078.49 34.5198 1074.69 31.2607C1074.69 31.2607 1078.49 33.1618 1078.49 35.8777C1078.49 35.8777 1082.97 1.79341 1055.95 16.4592C1055.95 16.4592 1060.98 16.1876 1062.61 17.1381C1062.61 17.1381 1053.51 18.2245 1050.12 22.8415C1050.12 22.8415 1056.23 21.212 1059.08 21.8909C1059.08 21.8909 1050.52 24.6068 1046.72 28.8164C1046.72 28.8164 1050.52 28.0017 1054.46 28.1375C1054.46 28.1375 1045.56 30.3328 1043.74 34.9272C1043.74 34.9272 1048.97 37.3658 1050.68 41.3887C1050.68 41.3887 1048.04 40.8003 1046.17 42.5599C1046.17 42.5599 1053.88 44.1668 1058.39 51.9297C1058.39 51.9297 1056.32 50.2776 1051.87 51.2508C1051.87 51.2508 1055.98 51.1602 1060.9 57.4973C1060.9 57.4973 1058.43 56.2525 1054.72 59.1947C1054.72 59.1947 1059.58 61.5372 1061.21 74.2962Z" fill="#EC661A"/>
<path d="M915.487 59.9982C915.487 59.9982 912.246 57.0447 909.31 58.3008C909.31 58.3008 913.264 52.5635 918.337 52.0543C918.337 52.0543 914.01 51.2056 911.821 52.7332C911.821 52.7332 915.504 45.4343 924.039 43.3634C924.039 43.3634 922.563 41.4623 919.525 42.1922C919.525 42.1922 921.969 37.5243 926.256 35.8438C926.256 35.8438 919.338 30.2254 914.791 30.5648C914.791 30.5648 918.252 29.0032 920.9 29.4785C920.9 29.4785 916.42 25.1331 910.99 25.9478C910.99 25.9478 914.587 24.0467 917.574 25.4047C917.574 25.4047 912.212 19.4297 907.46 19.4297C907.46 19.4297 909.932 17.936 913.716 18.615C913.716 18.615 908.954 7.34405 897.822 17.5286C897.822 17.5286 890.763 24.4541 891.849 40.0704C891.849 40.0704 893.478 33.5523 896.465 31.6512C896.465 31.6512 891.713 40.8852 894.021 49.0329C894.021 49.0329 894.021 42.7863 897.686 40.0704C897.686 40.0704 894.971 51.3414 899.587 61.9333C899.587 61.9333 898.637 57.1805 901.352 53.3783C901.352 53.3783 902.353 67.3141 906.833 72.3385C906.833 72.3385 904.547 77.8438 901.182 87.0043C901.182 87.0043 908.716 63.6307 915.487 59.9982Z" fill="#EC661A"/>
<path d="M980.63 57.0447C980.63 57.0447 981.987 67.2292 983.073 69.5377C983.073 69.5377 985.924 64.2418 986.195 58.4026C986.195 58.4026 990.132 67.7724 989.589 73.4758C989.589 73.4758 992.983 67.0934 992.983 62.4764C992.983 62.4764 994.748 70.8957 994.069 73.4758C994.069 73.4758 996.92 71.1673 997.327 68.1798C997.327 68.1798 999.634 72.9326 997.327 78.6359C997.327 78.6359 1000.1 78.0249 1001.94 73.5437C1001.94 73.5437 1002.85 77.5666 1001.94 81.6404C1001.94 81.6404 1005.82 103.973 1021.06 138.527C1021.06 138.527 1019.88 141.577 1019.06 143.206C1019.06 143.206 1017.13 138.572 1016.11 138.521C1016.11 138.521 1015.14 142.951 1014.53 144.326C1014.53 144.326 1013.36 139.794 1011.83 139.489C1011.83 139.489 1011.78 143.715 1010.72 145.09C1010.72 145.09 1008.22 139.336 1006.74 139.234C1006.74 139.234 1004.81 144.683 1004.4 145.447L963.644 144.174C963.644 144.174 962.286 140.915 962.422 140.236C962.422 140.236 960.114 142.103 960.522 145.447C960.522 145.447 957.535 142.272 957.399 139.964C957.399 139.964 955.974 140.507 956.076 143.664C956.076 143.664 953.429 140.609 953.531 138.979C953.531 138.979 951.596 140.303 951.902 142.442C951.902 142.442 949.701 137.916 950.397 136.116C951.093 134.317 966.851 90.3029 966.851 90.3029C966.851 90.3029 970.799 81.9799 965.476 74.63C965.476 74.63 971.014 76.3105 971.896 78.0758C971.896 78.0758 971.15 70.3355 968.638 68.7739C968.638 68.7739 974.611 70.675 974.883 73.7983C974.877 73.7983 981.359 62.4934 980.63 57.0447Z" fill="#F9B233"/>
<path d="M964.899 140.745C964.899 140.745 958.655 129.202 961.641 121.326C961.641 121.326 963.813 127.709 964.899 128.795C964.899 128.795 963.774 116.845 968.271 112.771C968.271 112.771 967.886 119.018 970.194 123.227C970.194 123.227 969.515 115.08 974.402 110.599C979.289 106.117 984.99 92.538 984.855 88.3284C984.855 88.3284 999.923 110.734 995.986 121.055C995.986 121.055 998.294 121.87 999.787 115.351C999.787 115.351 1002.77 122.005 999.244 127.437C999.244 127.437 1004.4 123.227 1004.81 120.104C1004.81 120.104 1005.17 135.449 1001.94 139.115C1001.94 139.115 980.386 142.844 964.899 140.745Z" fill="#EC661A"/>
<path d="M986.484 162.987C986.484 162.987 991.727 182.994 1008.49 180.068C1008.49 180.068 1023.21 177.081 1025.17 165.431C1027.14 153.787 1028.22 155.914 1021.06 138.532L1019.06 143.212C1019.06 143.212 1017.23 138.849 1016.11 138.527C1016.11 138.527 1014.99 143.364 1014.53 144.332C1014.53 144.332 1013.26 139.63 1011.83 139.494C1011.83 139.494 1011.8 143.772 1010.71 145.096C1010.71 145.096 1008.81 138.714 1005.18 139.936C1001.55 141.158 963.644 144.179 963.644 144.179C963.644 144.179 962.184 141.039 962.422 140.241C962.422 140.241 960.012 142.091 960.522 145.452C960.522 145.452 957.433 141.973 957.399 139.97C957.399 139.97 955.702 141.328 956.076 143.67C956.076 143.67 953.208 140.207 953.53 138.985C953.53 138.985 951.681 139.851 951.901 142.448C951.901 142.448 949.882 138.289 950.137 136.795C950.137 136.795 939.882 147.653 946.573 165.437C953.768 184.538 979.515 184.465 986.484 162.987Z" fill="#CA9E67"/>
<path d="M1005.85 143.715C1005.85 147.54 1002.75 150.641 998.927 150.641C998.927 150.641 993.362 152.282 992.225 155.484C992.219 155.495 992.219 155.501 992.213 155.512C991.292 158.245 988.707 160.214 985.658 160.214C982.609 160.214 980.024 158.245 979.102 155.512C979.102 155.512 979.102 155.507 979.097 155.507C977.083 152.519 971.235 151.201 971.235 151.201C967.411 151.201 964.311 148.1 964.311 144.275C964.311 140.451 967.411 137.35 971.235 137.35C972.569 137.35 973.814 137.729 974.871 138.385C974.871 138.391 974.877 138.391 974.883 138.391C978.18 139.279 982.835 140.388 984.889 140.202C986.981 140.009 991.902 138.736 995.324 137.797C996.376 137.158 997.61 136.79 998.927 136.79C1002.75 136.79 1005.85 139.89 1005.85 143.715Z" fill="black"/>
<path d="M1006.72 100.273C1006.72 100.273 1000.1 80.4749 1014.89 70.2904C1014.89 70.2904 1013.81 73.2779 1013.67 75.0432C1013.67 75.0432 1021.65 66.2166 1021.06 63.5007C1021.06 63.5007 1022.27 68.9324 1021.09 70.562C1021.09 70.562 1025.49 65.5376 1025.76 62.6859C1025.76 62.6859 1026.71 65.6734 1025.08 68.2535C1025.08 68.2535 1029.56 64.4512 1029.97 61.8711C1029.97 61.8711 1030.92 66.2166 1029.97 67.4387C1029.97 67.4387 1035.81 63.9081 1036.89 59.8342C1036.89 59.8342 1037.03 67.8461 1036.21 69.883C1036.21 69.883 1042.46 65.945 1043 62.2785C1043 62.2785 1045.44 70.6978 1040.96 74.9074C1040.96 74.9074 1047.21 73.4136 1048.02 71.1051C1048.02 71.1051 1045.7 77.6233 1043.74 78.7096C1043.74 78.7096 1045.04 80.7182 1048.02 80.0506C1048.02 80.0506 1046.8 85.2277 1040.42 87.2646C1040.42 87.2646 1043 88.2152 1045.44 87.5362C1045.44 87.5362 1043.38 91.3385 1038.24 92.4248C1038.24 92.4248 1038.11 94.3259 1040.69 93.7828C1040.69 93.7828 1037.57 97.8566 1033.09 97.8566C1033.09 97.8566 1032.96 100.029 1035.67 99.4861C1035.67 99.4861 1030.92 103.017 1026.03 102.881C1026.03 102.881 1025.35 104.782 1028.2 104.918C1028.2 104.918 1015.16 108.092 1008.65 106.366L1006.72 100.273Z" fill="#EC661A"/>
<path d="M962.88 101.217C962.88 101.217 969.498 81.4198 954.701 71.2352C954.701 71.2352 955.787 74.2227 955.923 75.988C955.923 75.988 947.942 67.1614 948.536 64.4455C948.536 64.4455 947.331 69.8773 948.502 71.5068C948.502 71.5068 944.107 66.4824 943.836 63.6307C943.836 63.6307 942.885 66.6182 944.514 69.1983C944.514 69.1983 940.035 65.3961 939.627 62.816C939.627 62.816 938.677 67.1614 939.627 68.3835C939.627 68.3835 933.79 64.8529 932.704 60.7791C932.704 60.7791 932.568 68.7909 933.383 70.8278C933.383 70.8278 927.138 66.8898 926.595 63.2233C926.595 63.2233 924.152 71.6426 928.632 75.8522C928.632 75.8522 922.387 74.3585 921.573 72.05C921.573 72.05 923.897 78.5681 925.86 79.6544C925.86 79.6544 924.559 81.6631 921.573 80.9954C921.573 80.9954 922.795 86.1726 929.175 88.2095C929.175 88.2095 926.595 89.16 924.152 88.4811C924.152 88.4811 926.217 92.2833 931.358 93.3697C931.358 93.3697 931.482 95.2708 928.903 94.7276C928.903 94.7276 932.025 98.8014 936.505 98.8014C936.505 98.8014 936.641 100.974 933.926 100.431C933.926 100.431 938.677 103.962 943.564 103.826C943.564 103.826 944.243 105.727 941.392 105.863C941.392 105.863 954.435 109.037 960.946 107.311L962.88 101.217Z" fill="#EC661A"/>
<path d="M1015.1 79.3942C1015.1 79.3942 1028.54 74.5056 1029.76 70.6355C1029.76 70.6355 1029.05 75.1167 1027.32 76.6444C1027.32 76.6444 1033.22 76.0277 1034.54 74.2963C1034.54 74.2963 1034.65 76.8481 1033.73 77.561C1033.73 77.561 1035.97 78.5795 1036.78 77.1536C1036.78 77.1536 1035.97 79.5979 1034.54 80.0053C1034.54 80.0053 1039.64 80.0053 1041.57 82.3477C1041.57 82.3477 1034.34 85.2221 1032.61 90.303C1030.88 95.384 1022.23 98.3375 1017.34 95.7914C1017.34 95.7914 1011.28 107.707 1026.63 122.577C1026.63 122.577 1023.04 121.864 1022.33 120.845C1022.33 120.845 1029.45 129.197 1029.45 133.576C1029.45 133.576 1028.84 131.947 1026.09 131.335C1026.09 131.335 1031.35 138.821 1031.26 142.312C1031.26 142.312 1029.25 140.298 1027.52 140.298C1027.52 140.298 1031.08 145.967 1030.47 152.044C1030.47 152.044 1024.91 142.08 1022.65 142.408C1022.65 142.408 1008.48 107.543 1007.23 102.445C1005.98 97.3417 1008.97 81.9687 1015.1 79.3942Z" fill="black"/>
<path d="M955.007 79.3942C955.007 79.3942 941.567 74.5056 940.346 70.6355C940.346 70.6355 941.058 75.1167 942.789 76.6444C942.789 76.6444 936.884 76.0277 935.56 74.2963C935.56 74.2963 935.459 76.8481 936.375 77.561C936.375 77.561 934.135 78.5795 933.321 77.1536C933.321 77.1536 934.135 79.5979 935.56 80.0053C935.56 80.0053 930.47 80.0053 928.535 82.3477C928.535 82.3477 935.764 85.2221 937.495 90.303C939.226 95.384 947.88 98.3375 952.767 95.7914C952.767 95.7914 958.825 107.707 943.474 122.577C943.474 122.577 947.065 121.864 947.778 120.845C947.778 120.845 940.651 129.197 940.651 133.576C940.651 133.576 941.262 131.947 944.011 131.335C944.011 131.335 938.756 138.821 938.841 142.312C938.841 142.312 940.855 140.298 942.585 140.298C942.585 140.298 939.022 145.967 939.633 152.044C939.633 152.044 945.199 142.08 947.456 142.408C947.456 142.408 961.63 107.543 962.88 102.445C964.13 97.3417 961.144 81.9687 955.007 79.3942Z" fill="black"/>
<path d="M940.979 83.2983L956.591 85.8784C956.591 85.8784 955.98 94.9766 947.292 94.094C938.604 93.2113 940.979 83.2983 940.979 83.2983Z" fill="white"/>
<path d="M943.864 83.9434C942.964 86.5857 944.237 90.105 946.873 91.0273C948.847 91.7232 950.968 91.1122 952.292 89.6524C952.919 88.9564 953.293 88.0681 953.451 87.1458L953.745 85.4031L943.864 83.9434Z" fill="black"/>
<path d="M948.547 88.0454C949.275 88.0454 949.865 87.4551 949.865 86.727C949.865 85.9989 949.275 85.4087 948.547 85.4087C947.819 85.4087 947.229 85.9989 947.229 86.727C947.229 87.4551 947.819 88.0454 948.547 88.0454Z" fill="white"/>
<path d="M1030 82.2346L1014.39 84.8147C1014.39 84.8147 1015 93.9129 1023.68 93.0303C1032.37 92.1476 1030 82.2346 1030 82.2346Z" fill="white"/>
<path d="M1027.11 82.8796C1028.01 85.522 1026.74 89.0413 1024.1 89.9636C1022.13 90.6595 1020.01 90.0484 1018.68 88.5887C1018.06 87.8927 1017.68 87.0044 1017.53 86.0821L1017.23 84.3394L1027.11 82.8796Z" fill="black"/>
<path d="M1022.43 86.9816C1023.16 86.9816 1023.75 86.3914 1023.75 85.6633C1023.75 84.9352 1023.16 84.345 1022.43 84.345C1021.71 84.345 1021.12 84.9352 1021.12 85.6633C1021.12 86.3914 1021.71 86.9816 1022.43 86.9816Z" fill="white"/>
<path d="M985.584 42.2207C987.105 42.2207 988.339 39.8192 988.339 36.8568C988.339 33.8944 987.105 31.4929 985.584 31.4929C984.063 31.4929 982.83 33.8944 982.83 36.8568C982.83 39.8192 984.063 42.2207 985.584 42.2207Z" fill="black"/>
<path d="M975.82 36.9774C977.439 34.4967 977.718 31.8114 976.444 30.9795C975.17 30.1477 972.825 31.4844 971.207 33.9651C969.588 36.4458 969.308 39.1311 970.582 39.9629C971.856 40.7948 974.201 39.4581 975.82 36.9774Z" fill="black"/>
<path d="M999.347 39.1276C1000.62 38.2958 1000.34 35.6105 998.723 33.1298C997.104 30.6491 994.759 29.3124 993.485 30.1442C992.211 30.9761 992.49 33.6614 994.109 36.1421C995.728 38.6228 998.073 39.9595 999.347 39.1276Z" fill="black"/>
<path d="M1013.69 33.2857C1014.2 31.8517 1012.35 29.8852 1009.56 28.8934C1006.77 27.9016 1004.09 28.26 1003.58 29.694C1003.07 31.128 1004.92 33.0945 1007.71 34.0864C1010.51 35.0782 1013.18 34.7197 1013.69 33.2857Z" fill="black"/>
<path d="M1015.31 24.7327C1015.82 23.2987 1013.97 21.3322 1011.18 20.3404C1008.39 19.3486 1005.72 19.707 1005.21 21.1411C1004.7 22.5751 1006.55 24.5416 1009.34 25.5334C1012.13 26.5252 1014.8 26.1667 1015.31 24.7327Z" fill="black"/>
<path d="M1024.3 28.8402C1024.98 28.0123 1024.22 26.2758 1022.61 24.9616C1021 23.6475 1019.15 23.2533 1018.47 24.0812C1017.8 24.9092 1018.55 26.6457 1020.16 27.9598C1021.77 29.274 1023.63 29.6681 1024.3 28.8402Z" fill="black"/>
<path d="M1029.6 37.5763C1030.34 36.6734 1029.52 34.7799 1027.76 33.3472C1026.01 31.9144 1023.99 31.485 1023.25 32.388C1022.51 33.291 1023.34 35.1844 1025.09 36.6171C1026.85 38.0499 1028.87 38.4793 1029.6 37.5763Z" fill="black"/>
<path d="M996.653 26.6588C999.604 26.4096 1001.89 24.9783 1001.77 23.4618C1001.64 21.9453 999.141 20.9179 996.19 21.1671C993.239 21.4162 990.95 22.8475 991.078 24.364C991.206 25.8805 993.702 26.9079 996.653 26.6588Z" fill="black"/>
<path d="M973.75 27.8807C976.701 27.6315 978.99 26.2002 978.862 24.6837C978.734 23.1672 976.238 22.1399 973.287 22.389C970.336 22.6381 968.047 24.0694 968.175 25.5859C968.303 27.1024 970.799 28.1298 973.75 27.8807Z" fill="black"/>
<path d="M984.294 19.9829C984.842 18.8662 983.526 17.0976 981.355 16.0327C979.184 14.9677 976.98 15.0097 976.433 16.1264C975.885 17.2432 977.201 19.0117 979.372 20.0767C981.543 21.1416 983.747 21.0996 984.294 19.9829Z" fill="black"/>
<path d="M991.509 20.0806C993.68 19.0157 994.996 17.2471 994.448 16.1304C993.901 15.0137 991.697 14.9717 989.526 16.0366C987.355 17.1015 986.039 18.8701 986.586 19.9868C987.134 21.1036 989.338 21.1455 991.509 20.0806Z" fill="black"/>
<path d="M962.719 36.763C965.004 34.815 966.044 32.2834 965.043 31.1087C964.042 29.9339 961.379 30.5608 959.094 32.5089C956.81 34.4569 955.769 36.9885 956.77 38.1632C957.771 39.3379 960.435 38.7111 962.719 36.763Z" fill="black"/>
<path d="M962.64 26.0362C964.925 24.0882 965.965 21.5566 964.964 20.3819C963.963 19.2071 961.299 19.834 959.015 21.7821C956.73 23.7301 955.69 26.2616 956.691 27.4364C957.692 28.6111 960.356 27.9843 962.64 26.0362Z" fill="black"/>
<path d="M946.12 40.3804C948.405 38.4324 949.445 35.9009 948.444 34.7261C947.443 33.5514 944.78 34.1783 942.495 36.1263C940.211 38.0744 939.17 40.6059 940.171 41.7806C941.172 42.9554 943.836 42.3285 946.12 40.3804Z" fill="black"/>
<path d="M948.509 29.3639C950.126 27.9855 950.861 26.1933 950.152 25.361C949.443 24.5287 947.557 24.9714 945.941 26.3498C944.324 27.7283 943.589 29.5204 944.298 30.3527C945.007 31.185 946.893 30.7423 948.509 29.3639Z" fill="black"/>
<path d="M1039.34 16.3801C1039.34 16.3801 1038.5 22.0495 1039.92 27.04C1039.92 27.04 1042.16 18.0775 1044.61 15.8369C1044.61 15.8369 1044.3 19.7071 1045.42 21.4384C1045.42 21.4384 1047.56 15.3503 1049.7 12.7929C1049.7 12.7929 1049.09 14.8185 1049.7 17.5683C1049.7 17.5683 1055.56 3.044 1059.4 2.16699C1059.4 2.16699 1048.43 5.51658 1039.34 16.3801Z" fill="black"/>
<path d="M1072.33 69.4472C1072.33 69.4472 1084.01 63.4496 1085.58 58.2894C1087.14 53.1292 1094.73 29.3596 1083.13 9.95801C1083.13 9.95801 1084.15 22.1908 1082.25 25.1783C1082.25 25.1783 1085.1 22.3266 1085.24 21.1044C1085.24 21.1044 1084.83 29.2238 1082.66 33.1052C1082.66 33.1052 1086.59 31.8322 1086.86 30.0669C1086.86 30.0669 1084.69 44.7326 1080.21 49.757C1080.21 49.757 1085.78 46.498 1086.46 44.461C1086.45 44.461 1080.07 61.5711 1072.33 69.4472Z" fill="black"/>
<path d="M898.167 72.91C898.167 72.91 887.85 59.8738 887.579 53.6273C887.579 53.6273 888.801 56.0716 890.837 56.479C890.837 56.479 883.642 43.1711 884.728 36.8567C884.728 36.8567 885.407 38.4183 888.393 40.8626C888.393 40.8626 884.321 31.5438 886.221 25.1331C886.221 25.1331 886.493 28.098 887.986 29.5917C887.986 29.5917 887.551 9.81669 890.859 6.52368C890.859 6.52368 870.774 31.7531 888.953 68.0837C888.953 68.0837 891.516 71.2805 898.167 72.91Z" fill="black"/>
<path d="M931.969 27.1473C931.969 27.1473 933.292 21.4666 932.563 18.0605C932.563 18.0605 914.864 -0.628213 903.326 0.016809C903.326 0.016809 917.036 8.13617 918.055 15.7406C918.055 15.7406 918.937 11.8026 918.055 9.49411C918.055 9.49411 923.552 15.0617 923.96 23.2093C923.96 23.2093 925.317 18.3207 925.046 15.8764C925.046 15.8764 929.39 16.827 931.969 27.1473Z" fill="black"/>
<path d="M913.322 89.3699C914.415 86.5799 914.566 84.0296 913.659 83.6737C912.752 83.3177 911.129 85.2909 910.036 88.0809C908.942 90.8708 908.791 93.4211 909.698 93.7771C910.606 94.133 912.228 92.1599 913.322 89.3699Z" fill="black"/>
<path d="M907.431 106.131C908.277 106.089 908.858 103.95 908.73 101.354C908.602 98.7569 907.813 96.6856 906.967 96.7274C906.122 96.7691 905.54 98.9081 905.668 101.505C905.796 104.102 906.586 106.173 907.431 106.131Z" fill="black"/>
<path d="M911.87 122.915C912.587 122.879 913.081 121.064 912.972 118.861C912.864 116.657 912.194 114.899 911.476 114.935C910.759 114.97 910.265 116.785 910.374 118.989C910.482 121.192 911.152 122.95 911.87 122.915Z" fill="black"/>
<path d="M916.922 112.672C917.764 112.631 918.344 110.494 918.216 107.901C918.088 105.307 917.301 103.238 916.458 103.28C915.616 103.322 915.037 105.458 915.165 108.051C915.293 110.645 916.079 112.714 916.922 112.672Z" fill="black"/>
<path d="M922.916 95.5113C923.892 93.0209 924.028 90.745 923.22 90.4278C922.411 90.1107 920.964 91.8724 919.988 94.3627C919.012 96.853 918.876 99.1289 919.684 99.4461C920.493 99.7633 921.94 98.0016 922.916 95.5113Z" fill="black"/>
<path d="M933.589 108.222C934.055 107.49 932.606 105.73 930.351 104.293C928.096 102.855 925.889 102.283 925.423 103.016C924.956 103.748 926.405 105.508 928.66 106.946C930.915 108.383 933.122 108.955 933.589 108.222Z" fill="black"/>
<path d="M930.898 121.147C931.534 120.556 930.576 118.487 928.758 116.526C926.94 114.565 924.95 113.454 924.313 114.045C923.676 114.635 924.634 116.704 926.452 118.665C928.271 120.627 930.261 121.738 930.898 121.147Z" fill="black"/>
<path d="M920.896 135.302C921.792 135.006 921.833 132.686 920.987 130.119C920.141 127.552 918.729 125.71 917.833 126.005C916.937 126.301 916.897 128.621 917.743 131.188C918.588 133.755 920 135.597 920.896 135.302Z" fill="black"/>
<path d="M938.677 118.022C939.392 117.786 939.473 116.08 938.857 114.21C938.241 112.34 937.162 111.016 936.447 111.251C935.732 111.487 935.651 113.194 936.267 115.064C936.883 116.933 937.962 118.258 938.677 118.022Z" fill="black"/>
<path d="M934.298 133.847C935.013 133.611 935.094 131.905 934.478 130.035C933.862 128.165 932.783 126.841 932.068 127.077C931.353 127.312 931.273 129.019 931.889 130.889C932.505 132.758 933.584 134.083 934.298 133.847Z" fill="black"/>
<path d="M933.477 143.91C934.009 143.378 933.312 141.818 931.921 140.426C930.529 139.034 928.97 138.337 928.437 138.869C927.905 139.402 928.601 140.962 929.993 142.354C931.385 143.746 932.944 144.443 933.477 143.91Z" fill="black"/>
<path d="M1060.8 93.6488C1061.7 93.2929 1061.55 90.7426 1060.46 87.9526C1059.37 85.1626 1057.74 83.1895 1056.84 83.5454C1055.93 83.9014 1056.08 86.4517 1057.17 89.2416C1058.27 92.0316 1059.89 94.0048 1060.8 93.6488Z" fill="black"/>
<path d="M1064.82 101.368C1064.95 98.7717 1064.36 96.6328 1063.52 96.591C1062.67 96.5493 1061.88 98.6205 1061.76 101.217C1061.63 103.814 1062.21 105.953 1063.05 105.995C1063.9 106.037 1064.69 103.965 1064.82 101.368Z" fill="black"/>
<path d="M1060.11 118.85C1060.22 116.646 1059.72 114.831 1059.01 114.796C1058.29 114.76 1057.62 116.518 1057.51 118.721C1057.4 120.925 1057.89 122.74 1058.61 122.775C1059.33 122.811 1060 121.053 1060.11 118.85Z" fill="black"/>
<path d="M1055.32 107.917C1055.45 105.323 1054.87 103.187 1054.02 103.146C1053.18 103.104 1052.39 105.173 1052.27 107.766C1052.14 110.36 1052.72 112.496 1053.56 112.538C1054.4 112.58 1055.19 110.511 1055.32 107.917Z" fill="black"/>
<path d="M1050.82 99.3246C1051.62 99.0074 1051.49 96.7315 1050.51 94.2412C1049.54 91.7509 1048.09 89.9892 1047.28 90.3063C1046.47 90.6235 1046.61 92.8994 1047.58 95.3898C1048.56 97.8801 1050.01 99.6418 1050.82 99.3246Z" fill="black"/>
<path d="M1041.83 106.805C1044.09 105.367 1045.54 103.608 1045.07 102.875C1044.6 102.142 1042.4 102.714 1040.14 104.152C1037.89 105.59 1036.44 107.349 1036.9 108.082C1037.37 108.814 1039.58 108.243 1041.83 106.805Z" fill="black"/>
<path d="M1044.03 118.534C1045.85 116.573 1046.8 114.504 1046.17 113.913C1045.53 113.322 1043.54 114.433 1041.72 116.395C1039.9 118.356 1038.95 120.425 1039.58 121.015C1040.22 121.606 1042.21 120.495 1044.03 118.534Z" fill="black"/>
<path d="M1052.72 131.067C1053.57 128.5 1053.53 126.179 1052.63 125.884C1051.73 125.589 1050.32 127.43 1049.48 129.997C1048.63 132.564 1048.67 134.885 1049.57 135.18C1050.46 135.475 1051.87 133.634 1052.72 131.067Z" fill="black"/>
<path d="M1034.2 114.938C1034.82 113.068 1034.74 111.361 1034.02 111.125C1033.31 110.89 1032.23 112.214 1031.61 114.084C1031 115.954 1031.08 117.66 1031.79 117.896C1032.51 118.132 1033.59 116.807 1034.2 114.938Z" fill="black"/>
<path d="M1038.58 130.764C1039.19 128.894 1039.11 127.188 1038.4 126.952C1037.68 126.716 1036.6 128.041 1035.99 129.91C1035.37 131.78 1035.45 133.487 1036.17 133.722C1036.88 133.958 1037.96 132.634 1038.58 130.764Z" fill="black"/>
<path d="M1040.49 142.224C1041.88 140.832 1042.58 139.272 1042.05 138.74C1041.51 138.207 1039.96 138.904 1038.56 140.296C1037.17 141.688 1036.48 143.248 1037.01 143.781C1037.54 144.313 1039.1 143.616 1040.49 142.224Z" fill="black"/>
</g>
<defs>
<clipPath id="clip0_0_1">
<rect width="731" height="421" fill="white" transform="translate(0 152)"/>
</clipPath>
<clipPath id="clip1_0_1">
<rect width="353" height="672" fill="white" transform="translate(861)"/>
</clipPath>
</defs>
</svg>
