<svg width="307" height="312" viewBox="0 0 307 312" fill="none" xmlns="http://www.w3.org/2000/svg">
<path d="M282.597 74.7866C281.138 72.3618 279.643 69.9734 278.202 67.5304C273.296 59.1985 267.642 52.5074 261.441 47.4208C255.66 42.6805 249.732 38.6695 243.823 36.8281C237.495 34.8409 231.914 36.1171 226.643 39.3988C227.208 39.727 227.464 39.8546 227.719 40.0369C229.616 41.4043 231.604 42.4982 233.409 44.2484C237.057 47.8036 238.169 52.4163 236.218 56.2449C234.686 59.2167 232.935 61.9697 230.893 64.1575C228.12 67.1293 224.637 68.4967 220.57 67.8039C213.694 66.637 207.493 57.5576 204.903 48.8064C203.919 45.5064 204.356 42.5529 205.159 40.2557C207.074 34.7315 209.135 29.2802 213.457 27.3841C215.08 26.673 217.032 26.746 218.837 26.5636C219.53 26.4907 220.278 26.6913 220.989 26.7095C206.381 21.404 188.362 27.9675 181.285 57.9222C181.541 57.9222 181.723 57.9587 181.887 57.904C184.039 56.9924 186.428 57.3935 188.909 59.0526C191.918 61.0399 195 62.8631 197.517 66.9834C200.782 72.3253 201.639 78.0866 200.034 82.8633C198.848 86.4185 196.879 88.661 194.544 90.393C190.258 93.5836 186.191 97.2846 181.103 98.5244C177.163 99.4907 173.005 99.126 168.519 95.2244C167.041 93.9482 165.564 92.7084 164.105 91.3775C158.561 86.382 155.843 77.2661 156.427 72.0154C156.974 67.0746 157.904 62.4437 159.71 58.6698C159.874 58.3416 160.002 57.9769 160.22 57.4118C158.761 58.688 157.448 59.8366 156.153 60.9852C154.147 62.7537 151.63 62.6625 148.968 61.9697C145.776 61.131 139.958 52.7627 140.268 47.4208C140.45 44.2849 140.523 41.0214 141.034 38.159C141.891 33.4552 144.59 31.8873 147.8 31.395C148.256 31.3221 148.803 31.3404 149.278 31.6685C150.408 32.4525 151.521 33.437 152.633 34.3304C152.269 35.4425 151.94 36.5911 151.521 37.6485C151.302 38.1773 150.919 38.5054 150.591 38.9248C161.771 41.9512 173.99 36.0077 174.428 11.6865C174.227 11.9235 174.081 12.0147 174.027 12.197C171.473 18.3776 167.114 19.8726 161.534 18.2864C158.998 17.5754 156.445 17.0284 153.983 16.8461C149.715 16.5544 146.305 18.7969 143.569 22.2427C140.852 25.652 138.317 29.4625 136.183 33.7287C134.943 36.2082 134.414 39.7452 133.976 43.1363C133.411 47.676 133.429 52.6168 134.25 57.8493C135.107 63.4647 137.076 68.2414 140.45 72.3618C144.627 77.4302 148.858 82.4804 152.798 88.0046C157.795 95.0056 160.257 103.155 160.476 111.742C160.749 122.827 155.734 126.492 148.767 124.468C148.183 124.304 147.581 123.976 146.998 123.739C144.244 122.627 141.909 120.238 140.177 116.227C137.824 110.758 136.019 105.179 136.11 99.5453C136.165 95.5526 137.003 92.3803 139.356 90.7576C139.028 90.7759 138.663 90.7212 138.353 90.8306C136.055 91.6328 134.523 93.7841 133.265 96.4459C131.003 101.223 130.182 106.984 130.948 114.021C131.313 117.285 131.423 120.512 131.514 123.666C131.751 133.292 126.59 144.651 119.732 144.869C112.09 145.107 104.631 141.879 97.4636 131.943C95.1473 128.716 92.6487 125.708 91.3903 121.296C91.0985 120.275 90.8249 119.254 90.5878 118.251C89.4389 113.256 90.0407 110.375 92.5758 108.278C91.5362 108.023 90.4602 107.622 89.4388 107.549C85.7183 107.312 82.089 107.367 78.7514 108.789C75.5051 110.174 72.97 112.782 70.8361 116.227C67.7174 121.259 64.6535 126.419 60.1852 129.044C57.6501 130.539 54.8414 131.542 51.9598 131.998C48.9688 132.472 45.686 130.539 42.5126 127.786C42.1113 127.44 41.7648 126.911 41.3818 126.474C41.3089 126.674 41.2177 126.875 41.1447 127.094C42.0384 128.479 42.9138 129.901 43.8257 131.25C47.528 136.683 51.7045 139.765 56.0816 142.189C61.4801 145.179 66.386 145.052 71.3103 144.851C75.8698 144.669 80.4293 144.505 84.9888 144.359C89.5118 144.213 94.126 146.674 98.7402 150.23C100.746 151.779 102.789 153.511 104.668 155.59C107.458 158.689 107.823 162.335 105.817 164.687C104.412 166.328 102.625 166.875 100.655 166.912C95.0197 167.021 89.2929 166.219 83.3109 160.768C81.7971 159.4 80.3746 157.668 78.8426 156.228C81.633 160.695 84.4234 165.107 87.761 168.68C93.5242 174.861 99.4515 179.4 105.616 181.205C108.935 182.172 112.255 182.609 115.428 182.627C120.225 182.646 124.875 182.062 129.617 181.825C134.104 181.606 138.846 183.594 143.569 185.545C147.107 187.003 150.518 189.647 153.564 193.694C156.153 197.122 158.707 200.677 161.023 204.506C163.996 209.428 166.604 214.806 169.558 219.729C175.85 230.194 183.109 238.307 191.225 243.248C197.152 246.84 202.97 248.207 208.296 246.821C213.658 245.418 218.728 243.212 222.667 238.38C222.886 238.125 223.105 237.87 223.306 237.578C223.378 237.487 223.397 237.304 223.506 236.903C220.278 239.346 216.703 240.349 212.892 240.477C208.296 240.623 203.59 239.82 198.611 236.539C194.271 233.676 191.298 228.918 189.419 222.482C188.544 219.456 188.69 217.085 189.748 215.08C192.465 209.975 196.459 209.246 201.602 211.762C206.454 214.132 211.305 216.283 216.156 218.398C217.342 218.927 218.527 218.963 219.694 219.219C219.694 219.054 219.694 218.89 219.694 218.708C219.384 218.325 219.056 217.961 218.746 217.578C216.083 214.314 213.421 211.033 210.758 207.787C207.074 203.302 203.463 198.58 199.651 194.442C192.702 186.894 185.462 182.828 178.112 181.388C175.869 180.95 173.662 180.768 171.528 180.859C173.479 182.026 175.449 183.047 177.401 184.396C180.975 186.875 183.638 190.85 185.334 196.356C188.179 205.581 183.656 209.264 179.389 206.949C175.559 204.87 172.075 201.096 168.738 196.885C166.367 193.913 164.306 190.595 162.372 186.967C158.36 179.437 157.831 170.357 160.932 164.578C164.525 157.905 170.124 157.595 176.689 161.242C182.161 164.286 187.632 167.841 193.067 171.524C197.882 174.77 202.624 178.653 207.439 181.989C214.788 187.076 222.065 190.03 228.996 189.373C235.726 188.735 241.379 185.417 245.629 178.926C248.529 174.514 251.045 169.628 252.851 163.812C252.906 163.648 252.942 163.466 252.979 163.356C250.918 165.052 248.966 167.058 246.741 168.37C243.623 170.212 240.139 171.014 236.327 170.522C232.333 170.011 228.777 165.563 227.482 159.619C226.953 157.176 227.427 155.499 228.193 154.113C230.838 149.245 234.321 145.89 238.534 143.976C243.094 141.916 248.036 141.241 253.489 142.846C255.149 143.338 256.845 144.213 258.742 144.997C258.906 143.557 259.216 142.007 259.234 140.312C259.398 127.732 257.83 114.878 253.289 101.551C252.14 98.1962 251.264 94.7686 250.097 91.341C250.243 93.9117 250.407 96.4642 250.553 99.0349C250.991 106.291 250.225 112.472 247.07 116.647C244.68 119.819 241.544 121.132 237.914 120.749C233.811 120.33 229.579 119.144 225.421 118.415C221.281 117.686 217.396 118.069 213.566 118.816C208.095 119.874 205.013 124.924 202.441 130.995C202.368 131.177 202.314 131.378 202.277 131.579C202.259 131.615 202.295 131.688 202.368 131.998C203.919 129.537 205.943 128.242 208.204 127.476C212.472 126.018 216.029 129.537 219.056 135.808C222.302 142.536 222.12 148.443 220.533 153.566C219.111 158.179 216.831 161.497 213.129 162.554C209.335 163.648 205.414 162.463 201.383 158.835C198.739 156.447 196.259 153.274 193.742 150.339C191.334 147.531 189.036 144.468 186.611 141.715C183.419 138.087 179.954 136.373 176.543 134.532C175.413 133.912 174.264 133.566 173.133 133.019C172.768 132.837 172.403 132.435 172.039 132.125C172.221 131.706 172.312 131.032 172.586 130.94C174.72 130.211 176.872 129.464 179.097 128.99C181.978 128.37 184.988 128.224 187.814 127.458C192.1 126.328 194.435 121.715 196.532 116.829C197.736 114.021 198.684 110.94 199.742 107.968C201.912 101.824 205.451 97.9592 209.937 95.8261C211.086 95.2791 212.527 95.2426 213.895 95.4797C217.032 96.0084 220.187 97.0294 223.433 99.4906C230.674 104.997 235.78 99.436 237.075 92.0886C237.659 88.7886 237.823 85.1787 238.261 81.7512C239.464 72.1248 243.112 65.8713 248.985 62.7354C253.799 60.1648 259.234 60.4929 265.052 62.5349C270.852 64.5768 276.396 68.9889 281.776 74.6225C281.995 74.8595 282.232 75.0783 282.451 75.3153C282.47 75.0419 282.542 74.9142 282.597 74.7866Z" fill="#2CA3DD"/>
<path d="M270.433 119.819C270.888 118.962 271.344 118.123 271.764 117.23C272.767 115.079 274.372 114.058 276.105 113.42C278.33 112.617 280.5 114.568 281.831 118.452C283.035 121.952 283.527 125.343 283.163 128.516C281.904 139.491 277.855 146.492 270.888 149.3C269.065 150.029 267.186 150.576 265.308 151.469C266.11 151.743 266.913 152.162 267.679 152.272C272.986 153.001 277.199 150.612 280.956 147.003C285.406 142.718 287.576 135.881 288.196 127.203C288.561 122.226 289.09 117.267 290.111 112.836C291.57 106.546 294.032 101.441 297.862 98.2326C300.033 96.4095 302.841 96.9564 305.468 96.8106C305.814 96.7923 306.161 96.7923 306.854 96.7559C306.197 96.3365 305.924 96.0813 305.65 95.9719C298.555 93.0731 291.643 91.1952 285.205 92.7449C281.959 93.5288 279.351 95.589 277.308 98.7978C274.5 103.192 272.165 108.205 270.907 114.459C270.578 116.1 270.36 117.832 270.086 119.509C270.214 119.618 270.323 119.728 270.433 119.819Z" fill="#2CA3DD"/>
<path d="M189.492 9.62637C191.499 8.95179 193.468 8.16783 195.529 7.6391C196.441 7.42032 197.517 7.58441 198.538 7.85789C200.38 8.35014 200.727 8.8971 201.292 11.1578C204.903 10.8114 208.46 10.1733 212.162 10.2098C217.707 10.2645 223.47 11.9053 229.324 14.4942C232.735 15.9892 236.145 17.3749 239.556 18.7969C239.957 18.961 240.358 19.0157 240.96 19.1798C236.948 16.0804 233.154 13.2363 229.379 10.1916C222.704 4.81318 216.047 1.75025 209.408 0.401099C203.007 -0.893356 197.59 0.875125 193.176 5.63361C191.955 6.96453 190.623 8.0949 189.347 9.31643C189.383 9.42582 189.438 9.53521 189.492 9.62637Z" fill="#2CA3DD"/>
<path d="M100.218 292.237C71.9305 285.272 40.6889 257.122 40.6889 257.122L56.5012 257.852C49.7349 250.213 43.461 241.735 37.6431 232.273C35.3998 228.644 33.3025 224.962 31.3328 221.261C6.45618 189.72 -4.57764e-05 157.668 -4.57764e-05 157.668L12.6753 167.404C9.11893 147.367 9.17363 130.193 12.8395 113.584C12.8395 113.584 13.186 78.2689 28.5788 51.8875L33.1931 62.5896C35.7646 59.162 38.555 55.8621 41.5825 52.708C49.589 44.3761 58.6168 37.7215 68.4288 32.9265C83.2198 25.6885 100.017 22.5526 118.364 23.6101C140.305 24.8681 157.339 33.437 168.245 39.7634C194.034 54.7682 214.643 74.8413 229.47 99.4542C248.802 131.506 257.411 166.164 255.076 202.427C254.146 217.013 251.337 230.303 246.504 243.029C244.954 247.113 242.966 250.924 241.215 254.278C240.486 255.682 239.775 257.013 239.154 258.307L235.051 266.639L232.954 266.749C232.352 267.824 231.622 268.918 230.783 269.994C221.591 281.589 210.338 290.705 197.317 297.068C185.662 302.756 172.987 305.965 160.056 306.567C141.727 310.943 121.611 311.982 121.611 311.982L130.292 303.613C120.006 301.225 110.084 297.469 100.218 292.237Z" fill="#2CA3DD"/>
<path d="M63.3952 59.0709C47.5829 140.056 97.0807 240.787 172.331 277.761C165.747 278.198 159.783 279.402 154.804 276.649C150.846 274.461 147.29 271.744 143.606 269.192C142.84 268.663 142.019 267.897 141.8 267.059C139.812 259.711 133.994 255.773 126.954 252.747C124.821 251.835 122.833 250.431 121.319 248.827C104.467 231.015 91.4087 210.777 80.2106 189.373C79.3169 187.641 78.8427 185.654 78.4962 183.703C77.4931 178.215 75.031 173.457 72.1494 168.735C68.7207 163.156 65.8208 157.194 63.5411 151.05C57.5226 134.86 53.729 117.959 52.5253 100.348C52.3429 97.6675 52.9995 94.7687 53.7108 92.0157C54.495 88.9163 56.3188 85.8716 56.7018 82.8086C57.1213 79.4905 56.3006 76.1905 56.2459 72.8723C56.2277 71.2497 56.2641 69.4265 57.0301 67.9498C58.6533 64.7957 60.7689 61.7874 62.6839 58.7245C62.921 58.8521 63.1581 58.9615 63.3952 59.0709Z" fill="white"/>
<path d="M122.103 159.382C122.048 158.452 122.213 157.413 121.884 156.593C119.769 151.251 117.562 145.963 115.355 140.621C114.443 140.64 113.549 140.658 111.945 140.676C116.048 136.446 112.966 133.347 112.182 129.938C111.16 125.526 109.993 121.15 108.862 116.574C107.604 116.774 106.473 116.975 104.23 117.34C105.78 115.516 106.838 114.295 108.096 112.836C106.2 101.66 105.269 89.919 106.728 77.886C107.987 67.5304 110.887 57.3753 117.927 48.223C120.662 44.6678 124.219 41.5684 127.41 38.2684C127.611 38.4143 127.812 38.5784 128.012 38.7242C127.885 38.9795 127.83 39.3076 127.629 39.49C117.507 48.5694 114.078 59.6725 112.528 71.1768C110.084 89.208 112.163 106.583 116.212 123.465C125.751 163.138 145.995 196.666 178.477 222.938C186.538 229.465 195.201 235.354 206.18 237.924C211.724 239.219 217.615 239.638 222.302 240.313C218.436 242.118 209.354 241.644 194.471 238.198C194.198 240.258 193.906 242.409 193.614 244.561C193.195 244.597 192.793 244.634 192.374 244.67C192.155 243.029 191.517 241.352 191.845 239.729C192.283 237.523 191.334 236.721 189.529 235.846C185.79 234.059 182.252 231.999 178.55 230.03C176.999 235.08 175.559 239.985 173.99 244.871C172.695 248.918 171.364 252.947 169.868 256.958C167.917 262.227 168.883 266.822 171.783 270.924C174.519 274.771 179.243 275.099 184.057 274.607C188.052 274.206 192.064 273.221 196.076 272.711C189.164 276.466 181.978 277.797 174.884 276.193C167.789 274.588 163.74 264.853 166.622 257.396C169.905 248.936 173.133 240.459 176.525 232.017C177.309 230.066 177.255 228.808 175.486 227.587C172.13 225.272 169.029 222.664 165.82 220.185C165.035 220.987 164.324 221.716 163.357 222.701C163.066 221.972 162.683 221.552 162.774 221.169C163.777 217.268 160.968 215.335 158.743 213.02C155.971 210.139 153.454 207.058 150.718 204.141C150.117 203.503 149.077 203.229 147.654 202.482C145.776 195.572 139.52 190.285 136.019 183.193C134.341 184.232 133.064 185.016 131.751 185.836C131.66 185.526 131.496 185.308 131.569 185.216C134.706 181.278 133.101 178.197 131.131 174.934C128.559 170.667 126.498 166.109 124.128 161.716C123.672 160.859 122.869 160.202 122.213 159.455L122.103 159.382Z" fill="white"/>
<path d="M135.289 50.9577C140.451 48.1683 145.831 47.4937 151.266 48.1683C160.677 49.3169 168.446 53.2549 175.595 58.1046C187.906 66.4365 197.499 77.0656 206.016 88.5516C217.47 103.976 226.06 120.895 232.151 139.035C237.914 156.191 241.635 173.858 239.829 192.746C239.082 200.513 237.167 208.134 232.862 215.426C229.871 220.513 225.987 224.05 220.917 226.183C222.886 223.758 224.984 221.552 226.607 219.109C232.461 210.34 233.829 200.95 234.23 191.579C234.942 175.116 231.513 159.583 226.643 144.45C221.573 128.68 214.606 113.766 205.578 99.8918C194.362 82.608 181.121 66.9652 161.935 56.3726C154.111 52.0334 145.521 49.4263 135.289 50.9577Z" fill="white"/>
<path d="M69.7419 206.475C67.0062 203.703 64.2705 200.95 61.5348 198.179C61.6443 197.997 61.7537 197.833 61.8631 197.65C62.0455 197.359 62.2461 197.067 62.4285 196.775C62.9939 197.012 63.5593 197.231 64.1429 197.468C64.7265 197.705 65.3283 197.942 65.9484 198.197C65.9119 198.051 65.8755 197.851 65.839 197.65C65.8207 197.541 65.7843 197.432 65.7478 197.322C65.7113 197.213 65.6749 197.103 65.6201 197.012C64.9453 195.59 64.2705 194.168 63.5957 192.746C61.2066 187.696 58.8356 182.664 56.2276 177.723C56.0087 177.304 55.6987 176.903 55.3704 176.538C55.188 176.337 54.9692 176.137 54.7503 175.936C54.3855 175.608 54.0026 175.28 53.6013 174.97C53.5101 174.897 53.4189 174.824 53.3095 174.751C53.1818 174.66 53.0724 174.551 52.9448 174.46C52.7259 174.296 52.507 174.113 52.3064 173.931C52.0876 173.749 51.887 173.566 51.6681 173.384C51.7593 173.366 51.8322 173.329 51.9234 173.311C52.5435 173.147 53.2183 172.983 54.039 172.764C53.6378 171.579 53.2366 170.412 52.8353 169.245C51.6863 165.909 50.5373 162.591 49.4431 159.273C49.3884 159.127 49.3336 158.963 49.2789 158.817C48.823 157.431 48.4035 156.027 48.0023 154.623C47.8016 153.912 47.5828 153.22 47.3822 152.527C47.1633 151.834 46.9445 151.123 46.7256 150.43C46.5797 150.011 45.9414 149.774 45.5219 149.446H45.4854L45.5037 149.427C45.6313 149.373 45.759 149.318 45.8866 149.263C45.9596 149.227 46.0326 149.19 46.1055 149.172C46.1967 149.136 46.2879 149.099 46.3973 149.063C46.4885 149.026 46.5797 149.008 46.6709 148.972C46.8533 148.917 47.0357 148.862 47.218 148.826C48.5129 148.552 49.6984 148.716 50.7927 149.117C51.358 149.336 51.9234 149.628 52.4523 149.956C52.6347 150.066 52.7988 150.175 52.9812 150.303C53.1089 150.394 53.2548 150.503 53.3825 150.594C53.7472 150.849 54.0937 151.123 54.4403 151.396C54.7685 151.67 55.0968 151.962 55.4251 152.253C55.8446 152.636 56.2458 153.037 56.6288 153.457C57.2124 154.077 57.7413 154.715 58.252 155.389C58.5803 155.827 58.9086 156.283 59.2186 156.738C61.0971 159.528 62.4832 162.627 63.7781 165.818C67.6993 175.389 72.3135 184.669 76.5447 194.113C77.2742 195.718 77.8213 197.45 78.0949 199.218C78.3867 201.06 78.6603 202.901 78.9339 204.743C79.2621 207.003 79.5904 209.282 79.9187 211.543C80.2652 214.004 80.6117 216.484 80.9583 218.945C81.2318 218.89 81.4872 218.854 81.7607 218.817C81.6331 217.432 81.5054 216.064 81.3777 214.661C80.9947 210.486 80.6117 206.238 80.1923 201.588C85.9919 209.957 91.1168 217.851 96.7706 225.363C102.443 232.874 108.644 240.021 114.826 247.587C109.045 245.618 103.61 243.503 97.9378 241.99C95.0927 241.224 91.7187 241.68 89.2383 239.912C87.6334 238.763 85.9737 237.687 84.7882 236.046C87.5787 237.359 90.3691 238.672 93.1595 239.985C93.2689 239.82 93.3966 239.656 93.506 239.51C91.2992 236.466 89.0742 233.439 86.8491 230.395C84.6241 227.35 82.4173 224.305 80.2652 221.242C78.9886 219.419 77.7301 217.578 76.5264 215.7C76.1252 215.08 75.724 214.442 75.341 213.822C74.8303 212.983 74.3196 212.126 73.8455 211.27C72.4958 208.881 71.6934 206.201 70.5262 203.722C70.4532 203.539 70.3255 203.375 70.1979 203.229C70.1614 203.193 70.1249 203.156 70.0884 203.12C70.0155 203.047 69.9425 202.992 69.8513 202.919C69.4683 202.628 68.9942 202.391 68.4288 202.208L70.3255 206.092C70.1432 206.201 69.9425 206.347 69.7419 206.475ZM94.6732 226.529C91.5363 223.722 88.3994 220.914 85.2624 218.125C85.0253 218.307 84.77 218.489 84.5329 218.672C86.0467 223.029 89.4207 225.654 94.6732 226.529ZM55.0421 174.678C60.5135 180.677 65.9666 186.675 71.4198 192.673C67.7722 185.307 63.1398 178.671 55.9905 173.949C55.6805 174.186 55.3704 174.423 55.0421 174.678Z" fill="white"/>
<path d="M45.5403 149.409C44.7196 149.3 43.8989 149.19 42.7681 149.063C43.9171 148.498 44.829 148.06 45.8868 147.531C44.7561 141.46 43.6435 135.316 42.4763 129.19C42.2027 127.768 42.294 126.711 43.6618 125.252C45.0844 123.757 45.7592 121.515 46.2516 119.546C47.2729 115.407 47.9842 111.232 49.1514 107.093C50.4281 114.769 51.4676 122.536 53.0726 130.12C54.6775 137.796 56.8296 145.325 58.854 153.311C57.322 152.144 56.1913 150.995 54.7505 150.266C52.8537 149.3 50.7928 148.425 48.6225 147.969C47.8383 147.805 46.5616 148.899 45.5038 149.427C45.4856 149.427 45.5403 149.409 45.5403 149.409ZM49.2244 130.466C49.7897 130.284 50.3734 130.102 50.9387 129.919C50.118 127.331 49.2973 124.742 48.4949 122.153C47.9842 122.335 47.4918 122.499 46.9811 122.681C47.7289 125.27 48.4766 127.859 49.2244 130.466Z" fill="white"/>
<path d="M122.249 159.437C119.75 162.828 117.525 166.401 114.717 169.592C102.625 183.375 100.619 197.723 105.543 212.455C107.02 216.885 110.121 220.349 114.571 222.427C122.942 226.347 131.477 230.066 140.104 233.567C143.314 234.88 146.98 235.463 150.518 236.192C154.567 237.031 155.807 236.448 157.959 232.929C158.98 231.252 159.819 229.501 160.713 227.86C161.497 234.096 156.099 239 149.478 237.906C136.292 235.737 124.419 231.124 113.203 225.253C105.197 221.06 101.786 214.241 100.692 205.982C98.8497 191.926 102.497 178.908 114.607 167.44C117.27 164.906 119.605 162.098 122.085 159.418C122.103 159.382 122.249 159.437 122.249 159.437Z" fill="white"/>
<path d="M143.679 274.279C132.517 271.434 122.833 266.658 114.133 260.459C121.556 263.066 127.155 268.627 135.8 269.265C126.973 265.017 119.659 258.545 109.191 256.393C109.337 256.977 109.428 257.323 109.628 258.143C108.023 257.287 106.765 256.612 105.525 255.956C105.78 255.773 106.036 255.591 106.291 255.409C104.96 250.687 99.9076 248.207 97.7555 244.105C118.237 248.244 130.201 262.154 143.679 274.279Z" fill="white"/>
<path d="M104.631 145.216C104.449 145.872 104.467 145.982 104.394 146.055C98.4304 152.49 96.8985 152.819 90.3875 148.479C83.2565 143.721 75.8518 139.181 70.8546 132.381C62.1004 120.512 62.1916 107.166 69.2497 92.9819C72.7879 85.8897 79.7548 81.9881 87.287 79.1622C92.4301 77.2297 97.7009 75.7164 102.917 74.0209C102.99 74.2397 103.063 74.4402 103.154 74.659C98.9593 76.3545 94.8193 78.1959 90.5699 79.7274C75.6877 85.1058 69.3409 92.5079 67.8271 106.419C66.4228 119.4 69.8333 130.321 80.4843 138.215C84.9161 141.497 89.2932 144.851 93.5427 148.315C95.9318 150.248 98.1751 150.23 100.801 147.914C101.841 147.021 103.081 146.31 104.631 145.216Z" fill="white"/>
<path d="M82.1804 39.2894C80.7213 40.9667 79.2805 42.6622 77.8032 44.3396C75.9065 46.4909 75.9065 48.4052 77.3108 50.5019C79.6271 53.9295 81.7974 57.4482 83.7671 61.0763C84.6425 62.6989 85.6821 63.1365 87.7247 62.6078C90.9711 61.7691 94.2721 61.1492 97.6279 60.8575C93.6703 63.1365 89.6215 65.1967 85.1167 65.1602C83.8765 65.142 82.4722 64.1028 81.7974 63.1183C79.4629 59.8001 77.3473 56.3543 75.2864 52.872C72.6966 48.4782 73.1343 46.418 77.3655 42.3888C78.6787 41.1308 80.1559 40.0186 81.5603 38.8518C81.7609 38.9977 81.9615 39.1435 82.1804 39.2894Z" fill="white"/>
<path d="M41.2909 125.27C42.6952 115.061 44.0813 104.869 45.4856 94.6045C47.0358 94.805 47.8748 94.9144 49.042 95.0603C47.2364 104.814 45.3397 115.115 43.4429 125.416C42.7316 125.361 42.0021 125.325 41.2909 125.27Z" fill="white"/>
<path d="M191.407 181.388C192.702 182.5 193.979 183.612 195.292 184.706C197.262 186.347 199.286 185.854 202.441 183.029C204.557 181.132 202.715 180.166 201.748 179.236C199.414 176.994 196.861 174.934 194.38 172.801C191.006 169.902 188.763 166.346 188.033 161.861C189.602 163.794 191.024 165.836 192.775 167.604C196.605 171.451 200.545 175.207 204.539 178.926C206.6 180.841 205.998 182.554 203.754 184.396C199.268 188.079 196.459 188.097 193.14 184.469C192.392 183.648 191.663 182.792 190.915 181.953C191.079 181.734 191.243 181.57 191.407 181.388Z" fill="#AA3B17"/>
<path d="M123.799 225.837C116.377 214.187 117.726 203.047 128.231 191.306C127.119 194.314 126.644 196.885 125.277 199.073C122.432 203.594 121.738 208.061 122.359 212.728C122.887 216.83 123.27 220.987 123.799 225.837Z" fill="white"/>
<path d="M76.3623 126.674C76.8365 119.454 77.1648 112.216 82.1255 105.452C84.9159 101.624 89.6213 99.0166 94.2173 98.9072C88.3264 102.025 83.8581 105.762 81.9978 111.287C80.2652 116.428 78.7697 121.624 77.183 126.784C76.9277 126.747 76.6541 126.711 76.3623 126.674Z" fill="white"/>
<path d="M157.558 132.508C158.999 132.873 160.823 132.855 161.789 133.657C168.282 138.999 171.747 145.927 171.856 154.368C171.875 155.608 170.707 156.994 169.796 158.179C169.832 147.659 166.148 139.291 157.43 133.384C157.467 133.074 157.521 132.782 157.558 132.508Z" fill="#AA3B17"/>
<path d="M109.172 37.0287C104.285 38.3778 99.2509 39.3806 94.4908 41.1673C89.8401 42.9175 85.4448 45.47 81.1041 47.6031C86.9038 39.7087 100.181 34.2027 109.172 37.0287Z" fill="white"/>
<path d="M91.4635 141.934C87.214 131.196 90.661 122.827 100.327 119.874C92.6854 126.2 90.5516 133.73 91.4635 141.934Z" fill="white"/>
<path d="M174.081 157.96C176.762 149.683 168.081 132.745 159.856 129.774C163.959 129.318 168.008 132.217 171.291 138.488C174.446 144.45 177.839 150.467 174.081 157.96Z" fill="#AA3B17"/>
<path d="M145.429 209.392C142.42 217.486 144.627 225.053 144.919 232.819C139.739 226.858 139.958 216.265 145.429 209.392Z" fill="white"/>
<path d="M103.336 46.181C97.0079 49.2804 90.5334 52.4345 84.5148 55.388C87.4694 49.4627 99.3058 43.2457 103.336 46.181Z" fill="white"/>
<path d="M191.243 251.817C191.006 257.906 190.769 263.996 190.55 269.83C186.556 267.952 186.429 259.31 191.243 251.817Z" fill="white"/>
<path d="M89.1471 153.201C92.3206 157.851 92.9224 163.101 91.4634 168.808C88.673 164.086 88.5271 158.762 89.1471 153.201Z" fill="white"/>
<path d="M187.231 132.217C185.152 131.907 183.164 131.597 181.158 131.287C184.477 130.977 188.325 130.211 189.565 133.365C190.076 134.642 188.781 137.395 187.395 138.58C184.422 141.114 181.65 139.035 178.933 137.814C179.954 137.796 181.03 137.595 181.997 137.759C185.772 138.434 186.137 138.215 186.921 134.532C187.012 134.076 187.049 133.602 187.231 132.217Z" fill="#AA3B17"/>
<path d="M207.785 265.235C202.113 261.06 201.675 257.305 206.089 252.382C206.636 256.575 207.202 260.842 207.785 265.235Z" fill="white"/>
<path d="M52.1424 87.6218C52.6166 82.845 53.0908 78.0501 53.565 73.2734C53.9298 73.2734 54.2763 73.2551 54.641 73.2551C56.5378 77.9954 55.8083 82.7903 52.1424 87.6218Z" fill="white"/>
<path d="M151.175 253.184C149.697 249.429 148.22 245.673 146.506 241.297C151.102 243.266 153.436 248.462 152.269 252.692C151.904 252.856 151.539 253.02 151.175 253.184Z" fill="white"/>
<path d="M78.3503 63.173C76.9278 67.8221 75.487 71.3043 71.0916 74.1303C71.8576 69.5541 73.8091 66.2359 78.3503 63.173Z" fill="white"/>
<path d="M167.37 162.445C168.282 168.863 169.011 170.23 172.969 173.256C169.741 173.894 168.574 172.09 167.516 170.266C166.257 168.06 165.2 165.763 167.37 162.445Z" fill="#AA3B17"/>
<path d="M181.45 147.586C182.106 153.566 182.927 155.152 186.939 158.142C184.331 158.853 183.127 157.468 182.088 156.1C179.717 152.983 179.516 150.613 181.45 147.586Z" fill="#AA3B17"/>
<path d="M148.585 144.541C148.311 149.409 149.825 152.818 153.691 154.988C151.776 155.754 150.956 155.48 149.168 153.438C146.524 150.412 146.214 147.586 148.585 144.541Z" fill="#AA3B17"/>
<path d="M168.92 119.965C168.646 125.07 170.014 128.589 173.954 130.849C171.4 131.469 170.032 130.849 168.464 127.878C167.351 125.708 166.531 123.356 168.92 119.965Z" fill="#AA3B17"/>
<path d="M148.949 117.759C148.822 122.153 150.463 125.526 154.713 127.969C151.612 128.57 150.299 127.258 149.332 125.69C147.819 123.301 146.524 120.785 148.949 117.759Z" fill="#AA3B17"/>
<path d="M176.799 137.577C178.276 140.603 179.753 143.63 181.304 146.784C177.565 146.802 175.705 142.645 176.799 137.577Z" fill="#AA3B17"/>
<path d="M122.359 39.1983C119.896 38.3232 117.434 37.4298 114.206 36.2812C119.404 34.8774 122.067 35.6796 122.942 38.2685C122.742 38.5784 122.541 38.8884 122.359 39.1983Z" fill="white"/>
<path d="M138.189 265.053C135.326 262.501 132.481 259.93 129.617 257.378C129.927 257.086 130.237 256.794 130.547 256.503C133.429 259.037 136.329 261.571 139.21 264.087C138.882 264.415 138.536 264.743 138.189 265.053Z" fill="white"/>
<path d="M217.707 260.258C216.393 257.104 216.922 255.226 220.588 252.619C219.913 255.664 219.384 258.034 218.874 260.404C218.473 260.349 218.09 260.313 217.707 260.258Z" fill="white"/>
<path d="M219.439 248.608C219.275 246.821 219.129 245.035 218.91 242.628C222.467 244.78 222.576 245.655 219.439 248.608Z" fill="white"/>
<path d="M110.559 45.5429C112.784 43.7197 114.407 44.2302 115.465 47.0196C113.768 46.892 112.054 46.7462 110.358 46.6185C110.431 46.2539 110.486 45.9075 110.559 45.5429Z" fill="white"/>
<path d="M206.818 248.882C206.344 246.694 206.016 245.144 205.578 243.066C209.299 244.561 209.445 245.199 206.818 248.882Z" fill="white"/>
<path d="M103.336 60.5112C106.036 57.0836 107.075 56.9013 109.829 59.3808C107.513 59.7819 105.762 60.0918 103.336 60.5112Z" fill="white"/>
<path d="M99.8164 94.9692C101.348 94.003 102.899 93.0549 104.431 92.0886C104.704 92.5262 104.996 92.9638 105.27 93.3831C103.683 94.2764 102.114 95.188 100.528 96.0814C100.309 95.7167 100.053 95.3521 99.8164 94.9692Z" fill="black"/>
<path d="M171.163 165.362C171.747 166.565 172.349 167.769 172.932 168.972C172.531 169.172 172.148 169.391 171.747 169.592C171.09 168.443 170.434 167.276 169.777 166.128C170.233 165.872 170.707 165.617 171.163 165.362Z" fill="#AA3B17"/>
<path d="M85.2625 218.125C88.3995 220.932 91.5364 223.74 94.6733 226.548C89.4208 225.673 86.0468 223.029 84.533 218.672C84.7884 218.471 85.0254 218.307 85.2625 218.125Z" fill="white"/>
<path d="M49.2243 130.466C48.4766 127.877 47.7288 125.27 46.9811 122.681C47.4917 122.499 47.9842 122.335 48.4948 122.153C49.3155 124.742 50.1363 127.331 50.9387 129.919C50.3733 130.102 49.7897 130.284 49.2243 130.466Z" fill="black"/>
<path d="M132.973 139.71C133.228 139.546 133.484 139.4 133.739 139.236C135.034 139.856 136.219 140.786 137.642 141.023C139.064 141.278 141.217 141.333 142.128 140.567C142.967 139.856 143.186 137.595 142.621 136.592C140.979 133.693 139.101 130.831 136.767 128.406C132.225 123.702 126.736 119.764 125.386 112.891C123.197 101.77 121.793 90.5389 123.745 78.7794C123.982 77.3209 124.292 76.227 126.298 75.7529C129.617 74.969 130.657 75.2242 131.295 78.8706C133.52 92.0157 140.742 102.535 148.931 112.581C149.934 113.821 151.357 114.751 152.579 115.808C152.871 115.644 153.162 115.498 153.454 115.334C153.637 113.821 153.746 112.308 154.038 110.794C154.694 107.203 155.205 103.575 156.299 100.038C156.682 98.7979 158.561 96.9382 159.673 96.8471C160.895 96.7559 162.628 98.1415 163.084 99.3266C163.777 101.204 163.813 103.411 163.722 105.507C163.595 108.515 162.847 111.56 162.847 114.55C162.847 116.501 163.704 118.342 164.16 120.238C164.215 117.34 163.759 114.641 163.813 111.888C163.868 109.281 164.652 106.619 164.798 104.012C164.908 102.098 165.017 99.9647 164.16 98.4332C163.412 97.0841 161.442 95.7532 159.801 95.7349C158.451 95.7167 156.062 97.4487 155.442 98.7614C154.056 101.697 153.436 104.851 152.634 107.932C152.251 109.409 152.214 110.922 151.922 113.164C143.533 102.59 135.271 92.9819 133.903 79.5998C133.265 73.4375 131.879 72.9453 124.839 73.4922C131.259 61.2405 146.615 64.2487 153.108 66.1995C153.801 66.5824 154.512 66.9652 155.169 67.3481C161.935 71.2315 167.789 76.0446 173.024 81.4777C195.839 105.38 210.138 133.712 217.524 165.563C220.041 176.392 221.518 187.532 219.166 199.073C218.217 203.74 216.321 208.571 213.767 212.892C210.813 217.888 204.995 221.425 197.39 218.526C186.866 214.515 178.696 208.024 171.437 200.531C169.795 198.854 168.792 196.465 168.136 194.186C167.26 191.069 167.023 187.714 166.385 183.758C164.707 186.11 163.54 187.751 162.19 189.61C160.932 188.188 160.038 186.967 158.889 185.946C157.211 184.469 157.339 183.229 158.689 181.023C161.698 176.137 160.184 171.67 157.412 167.714C155.059 164.341 151.758 162.372 146.706 163.101C145.794 163.229 144.317 162.737 143.989 162.099C140.232 154.678 136.621 147.185 132.973 139.71ZM181.45 147.586C179.516 150.613 179.717 153.001 182.088 156.1C183.127 157.468 184.331 158.853 186.939 158.142C182.927 155.134 182.106 153.566 181.45 147.586ZM181.322 146.766L176.817 137.559C175.686 142.645 177.565 146.802 181.322 146.766ZM168.482 127.859C170.051 130.831 171.419 131.451 173.972 130.831C170.014 128.57 168.665 125.052 168.938 119.947C166.531 123.356 167.352 125.708 168.482 127.859ZM187.395 138.598C188.781 137.413 190.076 134.66 189.565 133.384C188.307 130.229 184.459 130.995 181.158 131.305C183.164 131.615 185.152 131.907 187.231 132.235C187.049 133.602 187.03 134.076 186.921 134.569C186.155 138.251 185.79 138.47 181.997 137.796C181.048 137.632 179.954 137.814 178.933 137.85C181.632 139.054 184.404 141.132 187.395 138.598ZM193.14 184.451C196.459 188.097 199.268 188.061 203.755 184.378C205.998 182.536 206.6 180.823 204.539 178.908C200.545 175.189 196.605 171.451 192.775 167.586C191.006 165.818 189.602 163.758 188.033 161.843C188.745 166.328 190.988 169.883 194.362 172.782C196.842 174.915 199.396 176.976 201.73 179.218C202.697 180.148 204.539 181.114 202.423 183.01C199.25 185.836 197.225 186.347 195.274 184.688C193.961 183.594 192.684 182.482 191.389 181.369C191.225 181.552 191.079 181.734 190.915 181.916C191.663 182.755 192.392 183.612 193.14 184.451ZM171.291 138.47C168.008 132.217 163.959 129.3 159.856 129.755C168.081 132.727 176.762 149.683 174.081 157.942C177.838 150.467 174.446 144.45 171.291 138.47ZM169.795 158.16C170.689 156.994 171.856 155.59 171.856 154.35C171.747 145.909 168.282 138.981 161.789 133.639C160.804 132.837 158.98 132.855 157.558 132.49C157.521 132.782 157.467 133.074 157.43 133.365C166.148 139.254 169.832 147.641 169.795 158.16ZM154.713 127.969C150.463 125.526 148.822 122.171 148.949 117.759C146.524 120.767 147.837 123.283 149.332 125.69C150.299 127.258 151.612 128.57 154.713 127.969ZM171.747 169.592C172.148 169.391 172.531 169.172 172.932 168.972L171.163 165.362C170.689 165.617 170.233 165.872 169.759 166.11C170.416 167.276 171.09 168.425 171.747 169.592ZM167.516 170.266C168.555 172.09 169.741 173.894 172.969 173.256C169.011 170.23 168.282 168.862 167.37 162.445C165.218 165.763 166.257 168.06 167.516 170.266ZM149.187 153.457C150.974 155.499 151.795 155.772 153.71 154.988C149.843 152.8 148.329 149.391 148.603 144.541C146.214 147.586 146.524 150.412 149.187 153.457Z" fill="#EC671B"/>
<path d="M42.2756 154.897C38.9745 138.671 37.5337 122.135 40.8348 104.942C41.8197 99.8188 42.2209 94.6592 43.534 89.5908C47.0357 76.1722 53.1272 63.5194 63.3769 52.4345C68.5565 46.8374 74.1373 42.3523 80.0464 38.9065C93.2507 31.1945 108.169 28.6056 124.273 29.9183C140.122 31.231 153.509 37.2657 165.893 44.9048C189.164 59.2714 207.42 77.8678 220.844 100.402C237.914 129.044 246.924 160.312 245.556 194.879C245.082 206.876 243.167 218.854 239.045 230.705C237.44 235.354 234.942 239.839 232.862 244.397C232.534 244.397 232.224 244.415 231.896 244.433L230.072 240.696L229.434 240.805C229.288 243.066 229.361 245.326 228.905 247.569C228.522 249.429 227.938 251.489 226.734 253.075C212.983 271.27 192.885 281.498 171.054 281.991C167.406 282.063 163.722 281.881 160.02 281.425C138.499 278.745 121.045 269.666 105.306 257.906C88.6001 245.418 75.7787 229.939 65.2919 212.692C54.4038 194.788 46.5068 175.608 42.2756 154.897ZM45.4855 94.6046C44.0812 104.869 42.6768 115.061 41.2908 125.27C42.002 125.307 42.7315 125.362 43.4428 125.416C45.3396 115.115 47.2363 104.814 49.0419 95.0603C47.8564 94.9145 47.0357 94.8051 45.4855 94.6046ZM53.5649 73.2734C53.0907 78.0684 52.6165 82.8451 52.1423 87.6218C55.8264 82.7904 56.5559 77.9954 54.6409 73.2552C54.2762 73.2552 53.9297 73.2552 53.5649 73.2734ZM71.0916 74.1121C75.4869 71.2861 76.9095 67.8039 78.3503 63.1548C73.809 66.2359 71.8576 69.5541 71.0916 74.1121ZM69.2496 93.0002C62.1915 107.166 62.1003 120.512 70.8545 132.399C75.8699 139.199 83.2563 143.739 90.3874 148.498C96.8983 152.837 98.4121 152.509 104.394 146.073C104.467 146 104.449 145.89 104.631 145.234C104.339 145.435 104.066 145.617 103.792 145.799C103.519 145.982 103.263 146.146 103.008 146.31C102.698 146.51 102.406 146.729 102.114 146.911C102.06 146.948 102.023 146.984 101.987 147.003C101.841 147.094 101.713 147.203 101.567 147.313C101.44 147.404 101.312 147.495 101.184 147.604C101.038 147.714 100.911 147.823 100.783 147.932C99.8529 148.753 98.9774 149.282 98.1203 149.537C97.9926 149.573 97.8649 149.61 97.7373 149.628C97.3543 149.719 96.9713 149.737 96.5883 149.719C96.4606 149.701 96.3329 149.683 96.2235 149.683C96.0958 149.664 95.9682 149.646 95.8405 149.61C95.7311 149.573 95.6217 149.555 95.5122 149.5C95.421 149.464 95.3481 149.446 95.2569 149.409C95.2022 149.391 95.1475 149.373 95.0745 149.336C94.8009 149.209 94.5274 149.063 94.2538 148.88C94.1626 148.826 94.0897 148.771 93.9985 148.716C93.9073 148.662 93.8343 148.607 93.7431 148.534C93.652 148.479 93.579 148.406 93.4878 148.334C92.43 147.458 91.354 146.62 90.2779 145.763C89.2019 144.906 88.1259 144.067 87.0316 143.229C85.9373 142.39 84.843 141.551 83.7487 140.713C82.6545 139.874 81.5419 139.054 80.4294 138.233C69.7785 130.339 66.368 119.418 67.7723 106.437C69.286 92.5261 75.6328 85.124 90.515 79.7274C94.7645 78.196 98.9045 76.3546 103.099 74.659C103.026 74.4402 102.953 74.2397 102.862 74.0209C102.206 74.2397 101.567 74.4402 100.911 74.659C99.5975 75.0783 98.3026 75.4794 96.9895 75.8988C95.6764 76.3181 94.3815 76.7192 93.0683 77.1568C92.3388 77.3938 91.5911 77.6308 90.8615 77.886C90.3691 78.0501 89.8767 78.2142 89.4025 78.3965C89.2748 78.433 89.1472 78.4877 89.0195 78.5424C88.4359 78.7429 87.8523 78.9617 87.2504 79.1805C79.7546 82.0064 72.7877 85.908 69.2496 93.0002ZM91.4634 168.808C91.7734 167.604 91.9923 166.438 92.1017 165.271C92.1564 164.687 92.1929 164.122 92.2112 163.557C92.2112 163.265 92.2112 162.992 92.2112 162.718C92.2112 162.445 92.1929 162.153 92.1747 161.88C92.1564 161.606 92.1382 161.315 92.1017 161.041C92.0652 160.804 92.047 160.567 92.0105 160.33C91.9923 160.166 91.9558 160.02 91.9376 159.856C91.9194 159.747 91.9011 159.619 91.8646 159.491C91.8464 159.418 91.8282 159.327 91.8099 159.236C91.7735 159.054 91.7187 158.89 91.6823 158.707C91.664 158.58 91.6275 158.47 91.5911 158.361C91.5728 158.27 91.5363 158.179 91.5181 158.088C91.4634 157.905 91.4087 157.723 91.354 157.559C91.354 157.522 91.3357 157.468 91.3175 157.431C91.2628 157.249 91.1898 157.085 91.1169 156.902C91.0439 156.684 90.9527 156.465 90.8433 156.246C90.7339 155.991 90.6245 155.736 90.4968 155.499C90.1138 154.733 89.6761 153.967 89.1654 153.22C89.1107 153.694 89.0742 154.168 89.0195 154.642C88.983 154.952 88.9648 155.28 88.9466 155.59C88.9101 156.064 88.8918 156.538 88.8736 156.994C88.8554 157.304 88.8554 157.614 88.8554 157.923C88.8554 158.233 88.8554 158.543 88.8554 158.853C88.8554 158.999 88.8554 159.163 88.8736 159.309C88.8918 159.619 88.8918 159.911 88.9283 160.221C88.9466 160.366 88.9466 160.531 88.9648 160.676C88.983 160.822 88.983 160.986 89.0195 161.132C89.0378 161.278 89.056 161.442 89.0742 161.588C89.1289 161.953 89.1837 162.336 89.2566 162.7C89.2931 162.882 89.3296 163.065 89.366 163.247C89.4025 163.429 89.439 163.612 89.4937 163.794C89.5302 163.94 89.5667 164.086 89.6031 164.232C89.9679 165.599 90.4603 166.93 91.1716 168.224C91.2446 168.352 91.3175 168.48 91.3904 168.607C91.3722 168.662 91.4269 168.735 91.4634 168.808ZM91.4452 141.934C90.5333 133.73 92.6671 126.182 100.309 119.874C90.6427 122.846 87.1957 131.214 91.4452 141.934ZM94.2356 98.9072C89.6396 99.0349 84.9342 101.624 82.1438 105.452C77.2013 112.216 76.873 119.454 76.3806 126.674C76.6542 126.711 76.946 126.747 77.2195 126.784C77.4202 126.145 77.6208 125.489 77.8214 124.851C78.405 122.9 78.9886 120.968 79.5905 119.035C79.8823 118.069 80.1923 117.103 80.4841 116.118C80.7942 115.152 81.086 114.185 81.4143 113.219C81.6331 112.563 81.8338 111.925 82.0526 111.287C83.8764 105.744 88.3447 102.007 94.2356 98.9072ZM99.8164 94.9692C100.053 95.3521 100.291 95.7167 100.528 96.0996C102.114 95.188 103.683 94.2946 105.27 93.4013C104.996 92.9637 104.722 92.5261 104.431 92.1068C102.899 93.0549 101.367 94.0029 99.8164 94.9692ZM81.5602 38.8336C80.1559 40.0005 78.6786 41.1126 77.3655 42.3706C73.1342 46.3998 72.6965 48.46 75.2863 52.8538C75.6693 53.5102 76.0706 54.1665 76.4536 54.8046C76.8548 55.461 77.2378 56.0991 77.639 56.7554C78.1679 57.6306 78.7151 58.4692 79.2622 59.3261C79.5358 59.7454 79.8093 60.1648 80.0829 60.5841C80.3565 61.0217 80.6483 61.441 80.9401 61.8603C81.2319 62.2797 81.5055 62.699 81.7973 63.1183C81.8702 63.2277 81.9614 63.3371 82.0526 63.4465C82.1438 63.5559 82.2532 63.6653 82.3444 63.7747C82.4356 63.8658 82.5268 63.957 82.618 64.0299C82.6362 64.0481 82.6545 64.0481 82.6727 64.0664C82.7821 64.1575 82.9098 64.2669 83.0375 64.3398C83.1834 64.4492 83.3293 64.5404 83.4752 64.6315C83.6211 64.7227 83.7852 64.7956 83.9311 64.8686C84.0041 64.905 84.0953 64.9233 84.1682 64.9597C84.2776 64.9962 84.3871 65.0326 84.5147 65.0691C84.6059 65.0873 84.6971 65.1056 84.7883 65.1238C84.8977 65.142 85.0072 65.142 85.1166 65.142C89.6214 65.1967 93.6702 63.1183 97.6278 60.8576C94.2538 61.1493 90.971 61.7692 87.7246 62.6078C85.682 63.1365 84.6606 62.699 83.767 61.0764C83.5116 60.6206 83.2746 60.183 83.0192 59.7272C82.0161 57.9405 80.9583 56.1538 79.8458 54.4035C79.5358 53.9295 79.244 53.4555 78.9339 52.9632C78.6786 52.5804 78.4233 52.1793 78.1679 51.7964C77.8944 51.3588 77.6026 50.9395 77.3107 50.5019C77.1101 50.2102 76.946 49.9185 76.8001 49.6268C76.7454 49.5174 76.7089 49.408 76.6542 49.2986V49.2804C76.6177 49.1893 76.5812 49.1163 76.563 49.0252C76.5447 48.9522 76.5083 48.8976 76.49 48.8246C76.4718 48.7517 76.4353 48.6605 76.4171 48.5876C76.3806 48.4235 76.3441 48.2594 76.3259 48.0771C76.3076 47.8219 76.3076 47.5666 76.3259 47.3114C76.3441 47.1838 76.3624 47.0744 76.3806 46.9468C76.3806 46.9285 76.3806 46.9103 76.3988 46.8921C76.4171 46.7827 76.4536 46.6733 76.49 46.5457C76.5083 46.491 76.5265 46.4363 76.5448 46.3816C76.5995 46.2175 76.6724 46.0534 76.7636 45.8893C76.8001 45.7982 76.8548 45.7252 76.8913 45.6341C76.946 45.5611 76.9824 45.47 77.0372 45.3788C77.1283 45.2147 77.2378 45.0506 77.3655 44.9048C77.4931 44.7225 77.6572 44.5402 77.8031 44.3578C79.2804 42.6805 80.7212 40.985 82.1803 39.3076C81.9797 39.1436 81.7608 38.9977 81.5602 38.8336ZM103.336 60.5112C105.762 60.0918 107.513 59.7819 109.829 59.3808C107.093 56.9013 106.036 57.0836 103.336 60.5112ZM103.336 46.181C103.282 46.1263 103.209 46.0899 103.154 46.0534C102.972 45.9258 102.753 45.8346 102.534 45.7435C102.461 45.707 102.388 45.6888 102.297 45.6705C102.224 45.6523 102.133 45.6158 102.06 45.5976C101.823 45.5429 101.549 45.4882 101.294 45.47C101.111 45.4517 100.929 45.4335 100.747 45.4335C100.546 45.4335 100.364 45.4335 100.163 45.4335C99.7617 45.4517 99.3604 45.5064 98.9227 45.5794C98.7221 45.6158 98.5033 45.6523 98.3026 45.707C98.1385 45.7435 97.9561 45.7799 97.792 45.8346C97.7008 45.8528 97.6096 45.8893 97.5184 45.9075C96.8436 46.0899 96.1688 46.3269 95.4758 46.6003C95.3298 46.655 95.2022 46.7097 95.0563 46.7644C94.5091 46.9832 93.962 47.2385 93.4331 47.5119C93.2872 47.5849 93.1231 47.676 92.9772 47.7489C92.7036 47.8948 92.43 48.0407 92.1564 48.2047C91.8829 48.3506 91.6275 48.5147 91.354 48.6788C91.3175 48.697 91.2993 48.7152 91.2628 48.7335C91.0257 48.8793 90.7886 49.0252 90.5697 49.1893C90.2779 49.3716 90.0044 49.5721 89.7308 49.7727C89.4937 49.9368 89.2748 50.1008 89.056 50.2832C88.8371 50.4472 88.6183 50.6296 88.3994 50.8119C88.1441 51.0307 87.907 51.2312 87.6699 51.45C87.4693 51.6323 87.2869 51.8146 87.1045 51.9969C86.9221 52.1793 86.7398 52.3616 86.5756 52.5439C86.3932 52.7262 86.2473 52.9085 86.0832 53.1091C86.0103 53.2002 85.9191 53.2914 85.8461 53.4008C85.7002 53.5831 85.5543 53.7654 85.4084 53.966C85.0619 54.44 84.7701 54.914 84.533 55.3881L103.336 46.181ZM81.1042 47.6031C85.4631 45.47 89.8402 42.9175 94.4909 41.1673C99.251 39.3806 104.266 38.3596 109.154 37.0287C100.181 34.2028 86.9039 39.7087 81.1042 47.6031ZM110.559 45.5429C110.504 45.9075 110.431 46.2539 110.358 46.6186C112.054 46.7462 113.768 46.8738 115.465 47.0197C114.407 44.2302 112.784 43.7015 110.559 45.5429ZM122.596 37.4845C122.577 37.448 122.559 37.4298 122.541 37.3933C122.486 37.3204 122.431 37.2292 122.377 37.1563C122.34 37.1016 122.286 37.0469 122.249 36.9922C122.194 36.9375 122.158 36.8828 122.103 36.8281C121.994 36.7187 121.903 36.6276 121.793 36.5364C121.757 36.5 121.702 36.4635 121.647 36.427C121.483 36.2994 121.301 36.2082 121.118 36.0989C121.064 36.0624 120.991 36.0259 120.918 36.0077C120.772 35.9348 120.608 35.8801 120.444 35.8254C120.334 35.7889 120.225 35.7707 120.115 35.7342C120.042 35.716 119.951 35.6978 119.86 35.6795C119.769 35.6613 119.696 35.6431 119.605 35.6431C119.404 35.6066 119.203 35.5884 118.984 35.5884C118.912 35.5884 118.82 35.5884 118.729 35.5701C118.62 35.5701 118.529 35.5701 118.419 35.5701C118.255 35.5701 118.109 35.5701 117.927 35.5884C117.763 35.5884 117.58 35.6066 117.416 35.6248C117.179 35.6431 116.942 35.6795 116.687 35.716C116.504 35.7525 116.304 35.7707 116.103 35.8071C115.902 35.8436 115.702 35.8801 115.501 35.9348C115.3 35.9712 115.082 36.0259 114.863 36.0806C114.644 36.1353 114.425 36.19 114.188 36.2447C114.79 36.4635 115.373 36.664 115.939 36.8646C116.504 37.0651 117.033 37.2475 117.544 37.448C118.237 37.685 118.893 37.9403 119.532 38.159C120.17 38.3961 120.79 38.6148 121.41 38.8336C121.72 38.943 122.03 39.0524 122.34 39.1618C122.541 38.8519 122.723 38.5419 122.924 38.232C122.851 37.9767 122.742 37.7215 122.596 37.4845ZM232.862 215.408C233.063 215.08 233.245 214.752 233.428 214.424C233.555 214.187 233.683 213.95 233.811 213.713C233.938 213.476 234.066 213.257 234.176 213.02C234.23 212.91 234.303 212.783 234.358 212.673C234.413 212.582 234.449 212.491 234.486 212.4C234.559 212.254 234.631 212.126 234.686 211.981C234.759 211.816 234.832 211.671 234.905 211.507C234.923 211.452 234.942 211.415 234.978 211.361C234.996 211.324 235.014 211.306 235.014 211.27C235.179 210.905 235.343 210.559 235.507 210.194C235.543 210.084 235.598 209.993 235.635 209.884C235.817 209.465 235.981 209.045 236.145 208.626C236.346 208.115 236.546 207.587 236.729 207.076C236.856 206.675 237.002 206.292 237.13 205.891C237.167 205.8 237.185 205.727 237.203 205.654C237.331 205.253 237.458 204.87 237.568 204.469C237.714 204.013 237.841 203.539 237.969 203.083C238.06 202.737 238.151 202.391 238.243 202.026C238.334 201.661 238.425 201.297 238.498 200.932C238.571 200.64 238.626 200.367 238.68 200.075C238.717 199.911 238.753 199.765 238.771 199.601C238.844 199.291 238.899 198.981 238.954 198.671C238.972 198.562 238.99 198.453 239.009 198.343C239.082 197.924 239.154 197.505 239.227 197.085C239.282 196.739 239.337 196.392 239.392 196.046C239.392 196.01 239.41 195.973 239.41 195.937C239.446 195.681 239.483 195.408 239.519 195.171C239.556 194.879 239.592 194.606 239.629 194.314C239.647 194.205 239.647 194.095 239.665 193.986C239.702 193.731 239.72 193.457 239.756 193.202C239.775 193.056 239.793 192.892 239.811 192.746C239.866 192.163 239.92 191.561 239.957 190.978C240.012 190.394 240.048 189.793 240.085 189.209C240.121 188.626 240.158 188.042 240.176 187.459C240.212 186.875 240.231 186.292 240.231 185.709C240.249 184.979 240.267 184.268 240.267 183.557C240.267 183.138 240.267 182.719 240.267 182.299C240.267 182.245 240.267 182.19 240.267 182.153C240.267 181.679 240.249 181.187 240.249 180.713C240.249 180.604 240.249 180.513 240.249 180.421C240.231 179.874 240.212 179.346 240.194 178.799C240.176 178.252 240.139 177.723 240.121 177.194C240.121 177.158 240.121 177.121 240.121 177.085C240.085 176.52 240.048 175.955 240.012 175.389C239.975 174.788 239.92 174.186 239.866 173.585C239.829 173.038 239.775 172.509 239.702 171.962C239.647 171.397 239.592 170.832 239.519 170.266C239.392 169.136 239.246 168.024 239.082 166.893C239.009 166.383 238.936 165.891 238.844 165.38C238.826 165.253 238.808 165.107 238.79 164.979C238.735 164.596 238.662 164.213 238.607 163.849C238.553 163.575 238.516 163.284 238.461 163.01C238.407 162.664 238.334 162.317 238.279 161.971C238.042 160.658 237.768 159.364 237.495 158.051C237.367 157.486 237.258 156.939 237.13 156.392C236.984 155.79 236.856 155.189 236.711 154.569C236.601 154.149 236.51 153.73 236.401 153.329C236.309 152.928 236.2 152.545 236.09 152.144C235.945 151.542 235.78 150.941 235.616 150.339C235.325 149.263 235.014 148.169 234.704 147.094C234.595 146.693 234.467 146.292 234.34 145.872C234.139 145.198 233.938 144.523 233.72 143.849C233.555 143.302 233.391 142.773 233.209 142.226C232.862 141.15 232.516 140.075 232.151 138.999C226.041 120.858 217.451 103.939 205.998 88.5151C197.462 77.0291 187.869 66.4 175.577 58.0499C175.23 57.8129 174.884 57.5759 174.537 57.3571C174.355 57.2477 174.173 57.1201 174.008 57.0107C173.935 56.9742 173.881 56.9195 173.808 56.8831C173.571 56.7372 173.352 56.5731 173.097 56.4273C173.024 56.3908 172.969 56.3361 172.896 56.2996C172.859 56.2632 172.823 56.2449 172.787 56.2267C172.404 55.9897 172.002 55.7345 171.601 55.4974C171.528 55.461 171.473 55.4063 171.4 55.3698C171.017 55.1328 170.634 54.914 170.233 54.6952C170.16 54.6406 170.069 54.6041 169.996 54.5676C169.558 54.3124 169.121 54.0754 168.665 53.8384C168.191 53.5831 167.716 53.3279 167.224 53.0909C167.206 53.0726 167.187 53.0544 167.151 53.0544C166.677 52.8174 166.221 52.5986 165.747 52.3798C165.327 52.1793 164.908 51.9969 164.47 51.7964C164.415 51.7782 164.361 51.7599 164.324 51.7235C164.051 51.5958 163.759 51.4682 163.467 51.3588C163.23 51.2494 162.993 51.1583 162.737 51.0671C162.227 50.8666 161.716 50.666 161.187 50.4837C160.932 50.3926 160.676 50.3014 160.403 50.2102C160.148 50.1191 159.874 50.0279 159.6 49.955C159.327 49.8638 159.053 49.7727 158.798 49.6997C158.269 49.5357 157.722 49.3716 157.175 49.244C156.646 49.0981 156.117 48.9705 155.588 48.8611C155.552 48.8429 155.533 48.8429 155.515 48.8429C155.497 48.8429 155.497 48.8429 155.479 48.8429C155.46 48.8429 155.46 48.8429 155.442 48.8429C155.278 48.8064 155.132 48.7699 154.968 48.7335C154.877 48.7152 154.767 48.697 154.676 48.6788C154.403 48.6241 154.111 48.5511 153.819 48.5147C153.527 48.46 153.254 48.4053 152.962 48.3688C152.378 48.2777 151.813 48.1865 151.229 48.1136C145.794 47.4572 140.432 48.1136 135.253 50.9213C145.484 49.3898 154.093 51.9969 161.917 56.3361C162.427 56.6096 162.938 56.9013 163.449 57.193C163.595 57.2842 163.74 57.3753 163.905 57.4482C164.269 57.667 164.652 57.8858 165.017 58.1046C165.236 58.2322 165.455 58.3598 165.655 58.5057C166.166 58.8156 166.659 59.1256 167.169 59.4537C167.206 59.4902 167.26 59.5084 167.297 59.5449C167.808 59.8731 168.336 60.2195 168.847 60.5476C169.358 60.894 169.868 61.2404 170.379 61.5868C170.416 61.6051 170.452 61.6415 170.489 61.6598C170.981 61.9879 171.455 62.3344 171.929 62.6808C172.075 62.7901 172.221 62.8995 172.367 62.9907C172.823 63.3189 173.261 63.647 173.698 63.9752C174.227 64.3763 174.756 64.7774 175.267 65.1785C175.778 65.5796 176.27 65.9807 176.762 66.3818C176.781 66.4 176.799 66.4 176.799 66.4183C177.237 66.7647 177.656 67.1111 178.057 67.4575C178.221 67.6033 178.386 67.7309 178.55 67.8768C178.951 68.2232 179.334 68.5514 179.735 68.8978C180.228 69.3171 180.702 69.7547 181.176 70.1922C181.595 70.5751 181.997 70.958 182.416 71.3408C182.507 71.432 182.617 71.5232 182.708 71.6143C183.146 72.0336 183.565 72.4347 183.985 72.8541C184.441 73.3099 184.897 73.7474 185.352 74.2032C185.808 74.659 186.246 75.1148 186.702 75.5888C186.739 75.6253 186.775 75.6618 186.811 75.6982C187.669 76.5916 188.489 77.4849 189.328 78.3965C189.401 78.4695 189.456 78.5424 189.529 78.6153C190.313 79.4904 191.097 80.3656 191.845 81.2771C192.228 81.7329 192.611 82.1887 192.994 82.6445C193.067 82.7357 193.14 82.8086 193.213 82.8998C193.578 83.3373 193.943 83.7749 194.289 84.2307C194.964 85.0693 195.639 85.9262 196.313 86.7831C196.478 86.9837 196.624 87.1842 196.769 87.3848C197.517 88.3511 198.247 89.3356 198.976 90.3201C199.359 90.8306 199.724 91.3593 200.107 91.8698C200.49 92.3985 200.855 92.9272 201.219 93.4377C201.548 93.9117 201.876 94.3675 202.204 94.8416C202.587 95.4068 202.97 95.9537 203.353 96.5189C203.736 97.0841 204.119 97.6493 204.484 98.2144C204.849 98.7432 205.195 99.2901 205.542 99.8188C209.572 105.999 213.184 112.399 216.393 118.98C216.685 119.582 216.977 120.202 217.269 120.804C217.47 121.241 217.67 121.66 217.871 122.098C218.071 122.536 218.29 122.973 218.473 123.429C218.673 123.83 218.856 124.249 219.038 124.669L219.056 124.723C219.184 125.033 219.33 125.325 219.457 125.635C219.622 126 219.786 126.382 219.95 126.747C220.169 127.258 220.388 127.75 220.606 128.26C220.625 128.279 220.625 128.297 220.625 128.315C221.062 129.372 221.5 130.412 221.92 131.487C222.084 131.907 222.266 132.344 222.43 132.764C222.503 132.964 222.594 133.146 222.649 133.347C222.722 133.548 222.795 133.73 222.886 133.93L222.904 133.949C223.233 134.806 223.561 135.662 223.871 136.519C224.181 137.34 224.473 138.16 224.746 138.962C224.783 139.035 224.801 139.108 224.819 139.181C224.947 139.564 225.093 139.947 225.221 140.33C225.348 140.713 225.476 141.096 225.604 141.478C225.932 142.445 226.26 143.411 226.57 144.395C231.44 159.528 234.869 175.043 234.157 191.525C233.756 200.877 232.406 210.285 226.534 219.055C224.911 221.498 222.813 223.704 220.844 226.128C226.005 224.05 229.871 220.495 232.862 215.408ZM219.33 207.131C219.494 206.693 219.676 206.238 219.84 205.8C219.986 205.435 220.114 205.053 220.242 204.688C220.278 204.56 220.333 204.433 220.369 204.305C220.479 203.959 220.588 203.612 220.698 203.266C220.716 203.193 220.734 203.12 220.771 203.047C220.88 202.701 220.971 202.354 221.062 202.008C221.208 201.497 221.336 200.987 221.464 200.495C221.573 200.057 221.682 199.601 221.774 199.164C221.792 199.091 221.81 199.036 221.81 198.963C221.883 198.598 221.974 198.216 222.047 197.851C222.138 197.413 222.211 196.958 222.284 196.52C222.357 196.064 222.43 195.608 222.503 195.153C222.558 194.788 222.613 194.423 222.649 194.059C222.722 193.548 222.777 193.038 222.831 192.527C222.868 192.126 222.904 191.725 222.941 191.324C222.959 191.269 222.959 191.215 222.959 191.16C222.977 190.886 223.014 190.613 223.014 190.339C223.032 190.084 223.05 189.811 223.069 189.556C223.087 189.264 223.105 188.99 223.105 188.699C223.16 187.751 223.178 186.821 223.178 185.873C223.178 184.779 223.178 183.685 223.142 182.609C223.123 182.062 223.105 181.515 223.087 180.968C223.069 180.494 223.05 180.02 223.014 179.546C222.941 178.124 222.831 176.702 222.704 175.298C222.613 174.35 222.521 173.42 222.412 172.491C222.303 171.561 222.193 170.631 222.047 169.701C221.883 168.498 221.701 167.313 221.482 166.128C221.409 165.69 221.336 165.234 221.245 164.797C221.117 164.14 221.008 163.484 220.862 162.81C220.771 162.354 220.679 161.898 220.57 161.442C220.479 160.986 220.388 160.531 220.278 160.075C220.096 159.254 219.913 158.452 219.713 157.668C219.567 157.012 219.403 156.374 219.239 155.736C219.074 155.061 218.874 154.368 218.691 153.694C218.637 153.493 218.582 153.293 218.527 153.074C218.436 152.727 218.327 152.363 218.217 152.016C218.09 151.579 217.962 151.123 217.816 150.685C217.688 150.248 217.561 149.81 217.415 149.355C217.287 148.917 217.141 148.461 216.995 148.024C216.576 146.693 216.138 145.38 215.664 144.086C215.518 143.648 215.354 143.21 215.208 142.791L215.19 142.773C214.934 142.044 214.661 141.314 214.387 140.603C214.004 139.601 213.621 138.598 213.22 137.595C204.995 117.066 193.833 98.3056 177.857 82.4075C177.145 81.7147 176.434 81.0219 175.705 80.3473C175.486 80.1468 175.267 79.928 175.048 79.7457C174.866 79.5634 174.665 79.3993 174.483 79.217C174.3 79.0529 174.118 78.8888 173.935 78.7247C173.717 78.5424 173.516 78.3601 173.297 78.1777C173.097 77.9954 172.896 77.8131 172.677 77.6308C172.531 77.5032 172.385 77.3938 172.239 77.2662C172.002 77.0656 171.765 76.8651 171.51 76.6645C170.726 76.0264 169.905 75.3883 169.102 74.7684C168.665 74.4402 168.209 74.1121 167.753 73.7839C166.841 73.1458 165.929 72.5077 164.981 71.906C164.525 71.6143 164.051 71.3226 163.576 71.0309C163.558 71.0309 163.558 71.0127 163.54 71.0127C163.084 70.7392 162.61 70.4657 162.136 70.1922C161.953 70.0828 161.753 69.9735 161.588 69.8823C160.768 69.4265 159.929 68.9889 159.072 68.5696C158.853 68.4602 158.616 68.3508 158.379 68.2414C157.613 67.8768 156.81 67.5122 156.008 67.184C156.008 67.184 155.989 67.184 155.989 67.1658C155.935 67.1293 155.88 67.0928 155.825 67.0746C155.807 67.0564 155.789 67.0564 155.752 67.0381C147.454 61.9879 140.925 61.3681 135.964 62.6625C135.8 62.7172 135.618 62.7537 135.435 62.8084C129.471 64.5586 125.842 69.0983 124.182 71.7237C124.055 71.906 123.945 72.0883 123.818 72.2889C123.763 72.3618 123.726 72.4347 123.672 72.5259C123.58 72.6717 123.508 72.8176 123.435 72.9635C123.416 72.9999 123.398 73.0364 123.38 73.0729C123.325 73.2005 123.252 73.3281 123.197 73.4739C123.161 73.5469 123.125 73.6198 123.088 73.6927C119.915 80.9854 119.24 88.3693 119.185 95.7714C119.021 113.401 122.906 129.919 129.271 145.745C138.171 167.842 150.354 187.988 168.081 204.706C168.428 205.034 168.792 205.362 169.139 205.691C169.558 206.074 169.978 206.456 170.416 206.839C170.799 207.186 171.2 207.532 171.601 207.86C172.44 208.571 173.279 209.264 174.136 209.92C174.41 210.139 174.701 210.358 174.975 210.577C175.157 210.723 175.358 210.868 175.54 210.996C175.869 211.251 176.215 211.488 176.544 211.744C176.963 212.054 177.401 212.363 177.838 212.655C178.349 213.002 178.86 213.348 179.37 213.676C179.626 213.84 179.881 214.004 180.136 214.168C180.392 214.332 180.665 214.497 180.939 214.661C181.194 214.825 181.468 214.989 181.741 215.135C182.015 215.299 182.27 215.445 182.544 215.609C184.605 216.812 186.775 217.888 189.018 218.854C189.511 219.073 190.021 219.273 190.532 219.474C191.043 219.674 191.553 219.875 192.082 220.075C192.429 220.203 192.775 220.331 193.122 220.44C194.526 220.932 195.949 221.37 197.426 221.771C197.645 221.826 197.864 221.88 198.083 221.935C198.083 221.935 198.101 221.935 198.119 221.935C198.338 221.99 198.539 222.026 198.757 222.063C198.976 222.099 199.195 222.136 199.414 222.172C199.76 222.227 200.125 222.263 200.472 222.282C200.599 222.282 200.727 222.3 200.855 222.3C201.183 222.318 201.493 222.318 201.803 222.3C201.931 222.3 202.077 222.282 202.223 222.282C202.259 222.282 202.314 222.282 202.35 222.263C202.478 222.263 202.624 222.245 202.751 222.227C203.28 222.172 203.791 222.081 204.302 221.972C204.429 221.953 204.557 221.917 204.685 221.88C204.739 221.862 204.794 221.844 204.849 221.826C204.977 221.789 205.086 221.753 205.214 221.716C206.326 221.37 207.439 220.896 208.515 220.258C208.697 220.148 208.861 220.057 209.044 219.948C209.226 219.838 209.39 219.729 209.572 219.601C209.81 219.437 210.047 219.273 210.284 219.109C210.466 218.982 210.649 218.836 210.831 218.708C214.971 215.572 217.561 211.561 219.33 207.131ZM220.989 246.986C221.062 246.876 221.135 246.785 221.208 246.694C221.372 246.457 221.5 246.22 221.591 246.001C221.646 245.855 221.683 245.728 221.683 245.6C221.701 245.472 221.701 245.345 221.664 245.217C221.628 245.053 221.573 244.889 221.464 244.707C221.445 244.67 221.409 244.615 221.391 244.579C221.3 244.451 221.19 244.324 221.062 244.196C220.935 244.068 220.789 243.941 220.625 243.813C220.515 243.722 220.406 243.631 220.278 243.54C219.895 243.266 219.439 242.975 218.892 242.646C219.111 245.035 219.257 246.821 219.421 248.626C220.096 247.988 220.625 247.46 220.989 246.986ZM218.856 260.404C218.91 260.112 218.983 259.821 219.056 259.511C219.147 259.055 219.257 258.581 219.366 258.107C219.53 257.359 219.695 256.612 219.877 255.791C219.95 255.482 220.023 255.153 220.096 254.825C220.187 254.479 220.26 254.096 220.333 253.731C220.369 253.549 220.406 253.367 220.461 253.184C220.497 253.002 220.552 252.801 220.588 252.619C216.941 255.226 216.393 257.104 217.725 260.258C218.09 260.313 218.473 260.349 218.856 260.404ZM205.578 243.084C206.016 245.162 206.363 246.712 206.819 248.9C209.445 245.199 209.299 244.561 205.578 243.084ZM204.01 261.407C204.065 261.498 204.119 261.589 204.174 261.68C204.247 261.808 204.338 261.917 204.411 262.045C204.448 262.081 204.466 262.1 204.484 262.136C204.575 262.264 204.666 262.373 204.758 262.501C204.812 262.574 204.867 262.647 204.94 262.701C204.995 262.774 205.049 262.829 205.104 262.902C205.195 262.993 205.268 263.084 205.36 263.175C205.524 263.339 205.688 263.522 205.888 263.686C205.98 263.777 206.071 263.85 206.162 263.941C206.29 264.05 206.399 264.16 206.527 264.269C206.654 264.379 206.782 264.488 206.91 264.597C207.165 264.816 207.457 265.035 207.749 265.254C207.676 264.652 207.585 264.069 207.512 263.467C207.439 262.884 207.366 262.282 207.293 261.699C207.183 260.915 207.092 260.131 206.983 259.347C206.946 259.146 206.928 258.946 206.91 258.745C206.764 257.669 206.618 256.612 206.49 255.554C206.344 254.497 206.217 253.44 206.071 252.4C204.922 253.695 204.101 254.898 203.609 256.047C203.572 256.138 203.536 256.229 203.499 256.32C202.861 258.089 203.007 259.748 204.01 261.407ZM191.243 251.817C190.769 252.546 190.35 253.276 189.967 254.023C189.784 254.388 189.602 254.771 189.438 255.135C189.274 255.5 189.109 255.883 188.982 256.247C188.945 256.338 188.909 256.43 188.872 256.539C188.836 256.63 188.799 256.721 188.781 256.812C188.69 257.086 188.599 257.341 188.508 257.615C188.416 257.87 188.343 258.143 188.271 258.399C188.216 258.599 188.161 258.8 188.106 259C188.088 259.091 188.07 259.164 188.052 259.256C187.997 259.493 187.961 259.711 187.906 259.948C187.869 260.204 187.815 260.459 187.778 260.696C187.742 260.951 187.705 261.188 187.687 261.443C187.669 261.68 187.632 261.899 187.614 262.136C187.596 262.464 187.578 262.792 187.578 263.121C187.578 263.504 187.596 263.868 187.614 264.233C187.632 264.452 187.65 264.67 187.669 264.871C187.687 265.09 187.723 265.29 187.76 265.491C187.796 265.691 187.833 265.892 187.888 266.074C187.924 266.275 187.979 266.457 188.033 266.639C188.088 266.822 188.143 266.986 188.216 267.15L188.234 267.168C188.289 267.332 188.362 267.496 188.435 267.642C188.562 267.916 188.726 268.171 188.891 268.408C189 268.572 189.128 268.736 189.274 268.882C189.31 268.937 189.365 268.973 189.42 269.028C189.748 269.356 190.131 269.629 190.55 269.83C190.769 263.996 191.006 257.906 191.243 251.817ZM174.884 276.193C175.23 276.266 175.595 276.339 175.942 276.412C176.197 276.466 176.471 276.503 176.726 276.539C176.817 276.557 176.908 276.557 176.999 276.576C177.237 276.612 177.492 276.649 177.729 276.667C177.802 276.685 177.875 276.685 177.966 276.703C178.24 276.74 178.513 276.758 178.805 276.776C178.842 276.776 178.896 276.776 178.951 276.776C179.243 276.794 179.535 276.813 179.845 276.831H179.863C180.136 276.849 180.41 276.849 180.702 276.849C180.829 276.849 180.957 276.849 181.067 276.849C181.304 276.849 181.522 276.849 181.76 276.831C181.942 276.831 182.124 276.813 182.307 276.813C182.489 276.813 182.671 276.794 182.854 276.794C183.292 276.758 183.729 276.722 184.167 276.667C184.368 276.649 184.568 276.612 184.787 276.594C184.988 276.576 185.207 276.539 185.407 276.503C185.699 276.466 185.991 276.412 186.264 276.339C186.392 276.32 186.52 276.284 186.629 276.266C187.049 276.175 187.45 276.083 187.869 275.992C188.07 275.938 188.271 275.883 188.489 275.828C188.69 275.773 188.872 275.719 189.073 275.664C189.091 275.664 189.109 275.646 189.146 275.646C189.347 275.591 189.529 275.536 189.73 275.464C189.967 275.391 190.204 275.318 190.441 275.227C190.587 275.172 190.733 275.135 190.879 275.081C191.134 274.99 191.407 274.898 191.663 274.789C192.009 274.661 192.356 274.516 192.702 274.37C192.721 274.351 192.757 274.351 192.775 274.333C193.012 274.242 193.231 274.133 193.468 274.023C193.651 273.95 193.815 273.877 193.997 273.786C194.453 273.567 194.909 273.349 195.347 273.112C195.602 272.984 195.839 272.856 196.095 272.711H196.113C195.748 272.765 195.365 272.802 195 272.875C194.927 272.875 194.873 272.893 194.8 272.893C194.581 272.929 194.38 272.948 194.161 272.984C193.797 273.039 193.45 273.093 193.104 273.166C192.484 273.276 191.863 273.385 191.262 273.495C190.623 273.604 189.985 273.732 189.347 273.841C189 273.896 188.672 273.95 188.343 274.005C187.687 274.114 187.012 274.224 186.337 274.315C186.082 274.351 185.845 274.388 185.59 274.424C185.334 274.461 185.097 274.497 184.842 274.516C184.586 274.552 184.349 274.57 184.094 274.607C183.456 274.661 182.836 274.716 182.216 274.753C181.942 274.771 181.668 274.771 181.413 274.789C181.121 274.789 180.829 274.789 180.538 274.789C180.519 274.789 180.501 274.789 180.483 274.789C180.209 274.789 179.936 274.771 179.662 274.753C179.425 274.734 179.17 274.716 178.933 274.698C178.823 274.68 178.714 274.68 178.604 274.661C178.477 274.643 178.331 274.625 178.203 274.607C178.094 274.588 177.984 274.57 177.875 274.552C177.747 274.534 177.601 274.516 177.455 274.479C177.328 274.461 177.2 274.424 177.072 274.388C176.854 274.333 176.635 274.278 176.434 274.224C176.416 274.224 176.398 274.224 176.379 274.206C176.179 274.151 175.996 274.078 175.814 274.005C175.613 273.932 175.413 273.841 175.212 273.75C175.012 273.659 174.829 273.567 174.647 273.458C174.647 273.458 174.647 273.458 174.629 273.458C174.446 273.349 174.264 273.239 174.081 273.13C173.899 273.02 173.717 272.893 173.552 272.765C173.388 272.638 173.242 272.51 173.078 272.382C172.914 272.237 172.786 272.109 172.622 271.945C172.476 271.799 172.331 271.635 172.203 271.471C172.057 271.307 171.929 271.143 171.802 270.96C168.884 266.858 167.917 262.264 169.887 256.995C170.251 255.992 170.616 254.989 170.981 253.987C171.327 252.984 171.674 251.963 172.021 250.96C172.695 248.955 173.37 246.931 174.008 244.907C174.391 243.686 174.793 242.464 175.176 241.243C175.559 240.021 175.942 238.799 176.306 237.56C176.671 236.32 177.054 235.08 177.437 233.84C177.82 232.601 178.203 231.343 178.586 230.085C182.288 232.072 185.845 234.114 189.565 235.901C191.353 236.758 192.319 237.578 191.882 239.784C191.553 241.407 192.192 243.084 192.411 244.725C192.83 244.688 193.231 244.652 193.651 244.615C193.724 244.087 193.797 243.54 193.87 242.993C193.943 242.464 194.016 241.917 194.088 241.388C194.161 240.86 194.234 240.331 194.307 239.802C194.38 239.274 194.453 238.763 194.526 238.253C194.982 238.362 195.438 238.471 195.894 238.562C202.058 239.948 207.165 240.787 211.287 241.17C211.579 241.188 211.87 241.224 212.144 241.243C212.582 241.279 213.001 241.297 213.402 241.315C213.676 241.334 213.95 241.352 214.223 241.352C214.387 241.352 214.57 241.37 214.716 241.37C214.916 241.37 215.117 241.37 215.317 241.37C217.761 241.407 219.695 241.188 221.154 240.769C221.3 240.732 221.445 240.677 221.573 240.641C221.847 240.55 222.102 240.44 222.339 240.331C221.591 240.222 220.825 240.13 220.023 240.021C219.658 239.985 219.257 239.93 218.874 239.893C218.473 239.839 218.053 239.802 217.652 239.748C217.324 239.711 216.995 239.675 216.649 239.638C215.974 239.565 215.299 239.474 214.606 239.383C213.238 239.201 211.834 239.018 210.411 238.781C209.007 238.544 207.603 238.271 206.217 237.961C205.542 237.797 204.849 237.633 204.192 237.45C202.861 237.086 201.548 236.666 200.289 236.192C199.651 235.955 199.031 235.718 198.411 235.463C197.791 235.208 197.171 234.953 196.569 234.679C195.967 234.406 195.365 234.114 194.763 233.822C194.18 233.531 193.596 233.221 193.012 232.929C192.721 232.765 192.429 232.619 192.137 232.455C191.827 232.291 191.535 232.108 191.225 231.944C190.86 231.744 190.514 231.525 190.149 231.324C189.912 231.179 189.675 231.033 189.42 230.887C189.128 230.705 188.836 230.522 188.544 230.34C188.252 230.158 187.96 229.957 187.669 229.775C187.377 229.574 187.085 229.392 186.793 229.191C186.501 228.991 186.228 228.808 185.936 228.608C185.134 228.061 184.331 227.478 183.547 226.912C183.401 226.803 183.255 226.694 183.109 226.602C181.541 225.436 180.009 224.251 178.495 223.011C156.409 205.162 139.995 183.958 128.742 159.765C128.249 158.689 127.757 157.613 127.283 156.52C127.064 156.009 126.827 155.499 126.608 154.97C126.571 154.897 126.553 154.824 126.517 154.751C126.298 154.241 126.097 153.748 125.878 153.238C125.641 152.691 125.422 152.144 125.204 151.597C124.985 151.05 124.766 150.521 124.547 149.974C124.547 149.956 124.529 149.938 124.529 149.92C124.091 148.826 123.672 147.714 123.252 146.602C123.125 146.237 122.979 145.872 122.851 145.508C122.723 145.161 122.596 144.815 122.468 144.468C122.322 144.049 122.176 143.63 122.03 143.21C121.83 142.645 121.629 142.08 121.447 141.515C121.246 140.95 121.064 140.384 120.881 139.801C120.717 139.327 120.571 138.835 120.407 138.361C120.188 137.704 119.988 137.03 119.769 136.355C119.24 134.678 118.747 132.982 118.273 131.287C118 130.284 117.708 129.281 117.452 128.279C117.27 127.622 117.106 126.966 116.942 126.291C116.924 126.2 116.905 126.127 116.887 126.036C116.668 125.197 116.468 124.359 116.267 123.538C112.2 106.638 110.139 89.2809 112.565 71.2497C114.115 59.7454 117.544 48.6423 127.666 39.5629C127.866 39.3806 127.921 39.0524 128.049 38.7972C127.848 38.6513 127.648 38.4872 127.447 38.3414C124.255 41.6413 120.699 44.7225 117.963 48.2777C110.923 57.43 108.023 67.5851 106.765 77.9407C106.71 78.3418 106.674 78.7612 106.619 79.1623C106.583 79.4722 106.546 79.7821 106.528 80.0921C106.437 81.0584 106.346 82.0246 106.291 82.9909C106.254 83.5561 106.218 84.1213 106.181 84.6682C106.145 85.2334 106.127 85.7804 106.108 86.3456C106.09 86.9108 106.072 87.4577 106.072 88.0229C106.054 89.135 106.054 90.2472 106.054 91.3411C106.072 92.4532 106.09 93.5471 106.145 94.641C106.163 95.1515 106.181 95.6438 106.218 96.1543C106.236 96.6647 106.273 97.157 106.309 97.6493C106.346 98.105 106.382 98.5791 106.419 99.0349C106.419 99.1078 106.419 99.1807 106.437 99.2719C106.473 99.7277 106.51 100.165 106.546 100.621C106.637 101.624 106.729 102.627 106.838 103.611C106.893 104.067 106.947 104.541 107.002 104.997C107.057 105.525 107.13 106.036 107.203 106.565C107.276 107.093 107.349 107.622 107.422 108.151C107.495 108.625 107.549 109.099 107.622 109.573C107.64 109.682 107.659 109.792 107.677 109.901C107.75 110.375 107.823 110.849 107.896 111.323C107.969 111.852 108.06 112.381 108.151 112.909C106.893 114.386 105.835 115.608 104.285 117.412C106.528 117.03 107.659 116.847 108.917 116.647C110.066 121.205 111.233 125.58 112.255 130.011C112.291 130.156 112.328 130.302 112.364 130.448C112.382 130.521 112.401 130.576 112.419 130.649C112.455 130.776 112.492 130.886 112.528 131.013C112.546 131.086 112.583 131.177 112.619 131.269C112.729 131.597 112.857 131.907 112.984 132.235C113.075 132.454 113.148 132.654 113.24 132.873C113.276 132.964 113.312 133.074 113.367 133.183C113.44 133.402 113.531 133.602 113.604 133.803C113.641 133.912 113.677 134.022 113.714 134.131C113.787 134.35 113.841 134.55 113.896 134.769C114.006 135.207 114.078 135.644 114.097 136.082C114.097 136.301 114.097 136.519 114.078 136.756C114.042 137.212 113.951 137.686 113.768 138.142C113.714 138.27 113.677 138.397 113.604 138.507C113.55 138.616 113.495 138.744 113.44 138.853C113.367 138.981 113.312 139.108 113.221 139.236C113.148 139.364 113.057 139.491 112.966 139.619C112.875 139.728 112.784 139.856 112.692 139.983C112.601 140.111 112.492 140.239 112.364 140.366C112.255 140.494 112.127 140.621 111.999 140.749C113.586 140.713 114.48 140.713 115.41 140.694C117.598 146.036 119.823 151.324 121.921 156.665C122.249 157.486 122.085 158.525 122.14 159.455C119.659 162.135 117.325 164.961 114.662 167.477C102.552 178.963 98.9045 191.98 100.747 206.037C101.823 214.296 105.233 221.115 113.258 225.308C113.951 225.673 114.662 226.037 115.373 226.402C116.486 226.967 117.617 227.514 118.766 228.061C119.203 228.28 119.623 228.48 120.061 228.681C120.243 228.772 120.425 228.845 120.608 228.936C121.337 229.264 122.067 229.592 122.814 229.921C123.088 230.048 123.362 230.158 123.635 230.285C124.128 230.486 124.602 230.686 125.076 230.887C125.568 231.087 126.061 231.288 126.553 231.489C127.173 231.744 127.775 231.981 128.395 232.218C129.708 232.71 131.022 233.184 132.335 233.64C132.9 233.84 133.465 234.023 134.049 234.205C134.213 234.26 134.396 234.314 134.56 234.369C135.162 234.57 135.763 234.752 136.365 234.934C137.131 235.171 137.916 235.39 138.7 235.609C139.484 235.828 140.268 236.028 141.052 236.229C142.639 236.63 144.226 236.995 145.849 237.323C146.651 237.487 147.472 237.651 148.293 237.797C148.712 237.87 149.114 237.943 149.533 237.997C151.849 238.38 154.001 238.034 155.789 237.14C155.953 237.067 156.099 236.976 156.245 236.903C156.555 236.721 156.865 236.539 157.138 236.338C157.266 236.247 157.394 236.156 157.521 236.047C157.649 235.955 157.758 235.864 157.868 235.755C158.269 235.408 158.634 235.007 158.962 234.588C159.108 234.406 159.236 234.223 159.363 234.041C159.491 233.859 159.6 233.658 159.71 233.458C159.783 233.33 159.838 233.202 159.91 233.075C160.093 232.692 160.257 232.291 160.403 231.89C160.494 231.58 160.585 231.288 160.64 230.96C160.676 230.814 160.695 230.668 160.731 230.522C160.731 230.504 160.731 230.486 160.731 230.486C160.786 230.158 160.804 229.829 160.822 229.501C160.822 229.337 160.822 229.173 160.822 228.991C160.822 228.845 160.822 228.717 160.804 228.571C160.786 228.371 160.768 228.152 160.749 227.952C160.531 228.353 160.312 228.79 160.093 229.21C159.874 229.629 159.655 230.066 159.418 230.486C159.236 230.832 159.053 231.16 158.871 231.507C158.597 232.017 158.306 232.528 157.996 233.038C155.843 236.557 154.585 237.14 150.536 236.302C147.016 235.572 143.332 234.989 140.122 233.676C131.478 230.176 122.96 226.457 114.589 222.537C110.157 220.458 107.039 216.994 105.561 212.564C105.452 212.254 105.361 211.944 105.27 211.634C105.197 211.379 105.105 211.124 105.032 210.868C104.923 210.522 104.832 210.157 104.722 209.811C104.613 209.41 104.504 209.009 104.412 208.608C104.376 208.498 104.358 208.389 104.321 208.261C104.23 207.878 104.139 207.477 104.066 207.094C104.048 207.076 104.048 207.04 104.048 207.022C103.956 206.584 103.865 206.128 103.792 205.691C103.719 205.308 103.665 204.925 103.592 204.56C103.555 204.396 103.537 204.232 103.519 204.086C103.446 203.649 103.391 203.229 103.355 202.792C103.3 202.391 103.263 202.008 103.227 201.607C103.19 201.206 103.154 200.786 103.136 200.385C103.136 200.276 103.117 200.185 103.117 200.075C103.099 199.692 103.081 199.291 103.081 198.89C103.081 198.471 103.063 198.052 103.081 197.632C103.081 197.577 103.081 197.505 103.081 197.45C103.081 197.031 103.099 196.593 103.117 196.174C103.136 195.718 103.172 195.28 103.209 194.825C103.318 193.475 103.5 192.126 103.774 190.795C103.811 190.577 103.865 190.358 103.92 190.121C104.066 189.446 104.212 188.79 104.412 188.115C104.467 187.896 104.54 187.678 104.595 187.441C104.668 187.222 104.722 187.003 104.795 186.784C104.923 186.347 105.069 185.891 105.233 185.453C105.324 185.216 105.397 184.961 105.507 184.724C105.744 184.086 105.999 183.43 106.273 182.792C106.364 182.573 106.473 182.354 106.564 182.135C106.656 181.916 106.765 181.698 106.874 181.479C107.495 180.148 108.206 178.835 108.99 177.523C109.118 177.304 109.245 177.085 109.391 176.866C109.519 176.647 109.665 176.429 109.811 176.21C109.938 175.991 110.084 175.772 110.23 175.554C110.814 174.678 111.434 173.803 112.091 172.946C112.911 171.871 113.805 170.777 114.753 169.701C117.544 166.511 119.787 162.955 122.286 159.546C122.377 159.637 122.45 159.728 122.541 159.82C122.705 160.002 122.887 160.184 123.052 160.366C123.307 160.64 123.562 160.913 123.781 161.205C123.854 161.296 123.927 161.406 124 161.497C124.073 161.588 124.128 161.697 124.182 161.807C126.553 166.201 128.614 170.759 131.186 175.025C131.295 175.207 131.405 175.389 131.514 175.572C132.298 176.921 132.991 178.234 133.265 179.601C133.301 179.783 133.338 179.966 133.356 180.148C133.356 180.239 133.374 180.33 133.374 180.421C133.392 180.695 133.392 180.968 133.374 181.26C133.374 181.351 133.356 181.442 133.356 181.552C133.338 181.716 133.301 181.898 133.265 182.062C133.247 182.153 133.228 182.226 133.21 182.318C133.174 182.482 133.119 182.664 133.046 182.846C132.882 183.284 132.681 183.74 132.408 184.195C132.353 184.287 132.298 184.378 132.243 184.469C132.189 184.56 132.116 184.651 132.061 184.742C131.933 184.925 131.806 185.125 131.642 185.308C131.642 185.326 131.623 185.326 131.623 185.344C131.623 185.362 131.623 185.38 131.623 185.399C131.623 185.417 131.642 185.435 131.642 185.453C131.678 185.563 131.769 185.727 131.824 185.909C133.137 185.089 134.414 184.305 136.092 183.284C136.183 183.466 136.274 183.648 136.365 183.831C136.657 184.378 136.949 184.906 137.259 185.435C137.569 185.964 137.897 186.474 138.226 186.985C138.499 187.404 138.791 187.824 139.064 188.243C139.356 188.662 139.648 189.063 139.94 189.483C140.177 189.811 140.414 190.139 140.651 190.449C140.888 190.777 141.125 191.105 141.362 191.415C141.472 191.579 141.6 191.725 141.709 191.889C141.946 192.217 142.183 192.527 142.402 192.855C142.511 193.02 142.639 193.184 142.749 193.329C142.967 193.621 143.186 193.931 143.387 194.223C145.265 196.885 146.907 199.565 147.709 202.573C149.114 203.321 150.171 203.594 150.773 204.232C151.138 204.633 151.521 205.034 151.886 205.435C152.178 205.764 152.488 206.11 152.779 206.438C153.108 206.803 153.436 207.186 153.764 207.55C154.257 208.115 154.749 208.662 155.242 209.228C155.734 209.793 156.226 210.34 156.737 210.905C157.412 211.652 158.087 212.382 158.78 213.093C161.005 215.408 163.813 217.341 162.81 221.242C162.719 221.625 163.102 222.045 163.394 222.774C164.361 221.789 165.072 221.06 165.856 220.258C166.659 220.878 167.443 221.516 168.245 222.136C168.646 222.446 169.029 222.774 169.431 223.084C170.033 223.558 170.616 224.032 171.218 224.488C171.528 224.725 171.82 224.962 172.13 225.18C172.44 225.417 172.732 225.636 173.042 225.873C173.844 226.493 174.665 227.076 175.504 227.66C177.273 228.881 177.328 230.139 176.544 232.09C173.151 240.532 169.905 249.009 166.64 257.469C163.759 264.853 167.789 274.588 174.884 276.193ZM151.193 253.184C151.558 253.02 151.922 252.856 152.287 252.71C152.342 252.51 152.396 252.327 152.433 252.127C152.451 252.018 152.469 251.926 152.488 251.817C152.506 251.708 152.524 251.58 152.542 251.471C152.561 251.361 152.579 251.234 152.579 251.106C152.597 250.96 152.597 250.814 152.597 250.668C152.597 250.395 152.597 250.103 152.579 249.83C152.561 249.556 152.524 249.265 152.488 248.991C152.469 248.845 152.433 248.718 152.415 248.572C152.36 248.298 152.287 248.007 152.214 247.733C152.05 247.186 151.849 246.639 151.576 246.129C151.521 246.001 151.448 245.873 151.375 245.746C151.339 245.655 151.284 245.563 151.229 245.491C151.175 245.399 151.12 245.29 151.047 245.199C151.047 245.181 151.029 245.162 151.01 245.162C150.956 245.089 150.901 244.998 150.846 244.907C150.627 244.597 150.409 244.287 150.153 243.996C150.08 243.904 149.989 243.813 149.916 243.722C149.861 243.667 149.807 243.594 149.752 243.558C149.661 243.467 149.588 243.376 149.497 243.303C149.405 243.212 149.296 243.102 149.205 243.029C149.095 242.92 148.986 242.829 148.858 242.738C148.621 242.555 148.384 242.373 148.129 242.209C147.892 242.045 147.618 241.881 147.345 241.735C147.071 241.589 146.797 241.461 146.506 241.334C148.238 245.655 149.697 249.429 151.193 253.184ZM122.906 198.489C122.76 198.744 122.596 199.018 122.468 199.273C122.176 199.802 121.903 200.33 121.647 200.859C121.52 201.114 121.41 201.37 121.282 201.625C121.282 201.643 121.264 201.643 121.264 201.661C121.173 201.88 121.082 202.081 120.991 202.3C120.936 202.427 120.881 202.555 120.845 202.664C120.772 202.828 120.699 202.992 120.644 203.175C120.535 203.448 120.444 203.722 120.352 203.995C120.279 204.196 120.225 204.396 120.17 204.578C120.152 204.633 120.133 204.688 120.115 204.761C120.061 204.907 120.024 205.071 119.988 205.217C119.951 205.362 119.915 205.49 119.878 205.636C119.823 205.818 119.787 206.001 119.75 206.183C119.659 206.584 119.568 206.985 119.495 207.386C119.477 207.496 119.459 207.605 119.44 207.714C119.422 207.86 119.386 208.006 119.367 208.134C119.331 208.407 119.295 208.662 119.258 208.918C119.222 209.209 119.203 209.501 119.167 209.793C119.149 210.066 119.13 210.34 119.13 210.613C119.13 210.741 119.13 210.887 119.13 211.014C119.13 211.178 119.13 211.342 119.13 211.507C119.13 211.616 119.13 211.725 119.13 211.835C119.13 212.126 119.149 212.4 119.167 212.692C119.185 212.983 119.203 213.275 119.24 213.567C119.24 213.64 119.258 213.713 119.258 213.786C119.276 214.023 119.313 214.26 119.349 214.515C119.367 214.57 119.367 214.624 119.367 214.679C119.404 214.971 119.459 215.281 119.513 215.572C119.568 215.9 119.641 216.21 119.714 216.539C119.787 216.848 119.86 217.158 119.951 217.487C119.951 217.523 119.969 217.541 119.969 217.578C120.042 217.833 120.115 218.088 120.206 218.362C120.243 218.508 120.298 218.635 120.334 218.781C120.371 218.909 120.425 219.036 120.462 219.164C120.516 219.328 120.571 219.474 120.626 219.638C120.699 219.838 120.772 220.039 120.863 220.24C121.027 220.641 121.191 221.042 121.374 221.443C121.52 221.753 121.665 222.063 121.811 222.373L121.83 222.409C122.103 222.974 122.395 223.54 122.723 224.105C123.052 224.688 123.416 225.29 123.799 225.891C123.27 221.024 122.887 216.885 122.34 212.783C121.72 208.115 122.413 203.649 125.277 199.127C125.368 198.981 125.459 198.835 125.532 198.671C125.605 198.544 125.678 198.416 125.751 198.27C126.116 197.559 126.426 196.812 126.699 196.01C126.9 195.463 127.082 194.879 127.265 194.296C127.356 194.004 127.447 193.694 127.556 193.384C127.648 193.074 127.757 192.764 127.866 192.454C127.921 192.272 127.994 192.108 128.049 191.907C128.103 191.725 128.176 191.543 128.249 191.36C128.012 191.634 127.775 191.889 127.556 192.163C127.319 192.436 127.1 192.691 126.882 192.965C126.663 193.238 126.444 193.494 126.243 193.767C126.043 194.022 125.842 194.278 125.641 194.533C125.605 194.569 125.587 194.587 125.568 194.642C125.24 195.08 124.93 195.499 124.638 195.937C124.383 196.283 124.146 196.648 123.927 196.994C123.763 197.249 123.599 197.505 123.435 197.76C123.234 197.96 123.07 198.234 122.906 198.489ZM144.919 232.819C144.627 225.053 142.42 217.487 145.43 209.392C139.958 216.247 139.739 226.858 144.919 232.819ZM138.499 260.586C138.536 260.623 138.554 260.659 138.59 260.696C138.7 260.823 138.809 260.951 138.9 261.097C138.992 261.225 139.101 261.37 139.192 261.498C139.32 261.662 139.429 261.844 139.539 262.009C139.593 262.118 139.666 262.209 139.739 262.318C139.885 262.537 140.013 262.756 140.141 262.975C140.305 263.267 140.451 263.558 140.596 263.85L140.615 263.886C140.834 264.324 141.034 264.762 141.198 265.236C141.217 265.29 141.235 265.327 141.253 265.381C141.271 265.4 141.271 265.436 141.29 265.454C141.381 265.691 141.454 265.928 141.545 266.165C141.563 266.202 141.563 266.238 141.581 266.293C141.654 266.548 141.727 266.803 141.8 267.059C142.019 267.897 142.84 268.645 143.606 269.174C147.272 271.726 150.846 274.443 154.804 276.63C159.765 279.383 165.747 278.18 172.331 277.743C170.707 276.94 169.102 276.12 167.516 275.263C167.115 275.044 166.695 274.807 166.276 274.588C165.364 274.096 164.452 273.586 163.558 273.075C162.701 272.583 161.825 272.072 160.968 271.562C160.111 271.051 159.254 270.523 158.397 269.994C157.54 269.465 156.701 268.937 155.862 268.39C155.023 267.843 154.184 267.296 153.345 266.731C152.232 265.983 151.12 265.217 150.026 264.452C148.785 263.576 147.563 262.683 146.36 261.79C145.74 261.334 145.138 260.878 144.536 260.422C143.989 260.003 143.423 259.565 142.876 259.128C142.785 259.055 142.712 259 142.621 258.927C141.472 258.016 140.323 257.086 139.174 256.138C137.988 255.172 136.821 254.169 135.672 253.166C134.651 252.273 133.63 251.361 132.608 250.45C131.094 249.082 129.599 247.678 128.122 246.238C126.644 244.798 125.185 243.357 123.745 241.881C123.015 241.133 122.304 240.386 121.593 239.638C120.17 238.125 118.784 236.612 117.398 235.062C116.705 234.296 116.03 233.512 115.337 232.728C114.936 232.273 114.553 231.799 114.151 231.343C113.805 230.923 113.44 230.504 113.094 230.085C112.638 229.538 112.2 228.991 111.744 228.444C111.379 228.006 111.033 227.569 110.668 227.131C110.285 226.657 109.902 226.183 109.537 225.709C109.154 225.235 108.771 224.761 108.406 224.269C106.966 222.427 105.561 220.568 104.194 218.672C103.738 218.052 103.282 217.414 102.826 216.794C102.497 216.338 102.187 215.882 101.859 215.445C101.166 214.442 100.473 213.439 99.7799 212.436C99.7617 212.418 99.7617 212.4 99.7434 212.382C99.0686 211.379 98.3938 210.376 97.719 209.355C96.7159 207.824 95.7128 206.274 94.7462 204.706C94.418 204.177 94.0897 203.667 93.7796 203.138C91.8646 199.984 90.0044 196.794 88.2353 193.567C87.9435 193.02 87.6517 192.491 87.3598 191.944C87.0681 191.397 86.7945 190.868 86.5027 190.339L86.4844 190.303C86.2109 189.774 85.9191 189.246 85.6455 188.699L85.6273 188.644C85.3537 188.097 85.0801 187.568 84.8065 187.021C84.533 186.474 84.2594 185.927 83.9858 185.38C83.3475 184.104 82.7274 182.81 82.1073 181.534C80.3565 177.869 78.715 174.15 77.1466 170.412C76.8365 169.665 76.5265 168.917 76.2347 168.151C74.7209 164.396 73.3166 160.604 72.0035 156.775C71.4928 155.243 70.9639 153.712 70.4897 152.18C69.9973 150.649 69.5231 149.099 69.0672 147.568C68.9942 147.367 68.9395 147.148 68.8848 146.948C68.4288 145.362 67.9729 143.794 67.5534 142.189C67.3528 141.46 67.1704 140.731 66.9698 140.002C66.751 139.145 66.5321 138.288 66.3315 137.413C65.9485 135.827 65.5837 134.259 65.2372 132.672C65.073 131.907 64.9089 131.159 64.7448 130.393C64.7448 130.339 64.7265 130.284 64.7083 130.248C64.5442 129.464 64.3983 128.698 64.2341 127.932C64.1794 127.659 64.1247 127.367 64.07 127.094C64.0517 126.984 64.0335 126.875 64.0152 126.765C63.8693 125.981 63.7235 125.216 63.5776 124.432C63.5411 124.286 63.5228 124.14 63.4864 123.994C63.3405 123.192 63.2128 122.372 63.0669 121.569C62.9028 120.567 62.7568 119.582 62.5927 118.579C62.4468 117.577 62.3009 116.592 62.1732 115.608C61.9726 114.167 61.8085 112.745 61.6443 111.305C61.5896 110.849 61.5349 110.375 61.4984 109.901C61.4255 109.299 61.3708 108.679 61.316 108.078C61.2431 107.276 61.1702 106.473 61.0972 105.671C60.933 103.684 60.8054 101.697 60.696 99.7277C60.6595 99.0713 60.6412 98.415 60.6048 97.7404C60.5683 97.0294 60.5501 96.3183 60.5318 95.6255C60.5136 95.2791 60.5136 94.951 60.5136 94.6046C60.4953 94.0941 60.4953 93.5653 60.4771 93.0549C60.4588 92.4897 60.4588 91.9062 60.4588 91.3411C60.4588 90.8488 60.4588 90.3748 60.4588 89.8825C60.4588 88.5151 60.4771 87.1478 60.5136 85.7986C60.5136 85.4158 60.5318 85.0329 60.55 84.6682C60.5865 83.629 60.623 82.5898 60.6777 81.5506C60.6959 81.0766 60.7324 80.6026 60.7507 80.1285C60.7871 79.4904 60.8236 78.8341 60.8783 78.196C60.933 77.412 60.9878 76.628 61.0607 75.8623C61.0789 75.7347 61.0789 75.6253 61.0972 75.5159C61.1519 74.8778 61.2066 74.2397 61.2796 73.6198C61.2978 73.474 61.2978 73.3281 61.316 73.1822C61.389 72.4894 61.4619 71.7966 61.5349 71.1038C61.5349 71.0309 61.5531 70.958 61.5531 70.885C61.7355 69.2989 61.9361 67.7309 62.1732 66.163C62.1732 66.163 62.1732 66.1448 62.1732 66.1266C62.2827 65.4155 62.3921 64.7045 62.5015 63.9934C62.5197 63.8476 62.538 63.72 62.5745 63.5741C62.6656 63.0089 62.7569 62.4255 62.8663 61.8603C63.0304 60.9305 63.1946 59.9825 63.3769 59.0526C63.1398 58.9432 62.9028 58.8339 62.6657 58.7245C62.3739 59.1985 62.0638 59.6725 61.7538 60.1648C61.4619 60.6388 61.1519 61.1128 60.8419 61.5868C60.5318 62.0609 60.2218 62.5349 59.9117 63.0272C59.6017 63.5012 59.3099 63.9752 59.0181 64.4675C58.6351 65.0691 58.2703 65.689 57.9238 66.3089C57.7779 66.5641 57.632 66.8194 57.4861 67.0746C57.3219 67.3663 57.176 67.658 57.0119 67.9497C57.0119 67.968 57.0119 67.968 56.9937 67.9862C56.9207 68.1138 56.866 68.2414 56.8113 68.3873C56.8113 68.3873 56.8113 68.3873 56.8113 68.4055C56.7565 68.5514 56.7018 68.6972 56.6471 68.8431C56.6106 68.9342 56.5742 69.0436 56.5559 69.153C56.5195 69.2989 56.483 69.4447 56.4465 69.6088C56.3918 69.8641 56.3371 70.1375 56.3188 70.411C56.2823 70.6116 56.2823 70.8303 56.2641 71.0491C56.2459 71.2679 56.2459 71.4685 56.2277 71.6872C56.2094 72.1066 56.2094 72.5259 56.2277 72.927C56.2277 73.1822 56.2459 73.4557 56.2641 73.711C56.2641 73.9662 56.3006 74.2397 56.3188 74.4949C56.3553 75.0054 56.41 75.5341 56.4647 76.0446C56.5012 76.464 56.5559 76.8833 56.5924 77.2844C56.6471 77.9043 56.7201 78.5241 56.7565 79.144C56.7748 79.5634 56.8113 79.9827 56.8113 80.3838C56.8113 80.8031 56.8113 81.2042 56.793 81.6235C56.7748 82.0429 56.7383 82.444 56.6836 82.8633C56.3006 85.9262 54.4951 88.9709 53.6926 92.0521C52.9995 94.8051 52.3247 97.7039 52.5071 100.384C53.7108 117.978 57.5043 134.879 63.5228 151.087C65.8026 157.231 68.7024 163.192 72.1311 168.771C75.0127 173.493 77.4749 178.234 78.478 183.74C78.5145 183.977 78.5692 184.214 78.6056 184.432C78.6421 184.651 78.6968 184.852 78.7333 185.052C78.8063 185.38 78.8792 185.709 78.9704 186.037C79.0069 186.183 79.0434 186.31 79.0798 186.456C79.2075 186.93 79.3534 187.386 79.5175 187.842C79.7181 188.389 79.937 188.899 80.1923 189.41C80.8854 190.741 81.5967 192.072 82.3079 193.402C82.928 194.533 83.5299 195.663 84.1682 196.794C84.6424 197.65 85.0983 198.489 85.5908 199.346C86.1561 200.33 86.7033 201.315 87.2687 202.3C88.3994 204.25 89.5484 206.201 90.7157 208.134C91.2993 209.1 91.8829 210.066 92.4847 211.014C93.6702 212.929 94.8921 214.843 96.1323 216.721C98.1932 219.875 100.327 222.974 102.516 226.037C102.844 226.493 103.172 226.949 103.519 227.405C103.756 227.715 103.975 228.043 104.212 228.353C104.978 229.41 105.762 230.449 106.564 231.489C107.476 232.692 108.406 233.877 109.355 235.062C113.13 239.802 117.106 244.397 121.319 248.863C121.483 249.046 121.665 249.21 121.83 249.392C121.848 249.41 121.884 249.447 121.903 249.465C122.048 249.611 122.213 249.757 122.377 249.903C122.541 250.048 122.687 250.176 122.869 250.322C122.906 250.358 122.942 250.377 122.979 250.413C123.161 250.559 123.362 250.705 123.544 250.851C123.708 250.978 123.891 251.106 124.055 251.215C124.237 251.343 124.438 251.471 124.62 251.58C124.839 251.726 125.076 251.853 125.313 251.999C125.514 252.109 125.714 252.218 125.915 252.327C126.043 252.4 126.17 252.455 126.316 252.528C126.371 252.546 126.444 252.583 126.499 252.601C126.644 252.674 126.809 252.747 126.954 252.801C127.137 252.874 127.319 252.966 127.502 253.038C128.049 253.275 128.596 253.531 129.125 253.786C129.471 253.95 129.836 254.132 130.183 254.315C131.113 254.789 132.025 255.299 132.882 255.846C133.137 256.01 133.392 256.174 133.648 256.338C133.812 256.448 133.976 256.557 134.158 256.685C134.286 256.776 134.414 256.867 134.541 256.958C134.706 257.068 134.87 257.195 135.034 257.323C135.271 257.505 135.526 257.706 135.763 257.906C136.529 258.544 137.241 259.219 137.897 259.93C138.116 260.112 138.317 260.349 138.499 260.586ZM139.21 264.105C136.311 261.571 133.429 259.055 130.547 256.521C130.237 256.812 129.927 257.104 129.617 257.396C132.481 259.948 135.326 262.501 138.189 265.071C138.536 264.743 138.864 264.415 139.21 264.105ZM106.291 255.409C106.036 255.591 105.78 255.773 105.525 255.956C106.765 256.63 108.023 257.286 109.628 258.143C109.428 257.323 109.337 256.977 109.191 256.393C119.659 258.563 126.973 265.017 135.8 269.265C135.618 269.247 135.435 269.228 135.253 269.21C135.089 269.192 134.924 269.174 134.76 269.155C134.377 269.119 133.994 269.046 133.611 268.991C133.465 268.973 133.32 268.937 133.174 268.9C132.517 268.773 131.879 268.608 131.24 268.426C131.022 268.371 130.821 268.298 130.62 268.244C128.997 267.733 127.465 267.077 125.988 266.329C125.714 266.202 125.441 266.056 125.185 265.928C125.149 265.91 125.131 265.892 125.112 265.892C124.821 265.746 124.529 265.582 124.237 265.436C123.945 265.272 123.653 265.126 123.362 264.962C123.325 264.944 123.307 264.926 123.27 264.926C123.015 264.78 122.742 264.634 122.486 264.488C121.903 264.178 121.337 263.85 120.754 263.54C120.334 263.321 119.915 263.084 119.477 262.865C119.057 262.647 118.62 262.428 118.2 262.209C117.763 261.99 117.325 261.79 116.887 261.589C116.668 261.48 116.449 261.389 116.212 261.297C115.993 261.206 115.775 261.115 115.538 261.024C115.319 260.933 115.082 260.842 114.844 260.751C114.626 260.659 114.389 260.586 114.17 260.495C114.717 260.878 115.246 261.261 115.811 261.626C116.905 262.373 118.036 263.102 119.167 263.813C119.678 264.123 120.188 264.433 120.681 264.743C120.79 264.816 120.918 264.871 121.027 264.944C121.483 265.217 121.939 265.473 122.395 265.728C122.577 265.819 122.742 265.928 122.906 266.02C123.38 266.275 123.836 266.53 124.292 266.767C124.839 267.059 125.368 267.332 125.915 267.624C126.134 267.733 126.353 267.843 126.553 267.934C127.41 268.353 128.268 268.772 129.143 269.174C129.526 269.356 129.927 269.52 130.31 269.702C130.62 269.83 130.949 269.976 131.259 270.122C132.134 270.486 132.991 270.833 133.885 271.179C134.633 271.471 135.38 271.744 136.146 272.018C136.621 272.182 137.095 272.346 137.569 272.51C138.061 272.674 138.572 272.838 139.064 273.002C140.578 273.476 142.11 273.914 143.679 274.315C142.749 273.476 141.818 272.619 140.888 271.762C140.323 271.252 139.794 270.742 139.229 270.231C127.429 259.219 115.957 247.824 97.7555 244.16C99.9076 248.207 104.96 250.687 106.291 255.409ZM69.8514 202.901C69.9426 202.974 70.0155 203.029 70.0885 203.102C70.125 203.138 70.1614 203.175 70.1979 203.211C70.3438 203.357 70.4533 203.521 70.5262 203.703C71.6935 206.183 72.4959 208.863 73.8455 211.251C74.3379 212.108 74.8304 212.965 75.341 213.804C75.724 214.442 76.1253 215.062 76.5265 215.682C77.7302 217.56 78.9886 219.401 80.2653 221.224C82.4356 224.287 84.6424 227.35 86.8492 230.376C89.056 233.421 91.281 236.448 93.5061 239.492C93.3784 239.656 93.269 239.82 93.1595 239.966C90.3691 238.654 87.5787 237.341 84.7883 236.028C85.9738 237.669 87.6334 238.745 89.2384 239.893C91.7187 241.662 95.0928 241.206 97.9379 241.972C103.628 243.485 109.045 245.6 114.826 247.569C108.644 240.021 102.443 232.856 96.7707 225.344C91.0986 217.833 85.992 209.939 80.1923 201.57C80.6118 206.219 80.9948 210.486 81.3778 214.642C81.5055 216.028 81.6331 217.414 81.7608 218.781C81.4872 218.817 81.2319 218.872 80.9583 218.909C80.6118 216.447 80.2653 213.968 79.9188 211.507C79.6087 209.228 79.2804 206.967 78.9339 204.706C78.6604 202.865 78.3868 201.023 78.095 199.182C77.8214 197.413 77.2743 195.681 76.5448 194.077C72.2953 184.633 67.6993 175.353 63.7782 165.781C62.465 162.573 61.0789 159.473 59.2187 156.702C58.9086 156.246 58.5986 155.79 58.2521 155.353C57.7414 154.678 57.2125 154.04 56.6289 153.42C56.2459 153.001 55.8447 152.6 55.4252 152.217C55.1151 151.925 54.7868 151.633 54.4403 151.36C54.0938 151.087 53.7473 150.813 53.3825 150.54C53.2549 150.448 53.1089 150.339 52.963 150.248C52.7807 150.12 52.6165 150.011 52.4342 149.901C51.9053 149.573 51.3581 149.282 50.7745 149.063C49.6985 148.643 48.513 148.479 47.1998 148.771C47.0175 148.808 46.8351 148.844 46.6527 148.917C46.5615 148.935 46.4703 148.972 46.3791 149.008C46.2879 149.045 46.1785 149.081 46.0873 149.118C46.0144 149.136 45.9414 149.172 45.8685 149.209C45.7408 149.263 45.6132 149.318 45.4855 149.373C46.5433 148.844 47.8017 147.75 48.5859 147.914C48.8777 147.969 49.1696 148.042 49.4614 148.133C49.662 148.188 49.8626 148.242 50.0814 148.297C50.3915 148.388 50.6833 148.479 50.9751 148.589C51.7594 148.862 52.5253 149.172 53.2549 149.5C53.7473 149.719 54.2397 149.956 54.7139 150.211C54.8963 150.303 55.0604 150.394 55.2246 150.503C55.2428 150.503 55.2428 150.521 55.261 150.521C55.4069 150.613 55.5528 150.704 55.6805 150.795C55.8629 150.922 56.0635 151.05 56.2277 151.196C56.3553 151.287 56.483 151.378 56.5924 151.488C56.793 151.652 56.9936 151.816 57.2125 151.998C57.5408 152.272 57.8873 152.563 58.2521 152.837C58.4344 152.983 58.6168 153.11 58.7992 153.274C58.5439 152.272 58.2885 151.287 58.0332 150.303C57.7779 149.318 57.5225 148.334 57.2672 147.349C57.0119 146.365 56.7565 145.398 56.5012 144.432C56.1912 143.229 55.8629 142.025 55.5711 140.822C55.4434 140.33 55.3158 139.838 55.1881 139.345C54.7686 137.686 54.3491 136.027 53.9661 134.368C53.8567 133.894 53.7473 133.42 53.6378 132.946C53.419 131.998 53.2001 131.032 52.9995 130.065C52.653 128.37 52.3065 126.656 52.0147 124.942C51.887 124.268 51.7776 123.575 51.6499 122.9C50.9021 118.579 50.2638 114.24 49.5526 109.919C49.4066 108.953 49.2425 107.987 49.0784 107.039V107.057C48.896 107.695 48.7318 108.315 48.5677 108.953C48.4765 109.354 48.3671 109.755 48.2759 110.156C48.1482 110.667 48.0388 111.195 47.9111 111.706C47.674 112.745 47.4552 113.784 47.2363 114.824C46.908 116.391 46.5615 117.941 46.1785 119.491C46.0691 119.892 45.9597 120.311 45.8503 120.749C45.8138 120.895 45.759 121.041 45.7226 121.205C45.6679 121.405 45.5949 121.588 45.5402 121.77C45.4673 121.952 45.4125 122.153 45.3213 122.335C45.2484 122.517 45.1754 122.7 45.0843 122.9C44.9748 123.137 44.8472 123.374 44.7377 123.611C44.6101 123.848 44.4824 124.067 44.3365 124.286C44.2818 124.377 44.2271 124.45 44.1724 124.523C44.1176 124.596 44.0629 124.687 43.99 124.76C43.9353 124.833 43.8623 124.906 43.8076 124.979C43.7346 125.052 43.6799 125.125 43.607 125.197C43.5158 125.289 43.4428 125.38 43.3699 125.471C43.2969 125.562 43.224 125.635 43.151 125.726C43.0051 125.89 42.8957 126.054 42.8045 126.237C42.7498 126.31 42.7133 126.401 42.6768 126.474C42.5856 126.638 42.5309 126.784 42.4762 126.948C42.4215 127.112 42.385 127.258 42.3668 127.422C42.3486 127.495 42.3485 127.568 42.3303 127.64C42.3303 127.732 42.3121 127.805 42.3121 127.896C42.3121 127.969 42.3121 128.06 42.3121 128.133C42.3121 128.206 42.3121 128.297 42.3303 128.37C42.3485 128.625 42.385 128.862 42.4397 129.135C43.607 135.28 44.7195 141.424 45.8503 147.477L42.7315 149.008C43.8441 149.154 44.6648 149.263 45.4855 149.355C45.4855 149.355 45.4855 149.355 45.5037 149.355C45.9232 149.683 46.5615 149.92 46.7074 150.339C46.9263 151.032 47.1634 151.725 47.364 152.436C47.5829 153.128 47.7835 153.84 47.9841 154.532C48.4036 155.936 48.8048 157.34 49.2607 158.726C49.3155 158.89 49.3702 159.036 49.4249 159.181C50.5191 162.5 51.6682 165.818 52.8171 169.154C53.2184 170.321 53.6196 171.488 54.0208 172.673C53.2001 172.873 52.5253 173.056 51.9052 173.22C51.8141 173.238 51.7229 173.256 51.6499 173.293C51.8505 173.475 52.0694 173.676 52.2883 173.84C52.5071 174.022 52.7259 174.186 52.9266 174.368C53.0542 174.46 53.1637 174.569 53.2913 174.66C53.3825 174.733 53.4737 174.806 53.5649 174.879C53.9661 175.207 54.3491 175.517 54.7139 175.845C54.9328 176.046 55.1334 176.246 55.334 176.447C55.6805 176.812 55.9723 177.213 56.1912 177.632C58.7992 182.573 61.1701 187.605 63.5593 192.655C64.2341 194.077 64.9089 195.499 65.5837 196.921C65.6384 197.031 65.6749 197.14 65.7114 197.231C65.7479 197.34 65.7661 197.45 65.8026 197.559C65.8573 197.778 65.8755 197.96 65.912 198.106C65.2919 197.851 64.6901 197.614 64.1064 197.377C63.5228 197.14 62.9574 196.921 62.3921 196.684C62.2097 196.976 62.0091 197.268 61.8267 197.559C61.7173 197.742 61.6079 197.906 61.4984 198.088C64.2341 200.859 66.9698 203.612 69.6873 206.383C69.8879 206.238 70.0703 206.11 70.2709 205.982L68.3741 202.099C68.9942 202.391 69.4684 202.609 69.8514 202.901Z" fill="#010202"/>
<path d="M129.307 145.818C122.924 129.992 119.057 113.474 119.222 95.8444C119.295 88.4423 119.951 81.0584 123.125 73.7657C123.416 73.0911 123.781 72.4348 124.219 71.8149C124.255 71.742 124.31 71.6873 124.346 71.6144C137.004 53.2914 155.789 67.1111 155.935 67.2387C164.506 70.8304 171.565 76.227 177.857 82.4622C193.833 98.3421 204.995 117.121 213.22 137.632C218.746 151.415 222.394 165.781 223.069 180.987C223.452 189.701 222.795 198.434 219.312 207.131C217.542 211.561 214.934 215.572 210.776 218.799C206.581 222.026 202.241 223.175 197.408 221.862C185.626 218.69 176.252 212.473 168.099 204.779C150.39 188.042 138.226 167.914 129.307 145.818ZM144.007 162.08C144.335 162.718 145.794 163.211 146.724 163.083C151.776 162.354 155.077 164.323 157.448 167.696C160.221 171.652 161.734 176.119 158.725 181.005C157.357 183.229 157.248 184.451 158.926 185.927C160.056 186.93 160.968 188.17 162.227 189.592C163.558 187.732 164.744 186.073 166.421 183.74C167.042 187.714 167.297 191.051 168.172 194.168C168.811 196.447 169.832 198.817 171.455 200.513C178.732 208.006 186.903 214.497 197.408 218.508C205.013 221.425 210.831 217.869 213.785 212.874C216.339 208.553 218.236 203.722 219.184 199.054C221.537 187.514 220.041 176.374 217.542 165.544C210.138 133.712 195.839 105.38 172.987 81.5324C167.771 76.0994 161.917 71.2862 155.15 67.3846H155.132C154.84 67.2023 154.53 67.0382 154.239 66.8741C154.166 66.8376 154.111 66.8012 154.038 66.7647C153.819 66.6371 153.6 66.5277 153.363 66.4001C153.254 66.3454 153.144 66.2907 153.053 66.236C146.56 64.3034 131.222 61.2952 124.802 73.5287C131.842 72.9817 133.228 73.4922 133.867 79.6546C135.253 93.0367 143.496 102.645 151.886 113.219C152.178 110.977 152.214 109.463 152.597 107.987C153.381 104.906 154.02 101.733 155.387 98.7979C156.008 97.467 158.397 95.7714 159.765 95.7714C161.406 95.7897 163.376 97.1206 164.123 98.4697C164.981 100.001 164.871 102.153 164.762 104.049C164.616 106.656 163.832 109.336 163.777 111.925C163.722 114.678 164.178 117.376 164.123 120.275C163.649 118.379 162.792 116.537 162.792 114.587C162.792 111.615 163.54 108.552 163.668 105.544C163.759 103.447 163.74 101.223 163.029 99.3631C162.591 98.178 160.841 96.7924 159.619 96.8836C158.506 96.9747 156.628 98.8344 156.245 100.074C155.169 103.611 154.658 107.239 153.983 110.831C153.71 112.344 153.6 113.857 153.4 115.352C153.108 115.516 152.816 115.662 152.524 115.826C151.302 114.751 149.88 113.821 148.877 112.599C140.688 102.554 133.465 92.0157 131.24 78.8888C130.62 75.2242 129.581 74.969 126.261 75.7712C124.255 76.2452 123.963 77.3391 123.708 78.7977C121.757 90.5571 123.143 101.77 125.35 112.909C126.699 119.783 132.189 123.721 136.73 128.424C139.065 130.849 140.943 133.712 142.584 136.611C143.15 137.613 142.931 139.856 142.092 140.585C141.18 141.351 139.028 141.278 137.605 141.041C136.183 140.786 134.997 139.874 133.703 139.254C133.447 139.418 133.192 139.564 132.918 139.728C136.621 147.185 140.232 154.678 144.007 162.08Z" fill="#AA3B17"/>
<path d="M55.0422 174.678C60.5136 180.677 65.9668 186.675 71.4199 192.673C67.7723 185.308 63.1399 178.671 55.9906 173.949C55.6806 174.186 55.3705 174.423 55.0422 174.678Z" fill="#010202"/>
</svg>
